<svg width="267" height="267" viewBox="0 0 267 267" fill="none" xmlns="http://www.w3.org/2000/svg">
<path d="M240.247 212.794H222.561V212.927H240.247V212.794Z" fill="#EBEBEB"/>
<path d="M176.871 214.246H172.231V214.38H176.871V214.246Z" fill="#EBEBEB"/>
<path d="M222.027 207.838H211.779V207.972H222.027V207.838Z" fill="#EBEBEB"/>
<path d="M51.0771 208.735H28.0137V208.869H51.0771V208.735Z" fill="#EBEBEB"/>
<path d="M59.2152 208.735H55.835V208.869H59.2152V208.735Z" fill="#EBEBEB"/>
<path d="M70.2028 210.873L70.2021 211.006L120.227 211.233L120.227 211.1L70.2028 210.873Z" fill="#EBEBEB"/>
<path d="M127.306 180.385H24.1903C23.3816 180.385 22.606 180.064 22.0342 179.492C21.4624 178.92 21.1411 178.145 21.1411 177.336V32.3924C21.1482 31.5884 21.4725 30.8197 22.0436 30.2536C22.6146 29.6875 23.3862 29.37 24.1903 29.37H127.306C127.706 29.37 128.103 29.4489 128.473 29.6021C128.842 29.7553 129.179 29.9799 129.462 30.2631C129.745 30.5462 129.969 30.8823 130.123 31.2523C130.276 31.6222 130.355 32.0187 130.355 32.4191V177.336C130.355 177.736 130.276 178.133 130.123 178.503C129.969 178.873 129.745 179.209 129.462 179.492C129.179 179.775 128.842 180 128.473 180.153C128.103 180.306 127.706 180.385 127.306 180.385ZM24.1903 29.4768C23.4174 29.4782 22.6766 29.7858 22.1301 30.3323C21.5837 30.8788 21.276 31.6196 21.2746 32.3924V177.336C21.276 178.109 21.5837 178.85 22.1301 179.396C22.6766 179.943 23.4174 180.25 24.1903 180.252H127.306C128.078 180.25 128.819 179.943 129.366 179.396C129.912 178.85 130.22 178.109 130.221 177.336V32.3924C130.22 31.6196 129.912 30.8788 129.366 30.3323C128.819 29.7858 128.078 29.4782 127.306 29.4768H24.1903Z" fill="#EBEBEB"/>
<path d="M242.81 180.385H139.694C138.886 180.385 138.11 180.064 137.538 179.492C136.967 178.92 136.645 178.145 136.645 177.336V32.3924C136.652 31.5884 136.977 30.8197 137.548 30.2536C138.119 29.6875 138.89 29.37 139.694 29.37H242.81C243.618 29.37 244.394 29.6912 244.966 30.2631C245.538 30.8349 245.859 31.6105 245.859 32.4191V177.336C245.859 178.145 245.538 178.92 244.966 179.492C244.394 180.064 243.618 180.385 242.81 180.385ZM139.694 29.4768C138.922 29.4782 138.181 29.7858 137.634 30.3323C137.088 30.8788 136.78 31.6196 136.779 32.3924V177.336C136.78 178.109 137.088 178.85 137.634 179.396C138.181 179.943 138.922 180.25 139.694 180.252H242.81C243.583 180.25 244.323 179.943 244.87 179.396C245.416 178.85 245.724 178.109 245.725 177.336V32.3924C245.724 31.6196 245.416 30.8788 244.87 30.3323C244.323 29.7858 243.583 29.4782 242.81 29.4768H139.694Z" fill="#EBEBEB"/>
<path d="M267 204.202H0V204.335H267V204.202Z" fill="#EBEBEB"/>
<path d="M223.714 160.221H147.16C141.359 160.221 136.656 164.924 136.656 170.725V193.511C136.656 199.312 141.359 204.015 147.16 204.015H223.714C229.515 204.015 234.218 199.312 234.218 193.511V170.725C234.218 164.924 229.515 160.221 223.714 160.221Z" fill="#E0E0E0"/>
<path d="M218.571 160.542H142.017C136.216 160.542 131.513 165.244 131.513 171.046V193.831C131.513 199.632 136.216 204.335 142.017 204.335H218.571C224.373 204.335 229.075 199.632 229.075 193.831V171.046C229.075 165.244 224.373 160.542 218.571 160.542Z" fill="#F5F5F5"/>
<path d="M143.897 164.67H217.269C219.215 164.67 221.081 165.443 222.457 166.819C223.833 168.195 224.606 170.061 224.606 172.007V181.026H136.56V172.007C136.56 171.043 136.75 170.089 137.118 169.199C137.487 168.309 138.028 167.5 138.709 166.819C139.39 166.137 140.199 165.597 141.089 165.228C141.979 164.859 142.933 164.67 143.897 164.67Z" fill="#E0E0E0"/>
<path d="M136.56 183.221H224.606V192.24C224.606 194.186 223.833 196.052 222.457 197.428C221.081 198.804 219.215 199.577 217.269 199.577H143.897C142.933 199.577 141.979 199.387 141.089 199.019C140.199 198.65 139.39 198.109 138.709 197.428C138.028 196.747 137.487 195.938 137.118 195.048C136.75 194.158 136.56 193.203 136.56 192.24V183.221Z" fill="#E0E0E0"/>
<path d="M201.222 167.836H188.742V181.117H201.222V167.836Z" fill="#E6E6E6"/>
<path d="M188.742 167.836H185.544V181.117H188.742V167.836Z" fill="#F5F5F5"/>
<path d="M204.49 165.786H195.118V181.117H204.49V165.786Z" fill="#E6E6E6"/>
<path d="M195.124 165.786H192.411V181.117H195.124V165.786Z" fill="#F5F5F5"/>
<path d="M205.782 167.836H197.879V181.117H205.782V167.836Z" fill="#EBEBEB"/>
<path d="M197.879 167.836H196.074V181.117H197.879V167.836Z" fill="#F5F5F5"/>
<path d="M214.716 170.084H204.351V181.122H214.716V170.084Z" fill="#E6E6E6"/>
<path d="M204.346 170.084H201.692V181.122H204.346V170.084Z" fill="#F5F5F5"/>
<path d="M217.429 168.381H209.643V181.117H217.429V168.381Z" fill="#E6E6E6"/>
<path d="M209.648 168.381H207.395V181.117H209.648V168.381Z" fill="#F5F5F5"/>
<path d="M219.506 170.084H211.939V181.122H219.506V170.084Z" fill="#E6E6E6"/>
<path d="M211.939 170.084H210.439V181.122H211.939V170.084Z" fill="#F0F0F0"/>
<path d="M162.389 185.773H149.91V199.054H162.389V185.773Z" fill="#E6E6E6"/>
<path d="M149.915 185.773H146.717V199.054H149.915V185.773Z" fill="#F5F5F5"/>
<path d="M165.657 183.723H156.286V199.054H165.657V183.723Z" fill="#E6E6E6"/>
<path d="M156.291 183.723H153.584V199.054H156.291V183.723Z" fill="#F5F5F5"/>
<path d="M204.96 185.773H192.48V199.054H204.96V185.773Z" fill="#E6E6E6"/>
<path d="M192.486 185.773H189.287V199.054H192.486V185.773Z" fill="#F5F5F5"/>
<path d="M208.228 183.723H198.856V199.054H208.228V183.723Z" fill="#E6E6E6"/>
<path d="M198.862 183.723H196.149V199.054H198.862V183.723Z" fill="#F5F5F5"/>
<path d="M166.955 185.773H159.052V199.054H166.955V185.773Z" fill="#EBEBEB"/>
<path d="M159.047 185.773H157.242V199.054H159.047V185.773Z" fill="#F5F5F5"/>
<path d="M175.883 188.021H165.519V199.059H175.883V188.021Z" fill="#E6E6E6"/>
<path d="M165.519 188.021H162.865V199.059H165.519V188.021Z" fill="#F5F5F5"/>
<path d="M178.602 186.318H170.816V199.054H178.602V186.318Z" fill="#E6E6E6"/>
<path d="M170.821 186.318H168.568V199.054H170.821V186.318Z" fill="#F5F5F5"/>
<path d="M180.679 188.021H173.112V199.059H180.679V188.021Z" fill="#E6E6E6"/>
<path d="M173.107 188.021H171.606V199.059H173.107V188.021Z" fill="#F0F0F0"/>
<path d="M162.288 168.242C162.158 167.986 161.949 167.779 161.693 167.65C161.436 167.521 161.145 167.478 160.862 167.526C160.578 167.596 160.323 167.752 160.132 167.973C159.94 168.194 159.822 168.469 159.794 168.76C159.6 168.616 159.366 168.535 159.125 168.529C158.883 168.522 158.645 168.59 158.443 168.723C158.241 168.869 158.084 169.07 157.99 169.301C157.895 169.532 157.867 169.785 157.909 170.031C157.796 169.95 157.666 169.893 157.53 169.865C157.393 169.837 157.252 169.838 157.116 169.867C156.979 169.897 156.851 169.955 156.738 170.037C156.626 170.12 156.531 170.225 156.462 170.346C156.329 170.603 156.301 170.901 156.384 171.178C156.467 171.455 156.654 171.689 156.905 171.831C156.727 171.85 156.562 171.936 156.444 172.071C156.326 172.206 156.263 172.381 156.267 172.561C156.272 172.74 156.344 172.911 156.469 173.04C156.594 173.169 156.763 173.246 156.943 173.256C156.763 173.268 156.594 173.342 156.464 173.466C156.334 173.59 156.252 173.756 156.232 173.934C156.213 174.114 156.255 174.295 156.352 174.447C156.449 174.6 156.595 174.715 156.766 174.773C156.682 174.822 156.61 174.889 156.555 174.969C156.499 175.05 156.463 175.141 156.448 175.238C156.433 175.334 156.44 175.432 156.469 175.526C156.497 175.619 156.546 175.705 156.612 175.777C156.687 175.836 156.775 175.875 156.869 175.892C156.963 175.909 157.06 175.902 157.151 175.873C157.242 175.845 157.324 175.794 157.391 175.726C157.458 175.658 157.508 175.575 157.535 175.483C157.549 175.509 157.568 175.532 157.592 175.55C157.616 175.567 157.643 175.579 157.673 175.584C157.702 175.588 157.732 175.586 157.76 175.577C157.788 175.568 157.813 175.552 157.834 175.531C157.854 175.508 157.869 175.481 157.877 175.451C157.885 175.422 157.886 175.391 157.881 175.361C157.876 175.331 157.865 175.303 157.847 175.277C157.83 175.252 157.807 175.231 157.781 175.216C157.824 175.265 157.88 175.301 157.943 175.32C158.005 175.339 158.072 175.34 158.135 175.323C158.198 175.307 158.255 175.273 158.3 175.226C158.345 175.179 158.376 175.12 158.39 175.056C158.369 175.208 158.389 175.362 158.446 175.504C158.503 175.646 158.597 175.771 158.717 175.866C158.837 175.96 158.98 176.022 159.132 176.045C159.283 176.068 159.438 176.051 159.581 175.996C159.55 176.066 159.536 176.142 159.537 176.219C159.539 176.295 159.557 176.37 159.591 176.439C159.624 176.508 159.672 176.569 159.731 176.618C159.79 176.667 159.859 176.702 159.933 176.722C160.231 176.771 160.536 176.71 160.793 176.551C161.047 176.391 161.337 176.294 161.636 176.268C161.896 176.301 162.15 176.371 162.389 176.476C162.791 176.599 163.219 176.608 163.626 176.501C164.032 176.395 164.401 176.177 164.691 175.873C164.8 175.997 164.938 176.093 165.094 176.149C165.249 176.206 165.416 176.223 165.58 176.198C165.743 176.173 165.898 176.107 166.029 176.006C166.16 175.905 166.264 175.773 166.33 175.622C166.362 175.775 166.441 175.915 166.558 176.019C166.674 176.124 166.821 176.189 166.976 176.204C167.134 176.206 167.287 176.156 167.413 176.062C167.54 175.969 167.632 175.837 167.676 175.686V176.103C167.822 176.115 167.968 176.09 168.101 176.031C168.235 175.972 168.352 175.881 168.441 175.765C168.529 175.649 168.588 175.512 168.61 175.368C168.632 175.223 168.618 175.076 168.568 174.938C168.778 174.93 168.978 174.848 169.134 174.706C169.289 174.565 169.389 174.373 169.417 174.164C169.441 173.954 169.391 173.741 169.276 173.563C169.161 173.385 168.988 173.252 168.787 173.187C169.129 173.073 169.427 172.856 169.64 172.564C169.852 172.273 169.969 171.922 169.972 171.562C169.976 171.201 169.866 170.848 169.66 170.553C169.453 170.257 169.159 170.034 168.819 169.913C168.69 169.863 168.55 169.847 168.412 169.865C168.275 169.884 168.145 169.937 168.034 170.02C167.981 170.066 167.938 170.123 167.909 170.187C167.88 170.251 167.864 170.321 167.864 170.391C167.864 170.462 167.88 170.531 167.909 170.595C167.938 170.659 167.981 170.716 168.034 170.763C168.126 170.433 168.111 170.083 167.99 169.763C167.869 169.443 167.648 169.17 167.361 168.984C167.067 168.827 166.726 168.779 166.4 168.848C166.074 168.918 165.782 169.1 165.577 169.363C165.675 169.218 165.727 169.047 165.727 168.872C165.727 168.697 165.675 168.526 165.577 168.381C165.482 168.241 165.344 168.136 165.184 168.082C165.024 168.028 164.851 168.028 164.691 168.082C164.651 167.862 164.53 167.665 164.352 167.53C164.174 167.395 163.952 167.331 163.73 167.35C163.509 167.4 163.314 167.528 163.18 167.71C163.047 167.893 162.984 168.118 163.003 168.344C162.986 168.256 162.943 168.176 162.879 168.113C162.816 168.05 162.735 168.007 162.647 167.991C162.559 167.974 162.469 167.984 162.387 168.019C162.305 168.055 162.235 168.114 162.186 168.189C161.973 168.114 162.288 168.242 162.288 168.242Z" fill="#EBEBEB"/>
<path d="M162.448 172.482C162.361 172.418 162.262 172.371 162.156 172.345C162.051 172.32 161.941 172.315 161.834 172.333C161.728 172.353 161.631 172.403 161.552 172.477C161.474 172.551 161.418 172.645 161.391 172.749C161.369 172.855 161.387 172.965 161.443 173.058C161.498 173.151 161.586 173.22 161.69 173.251C161.941 173.315 162.197 173.107 162.453 173.139C162.546 173.162 162.637 173.19 162.726 173.224C162.92 173.245 163.117 173.222 163.302 173.158C163.487 173.093 163.655 172.988 163.794 172.851C163.908 172.775 164.007 172.679 164.088 172.567C164.127 172.512 164.151 172.447 164.157 172.38C164.163 172.312 164.15 172.244 164.12 172.183C164.057 172.113 163.977 172.061 163.888 172.032C163.799 172.003 163.704 171.998 163.612 172.017C163.233 172.062 162.874 172.212 162.576 172.45C162.576 172.391 162.576 172.333 162.576 172.274L162.448 172.482Z" fill="#FAFAFA"/>
<path d="M167.857 172.183C167.761 172.105 167.65 172.047 167.532 172.012C167.462 171.987 167.386 171.989 167.318 172.018C167.25 172.047 167.195 172.101 167.165 172.168C167.134 172.235 167.131 172.312 167.154 172.382C167.178 172.452 167.227 172.511 167.291 172.546C167.43 172.642 167.593 172.698 167.761 172.706C167.938 172.733 168.151 172.744 168.237 172.589C168.261 172.531 168.266 172.466 168.252 172.405C168.238 172.344 168.204 172.288 168.156 172.247C168.058 172.168 167.943 172.111 167.82 172.082L167.857 172.183Z" fill="#FAFAFA"/>
<path d="M159.308 169.369C159.137 169.443 158.985 169.557 158.866 169.701C158.746 169.845 158.662 170.014 158.619 170.197C158.599 170.249 158.595 170.306 158.609 170.361C158.622 170.415 158.652 170.464 158.694 170.501C158.731 170.517 158.771 170.525 158.812 170.525C158.852 170.525 158.892 170.517 158.929 170.501L159.917 170.266C159.757 170.32 159.607 170.401 159.474 170.506C159.407 170.559 159.355 170.629 159.325 170.709C159.295 170.789 159.288 170.876 159.303 170.96C159.336 171.054 159.398 171.135 159.481 171.19C159.564 171.245 159.663 171.271 159.762 171.265C159.957 171.248 160.143 171.173 160.296 171.051C160.388 170.997 160.466 170.923 160.526 170.836C160.586 170.748 160.626 170.648 160.643 170.544C160.643 170.33 160.376 170.132 160.216 170.266C160.596 170.165 160.957 170.003 161.284 169.785C161.404 169.71 161.507 169.612 161.589 169.497C161.629 169.438 161.653 169.369 161.658 169.298C161.664 169.227 161.651 169.156 161.621 169.091C161.284 168.477 160.857 169.379 160.649 169.46C160.259 169.62 159.81 169.161 159.308 169.369Z" fill="#FAFAFA"/>
<path d="M157.77 171.996C157.75 172.055 157.748 172.119 157.763 172.18C157.778 172.24 157.81 172.295 157.856 172.338C157.88 172.357 157.908 172.371 157.937 172.378C157.967 172.386 157.998 172.386 158.028 172.38C158.059 172.374 158.087 172.361 158.112 172.343C158.136 172.325 158.156 172.301 158.171 172.274C157.944 172.322 157.738 172.437 157.578 172.605C157.542 172.649 157.517 172.701 157.503 172.757C157.489 172.812 157.488 172.87 157.499 172.926C157.51 172.982 157.534 173.035 157.568 173.081C157.602 173.127 157.645 173.165 157.696 173.192C157.767 173.206 157.84 173.205 157.911 173.189C157.981 173.174 158.048 173.144 158.107 173.101C158.464 172.903 158.805 172.676 159.127 172.423C159.031 172.653 159.266 172.909 159.511 172.931C159.761 172.926 160.002 172.842 160.2 172.69C160.462 172.53 160.734 172.29 160.691 171.996C160.638 171.878 160.544 171.783 160.426 171.729C160.308 171.674 160.175 171.665 160.051 171.702C159.803 171.801 159.587 171.965 159.426 172.178C159.565 171.975 159.367 171.67 159.127 171.644C159.008 171.638 158.889 171.661 158.781 171.711C158.673 171.761 158.579 171.837 158.507 171.932C158.78 171.783 158.844 171.398 158.475 171.339C158.235 171.307 157.829 171.793 157.77 171.996Z" fill="#FAFAFA"/>
<path d="M165.332 171.11C165.279 171.089 165.223 171.079 165.166 171.082C165.11 171.084 165.054 171.099 165.004 171.124C164.953 171.15 164.909 171.186 164.873 171.23C164.837 171.274 164.811 171.325 164.797 171.38C164.782 171.434 164.78 171.492 164.789 171.548C164.798 171.603 164.819 171.657 164.851 171.704C164.882 171.751 164.923 171.791 164.971 171.821C165.019 171.851 165.073 171.871 165.129 171.879C165.048 171.884 164.969 171.907 164.898 171.945C164.826 171.982 164.763 172.034 164.712 172.098C164.681 172.13 164.656 172.168 164.641 172.211C164.625 172.253 164.619 172.298 164.622 172.343C164.638 172.408 164.676 172.465 164.73 172.506C164.783 172.547 164.848 172.568 164.915 172.567C165.052 172.562 165.185 172.525 165.305 172.461C165.171 172.459 165.039 172.496 164.926 172.567C164.898 172.586 164.875 172.61 164.856 172.638C164.838 172.666 164.826 172.698 164.821 172.731C164.815 172.764 164.816 172.798 164.824 172.83C164.832 172.863 164.847 172.893 164.867 172.92C164.912 172.953 164.965 172.973 165.02 172.978C165.076 172.984 165.132 172.975 165.182 172.952C165.426 172.887 165.65 172.762 165.834 172.589C165.898 172.667 165.98 172.729 166.073 172.769C166.166 172.809 166.267 172.826 166.368 172.818C166.418 172.811 166.466 172.793 166.508 172.766C166.551 172.74 166.588 172.705 166.617 172.663C166.646 172.622 166.667 172.575 166.677 172.525C166.687 172.476 166.687 172.425 166.677 172.375C166.649 172.307 166.603 172.249 166.544 172.205C166.484 172.162 166.414 172.136 166.341 172.13C166.194 172.121 166.046 172.145 165.909 172.199C166.063 172.112 166.185 171.977 166.256 171.815C166.309 171.649 166.197 171.425 166.021 171.441C165.844 171.457 165.727 171.724 165.572 171.82C165.391 171.638 165.748 171.264 165.332 171.11Z" fill="#FAFAFA"/>
<path d="M161.802 170.293C161.697 170.378 161.615 170.49 161.565 170.616C161.514 170.742 161.497 170.879 161.514 171.014C161.513 171.162 161.553 171.309 161.628 171.437C161.703 171.566 161.811 171.672 161.941 171.745C162.033 171.774 162.131 171.783 162.227 171.771C162.323 171.759 162.415 171.726 162.497 171.676C162.58 171.625 162.65 171.558 162.705 171.477C162.759 171.397 162.795 171.306 162.811 171.211C162.831 171.016 162.79 170.82 162.695 170.649C162.599 170.478 162.453 170.341 162.277 170.255C162.201 170.224 162.118 170.211 162.035 170.218C161.953 170.224 161.873 170.25 161.802 170.293Z" fill="#FAFAFA"/>
<path d="M164.301 169.978L164.392 170.052C164.354 170.002 164.307 169.959 164.252 169.928C164.197 169.897 164.137 169.878 164.074 169.872C164.011 169.866 163.948 169.873 163.888 169.893C163.829 169.913 163.774 169.946 163.727 169.988C163.681 170.031 163.644 170.083 163.619 170.14C163.594 170.198 163.582 170.261 163.582 170.324C163.583 170.387 163.597 170.449 163.623 170.506C163.65 170.563 163.688 170.614 163.735 170.656C163.828 170.736 163.949 170.777 164.072 170.769C164.195 170.761 164.31 170.705 164.392 170.613C164.521 170.674 164.666 170.692 164.806 170.665C164.946 170.639 165.074 170.568 165.171 170.463C165.255 170.351 165.29 170.209 165.27 170.07C165.25 169.932 165.176 169.806 165.065 169.721C165.003 169.691 164.935 169.677 164.866 169.68C164.797 169.682 164.73 169.702 164.671 169.737C164.612 169.772 164.562 169.821 164.527 169.88C164.491 169.938 164.47 170.005 164.467 170.074L164.36 169.956L164.301 169.978Z" fill="#FAFAFA"/>
<path d="M167.062 170.421C166.868 170.578 166.72 170.785 166.635 171.019C166.597 171.137 166.605 171.266 166.658 171.378C166.71 171.491 166.803 171.58 166.918 171.628C167.158 171.686 167.382 171.489 167.521 171.286C167.59 171.198 167.639 171.096 167.664 170.987C167.689 170.878 167.689 170.765 167.665 170.656C167.596 170.447 167.292 170.319 167.131 170.485L167.062 170.421Z" fill="#FAFAFA"/>
<path d="M163.083 168.974C163.057 168.925 163.022 168.883 162.979 168.849C162.936 168.815 162.886 168.79 162.834 168.775C162.781 168.761 162.725 168.757 162.671 168.765C162.617 168.772 162.564 168.791 162.517 168.819C162.428 168.883 162.362 168.975 162.331 169.08C162.3 169.186 162.306 169.299 162.347 169.401C162.393 169.505 162.468 169.595 162.562 169.66C162.656 169.725 162.766 169.763 162.881 169.769C163.148 169.796 163.468 169.577 163.415 169.31C163.479 169.387 163.561 169.445 163.655 169.48C163.749 169.515 163.85 169.524 163.949 169.508C164.139 169.479 164.321 169.41 164.483 169.305C164.712 169.177 164.952 168.974 164.931 168.712C164.912 168.608 164.86 168.514 164.782 168.443C164.703 168.373 164.604 168.33 164.499 168.322C164.394 168.318 164.29 168.335 164.192 168.372C164.094 168.409 164.004 168.464 163.927 168.536C163.813 168.653 163.691 168.764 163.564 168.867C163.5 168.919 163.423 168.952 163.341 168.965C163.26 168.977 163.176 168.967 163.099 168.936L163.083 168.974Z" fill="#FAFAFA"/>
<path d="M166.48 181.117H159.639L158.972 174.223H167.147L166.48 181.117Z" fill="#F0F0F0"/>
<path d="M167.676 174.581H158.374L158.208 173.662H167.847L167.676 174.581Z" fill="#FAFAFA"/>
<path d="M221.407 160.056H213.557L216.019 152.131L216.377 150.972H218.155L221.407 160.056Z" fill="#E0E0E0"/>
<path d="M216.377 150.972L216.019 152.131L213.557 160.056L206.3 159.944L203.967 152.131L203.609 150.972H216.377Z" fill="#E0E0E0"/>
<path d="M216.377 150.972L216.019 152.131L213.557 160.056L198.653 159.832L201.831 150.972H216.377Z" fill="#FAFAFA"/>
<path d="M216.377 150.972L216.019 152.131H201.419L201.831 150.972H216.377Z" fill="#EBEBEB"/>
<path d="M203.662 155.896H200.389L201.532 152.692L204.661 152.724L203.662 155.896ZM200.768 155.629H203.438L204.271 152.959L201.692 152.927L200.768 155.629Z" fill="#EBEBEB"/>
<path d="M207.326 155.896H204.052L205.195 152.692L208.324 152.724L207.326 155.896ZM204.431 155.629H207.128L207.961 152.959L205.382 152.927L204.431 155.629Z" fill="#EBEBEB"/>
<path d="M210.983 155.896H207.726L208.869 152.692L211.998 152.724L210.983 155.896ZM208.089 155.629H210.791L211.624 152.959L209.04 152.927L208.089 155.629Z" fill="#EBEBEB"/>
<path d="M214.668 155.896H211.395L212.537 152.692L215.667 152.724L214.668 155.896ZM211.774 155.629H214.444L215.277 152.959L212.697 152.927L211.774 155.629Z" fill="#EBEBEB"/>
<path d="M202.52 159.314H199.246L200.389 156.11L203.518 156.147L202.52 159.314ZM199.625 159.047H202.322L203.155 156.377L200.576 156.35L199.625 159.047Z" fill="#EBEBEB"/>
<path d="M206.183 159.314H202.92L204.063 156.11L207.192 156.147L206.183 159.314ZM203.288 159.047H205.985L206.818 156.377L204.239 156.35L203.288 159.047Z" fill="#EBEBEB"/>
<path d="M209.862 159.314H206.594L207.731 156.11L210.866 156.147L209.862 159.314ZM206.968 159.047H209.67L210.503 156.377L207.923 156.35L206.968 159.047Z" fill="#EBEBEB"/>
<path d="M213.504 159.314H210.23L211.373 156.11L214.502 156.147L213.504 159.314ZM210.61 159.047H213.306L214.139 156.377L211.56 156.35L210.61 159.047Z" fill="#EBEBEB"/>
<path d="M184.23 160.2H175.088V154.967C175.088 154.365 175.206 153.77 175.437 153.214C175.667 152.659 176.005 152.154 176.43 151.729C176.856 151.304 177.361 150.967 177.917 150.737C178.473 150.508 179.068 150.39 179.67 150.39C180.881 150.395 182.04 150.879 182.895 151.736C183.75 152.594 184.23 153.756 184.23 154.967V160.2Z" fill="#F0F0F0"/>
<path d="M179.611 159.068C181.743 159.068 183.472 157.339 183.472 155.207C183.472 153.075 181.743 151.346 179.611 151.346C177.479 151.346 175.75 153.075 175.75 155.207C175.75 157.339 177.479 159.068 179.611 159.068Z" fill="white"/>
<path d="M182.66 155.207C182.661 155.821 182.48 156.421 182.14 156.932C181.799 157.443 181.315 157.842 180.748 158.077C180.182 158.313 179.558 158.375 178.955 158.256C178.353 158.137 177.8 157.842 177.365 157.408C176.931 156.974 176.635 156.422 176.515 155.82C176.395 155.218 176.456 154.594 176.69 154.026C176.925 153.459 177.323 152.974 177.833 152.633C178.343 152.292 178.944 152.11 179.557 152.11C180.379 152.11 181.168 152.436 181.749 153.017C182.331 153.597 182.658 154.385 182.66 155.207Z" fill="#EBEBEB"/>
<path d="M179.921 155.276C179.922 155.343 179.903 155.409 179.866 155.465C179.83 155.522 179.777 155.565 179.715 155.592C179.654 155.618 179.586 155.625 179.52 155.612C179.454 155.599 179.394 155.567 179.346 155.52C179.299 155.472 179.267 155.412 179.254 155.346C179.241 155.28 179.248 155.212 179.274 155.151C179.301 155.089 179.344 155.036 179.401 155C179.457 154.963 179.523 154.944 179.59 154.945C179.677 154.947 179.76 154.982 179.822 155.044C179.884 155.106 179.919 155.189 179.921 155.276Z" fill="#FAFAFA"/>
<path d="M179.552 155.399L178.132 154.07L178.271 153.92L179.552 155.132L181.859 153.098L181.987 153.247L179.552 155.399Z" fill="#FAFAFA"/>
<path d="M48.359 152.526H40.1407C37.7873 152.526 35.8794 154.434 35.8794 156.788V165.006C35.8794 167.359 37.7873 169.267 40.1407 169.267H48.359C50.7124 169.267 52.6203 167.359 52.6203 165.006V156.788C52.6203 154.434 50.7124 152.526 48.359 152.526Z" fill="#E0E0E0"/>
<path d="M48.7115 156.724H39.9592V158.422H48.7115V156.724Z" fill="#FAFAFA"/>
<path d="M48.7115 159.986H39.9592V161.685H48.7115V159.986Z" fill="#FAFAFA"/>
<path d="M48.7115 163.244H39.9592V164.942H48.7115V163.244Z" fill="#FAFAFA"/>
<path d="M216.056 76.3299L214.043 78.1028L215.309 80.2976L217.851 79.4378C218.921 80.5799 220.305 81.3805 221.829 81.7394L222.363 84.3666H224.899L225.433 81.7394C226.957 81.3805 228.341 80.5799 229.412 79.4378L231.954 80.2976L233.219 78.1028L231.206 76.3299C231.662 74.833 231.662 73.2344 231.206 71.7375L233.219 69.97L231.954 67.7699L229.412 68.6297C228.341 67.489 226.957 66.6902 225.433 66.3335L224.899 63.7062H222.358L221.824 66.3335C220.3 66.6902 218.916 67.489 217.845 68.6297L215.303 67.7699L214.043 69.954L216.056 71.7215C215.608 73.2195 215.608 74.8159 216.056 76.3139V76.3299ZM219.517 74.1939C219.518 73.382 219.76 72.5886 220.211 71.914C220.663 71.2394 221.305 70.7139 222.055 70.4039C222.806 70.0939 223.631 70.0133 224.428 70.1724C225.224 70.3314 225.955 70.7229 226.529 71.2975C227.103 71.872 227.493 72.6037 227.651 73.4001C227.809 74.1965 227.727 75.0219 227.417 75.772C227.106 76.522 226.579 77.1631 225.904 77.614C225.229 78.065 224.435 78.3057 223.623 78.3057C223.083 78.3057 222.549 78.1993 222.05 77.9926C221.552 77.7859 221.099 77.483 220.718 77.1011C220.336 76.7192 220.034 76.2659 219.828 75.7671C219.622 75.2682 219.516 74.7337 219.517 74.1939Z" fill="#FEA629"/>
<path d="M195.903 55.4453L193.842 56.604C193.997 57.5934 194.257 58.5636 194.616 59.4983L197.003 59.4609C197.302 60.1068 197.659 60.7235 198.071 61.3032L196.843 63.3485C197.479 64.133 198.195 64.849 198.979 65.4845L201.024 64.2616C201.606 64.6709 202.222 65.0283 202.867 65.3296L202.829 67.7166C203.764 68.0761 204.734 68.3357 205.724 68.4909L206.882 66.4029C207.235 66.435 207.587 66.4563 207.95 66.4563C208.313 66.4563 208.661 66.4563 209.018 66.4029L210.177 68.4909C211.166 68.3357 212.137 68.0761 213.071 67.7166L213.029 65.3296C213.676 65.0307 214.294 64.6732 214.876 64.2616L216.922 65.4845C217.707 64.8504 218.423 64.1343 219.058 63.3485L217.829 61.3032C218.238 60.721 218.595 60.1046 218.897 59.4609L221.284 59.4983C221.644 58.5636 221.903 57.5934 222.059 56.604L219.971 55.4453C220.003 55.0982 220.019 54.7404 220.019 54.3773C220.019 54.0141 220.019 53.6617 219.971 53.3093L222.059 52.1451C221.904 51.1573 221.645 50.1889 221.284 49.2562L218.897 49.2936C218.595 48.6482 218.238 48.03 217.829 47.4459L219.058 45.4061C218.425 44.6189 217.709 43.9027 216.922 43.2701L214.876 44.4929C214.293 44.0834 213.675 43.726 213.029 43.4249L213.071 41.0433C212.137 40.6813 211.167 40.4216 210.177 40.269L209.018 42.3516C208.666 42.3516 208.313 42.3035 207.95 42.3035C207.587 42.3035 207.235 42.3035 206.882 42.3516L205.724 40.269C204.734 40.4216 203.763 40.6813 202.829 41.0433L202.867 43.4249C202.224 43.7284 201.607 44.0857 201.024 44.4929L198.979 43.2701C198.193 43.9041 197.477 44.6202 196.843 45.4061L198.071 47.4459C197.659 48.0275 197.301 48.646 197.003 49.2936L194.616 49.2562C194.255 50.1923 193.996 51.1644 193.842 52.1558L195.93 53.3199C195.898 53.667 195.877 54.0195 195.877 54.3879C195.877 54.7564 195.871 55.0982 195.903 55.4453ZM201.35 54.5962C201.35 53.2992 201.735 52.0314 202.455 50.953C203.176 49.8747 204.2 49.0342 205.398 48.5378C206.596 48.0415 207.915 47.9117 209.187 48.1647C210.459 48.4177 211.627 49.0422 212.544 49.9593C213.462 50.8764 214.086 52.0449 214.339 53.3169C214.592 54.5889 214.462 55.9074 213.966 57.1057C213.47 58.3039 212.629 59.328 211.551 60.0486C210.472 60.7691 209.205 61.1537 207.908 61.1537C207.046 61.1544 206.193 60.9853 205.397 60.656C204.601 60.3267 203.878 59.8437 203.269 59.2346C202.66 58.6256 202.177 57.9024 201.848 57.1065C201.519 56.3106 201.349 55.4575 201.35 54.5962Z" fill="#FEA629"/>
<path d="M133.5 228.023C190.682 228.023 237.037 225.317 237.037 221.978C237.037 218.64 190.682 215.934 133.5 215.934C76.3181 215.934 29.9629 218.64 29.9629 221.978C29.9629 225.317 76.3181 228.023 133.5 228.023Z" fill="#F5F5F5"/>
<path d="M181.517 33.4604H29.8718V137.761H181.517V33.4604Z" fill="#0E888D"/>
<g opacity="0.3">
<path d="M181.517 33.4604H29.8718V137.761H181.517V33.4604Z" fill="white"/>
</g>
<path d="M181.474 33.4604H29.8718V41.7054H181.474V33.4604Z" fill="#263238"/>
<path d="M107.766 50.4897L114.708 49.2615L135.887 127.797L128.945 129.03C127.359 129.284 125.734 128.948 124.379 128.085C123.024 127.222 122.033 125.892 121.592 124.347L103.5 57.2448C103.29 56.5195 103.236 55.758 103.342 55.0104C103.448 54.2629 103.711 53.5462 104.114 52.9079C104.517 52.2695 105.051 51.7239 105.681 51.3071C106.311 50.8902 107.021 50.6116 107.766 50.4897Z" fill="#0E888D"/>
<g opacity="0.5">
<path d="M107.766 50.4897L114.708 49.2615L135.887 127.797L128.945 129.03C127.359 129.284 125.734 128.948 124.379 128.085C123.024 127.222 122.033 125.892 121.592 124.347L103.5 57.2448C103.29 56.5195 103.236 55.758 103.342 55.0104C103.448 54.2629 103.711 53.5462 104.114 52.9079C104.517 52.2695 105.051 51.7239 105.681 51.3071C106.311 50.8902 107.021 50.6116 107.766 50.4897Z" fill="black"/>
</g>
<path d="M130.365 128.779L158.881 123.701C159.626 123.58 160.337 123.302 160.966 122.885C161.596 122.469 162.13 121.924 162.534 121.286C162.938 120.649 163.202 119.932 163.308 119.185C163.415 118.438 163.362 117.677 163.153 116.951L145.056 49.8489C144.615 48.3041 143.623 46.9744 142.268 46.1115C140.913 45.2485 139.289 44.912 137.702 45.1657L109.187 50.2387C108.441 50.36 107.73 50.6381 107.1 51.0547C106.47 51.4712 105.935 52.0167 105.531 52.6552C105.127 53.2936 104.864 54.0104 104.757 54.7583C104.651 55.5062 104.705 56.2682 104.915 56.9938L123.007 124.091C123.448 125.637 124.44 126.968 125.796 127.832C127.152 128.696 128.778 129.033 130.365 128.779Z" fill="#0E888D"/>
<path d="M109.539 51.5523L116.946 50.2333C117.188 50.1901 117.438 50.2318 117.653 50.3515C117.868 50.4712 118.035 50.6615 118.126 50.8902L118.217 51.1144C118.449 51.6659 118.859 52.1235 119.382 52.414C119.905 52.7045 120.51 52.811 121.101 52.7164L128.16 51.4722C128.438 51.4299 128.706 51.333 128.947 51.187C129.187 51.041 129.397 50.8488 129.563 50.6215C129.729 50.3942 129.849 50.1362 129.915 49.8625C129.982 49.5888 129.993 49.3047 129.949 49.0265L129.917 48.7969C129.884 48.5673 129.943 48.334 130.079 48.1466C130.216 47.9592 130.42 47.8323 130.648 47.793L138.06 46.458C139.282 46.2643 140.532 46.5246 141.575 47.1896C142.618 47.8547 143.381 48.8785 143.721 50.0678L161.802 117.186C161.966 117.745 162.01 118.332 161.929 118.909C161.848 119.486 161.646 120.039 161.334 120.531C161.023 121.023 160.61 121.444 160.124 121.764C159.637 122.084 159.088 122.296 158.513 122.387L129.997 127.466C128.775 127.661 127.523 127.401 126.479 126.736C125.435 126.071 124.671 125.046 124.331 123.856L106.266 56.7535C106.102 56.1959 106.058 55.6097 106.138 55.0338C106.217 54.458 106.419 53.9057 106.728 53.4137C107.038 52.9217 107.449 52.5013 107.933 52.1803C108.418 51.8594 108.966 51.6453 109.539 51.5523Z" fill="#0E888D"/>
<path opacity="0.7" d="M109.539 51.5523L116.946 50.2333C117.188 50.1901 117.438 50.2318 117.653 50.3515C117.868 50.4712 118.035 50.6615 118.126 50.8902L118.217 51.1144C118.449 51.6659 118.859 52.1235 119.382 52.414C119.905 52.7045 120.51 52.811 121.101 52.7164L128.16 51.4722C128.438 51.4299 128.706 51.333 128.947 51.187C129.187 51.041 129.397 50.8488 129.563 50.6215C129.729 50.3942 129.849 50.1362 129.915 49.8625C129.982 49.5888 129.993 49.3047 129.949 49.0265L129.917 48.7969C129.884 48.5673 129.943 48.334 130.079 48.1466C130.216 47.9592 130.42 47.8323 130.648 47.793L138.06 46.458C139.282 46.2643 140.532 46.5246 141.575 47.1896C142.618 47.8547 143.381 48.8785 143.721 50.0678L161.802 117.186C161.966 117.745 162.01 118.332 161.929 118.909C161.848 119.486 161.646 120.039 161.334 120.531C161.023 121.023 160.61 121.444 160.124 121.764C159.637 122.084 159.088 122.296 158.513 122.387L129.997 127.466C128.775 127.661 127.523 127.401 126.479 126.736C125.435 126.071 124.671 125.046 124.331 123.856L106.266 56.7535C106.102 56.1959 106.058 55.6097 106.138 55.0338C106.217 54.458 106.419 53.9057 106.728 53.4137C107.038 52.9217 107.449 52.5013 107.933 52.1803C108.418 51.8594 108.966 51.6453 109.539 51.5523Z" fill="white"/>
<path d="M125.725 49.4484C125.767 49.5992 125.864 49.7292 125.996 49.8138C126.127 49.8984 126.286 49.9318 126.44 49.9076C126.512 49.8939 126.58 49.8656 126.64 49.8246C126.7 49.7836 126.752 49.7307 126.791 49.6692C126.83 49.6077 126.856 49.5388 126.867 49.4669C126.879 49.3949 126.875 49.3214 126.857 49.2508C126.813 49.1006 126.717 48.9713 126.585 48.8869C126.454 48.8025 126.296 48.7686 126.141 48.7916C126.07 48.8053 126.002 48.8336 125.942 48.8746C125.881 48.9156 125.83 48.9685 125.791 49.03C125.752 49.0915 125.726 49.1604 125.715 49.2323C125.703 49.3043 125.707 49.3778 125.725 49.4484Z" fill="#263238"/>
<path d="M121.56 49.6086L123.498 49.2615C123.654 49.2371 123.813 49.2703 123.945 49.3548C124.078 49.4394 124.175 49.5695 124.219 49.7207C124.237 49.7913 124.241 49.8648 124.229 49.9368C124.218 50.0087 124.192 50.0776 124.153 50.1391C124.114 50.2006 124.063 50.2535 124.002 50.2945C123.942 50.3355 123.874 50.3638 123.803 50.3775L121.859 50.73C121.704 50.7541 121.546 50.7207 121.414 50.6361C121.282 50.5515 121.186 50.4215 121.143 50.2707C121.124 50.1998 121.12 50.1257 121.131 50.0531C121.142 49.9806 121.168 49.911 121.207 49.8489C121.246 49.7867 121.298 49.7333 121.358 49.692C121.419 49.6506 121.488 49.6222 121.56 49.6086Z" fill="#263238"/>
<path d="M140.26 49.3042L139.657 49.411L139.502 48.8183L140.1 48.7115L140.26 49.3042Z" fill="#0E888D"/>
<path d="M138.899 48.925L139.059 49.5178L138.461 49.6246L138.301 49.0318L138.14 48.4444L138.738 48.3376L138.899 48.925Z" fill="#0E888D"/>
<path d="M137.382 47.9586L137.542 48.5513L137.702 49.1387L137.857 49.7314L137.259 49.8382L137.099 49.2455L136.939 48.6581L136.784 48.0654L137.382 47.9586Z" fill="#0E888D"/>
<path d="M108.963 53.0582L109.433 54.7884L112.071 54.3185L111.953 53.8859L112.247 53.8379L112.012 52.9675L111.718 53.0209L111.601 52.5883L108.963 53.0582ZM110.565 53.2291L111.44 53.0743L111.675 53.9393L110.794 54.0942L110.565 53.2291Z" fill="#0E888D"/>
<path d="M113.742 68.6404L119.616 67.5724C119.868 67.5318 120.108 67.4382 120.321 67.2977C120.534 67.1572 120.715 66.973 120.851 66.7574C120.987 66.5418 121.076 66.2996 121.112 66.047C121.148 65.7944 121.129 65.5371 121.058 65.2922L119.498 59.5196C119.354 58.9939 119.021 58.5399 118.563 58.2444C118.105 57.9488 117.554 57.8325 117.015 57.9176L111.141 58.9589C110.889 58.9995 110.649 59.0931 110.436 59.2336C110.223 59.3741 110.043 59.5583 109.906 59.7739C109.77 59.9895 109.681 60.2317 109.645 60.4843C109.61 60.7369 109.628 60.9942 109.7 61.2391L111.259 67.0117C111.398 67.5423 111.729 68.0026 112.187 68.3034C112.646 68.6043 113.2 68.7243 113.742 68.6404Z" fill="#0E888D"/>
<path d="M125.602 66.5257L131.476 65.4577C131.728 65.418 131.969 65.3248 132.183 65.1846C132.396 65.0443 132.577 64.86 132.713 64.6442C132.85 64.4283 132.939 64.1858 132.974 63.9329C133.009 63.68 132.99 63.4224 132.918 63.1775L131.364 57.4263C131.22 56.9006 130.886 56.4466 130.428 56.151C129.97 55.8555 129.419 55.7392 128.881 55.8243L123.007 56.8923C122.755 56.9329 122.515 57.0265 122.302 57.167C122.089 57.3075 121.908 57.4917 121.772 57.7073C121.635 57.9229 121.546 58.165 121.511 58.4177C121.475 58.6703 121.494 58.9276 121.565 59.1725L123.119 64.9504C123.27 65.4705 123.605 65.9176 124.063 66.2077C124.52 66.4978 125.067 66.6109 125.602 66.5257Z" fill="#0E888D"/>
<path d="M137.484 64.4111L143.358 63.3431C143.61 63.3033 143.851 63.2102 144.064 63.0699C144.278 62.9296 144.459 62.7454 144.595 62.5296C144.732 62.3137 144.82 62.0712 144.856 61.8183C144.891 61.5654 144.872 61.3078 144.799 61.0629L143.24 55.2903C143.095 54.7653 142.761 54.312 142.304 54.0166C141.846 53.7212 141.295 53.6044 140.757 53.6883L134.883 54.7296C134.632 54.771 134.392 54.8651 134.179 55.0058C133.967 55.1465 133.786 55.3306 133.65 55.546C133.514 55.7614 133.425 56.0032 133.389 56.2555C133.353 56.5078 133.371 56.7649 133.441 57.0098L135.001 62.7877C135.142 63.3167 135.473 63.775 135.931 64.0746C136.39 64.3742 136.942 64.494 137.484 64.4111Z" fill="#0E888D"/>
<path d="M118.014 84.5375L123.888 83.4695C124.14 83.4298 124.381 83.3367 124.595 83.1964C124.808 83.0561 124.989 82.8719 125.125 82.656C125.262 82.4402 125.351 82.1977 125.386 81.9448C125.421 81.6918 125.402 81.4343 125.33 81.1893L123.776 75.4168C123.631 74.8911 123.298 74.4371 122.84 74.1415C122.382 73.846 121.831 73.7297 121.293 73.8148L115.419 74.8561C115.167 74.8973 114.928 74.9914 114.715 75.1322C114.503 75.273 114.323 75.4572 114.187 75.6728C114.051 75.8883 113.963 76.1302 113.928 76.3825C113.892 76.6348 113.911 76.8917 113.982 77.1363L115.536 82.9142C115.677 83.4421 116.008 83.8996 116.465 84.1991C116.922 84.4986 117.474 84.6191 118.014 84.5375Z" fill="#0E888D"/>
<path d="M129.89 82.4229L135.764 81.3549C136.016 81.3152 136.257 81.2221 136.471 81.0818C136.684 80.9415 136.865 80.7573 137.001 80.5414C137.138 80.3256 137.227 80.0831 137.262 79.8301C137.297 79.5772 137.278 79.3197 137.206 79.0747L135.636 73.3235C135.492 72.7978 135.158 72.3438 134.7 72.0483C134.242 71.7527 133.691 71.6364 133.153 71.7215L127.279 72.7895C127.027 72.8301 126.787 72.9237 126.574 73.0642C126.361 73.2047 126.18 73.3889 126.044 73.6045C125.907 73.8201 125.818 74.0623 125.783 74.3149C125.747 74.5675 125.766 74.8248 125.837 75.0697L127.396 80.8476C127.547 81.3698 127.884 81.8186 128.344 82.1089C128.804 82.3992 129.354 82.5109 129.89 82.4229Z" fill="#0E888D"/>
<path d="M141.766 80.3082L147.64 79.2402C147.892 79.1998 148.132 79.1062 148.345 78.9656C148.558 78.8251 148.738 78.6408 148.874 78.425C149.01 78.2092 149.099 77.967 149.133 77.7143C149.168 77.4617 149.149 77.2046 149.077 76.96L147.523 71.1875C147.377 70.6624 147.044 70.2091 146.586 69.9137C146.128 69.6184 145.578 69.5015 145.04 69.5855L139.166 70.6535C138.914 70.6933 138.674 70.7863 138.461 70.9263C138.248 71.0662 138.067 71.2499 137.931 71.4651C137.794 71.6804 137.705 71.9222 137.67 72.1744C137.634 72.4267 137.653 72.6837 137.724 72.9283L139.283 78.7062C139.427 79.2325 139.759 79.6873 140.218 79.983C140.676 80.2788 141.228 80.3946 141.766 80.3082Z" fill="#0E888D"/>
<path d="M122.286 100.435L128.16 99.3667C128.412 99.327 128.653 99.2339 128.866 99.0936C129.08 98.9533 129.261 98.7691 129.397 98.5532C129.534 98.3374 129.623 98.0949 129.658 97.842C129.693 97.589 129.674 97.3315 129.602 97.0866L128.042 91.314C127.898 90.7883 127.565 90.3343 127.107 90.0387C126.649 89.7432 126.098 89.6269 125.559 89.712L119.685 90.7533C119.433 90.7938 119.193 90.8875 118.98 91.028C118.767 91.1685 118.587 91.3527 118.45 91.5683C118.314 91.7839 118.225 92.026 118.189 92.2787C118.154 92.5313 118.172 92.7886 118.243 93.0335L119.803 98.8114C119.944 99.3404 120.275 99.7987 120.734 100.098C121.192 100.398 121.745 100.518 122.286 100.435Z" fill="#0E888D"/>
<path d="M134.173 98.32L140.047 97.252C140.299 97.2117 140.539 97.1181 140.752 96.9775C140.964 96.8369 141.145 96.6526 141.281 96.4368C141.417 96.2211 141.505 95.9788 141.54 95.7262C141.575 95.4736 141.555 95.2164 141.483 94.9719L139.908 89.2207C139.762 88.6956 139.429 88.2423 138.971 87.9469C138.513 87.6516 137.963 87.5348 137.425 87.6187L131.551 88.66C131.299 88.7005 131.059 88.7941 130.846 88.9346C130.633 89.0752 130.452 89.2593 130.316 89.4749C130.179 89.6906 130.09 89.9327 130.055 90.1853C130.019 90.4379 130.038 90.6952 130.109 90.9402L131.663 96.718C131.809 97.2484 132.146 97.7058 132.61 98.0018C133.073 98.2977 133.63 98.4111 134.173 98.32Z" fill="#0E888D"/>
<path d="M146.054 96.2054L151.928 95.1374C152.181 95.0977 152.421 95.0046 152.635 94.8643C152.848 94.724 153.029 94.5398 153.166 94.3239C153.302 94.1081 153.391 93.8656 153.426 93.6127C153.461 93.3597 153.442 93.1022 153.37 92.8572L151.811 87.0847C151.666 86.5601 151.334 86.1068 150.877 85.8114C150.42 85.516 149.871 85.399 149.333 85.4827L143.459 86.5507C143.207 86.5911 142.967 86.6847 142.754 86.8253C142.541 86.9658 142.361 87.1502 142.225 87.3659C142.089 87.5817 142.001 87.824 141.966 88.0766C141.931 88.3292 141.95 88.5863 142.023 88.8309L143.577 94.6034C143.722 95.1274 144.054 95.5799 144.511 95.8752C144.968 96.1705 145.517 96.2879 146.054 96.2054Z" fill="#0E888D"/>
<path d="M126.558 116.332L132.432 115.264C132.684 115.224 132.925 115.131 133.139 114.991C133.352 114.85 133.533 114.666 133.67 114.45C133.806 114.235 133.895 113.992 133.93 113.739C133.965 113.486 133.946 113.229 133.874 112.984L132.32 107.211C132.175 106.686 131.841 106.233 131.383 105.937C130.926 105.642 130.375 105.525 129.837 105.609L123.963 106.677C123.711 106.717 123.471 106.81 123.258 106.95C123.045 107.09 122.864 107.274 122.728 107.489C122.592 107.704 122.503 107.946 122.467 108.198C122.431 108.45 122.45 108.707 122.521 108.952L124.075 114.73C124.22 115.255 124.554 115.708 125.012 116.004C125.469 116.299 126.02 116.416 126.558 116.332Z" fill="#0E888D"/>
<path d="M138.461 114.217L144.335 113.149C144.587 113.109 144.828 113.016 145.041 112.876C145.255 112.736 145.436 112.552 145.572 112.336C145.709 112.12 145.798 111.877 145.833 111.624C145.868 111.372 145.849 111.114 145.777 110.869L144.217 105.096C144.072 104.571 143.739 104.118 143.281 103.823C142.823 103.527 142.273 103.411 141.734 103.494L135.86 104.562C135.608 104.603 135.368 104.697 135.155 104.837C134.942 104.978 134.762 105.162 134.625 105.377C134.489 105.593 134.4 105.835 134.364 106.088C134.329 106.34 134.347 106.598 134.419 106.843L135.978 112.615C136.123 113.14 136.457 113.594 136.914 113.889C137.372 114.184 137.923 114.301 138.461 114.217Z" fill="#0E888D"/>
<path d="M150.337 112.103L156.211 111.035C156.462 110.993 156.702 110.899 156.915 110.758C157.127 110.618 157.308 110.434 157.444 110.218C157.58 110.003 157.669 109.761 157.705 109.509C157.741 109.256 157.723 108.999 157.653 108.754L156.093 102.977C155.948 102.451 155.615 101.998 155.157 101.703C154.699 101.407 154.149 101.291 153.61 101.375L147.736 102.443C147.484 102.482 147.243 102.575 147.03 102.716C146.816 102.856 146.635 103.04 146.499 103.256C146.362 103.472 146.274 103.714 146.238 103.967C146.203 104.22 146.222 104.478 146.295 104.723L147.859 110.538C148.011 111.056 148.346 111.5 148.803 111.788C149.259 112.076 149.804 112.188 150.337 112.103Z" fill="#0E888D"/>
<g opacity="0.4">
<path d="M128.16 51.4722L160.873 121.17C160.251 121.814 159.438 122.24 158.555 122.387L157.018 122.665L123.926 52.2198L128.16 51.4722Z" fill="white"/>
<path d="M109.54 51.5523L116.946 50.2334C117.188 50.1901 117.438 50.2319 117.653 50.3515C117.868 50.4712 118.035 50.6615 118.126 50.8902L118.217 51.1145C118.445 51.649 118.841 52.0947 119.345 52.3838C119.849 52.6729 120.433 52.7897 121.01 52.7165L154.075 123.162L138.899 125.864L106.127 56.07C106 55.0215 106.284 53.9645 106.921 53.1217C107.557 52.2789 108.496 51.7162 109.54 51.5523Z" fill="white"/>
</g>
<path d="M38.0314 83.3467L37.727 84.906H40.397L40.1727 85.974H37.5027L37.0808 88.11H35.7458L36.9046 82.3107H41.2888L41.0645 83.3787L38.0314 83.3467Z" fill="white"/>
<path d="M41.4382 86.1395C41.4411 85.9295 41.4643 85.7202 41.5077 85.5147L42.1538 82.268H43.5048L42.8587 85.472C42.8241 85.6317 42.8062 85.7946 42.8053 85.9579C42.8053 86.6628 43.2058 87.0259 43.9267 87.0259C44.7384 87.0259 45.2083 86.5774 45.4326 85.4934L46.0787 82.2894H47.3977L46.7409 85.5948C46.3938 87.309 45.4112 88.1901 43.7772 88.1901C42.3193 88.1687 41.4382 87.3891 41.4382 86.1395Z" fill="white"/>
<path d="M54.0514 82.268L52.8926 88.0672H51.7979L49.6619 84.436L48.9303 88.0672H47.574L48.7328 82.268H49.8435L51.9795 85.9045L52.7004 82.268H54.0514Z" fill="white"/>
<path d="M54.4679 85.6483C54.4575 85.1777 54.5447 84.7101 54.7238 84.2748C54.9029 83.8396 55.1701 83.4461 55.5086 83.1191C55.8472 82.7921 56.2497 82.5387 56.6909 82.3747C57.1321 82.2108 57.6024 82.1399 58.0724 82.1666C58.5069 82.1331 58.9428 82.21 59.3396 82.3902C59.7364 82.5704 60.0811 82.848 60.3419 83.1972L59.37 83.9929C59.2167 83.7667 59.007 83.5846 58.7615 83.4647C58.5161 83.3448 58.2435 83.2912 57.9709 83.3093C57.6798 83.3089 57.3916 83.3679 57.1241 83.4828C56.8566 83.5978 56.6154 83.7662 56.4154 83.9777C56.2153 84.1893 56.0607 84.4395 55.9608 84.713C55.861 84.9865 55.8182 85.2775 55.8349 85.5682C55.8349 86.4439 56.4116 87.026 57.4369 87.026C57.7266 87.0314 58.0141 86.9741 58.2796 86.858C58.545 86.7418 58.7822 86.5696 58.9748 86.3531L59.7705 87.1648C59.4632 87.5051 59.0835 87.772 58.6592 87.9457C58.235 88.1195 57.7771 88.1957 57.3194 88.1687C55.5359 88.1687 54.4679 87.1381 54.4679 85.6483Z" fill="white"/>
<path d="M62.4245 83.3627H60.5715L60.7958 82.268H65.8475L65.6232 83.3627H63.7755L62.8304 88.0672H61.49L62.4245 83.3627Z" fill="white"/>
<path d="M66.5684 82.268H67.9194L66.7499 88.0672H65.3989L66.5684 82.268Z" fill="white"/>
<path d="M68.3093 85.6483C68.2983 85.1789 68.3844 84.7123 68.5623 84.2779C68.7402 83.8434 69.0059 83.4504 69.3429 83.1234C69.6798 82.7965 70.0807 82.5428 70.5204 82.3781C70.96 82.2134 71.429 82.1414 71.8978 82.1666C73.6653 82.1666 74.7226 83.1972 74.7226 84.6871C74.7335 85.1559 74.6476 85.622 74.47 86.0561C74.2925 86.4902 74.0272 86.883 73.6908 87.2098C73.3545 87.5367 72.9543 87.7905 72.5152 87.9555C72.0762 88.1205 71.6079 88.1931 71.1395 88.1687C69.3719 88.1687 68.3093 87.1381 68.3093 85.6483ZM73.3663 84.7618C73.3745 84.5558 73.3374 84.3505 73.2576 84.1603C73.1778 83.9702 73.0573 83.7999 72.9045 83.6614C72.7518 83.5229 72.5705 83.4196 72.3735 83.3588C72.1765 83.2979 71.9685 83.2811 71.7643 83.3093C71.4726 83.3088 71.184 83.368 70.9161 83.4833C70.6483 83.5985 70.4068 83.7674 70.2067 83.9796C70.0066 84.1917 69.852 84.4425 69.7525 84.7167C69.6531 84.9908 69.6108 85.2824 69.6283 85.5735C69.6191 85.7798 69.6556 85.9856 69.735 86.1761C69.8145 86.3667 69.935 86.5375 70.088 86.6762C70.2409 86.8149 70.4226 86.9181 70.6201 86.9786C70.8175 87.0391 71.0259 87.0552 71.2303 87.026C71.5219 87.0265 71.8105 86.9673 72.0784 86.852C72.3463 86.7368 72.5877 86.5679 72.7878 86.3557C72.9879 86.1436 73.1425 85.8928 73.242 85.6186C73.3415 85.3445 73.3838 85.0529 73.3663 84.7618Z" fill="white"/>
<path d="M81.6058 82.268L80.4417 88.0672H79.3417L77.179 84.436L76.4527 88.0672H75.123L76.2818 82.268H77.3925L79.5285 85.9045L80.2495 82.268H81.6058Z" fill="white"/>
<path d="M81.5151 87.5226L82.0491 86.4866C82.6097 86.8825 83.2799 87.0935 83.9662 87.09C84.7031 87.09 85.1677 86.8337 85.1677 86.4119C85.1677 85.4827 82.2894 85.9793 82.2894 84.1317C82.2894 82.9409 83.3574 82.1666 84.9594 82.1666C85.6616 82.1453 86.356 82.3171 86.9673 82.6632L86.46 83.6938C85.9833 83.3866 85.4249 83.2302 84.858 83.2452C84.0783 83.2452 83.6244 83.5443 83.6244 83.9555C83.6244 84.9113 86.4974 84.4147 86.4974 86.1929C86.4974 87.3944 85.4294 88.1687 83.8274 88.1687C83.01 88.1843 82.206 87.9596 81.5151 87.5226Z" fill="white"/>
<path d="M48.6846 64.8223V78.9893H46.0146L38.9284 70.3865V78.9893H35.6924V64.8223H38.4051L45.4486 73.4197V64.8223H48.6846Z" fill="white"/>
<path d="M63.0121 76.362V78.9946H52.0437V64.8223H62.7504V67.4495H55.2744V70.5254H61.8533V73.0779H55.3011V76.362H63.0121Z" fill="white"/>
<path d="M86.8338 64.8223L82.1987 78.9893H78.6796L75.5611 69.3773L72.3571 78.9893H68.8594L64.2029 64.8223H67.6045L70.8085 74.776L74.146 64.8223H77.1791L80.4205 74.8561L83.7206 64.8223H86.8338Z" fill="white"/>
<path d="M38.6454 98.5657C38.6423 98.8346 38.5596 99.0964 38.4078 99.3184C38.256 99.5403 38.042 99.7123 37.7926 99.8128C37.5432 99.9132 37.2696 99.9376 37.0064 99.8828C36.7432 99.8281 36.5021 99.6966 36.3135 99.505C36.1248 99.3134 35.9972 99.0703 35.9465 98.8062C35.8959 98.5422 35.9245 98.269 36.0288 98.0213C36.1332 97.7735 36.3085 97.5621 36.5328 97.4138C36.7571 97.2655 37.0202 97.187 37.2891 97.188C37.469 97.188 37.6471 97.2238 37.8131 97.2932C37.9791 97.3627 38.1296 97.4646 38.2558 97.5928C38.382 97.721 38.4815 97.8731 38.5484 98.0401C38.6153 98.2071 38.6483 98.3858 38.6454 98.5657Z" fill="white"/>
<path d="M74.2794 98.838H41.0913V99.9167H74.2794V98.838Z" fill="white"/>
<path d="M37.2892 105.502C38.0383 105.502 38.6456 104.895 38.6456 104.146C38.6456 103.397 38.0383 102.79 37.2892 102.79C36.5401 102.79 35.9329 103.397 35.9329 104.146C35.9329 104.895 36.5401 105.502 37.2892 105.502Z" fill="white"/>
<path d="M74.2794 104.424H41.0913V105.502H74.2794V104.424Z" fill="white"/>
<path d="M38.6455 109.817C38.6466 110.087 38.5675 110.351 38.4182 110.576C38.269 110.8 38.0564 110.976 37.8074 111.079C37.5583 111.183 37.2841 111.211 37.0195 111.158C36.7548 111.106 36.5117 110.976 36.321 110.785C36.1302 110.595 36.0004 110.351 35.948 110.087C35.8957 109.822 35.9231 109.548 36.0268 109.299C36.1305 109.05 36.3059 108.837 36.5306 108.688C36.7554 108.539 37.0194 108.46 37.2891 108.461C37.6489 108.461 37.9939 108.604 38.2482 108.858C38.5026 109.112 38.6455 109.457 38.6455 109.817Z" fill="white"/>
<path d="M73.9804 110.095H41.0913V111.173H73.9804V110.095Z" fill="white"/>
<path d="M144.899 121.362L144.812 121.753L161.392 125.468L161.48 125.078L144.899 121.362Z" fill="#263238"/>
<path d="M174.324 128.758H163.938C163.564 128.775 163.191 128.715 162.841 128.583C162.49 128.452 162.17 128.25 161.9 127.992C161.63 127.733 161.415 127.422 161.268 127.078C161.121 126.734 161.045 126.363 161.045 125.989C161.045 125.615 161.121 125.245 161.268 124.901C161.415 124.557 161.63 124.246 161.9 123.987C162.17 123.728 162.49 123.527 162.841 123.395C163.191 123.264 163.564 123.204 163.938 123.221H174.346C175.059 123.252 175.733 123.557 176.226 124.073C176.72 124.589 176.996 125.275 176.996 125.989C176.996 126.703 176.72 127.39 176.226 127.906C175.733 128.421 175.059 128.727 174.346 128.758H174.324ZM163.938 123.621C163.618 123.606 163.297 123.656 162.997 123.768C162.696 123.88 162.421 124.052 162.189 124.273C161.957 124.495 161.772 124.761 161.646 125.056C161.52 125.351 161.455 125.668 161.455 125.989C161.455 126.31 161.52 126.628 161.646 126.923C161.772 127.217 161.957 127.484 162.189 127.705C162.421 127.927 162.696 128.099 162.997 128.211C163.297 128.323 163.618 128.373 163.938 128.358H174.346C174.954 128.329 175.528 128.067 175.949 127.626C176.37 127.185 176.604 126.599 176.604 125.989C176.604 125.38 176.37 124.794 175.949 124.353C175.528 123.912 174.954 123.65 174.346 123.621H163.938Z" fill="#263238"/>
<path d="M146.343 121.57C146.343 121.862 146.256 122.147 146.094 122.389C145.932 122.632 145.702 122.82 145.433 122.932C145.164 123.044 144.867 123.073 144.581 123.016C144.295 122.959 144.033 122.819 143.827 122.613C143.621 122.406 143.48 122.144 143.423 121.858C143.366 121.572 143.396 121.276 143.507 121.006C143.619 120.737 143.808 120.507 144.05 120.345C144.292 120.183 144.577 120.097 144.869 120.097C145.26 120.097 145.635 120.252 145.911 120.528C146.187 120.805 146.343 121.18 146.343 121.57Z" fill="#263238"/>
<path d="M115.711 101.645L115.415 101.915L125.548 113.032L125.844 112.762L115.711 101.645Z" fill="#263238"/>
<path d="M112.994 105.198H102.587C101.852 105.198 101.147 104.906 100.627 104.386C100.107 103.867 99.8152 103.162 99.8152 102.427C99.8152 101.692 100.107 100.987 100.627 100.467C101.147 99.9471 101.852 99.6551 102.587 99.6551H112.994C113.729 99.6551 114.434 99.9471 114.954 100.467C115.474 100.987 115.766 101.692 115.766 102.427C115.766 103.162 115.474 103.867 114.954 104.386C114.434 104.906 113.729 105.198 112.994 105.198ZM102.587 100.056C101.958 100.056 101.355 100.305 100.91 100.75C100.465 101.195 100.216 101.798 100.216 102.427C100.216 103.055 100.465 103.658 100.91 104.103C101.355 104.548 101.958 104.798 102.587 104.798H112.994C113.623 104.798 114.226 104.548 114.671 104.103C115.115 103.658 115.365 103.055 115.365 102.427C115.365 101.798 115.115 101.195 114.671 100.75C114.226 100.305 113.623 100.056 112.994 100.056H102.587Z" fill="#263238"/>
<path d="M124.224 112.888C124.224 113.179 124.311 113.464 124.473 113.706C124.635 113.949 124.865 114.138 125.134 114.249C125.404 114.361 125.7 114.39 125.986 114.333C126.272 114.276 126.534 114.136 126.74 113.93C126.946 113.724 127.087 113.461 127.144 113.175C127.201 112.889 127.171 112.593 127.06 112.324C126.948 112.054 126.759 111.824 126.517 111.662C126.275 111.5 125.99 111.414 125.698 111.414C125.307 111.414 124.932 111.569 124.656 111.845C124.38 112.122 124.224 112.497 124.224 112.888Z" fill="#263238"/>
<path d="M156.409 63.5306L146.283 74.655L146.579 74.9246L156.705 63.8002L156.409 63.5306Z" fill="#263238"/>
<path d="M169.54 67.0811H159.132C158.419 67.0498 157.745 66.7443 157.251 66.2285C156.758 65.7127 156.482 65.0263 156.482 64.3123C156.482 63.5983 156.758 62.9119 157.251 62.3961C157.745 61.8802 158.419 61.5748 159.132 61.5435H169.54C169.914 61.5271 170.287 61.5865 170.637 61.7183C170.987 61.85 171.307 62.0513 171.578 62.31C171.848 62.5688 172.063 62.8795 172.21 63.2237C172.357 63.5678 172.433 63.9381 172.433 64.3123C172.433 64.6865 172.357 65.0568 172.21 65.4009C172.063 65.745 171.848 66.0558 171.578 66.3146C171.307 66.5733 170.987 66.7746 170.637 66.9063C170.287 67.0381 169.914 67.0975 169.54 67.0811ZM159.132 61.944C158.523 61.9729 157.949 62.2351 157.529 62.676C157.108 63.117 156.874 63.7029 156.874 64.3123C156.874 64.9216 157.108 65.5076 157.529 65.9486C157.949 66.3895 158.523 66.6517 159.132 66.6806H169.54C169.86 66.6958 170.18 66.6458 170.481 66.5337C170.782 66.4215 171.056 66.2495 171.288 66.0281C171.521 65.8067 171.705 65.5405 171.832 65.2455C171.958 64.9506 172.023 64.6331 172.023 64.3123C172.023 63.9915 171.958 63.674 171.832 63.379C171.705 63.0841 171.521 62.8179 171.288 62.5965C171.056 62.375 170.782 62.2031 170.481 62.0909C170.18 61.9788 169.86 61.9288 169.54 61.944H159.132Z" fill="#263238"/>
<path d="M147.918 74.76C147.918 75.0515 147.831 75.3364 147.67 75.5788C147.508 75.8212 147.277 76.0101 147.008 76.1216C146.739 76.2332 146.442 76.2624 146.157 76.2055C145.871 76.1486 145.608 76.0083 145.402 75.8021C145.196 75.596 145.055 75.3334 144.999 75.0475C144.942 74.7616 144.971 74.4653 145.082 74.196C145.194 73.9266 145.383 73.6965 145.625 73.5345C145.868 73.3726 146.153 73.2861 146.444 73.2861C146.835 73.2861 147.21 73.4414 147.486 73.7178C147.763 73.9942 147.918 74.3691 147.918 74.76Z" fill="#263238"/>
<path d="M100.141 54.9549L99.8271 55.2042L119.307 79.6939L119.621 79.4446L100.141 54.9549Z" fill="#263238"/>
<path d="M97.4122 57.8589H87.0046C86.2913 57.8276 85.6176 57.5222 85.1239 57.0064C84.6303 56.4905 84.3547 55.8041 84.3547 55.0901C84.3547 54.3761 84.6303 53.6897 85.1239 53.1739C85.6176 52.6581 86.2913 52.3527 87.0046 52.3213H97.4122C97.7861 52.3049 98.1594 52.3644 98.5096 52.4961C98.8598 52.6278 99.1798 52.8291 99.4501 53.0879C99.7204 53.3466 99.9356 53.6574 100.083 54.0015C100.23 54.3456 100.305 54.7159 100.305 55.0901C100.305 55.4643 100.23 55.8346 100.083 56.1788C99.9356 56.5229 99.7204 56.8337 99.4501 57.0924C99.1798 57.3511 98.8598 57.5524 98.5096 57.6841C98.1594 57.8159 97.7861 57.8753 97.4122 57.8589ZM87.0046 52.7218C86.3959 52.7507 85.8218 53.0129 85.4012 53.4539C84.9807 53.8948 84.7461 54.4808 84.7461 55.0901C84.7461 55.6995 84.9807 56.2854 85.4012 56.7264C85.8218 57.1674 86.3959 57.4295 87.0046 57.4584H97.4122C97.7327 57.4736 98.0529 57.4237 98.3535 57.3115C98.6541 57.1994 98.9288 57.0274 99.161 56.806C99.3932 56.5845 99.578 56.3183 99.7043 56.0234C99.8306 55.7284 99.8957 55.411 99.8957 55.0901C99.8957 54.7693 99.8306 54.4518 99.7043 54.1569C99.578 53.8619 99.3932 53.5957 99.161 53.3743C98.9288 53.1529 98.6541 52.9809 98.3535 52.8687C98.0529 52.7566 97.7327 52.7066 97.4122 52.7218H87.0046Z" fill="#263238"/>
<path d="M118.014 79.566C118.014 79.8575 118.1 80.1425 118.262 80.3848C118.424 80.6272 118.654 80.8161 118.924 80.9277C119.193 81.0392 119.489 81.0684 119.775 81.0115C120.061 80.9547 120.324 80.8143 120.53 80.6082C120.736 80.4021 120.876 80.1394 120.933 79.8535C120.99 79.5676 120.961 79.2713 120.849 79.002C120.738 78.7327 120.549 78.5025 120.307 78.3406C120.064 78.1786 119.779 78.0922 119.488 78.0922C119.294 78.0915 119.102 78.1291 118.923 78.2029C118.744 78.2767 118.581 78.3853 118.444 78.5223C118.307 78.6593 118.198 78.822 118.125 79.0012C118.051 79.1803 118.013 79.3723 118.014 79.566Z" fill="#263238"/>
<path d="M184.23 110.928L179.248 110.821C179.248 110.821 175.825 109.641 175.424 109.881L173.732 110.009C173.385 110.22 173.126 110.547 173.001 110.932C172.875 111.317 172.892 111.734 173.048 112.108L173.582 113.299C173.704 113.599 173.926 113.848 174.209 114.005C174.493 114.161 174.822 114.215 175.141 114.159L179.456 113.582L184.759 113.518L184.23 110.928Z" fill="#EEC1BB"/>
<path d="M208.901 99.1745C208.901 99.1745 206.765 97.2521 202.776 100.013C199.086 102.581 193.965 107.809 192.096 108.023L181.373 110.159V114.351C181.373 114.351 188.876 113.886 192.117 113.657C195.898 113.379 199.759 110.485 201.553 108.402C203.727 105.914 208.26 101.599 208.901 99.1745Z" fill="#FEA629"/>
<path opacity="0.7" d="M208.901 99.1745C208.901 99.1745 206.765 97.2521 202.776 100.013C199.086 102.581 193.965 107.809 192.096 108.023L181.373 110.159V114.351C181.373 114.351 188.876 113.886 192.117 113.657C195.898 113.379 199.759 110.485 201.553 108.402C203.727 105.914 208.26 101.599 208.901 99.1745Z" fill="white"/>
<path opacity="0.1" d="M193.757 113.39C196.961 112.573 200.042 110.186 201.58 108.407C203.496 106.166 204.894 103.529 205.675 100.686C205.675 100.686 197.046 109.689 193.757 113.39Z" fill="black"/>
<path d="M231.227 213.248L234.212 212.222L233.908 207.069L233.395 202.359L228.712 202.877L230.042 208.367L231.227 213.248Z" fill="#FFC3BD"/>
<path d="M228.424 220.366C228.803 219.856 229.271 219.42 229.807 219.079C229.807 219.079 231.105 216.905 230.608 211.485L232.744 210.305C233.109 210.115 233.523 210.039 233.931 210.09C234.339 210.141 234.722 210.314 235.03 210.588C235.115 210.665 235.191 210.753 235.254 210.85C235.506 211.37 235.727 211.905 235.916 212.452C236.531 214.325 237.032 216.233 237.416 218.166L237.005 218.283L235.937 214.732C235.585 213.52 234.992 215.202 235.062 216.58C235.131 217.957 234.917 219.506 232.258 220.254C229.156 221.119 227.826 221.327 228.424 220.366Z" fill="#263238"/>
<path d="M230.533 209.515C230.533 209.515 230.661 212.019 230.56 214.855C230.581 216.296 230.325 217.728 229.807 219.074C229.807 219.074 231.9 218.919 232.423 217.349C232.947 215.779 232.957 210.882 235.04 210.599C234.795 210.303 234.517 210.036 234.212 209.803C233.726 209.43 230.533 209.515 230.533 209.515Z" fill="#FFC3BD"/>
<path d="M200.672 213.936L203.822 213.803L205.003 208.778L205.857 204.122L201.222 203.278L200.928 208.917L200.672 213.936Z" fill="#FFC3BD"/>
<path d="M195.978 219.955C196.487 219.576 197.061 219.292 197.671 219.116C197.671 219.116 199.54 217.407 200.608 212.067L202.99 211.533C203.393 211.453 203.811 211.499 204.188 211.663C204.565 211.827 204.883 212.102 205.099 212.452C205.16 212.551 205.205 212.659 205.232 212.772C205.33 213.343 205.391 213.919 205.414 214.497C205.468 216.468 205.402 218.44 205.216 220.403H204.789V216.692C204.789 215.432 203.753 216.873 203.427 218.208C203.102 219.543 202.456 220.975 199.689 220.932C196.437 220.889 195.102 220.708 195.978 219.955Z" fill="#263238"/>
<path d="M201.072 210.161C201.072 210.161 200.48 212.596 199.566 215.287C199.178 216.675 198.525 217.975 197.644 219.116C197.644 219.116 199.695 219.565 200.645 218.208C201.596 216.852 202.995 212.164 205.083 212.489C204.932 212.136 204.742 211.801 204.517 211.491C204.159 210.989 201.072 210.161 201.072 210.161Z" fill="#FFC3BD"/>
<path d="M200.282 173.449L200.987 207.384L205.163 207.817C205.163 207.817 208.367 195.7 209.082 183.53C209.248 180.722 208.58 177.454 208.89 175.237C209.162 173.294 209.958 172.076 211.026 167.681C211.715 164.883 212.473 161.434 213.103 158.101C213.675 155.09 214.129 152.169 214.316 149.899C214.797 149.234 215.226 148.533 215.597 147.801C217.582 144.072 218.284 139.793 217.594 135.625L203.71 129.468L200.282 173.449Z" fill="#263238"/>
<path d="M204.255 128.603C204.255 128.603 197.676 162.688 197.644 179.825C197.644 191.679 197.591 197.772 197.58 200.234C197.578 200.663 197.66 201.089 197.824 201.485C197.987 201.882 198.227 202.243 198.531 202.546L201.126 205.136H205.809L208.986 203.321C209.496 203.033 209.917 202.612 210.204 202.103C210.491 201.594 210.633 201.016 210.615 200.432C210.487 195.278 210.209 181.325 210.903 177.24C211.763 172.204 214.967 144.009 214.935 140.976C214.903 137.943 216.446 125.928 204.255 128.603Z" fill="#263238"/>
<path d="M209.819 130.296C209.819 130.296 216.911 167.393 219.122 181.56C220.953 193.271 224.018 198.824 224.681 201.195C224.796 201.608 224.992 201.994 225.258 202.33C225.524 202.667 225.854 202.947 226.229 203.155L229.433 204.928L233.94 203.641L236.493 201.024C236.901 200.606 237.189 200.084 237.324 199.515C237.459 198.946 237.438 198.351 237.262 197.794C235.718 192.881 231.607 179.541 231.153 175.424C230.592 170.341 227.057 149.953 226.881 143.128C226.795 140.106 220.804 124.379 209.819 130.296Z" fill="#263238"/>
<path opacity="0.2" d="M211.806 142.578C211.881 142.941 212.34 151.384 212.714 159.335C212.837 158.966 212.965 158.55 213.093 158.091C213.664 155.079 214.118 152.158 214.305 149.888C214.787 149.224 215.215 148.522 215.587 147.79C216.083 145.563 216.521 143.598 216.799 142.45L211.806 142.578Z" fill="black"/>
<path d="M209.713 133.81L219.298 174.559L229.663 206.877L233.78 206.103C233.78 206.103 233.39 193.575 230.608 181.704C229.962 178.97 228.392 176.028 228.056 173.812C227.762 171.873 228.152 170.49 227.938 165.962C227.671 160.494 227.441 155.202 227.062 148.436C227.062 148.436 228.066 139.086 225.22 133.623L209.713 133.81Z" fill="#263238"/>
<path d="M202.044 104.691C201.76 107.353 201.748 110.036 202.007 112.701C202.156 116.279 202.931 120.043 203.908 125.837C205.868 126.985 215.779 126.51 222.123 125.688C221.738 120.615 222.368 114.81 225.807 103.382C226.608 100.739 224.825 98.192 221.989 97.925C221.226 97.8502 220.419 97.7861 219.597 97.7541C216.701 97.5565 213.794 97.5565 210.898 97.7541C209.969 97.8342 208.97 97.9463 208.03 98.0691C204.656 98.507 202.664 101.108 202.044 104.691Z" fill="#FEA629"/>
<path opacity="0.7" d="M202.044 104.691C201.76 107.353 201.748 110.036 202.007 112.701C202.156 116.279 202.931 120.043 203.908 125.837C205.868 126.985 215.779 126.51 222.123 125.688C221.738 120.615 222.368 114.81 225.807 103.382C226.608 100.739 224.825 98.192 221.989 97.925C221.226 97.8502 220.419 97.7861 219.597 97.7541C216.701 97.5565 213.794 97.5565 210.898 97.7541C209.969 97.8342 208.97 97.9463 208.03 98.0691C204.656 98.507 202.664 101.108 202.044 104.691Z" fill="white"/>
<path d="M203.908 125.837L222.123 125.693L226 135.62L211.806 140.976L203.182 139.572L203.908 125.837Z" fill="#263238"/>
<path d="M203.865 127.092C210.161 127.791 216.515 127.771 222.806 127.033C222.921 127.005 223.021 126.934 223.086 126.835C223.15 126.736 223.174 126.616 223.153 126.499C223.156 126.48 223.156 126.46 223.153 126.441C222.998 126.072 222.838 125.704 222.689 125.335C222.658 125.253 222.601 125.183 222.527 125.137C222.453 125.09 222.365 125.07 222.278 125.079C216.13 125.757 209.927 125.757 203.78 125.079C203.55 125.047 203.491 125.196 203.465 125.426C203.453 125.986 203.508 126.545 203.63 127.092H203.865Z" fill="#FEA629"/>
<path d="M212.559 96.2642C212.121 96.2747 211.69 96.3748 211.292 96.5585C210.894 96.7422 210.538 97.0055 210.247 97.3322C209.668 97.9985 209.251 98.7899 209.029 99.6444C208.509 101.275 208.586 103.037 209.248 104.616C209.958 103.986 210.519 103.462 211.224 102.832C212.176 103.421 213.059 104.114 213.856 104.899C215.662 103.239 217.163 101.274 218.289 99.0944C218.472 98.8157 218.597 98.5022 218.655 98.1734C218.713 97.8446 218.703 97.5074 218.625 97.1826C218.358 96.4831 217.557 96.168 216.815 96.0132C215.48 95.7622 213.926 96.2695 212.559 96.2642Z" fill="#FEA629"/>
<path opacity="0.5" d="M212.559 96.2642C212.121 96.2747 211.69 96.3748 211.292 96.5585C210.894 96.7422 210.538 97.0055 210.247 97.3322C209.668 97.9985 209.251 98.7899 209.029 99.6444C208.509 101.275 208.586 103.037 209.248 104.616C209.958 103.986 210.519 103.462 211.224 102.832C212.176 103.421 213.059 104.114 213.856 104.899C215.662 103.239 217.163 101.274 218.289 99.0944C218.472 98.8157 218.597 98.5022 218.655 98.1734C218.713 97.8446 218.703 97.5074 218.625 97.1826C218.358 96.4831 217.557 96.168 216.815 96.0132C215.48 95.7622 213.926 96.2695 212.559 96.2642Z" fill="white"/>
<path d="M211.213 77.0829C210.016 77.0426 208.832 77.3445 207.801 77.9533C206.818 78.6208 206.156 79.8864 206.503 81.0238C206.02 81.3959 205.651 81.8957 205.438 82.4667C205.225 83.0377 205.176 83.6571 205.296 84.2545C205.569 85.3813 206.231 86.3905 206.743 87.4105C207.3 88.7011 207.436 90.1339 207.133 91.5063C206.893 92.3019 206.284 93.0709 206.487 93.8772C206.606 94.2083 206.823 94.4952 207.109 94.6995C207.395 94.9037 207.737 95.0156 208.089 95.02C208.795 95.0074 209.49 94.8454 210.129 94.5447C210.855 94.2617 211.635 95.1161 212.409 95.1695C212.777 95.1581 213.132 95.0321 213.425 94.8091C213.718 94.586 213.934 94.277 214.043 93.9253C214.245 93.2173 214.292 92.4744 214.182 91.7466C213.958 88.9324 213.904 85.3813 213.68 82.5724C213.634 81.5315 213.477 80.4985 213.21 79.4913C212.817 78.497 212.117 77.6536 211.213 77.0829Z" fill="#263238"/>
<path d="M217.338 88.9965C216.964 90.999 216.607 94.251 217.231 96.4297C217.406 97.0794 217.368 97.7679 217.123 98.3944C216.878 99.0209 216.439 99.5525 215.87 99.9114C214.701 100.656 213.491 101.332 212.244 101.935C212.042 102.028 211.812 102.04 211.601 101.968C211.391 101.897 211.216 101.747 211.112 101.551C210.776 100.968 210.676 100.278 210.833 99.6233C210.99 98.9688 211.392 98.3993 211.955 98.0317C212.612 97.6152 212.799 95.3244 212.377 93.7224L217.338 88.9965Z" fill="#FFC3BD"/>
<path opacity="0.2" d="M215.309 90.9188L212.366 93.7063C212.498 94.1762 212.587 94.657 212.633 95.1428C213.75 94.8864 215.271 93.5408 215.384 92.3393C215.444 91.8651 215.419 91.384 215.309 90.9188Z" fill="black"/>
<path d="M219.143 83.5443C218.7 87.8484 218.609 89.6746 216.334 91.9068C212.948 95.2496 207.817 94.0428 206.973 89.7708C206.215 85.9153 207.074 79.5286 211.33 77.7718C212.231 77.3554 213.227 77.1887 214.214 77.2889C215.201 77.3891 216.143 77.7527 216.941 78.3415C217.74 78.9304 218.365 79.7229 218.753 80.6363C219.14 81.5497 219.275 82.5503 219.143 83.5336V83.5443Z" fill="#FFC3BD"/>
<path d="M209.44 85.2958C208.962 86.0685 208.386 86.7757 207.726 87.3998C207.882 87.5542 208.072 87.671 208.28 87.7413C208.488 87.8117 208.71 87.8336 208.928 87.8056L209.44 85.2958Z" fill="#BA4D3C"/>
<path d="M210.503 89.3916C210.303 89.3979 210.102 89.3854 209.905 89.3543C209.879 89.3503 209.855 89.3364 209.839 89.3155C209.823 89.2945 209.816 89.2682 209.819 89.2421C209.827 89.2144 209.844 89.1902 209.867 89.1736C209.89 89.157 209.919 89.1491 209.947 89.1513C210.395 89.2141 210.852 89.1751 211.282 89.0374C211.713 88.8996 212.107 88.6666 212.436 88.3557C212.445 88.3462 212.457 88.3386 212.469 88.3334C212.481 88.3283 212.495 88.3256 212.508 88.3256C212.521 88.3256 212.535 88.3283 212.547 88.3334C212.559 88.3386 212.571 88.3462 212.58 88.3557C212.59 88.3647 212.598 88.3758 212.604 88.3882C212.61 88.4007 212.613 88.4141 212.613 88.4278C212.613 88.4414 212.61 88.4549 212.604 88.4673C212.598 88.4797 212.59 88.4908 212.58 88.4999C212.023 89.0456 211.282 89.3636 210.503 89.3916Z" fill="#263238"/>
<path d="M218.187 82.4603C216.996 85.4187 215.795 88.5426 216.975 91.5063C218.291 90.4485 219.365 89.1219 220.127 87.6153C220.888 86.1086 221.319 84.4567 221.391 82.77C219.965 82.8929 219.511 83.0103 218.187 82.4603Z" fill="#263238"/>
<path d="M218.187 82.4603C216.996 85.4187 215.795 88.5426 216.975 91.5063C218.291 90.4485 219.365 89.1219 220.127 87.6153C220.888 86.1086 221.319 84.4567 221.391 82.77C219.965 82.8929 219.511 83.0103 218.187 82.4603Z" fill="#263238"/>
<path d="M211.464 76.2926C211.067 76.7924 210.842 77.4076 210.824 78.0459C210.805 78.6842 210.995 79.3113 211.363 79.833C211.747 80.3429 212.248 80.7524 212.825 81.0267C213.401 81.3009 214.036 81.4319 214.673 81.4083C214.248 82.3358 214.197 83.3914 214.529 84.356C214.706 84.791 214.97 85.1851 215.306 85.5139C215.641 85.8427 216.04 86.0993 216.478 86.2677C216.894 87.1684 217.118 88.1456 217.137 89.1374C217.155 90.1292 216.967 91.1141 216.585 92.0296C216.238 92.8199 215.736 93.7597 216.211 94.4806C216.687 95.2015 217.787 95.1054 218.556 94.7209C219.325 94.3365 220.024 93.733 220.884 93.6529C221.365 93.6156 221.845 93.7544 222.326 93.6529C222.806 93.5515 224.622 92.9908 222.774 90.513C223.655 88.4197 225.62 83.8647 223.335 81.3389C221.877 79.6926 220.033 78.4339 217.968 77.6757C216.833 77.2329 215.63 76.9891 214.412 76.9548C213.2 76.9975 212.27 75.3848 211.464 76.2926Z" fill="#263238"/>
<path d="M219.244 87.8537C219.057 88.2229 218.793 88.5484 218.471 88.8088C218.149 89.0692 217.776 89.2587 217.375 89.3649C216.377 89.5892 215.987 88.4411 216.366 87.3197C216.719 86.3104 217.632 84.9807 218.588 85.2691C219.543 85.5575 219.762 86.8818 219.244 87.8537Z" fill="#FFC3BD"/>
<path d="M213.733 101.14C218.94 98.523 217.872 95.9545 216.996 95.2656C216.548 96.1414 213.83 97.6206 212.804 97.6099C212.297 97.3536 212.746 95.7889 212.607 95.6608C212.02 95.7706 211.485 96.066 211.079 96.5035C210.673 96.941 210.419 97.4974 210.353 98.0905C210.372 99.2518 210.704 100.386 211.314 101.375C211.533 101.796 212.148 101.855 212.623 101.791L213.733 101.14Z" fill="#FEA629"/>
<path d="M212.799 110.768C211.731 111.764 210.426 112.47 209.008 112.818C209.508 109.521 210.232 106.261 211.176 103.062C211.475 102.912 211.82 102.879 212.142 102.971L212.591 103.147L212.799 110.768Z" fill="#FEA629"/>
<path d="M213.995 109.737C213.298 110.884 212.353 111.86 211.229 112.594C211.019 109.361 211.035 106.117 211.277 102.886C211.575 102.841 211.877 102.841 212.174 102.886L212.65 102.961L213.995 109.737Z" fill="#FEA629"/>
<path opacity="0.1" d="M213.995 109.737C213.298 110.884 212.353 111.86 211.229 112.594C211.019 109.361 211.035 106.117 211.277 102.886C211.575 102.841 211.877 102.841 212.174 102.886L212.65 102.961L213.995 109.737Z" fill="white"/>
<path d="M213.979 101.027C213.557 100.629 213.018 100.375 212.442 100.304C211.866 100.233 211.281 100.348 210.775 100.632C210.662 101.506 210.776 102.394 211.106 103.212C211.678 103.18 212.174 103.334 212.767 103.308C213.066 102.469 213.285 101.567 213.979 101.027Z" fill="#FEA629"/>
<path opacity="0.2" d="M213.979 101.027C213.557 100.629 213.018 100.375 212.442 100.304C211.866 100.233 211.281 100.348 210.775 100.632C210.662 101.506 210.776 102.394 211.106 103.212C211.678 103.18 212.174 103.334 212.767 103.308C213.066 102.469 213.285 101.567 213.979 101.027Z" fill="white"/>
<path d="M179.082 115.616C179.148 115.665 179.203 115.726 179.245 115.796C179.286 115.866 179.313 115.944 179.323 116.025C179.334 116.106 179.328 116.188 179.306 116.266C179.284 116.345 179.246 116.418 179.195 116.481C179.094 116.603 178.951 116.68 178.795 116.698C178.638 116.716 178.481 116.673 178.356 116.578L152.233 93.0816C152.191 93.0497 152.164 93.0031 152.156 92.9513C152.148 92.8996 152.16 92.8467 152.19 92.8039C152.205 92.7794 152.225 92.7583 152.249 92.7421C152.273 92.7259 152.299 92.7149 152.328 92.7099C152.356 92.7048 152.385 92.7058 152.413 92.7128C152.441 92.7198 152.467 92.7327 152.489 92.7505L179.082 115.616Z" fill="#263238"/>
<g opacity="0.3">
<path d="M179.082 115.616C179.148 115.665 179.203 115.726 179.245 115.796C179.286 115.866 179.313 115.944 179.323 116.025C179.334 116.106 179.328 116.188 179.306 116.266C179.284 116.345 179.246 116.418 179.195 116.481C179.094 116.603 178.951 116.68 178.795 116.698C178.638 116.716 178.481 116.673 178.356 116.578L152.233 93.0816C152.191 93.0497 152.164 93.0031 152.156 92.9513C152.148 92.8996 152.16 92.8467 152.19 92.8039C152.205 92.7794 152.225 92.7583 152.249 92.7421C152.273 92.7259 152.299 92.7149 152.328 92.7099C152.356 92.7048 152.385 92.7058 152.413 92.7128C152.441 92.7198 152.467 92.7327 152.489 92.7505L179.082 115.616Z" fill="white"/>
</g>
<path d="M199.748 109.652L200.816 119.616C200.842 119.804 200.934 119.976 201.076 120.102C201.218 120.227 201.401 120.297 201.59 120.3L217.044 120.241C217.132 120.243 217.22 120.226 217.301 120.192C217.382 120.157 217.454 120.105 217.513 120.039C217.572 119.974 217.616 119.896 217.642 119.812C217.668 119.728 217.675 119.639 217.664 119.552L216.596 109.588C216.57 109.4 216.478 109.227 216.336 109.102C216.194 108.976 216.011 108.906 215.821 108.904L200.367 108.963C200.279 108.96 200.192 108.977 200.111 109.012C200.03 109.047 199.958 109.099 199.899 109.164C199.84 109.23 199.796 109.307 199.77 109.391C199.744 109.476 199.736 109.564 199.748 109.652Z" fill="#263238"/>
<path d="M216.553 109.096L216.601 109.561C216.577 109.373 216.486 109.201 216.344 109.075C216.203 108.95 216.021 108.88 215.832 108.877L200.378 108.936C200.29 108.934 200.202 108.952 200.122 108.987C200.041 109.023 199.968 109.075 199.909 109.141C199.851 109.207 199.807 109.285 199.781 109.369C199.755 109.454 199.747 109.543 199.759 109.63L199.705 109.16C199.694 109.073 199.701 108.984 199.727 108.899C199.753 108.815 199.797 108.737 199.856 108.671C199.915 108.605 199.987 108.553 200.068 108.518C200.149 108.482 200.237 108.465 200.325 108.466L215.779 108.407C215.969 108.41 216.152 108.481 216.295 108.607C216.437 108.734 216.529 108.907 216.553 109.096Z" fill="#263238"/>
<path opacity="0.7" d="M216.553 109.096L216.601 109.561C216.577 109.373 216.486 109.201 216.344 109.075C216.203 108.95 216.021 108.88 215.832 108.877L200.378 108.936C200.29 108.934 200.202 108.952 200.122 108.987C200.041 109.023 199.968 109.075 199.909 109.141C199.851 109.207 199.807 109.285 199.781 109.369C199.755 109.454 199.747 109.543 199.759 109.63L199.705 109.16C199.694 109.073 199.701 108.984 199.727 108.899C199.753 108.815 199.797 108.737 199.856 108.671C199.915 108.605 199.987 108.553 200.068 108.518C200.149 108.482 200.237 108.465 200.325 108.466L215.779 108.407C215.969 108.41 216.152 108.481 216.295 108.607C216.437 108.734 216.529 108.907 216.553 109.096Z" fill="white"/>
<path d="M208.26 115.841C208.826 115.841 209.285 115.382 209.285 114.815C209.285 114.249 208.826 113.79 208.26 113.79C207.694 113.79 207.235 114.249 207.235 114.815C207.235 115.382 207.694 115.841 208.26 115.841Z" fill="white"/>
<path d="M226.784 103.105C226.894 103.592 226.953 104.09 226.961 104.589L227.286 118.916C227.318 120.294 226.528 121.731 224.013 121.704L213.066 119.488L208.794 119.402C208.611 119.396 208.431 119.349 208.267 119.267C208.103 119.184 207.96 119.067 207.845 118.923C207.731 118.78 207.65 118.613 207.606 118.435C207.562 118.257 207.558 118.071 207.592 117.891L208.014 115.691C208.069 115.409 208.218 115.154 208.436 114.967C208.654 114.78 208.929 114.672 209.216 114.661L210.348 114.612C210.541 114.606 210.733 114.642 210.909 114.72C211.086 114.798 211.243 114.914 211.368 115.061L213.76 116.946L222.998 116.722C223.479 116.829 219.49 98.6672 221.898 98.1279C222.747 97.9516 225.775 98.5871 226.784 103.105Z" fill="#EEC1BB"/>
<path d="M212.041 84.906C212.014 85.2638 211.801 85.5575 211.571 85.5575C211.341 85.5575 211.176 85.2584 211.203 84.8953C211.229 84.5322 211.443 84.2385 211.672 84.2438C211.902 84.2492 212.068 84.5536 212.041 84.906Z" fill="#263238"/>
<path d="M208.324 84.8045C208.297 85.1676 208.089 85.4613 207.86 85.456C207.63 85.4507 207.464 85.157 207.491 84.7992C207.518 84.4414 207.726 84.1477 207.961 84.1477C208.196 84.1477 208.356 84.4414 208.324 84.8045Z" fill="#263238"/>
<path d="M208.057 84.1691L207.229 83.9074C207.229 83.9074 207.614 84.5963 208.057 84.1691Z" fill="#263238"/>
<path d="M213.344 83.2239C213.316 83.2203 213.29 83.2108 213.267 83.1961C213.244 83.1813 213.225 83.1616 213.21 83.1385C213.075 82.9196 212.888 82.7377 212.665 82.6091C212.442 82.4805 212.191 82.4092 211.934 82.4016C211.884 82.4045 211.834 82.3877 211.797 82.3548C211.759 82.3219 211.735 82.2754 211.731 82.2253C211.734 82.1681 211.757 82.1139 211.798 82.0734C211.838 82.0329 211.893 82.009 211.95 82.0064C212.273 82.0127 212.588 82.1002 212.868 82.2607C213.148 82.4212 213.383 82.6496 213.552 82.9249C213.579 82.9732 213.587 83.0304 213.573 83.0843C213.559 83.1381 213.525 83.1844 213.477 83.2132C213.435 83.2318 213.388 83.2356 213.344 83.2239Z" fill="#263238"/>
<path d="M207.117 82.9569C207.092 82.9615 207.066 82.961 207.041 82.9553C207.016 82.9497 206.992 82.9391 206.971 82.9242C206.95 82.9093 206.933 82.8903 206.919 82.8684C206.906 82.8465 206.897 82.8221 206.893 82.7967C206.888 82.7661 206.891 82.7347 206.9 82.7051C206.909 82.6755 206.925 82.6483 206.946 82.6258C207.146 82.3486 207.407 82.1211 207.709 81.9609C208.011 81.8007 208.346 81.7121 208.687 81.702C208.739 81.7061 208.788 81.73 208.822 81.7688C208.857 81.8076 208.876 81.8582 208.874 81.9103C208.869 81.9669 208.842 82.0194 208.799 82.0571C208.757 82.0948 208.701 82.1148 208.645 82.1132C208.375 82.1234 208.111 82.1952 207.873 82.3229C207.635 82.4506 207.43 82.6309 207.272 82.8501C207.255 82.8774 207.232 82.901 207.206 82.9193C207.179 82.9377 207.149 82.9505 207.117 82.9569Z" fill="#263238"/>
<path d="M211.774 84.2759L210.946 84.0142C210.946 84.0142 211.331 84.6977 211.774 84.2759Z" fill="#263238"/>
<path d="M219.095 120.289L214.406 118.949V118.943L219.095 120.289Z" fill="#EEC1BB"/>
<path opacity="0.1" d="M221.194 102.854L222.144 120.289C222.144 120.289 222.753 113.763 224.024 106.437C224.013 106.437 224.531 100.392 221.194 102.854Z" fill="black"/>
<path d="M213.76 116.946L222.998 116.722C223.479 116.829 219.49 98.6672 221.898 98.1279C222.747 97.941 225.775 98.5764 226.784 103.094C226.894 103.582 226.953 104.079 226.961 104.579L227.286 118.906C227.318 120.284 226.528 121.72 224.013 121.693L213.066 119.488L213.76 116.946Z" fill="#FEA629"/>
<g opacity="0.8">
<path d="M213.76 116.946L222.998 116.722C223.479 116.829 219.49 98.6672 221.898 98.1279C222.747 97.941 225.775 98.5764 226.784 103.094C226.894 103.582 226.953 104.079 226.961 104.579L227.286 118.906C227.318 120.284 226.528 121.72 224.013 121.693L213.066 119.488L213.76 116.946Z" fill="white"/>
</g>
<path d="M49.3095 191.508C49.3095 191.508 43.8093 187.178 39.265 191.311L41.0966 191.551L38.3625 192.267C37.9839 192.729 37.6411 193.22 37.3372 193.735C36.9367 194.403 36.5736 195.022 36.2265 195.61L38.0528 195.989L35.2439 197.302C32.3764 202.359 31.8958 203.897 31.8958 203.897C33.7247 203.895 35.5484 203.701 37.3372 203.32L38.9392 199.118L39.2703 202.829C41.228 202.269 43.0705 201.365 44.7118 200.159L43.9962 196.421L46.1803 198.878C47.4204 197.58 48.3226 195.997 48.8075 194.269L47.5687 193.078L49.0265 193.377C49.1646 192.762 49.2591 192.137 49.3095 191.508Z" fill="#0E888D"/>
<path opacity="0.2" d="M49.3095 191.508C49.3095 191.508 43.8093 187.178 39.265 191.311L41.0966 191.551L38.3625 192.267C37.9839 192.729 37.6411 193.22 37.3372 193.735C36.9367 194.403 36.5736 195.022 36.2265 195.61L38.0528 195.989L35.2439 197.302C32.3764 202.359 31.8958 203.897 31.8958 203.897C33.7247 203.895 35.5484 203.701 37.3372 203.32L38.9392 199.118L39.2703 202.829C41.228 202.269 43.0705 201.365 44.7118 200.159L43.9962 196.421L46.1803 198.878C47.4204 197.58 48.3226 195.997 48.8075 194.269L47.5687 193.078L49.0265 193.377C49.1646 192.762 49.2591 192.137 49.3095 191.508Z" fill="white"/>
<path d="M60.1177 188.262C60.1177 188.262 67.2145 182.665 73.0885 188.011L70.7283 188.32L74.2527 189.244C74.7461 189.839 75.1908 190.473 75.5823 191.14C76.1163 192 76.5702 192.806 77.0134 193.564L74.6532 194.056L78.2737 195.754C81.9796 202.285 82.5991 204.271 82.5991 204.271C80.237 204.267 77.8818 204.016 75.5716 203.523L73.4837 198.114L73.0618 202.92C70.5324 202.207 68.1508 201.048 66.0291 199.497L66.9529 194.648L64.128 197.82C62.526 196.144 61.3614 194.099 60.7371 191.866L62.3391 190.334L60.4594 190.718C60.2859 189.909 60.1716 189.088 60.1177 188.262Z" fill="#0E888D"/>
<path opacity="0.3" d="M60.1177 188.262C60.1177 188.262 67.2145 182.665 73.0885 188.011L70.7283 188.32L74.2527 189.244C74.7461 189.839 75.1908 190.473 75.5823 191.14C76.1163 192 76.5702 192.806 77.0134 193.564L74.6532 194.056L78.2737 195.754C81.9796 202.285 82.5991 204.271 82.5991 204.271C80.237 204.267 77.8818 204.016 75.5716 203.523L73.4837 198.114L73.0618 202.92C70.5324 202.207 68.1508 201.048 66.0291 199.497L66.9529 194.648L64.128 197.82C62.526 196.144 61.3614 194.099 60.7371 191.866L62.3391 190.334L60.4594 190.718C60.2859 189.909 60.1716 189.088 60.1177 188.262Z" fill="white"/>
<path d="M57.2074 178.02C57.2074 178.02 56.1394 186.996 48.2148 187.37L49.662 185.48L46.5167 187.322C45.7474 187.248 44.985 187.114 44.2365 186.921C43.2647 186.676 42.3622 186.441 41.5131 186.216L42.8321 184.23L39.0941 185.586C31.8584 183.589 30.0161 182.623 30.0161 182.623C31.6915 180.956 33.5347 179.467 35.5163 178.18L40.8563 180.545L37.7645 176.855C40.0577 175.574 42.56 174.71 45.155 174.303L47.8838 178.356L47.6328 174.121C49.9517 174.173 52.2222 174.794 54.2437 175.932L54.201 178.148L55.269 176.546C55.9482 176.992 56.5958 177.484 57.2074 178.02Z" fill="#0E888D"/>
<path opacity="0.5" d="M57.2074 178.02C57.2074 178.02 56.1394 186.996 48.2148 187.37L49.662 185.48L46.5167 187.322C45.7474 187.248 44.985 187.114 44.2365 186.921C43.2647 186.676 42.3622 186.441 41.5131 186.216L42.8321 184.23L39.0941 185.586C31.8584 183.589 30.0161 182.623 30.0161 182.623C31.6915 180.956 33.5347 179.467 35.5163 178.18L40.8563 180.545L37.7645 176.855C40.0577 175.574 42.56 174.71 45.155 174.303L47.8838 178.356L47.6328 174.121C49.9517 174.173 52.2222 174.794 54.2437 175.932L54.201 178.148L55.269 176.546C55.9482 176.992 56.5958 177.484 57.2074 178.02Z" fill="white"/>
<path d="M39.9111 195.492C39.9111 195.492 52.0596 178.404 55.9578 203.588H54.5641C54.5641 203.588 53.2398 192.058 48.594 191.199C43.9482 190.339 39.9111 195.492 39.9111 195.492Z" fill="#0E888D"/>
<path d="M70.0395 192.357C70.0395 192.357 58.3235 168.685 54.5535 203.571H55.8938C55.8938 203.571 57.1701 187.584 61.6343 186.393C66.0985 185.202 70.0395 192.357 70.0395 192.357Z" fill="#0E888D"/>
<path d="M42.2234 181.848C42.2234 181.848 59.9949 179.109 57.2074 203.935H58.6012C58.6012 203.935 62.0401 179.2 42.2234 181.848Z" fill="#0E888D"/>
<path d="M51.9956 218.593L48.7168 202.386H64.8917L61.6182 218.593C61.4207 219.554 60.1658 220.275 58.7667 220.275H54.8418C53.4427 220.275 52.1878 219.554 51.9956 218.593Z" fill="#263238"/>
<path d="M134.669 162.101L156.2 162.192L155.068 148.537L133.537 148.441L134.669 162.101Z" fill="#FEA629"/>
<path d="M134.958 163.169L156.179 163.265C156.316 163.267 156.453 163.24 156.58 163.186C156.706 163.132 156.82 163.053 156.914 162.952C157.008 162.852 157.08 162.732 157.126 162.602C157.171 162.472 157.189 162.334 157.177 162.197L156.051 148.628C156.023 148.332 155.887 148.057 155.67 147.855C155.452 147.653 155.167 147.539 154.87 147.534L133.655 147.437C133.517 147.435 133.38 147.461 133.253 147.515C133.126 147.568 133.011 147.648 132.917 147.749C132.823 147.849 132.751 147.969 132.706 148.099C132.661 148.23 132.644 148.368 132.656 148.505L133.777 162.074C133.808 162.369 133.945 162.642 134.162 162.843C134.379 163.045 134.662 163.16 134.958 163.169Z" fill="#FEA629"/>
<g opacity="0.7">
<path d="M134.669 162.101L156.2 162.192L155.068 148.537L133.537 148.441L134.669 162.101Z" fill="#FEA629"/>
<path opacity="0.9" d="M135.636 162.101L155.041 162.187C155.188 162.187 155.333 162.157 155.468 162.099C155.603 162.04 155.724 161.955 155.824 161.848C155.925 161.741 156.002 161.614 156.051 161.475C156.1 161.337 156.12 161.19 156.109 161.044L155.148 149.52C155.124 149.254 155.001 149.006 154.803 148.826C154.606 148.646 154.348 148.547 154.08 148.548L134.691 148.452C134.543 148.452 134.398 148.482 134.263 148.54C134.127 148.599 134.006 148.685 133.906 148.793C133.805 148.9 133.728 149.028 133.68 149.167C133.631 149.306 133.612 149.453 133.623 149.6L134.579 161.135C134.604 161.398 134.726 161.643 134.921 161.821C135.116 162 135.371 162.1 135.636 162.101Z" fill="white"/>
</g>
<path opacity="0.1" d="M138.253 147.416L142.391 163.164L140.976 163.158L136.885 147.411L138.253 147.416Z" fill="white"/>
<path opacity="0.1" d="M136.068 147.405L140.207 163.153L137.398 163.142L133.313 147.395L136.068 147.405Z" fill="white"/>
<path d="M141.692 163.089L134.531 163.153C134.44 163.986 134.803 164.285 135.262 164.28L161.471 164.242C161.754 164.242 162.026 164.13 162.226 163.93C162.426 163.729 162.539 163.458 162.539 163.174L141.692 163.089Z" fill="#FEA629"/>
<path opacity="0.2" d="M134.531 163.153C134.44 163.986 134.803 164.285 135.262 164.28H144.34C143.742 164.28 142.984 163.698 142.984 163.1L134.531 163.153Z" fill="white"/>
<path opacity="0.2" d="M141.692 163.089L134.531 163.153C134.44 163.986 134.803 164.285 135.262 164.28L161.471 164.242C161.754 164.242 162.026 164.13 162.226 163.93C162.426 163.729 162.539 163.458 162.539 163.174L141.692 163.089Z" fill="white"/>
<path d="M97.5778 164.451H99.9595V163.505H97.5778V164.451Z" fill="#263238"/>
<path d="M97.7219 163.97L115.712 163.778C117.923 163.778 118.649 159.597 118.649 157.984C118.645 156.67 118.121 155.411 117.191 154.483C116.262 153.554 115.002 153.031 113.689 153.028H96.4243C95.6467 153.03 94.9013 153.339 94.351 153.888C93.8006 154.438 93.4901 155.183 93.4873 155.96C93.4873 155.96 93.8451 163.97 97.7219 163.97Z" fill="#0E888D"/>
<g opacity="0.5">
<g opacity="0.7">
<path d="M97.7219 163.97L115.712 163.778C117.923 163.778 118.649 159.597 118.649 157.984C118.645 156.67 118.121 155.411 117.191 154.483C116.262 153.554 115.002 153.031 113.689 153.028H96.4243C95.6467 153.03 94.9013 153.339 94.351 153.888C93.8006 154.438 93.4901 155.183 93.4873 155.96C93.4873 155.96 93.8451 163.97 97.7219 163.97Z" fill="white"/>
</g>
</g>
<path d="M95.9277 153.076L113.438 153.039C115.896 153.032 118.289 153.825 120.257 155.298L122.393 156.9C122.497 156.98 122.574 157.091 122.612 157.217C122.65 157.343 122.647 157.477 122.604 157.602C122.561 157.726 122.479 157.834 122.371 157.909C122.264 157.984 122.135 158.024 122.003 158.021L104.466 157.589L95.9277 153.076Z" fill="#0E888D"/>
<path opacity="0.5" d="M95.9277 153.076L113.053 153.039C115.857 153.039 118.19 153.605 120.566 155.528L122.921 157.29C122.99 157.341 123.041 157.412 123.067 157.494C123.092 157.576 123.091 157.663 123.064 157.745C123.037 157.826 122.985 157.896 122.915 157.946C122.845 157.996 122.761 158.022 122.676 158.021L104.744 157.701L95.9277 153.076Z" fill="white"/>
<path d="M119.552 164.451H121.934V163.505H119.552V164.451Z" fill="#263238"/>
<path d="M103.724 164.451H106.106V163.505H103.724V164.451Z" fill="#263238"/>
<path d="M112.914 164.451H115.296V163.505H112.914V164.451Z" fill="#263238"/>
<path d="M104.899 163.97H120.919C121.888 163.967 122.817 163.581 123.502 162.896C124.188 162.21 124.574 161.281 124.577 160.312C124.574 159.343 124.188 158.414 123.502 157.729C122.817 157.043 121.888 156.657 120.919 156.654H104.899C103.93 156.657 103.001 157.043 102.315 157.729C101.63 158.414 101.244 159.343 101.241 160.312C101.244 161.281 101.63 162.21 102.315 162.896C103.001 163.581 103.93 163.967 104.899 163.97Z" fill="#0E888D"/>
<mask id="mask0_21_1145" style="mask-type:luminance" maskUnits="userSpaceOnUse" x="106" y="158" width="14" height="5">
<path d="M108.22 162.79H117.614C118.18 162.79 118.723 162.565 119.124 162.164C119.524 161.764 119.75 161.22 119.75 160.654C119.75 160.087 119.524 159.544 119.124 159.144C118.723 158.743 118.18 158.518 117.614 158.518H108.22C107.654 158.518 107.111 158.743 106.71 159.144C106.31 159.544 106.084 160.087 106.084 160.654C106.084 161.22 106.31 161.764 106.71 162.164C107.111 162.565 107.654 162.79 108.22 162.79Z" fill="white"/>
</mask>
<g mask="url(#mask0_21_1145)">
<path d="M120.433 158.929H104.851V159.543H120.433V158.929Z" fill="#263238"/>
<path d="M120.433 159.885H104.851V160.499H120.433V159.885Z" fill="#263238"/>
<path d="M120.433 160.846H104.851V161.46H120.433V160.846Z" fill="#263238"/>
<path d="M120.433 161.802H104.851V162.416H120.433V161.802Z" fill="#263238"/>
</g>
<path d="M100.152 152.975L100.253 153.076L103.137 154.374C105.929 155.666 107.451 155.538 106.981 154.374C106.981 154.374 106.48 149.734 103.398 149.734C102.538 149.734 101.713 150.075 101.104 150.683C100.496 151.29 100.153 152.115 100.152 152.975Z" fill="#0E888D"/>
<g opacity="0.7">
<path d="M100.152 152.975L100.253 153.076L103.137 154.374C105.929 155.666 107.451 155.538 106.981 154.374C106.981 154.374 106.48 149.734 103.398 149.734C102.538 149.734 101.713 150.075 101.104 150.683C100.496 151.29 100.153 152.115 100.152 152.975Z" fill="white"/>
</g>
<path d="M161.77 165.898V221.055H160.339L158.534 165.898H161.77Z" fill="#263238"/>
<path d="M144.847 167.703V221.044H143.416L141.611 167.703H144.847Z" fill="#263238"/>
<path opacity="0.5" d="M144.847 167.703V221.044H143.416L141.611 167.703H144.847Z" fill="black"/>
<path d="M75.8013 165.898V220.296H77.2324L79.0373 165.898H75.8013Z" fill="#263238"/>
<path opacity="0.5" d="M75.8013 165.898V220.296H77.2324L79.0373 165.898H75.8013Z" fill="black"/>
<path d="M92.7236 167.703V220.718H94.1548L95.9597 167.703H92.7236Z" fill="#263238"/>
<path d="M172.717 164.237H65.8955V166.549H172.717V164.237Z" fill="#263238"/>
<path d="M72.923 169.027H165.156L168.894 166.549H69.1797L72.923 169.027Z" fill="#263238"/>
<path opacity="0.5" d="M72.923 169.027H165.156L168.894 166.549H69.1797L72.923 169.027Z" fill="black"/>
</svg>
