<svg preserveAspectRatio="none" width="100%" height="100%" overflow="visible" style="display: block;" viewBox="0 0 99.8331 89.5631" fill="none" xmlns="http://www.w3.org/2000/svg">
<g id="freepik--device-3--inject-32">
<path id="Vector" d="M64.965 65.752C64.7277 65.6612 64.4653 65.6612 64.2281 65.752H45.9119L38.2169 88.3188H57.537L57.9375 87.112H59.1017L65.5684 67.0496C65.654 66.7972 65.6391 66.5215 65.5268 66.2799C65.4144 66.0382 65.2132 65.8491 64.965 65.752ZM56.5652 76.3893L55.903 78.4505C55.6981 79.073 55.3016 79.6148 54.7703 79.9984C54.239 80.382 53.6 80.5879 52.9446 80.5865H52.0208C51.6451 80.587 51.2746 80.4986 50.9396 80.3285C50.6046 80.1584 50.3146 79.9115 50.0933 79.6079C49.8719 79.3043 49.7256 78.9526 49.6662 78.5816C49.6067 78.2106 49.6359 77.8309 49.7513 77.4733L50.4188 75.4121C50.6228 74.79 51.0182 74.2484 51.5486 73.8648C52.079 73.4811 52.7172 73.275 53.3718 73.2761H54.301C54.6775 73.2759 55.0487 73.365 55.3841 73.536C55.7195 73.707 56.0096 73.9552 56.2305 74.26C56.4515 74.5649 56.597 74.9178 56.6552 75.2898C56.7134 75.6617 56.6825 76.0422 56.5652 76.4V76.3893Z" fill="var(--fill-0, #263238)"/>
<path id="Vector_2" opacity="0.3" d="M64.965 65.752C64.7277 65.6612 64.4653 65.6612 64.2281 65.752H45.9119L38.2169 88.3188H57.537L57.9375 87.112H59.1017L65.5684 67.0496C65.654 66.7972 65.6391 66.5215 65.5268 66.2799C65.4144 66.0382 65.2132 65.8491 64.965 65.752ZM56.5652 76.3893L55.903 78.4505C55.6981 79.073 55.3016 79.6148 54.7703 79.9984C54.239 80.382 53.6 80.5879 52.9446 80.5865H52.0208C51.6451 80.587 51.2746 80.4986 50.9396 80.3285C50.6046 80.1584 50.3146 79.9115 50.0933 79.6079C49.8719 79.3043 49.7256 78.9526 49.6662 78.5816C49.6067 78.2106 49.6359 77.8309 49.7513 77.4733L50.4188 75.4121C50.6228 74.79 51.0182 74.2484 51.5486 73.8648C52.079 73.4811 52.7172 73.275 53.3718 73.2761H54.301C54.6775 73.2759 55.0487 73.365 55.3841 73.536C55.7195 73.707 56.0096 73.9552 56.2305 74.26C56.4515 74.5649 56.597 74.9178 56.6552 75.2898C56.7134 75.6617 56.6825 76.0422 56.5652 76.4V76.3893Z" fill="var(--fill-0, white)"/>
<path id="Vector_3" d="M80.0933 87.112H61.0401C61.3135 87.112 61.5756 87.2206 61.7689 87.4139C61.9622 87.6071 62.0708 87.8693 62.0708 88.1426V88.5325C62.0715 88.668 62.0453 88.8023 61.9938 88.9277C61.9422 89.0531 61.8663 89.1669 61.7705 89.2628C61.6746 89.3586 61.5607 89.4345 61.4354 89.4861C61.31 89.5376 61.1757 89.5638 61.0401 89.5631H80.0933C80.2284 89.5631 80.3621 89.5364 80.4869 89.4845C80.6116 89.4327 80.7249 89.3567 80.8201 89.2609C80.9154 89.1651 80.9908 89.0515 81.042 88.9265C81.0932 88.8014 81.1193 88.6675 81.1185 88.5325V88.1426C81.1186 87.8702 81.0107 87.6089 80.8186 87.4158C80.6265 87.2226 80.3657 87.1134 80.0933 87.112Z" fill="var(--fill-0, #263238)"/>
<path id="Vector_4" opacity="0.3" d="M80.0933 87.112H61.0401C61.3135 87.112 61.5756 87.2206 61.7689 87.4139C61.9622 87.6071 62.0708 87.8693 62.0708 88.1426V88.5325C62.0715 88.668 62.0453 88.8023 61.9938 88.9277C61.9422 89.0531 61.8663 89.1669 61.7705 89.2628C61.6746 89.3586 61.5607 89.4345 61.4354 89.4861C61.31 89.5376 61.1757 89.5638 61.0401 89.5631H80.0933C80.2284 89.5631 80.3621 89.5364 80.4869 89.4845C80.6116 89.4327 80.7249 89.3567 80.8201 89.2609C80.9154 89.1651 80.9908 89.0515 81.042 88.9265C81.0932 88.8014 81.1193 88.6675 81.1185 88.5325V88.1426C81.1186 87.8702 81.0107 87.6089 80.8186 87.4158C80.6265 87.2226 80.3657 87.1134 80.0933 87.112Z" fill="var(--fill-0, white)"/>
<path id="Vector_5" d="M61.0401 89.5524H37.1116L44.5876 66.4088C44.6305 66.2754 44.7003 66.1521 44.7925 66.0466C44.8847 65.941 44.9975 65.8553 45.124 65.7949C45.2504 65.7344 45.3879 65.7003 45.528 65.6948C45.668 65.6893 45.8078 65.7124 45.9386 65.7627C46.1837 65.8577 46.3832 66.0427 46.4964 66.28C46.6095 66.5172 46.6278 66.7887 46.5474 67.039L40.0486 87.112H61.0401C61.3135 87.112 61.5756 87.2206 61.7689 87.4139C61.9622 87.6072 62.0707 87.8693 62.0707 88.1426V88.5325C62.07 88.6671 62.0428 88.8003 61.9907 88.9244C61.9385 89.0485 61.8624 89.1612 61.7667 89.2559C61.671 89.3506 61.5575 89.4255 61.4329 89.4764C61.3082 89.5273 61.1748 89.5531 61.0401 89.5524Z" fill="var(--fill-0, #263238)"/>
<g id="Group" opacity="0.6">
<path id="Vector_6" d="M61.0401 89.5524H37.1116L44.5876 66.4088C44.6305 66.2754 44.7003 66.1521 44.7925 66.0466C44.8847 65.941 44.9975 65.8553 45.124 65.7949C45.2504 65.7344 45.3879 65.7003 45.528 65.6948C45.668 65.6893 45.8078 65.7124 45.9386 65.7627C46.1837 65.8577 46.3832 66.0427 46.4964 66.28C46.6095 66.5172 46.6278 66.7887 46.5474 67.039L40.0486 87.112H61.0401C61.3135 87.112 61.5756 87.2206 61.7689 87.4139C61.9622 87.6072 62.0707 87.8693 62.0707 88.1426V88.5325C62.07 88.6671 62.0428 88.8003 61.9907 88.9244C61.9385 89.0485 61.8624 89.1612 61.7667 89.2559C61.671 89.3506 61.5575 89.4255 61.4329 89.4764C61.3082 89.5273 61.1748 89.5531 61.0401 89.5524Z" fill="var(--fill-0, white)"/>
</g>
<path id="Vector_7" d="M54.301 73.2867H53.3718C53.3024 73.2867 53.2383 73.2867 53.1689 73.2867C53.5197 73.3259 53.8574 73.4426 54.1576 73.6283C54.4577 73.814 54.7129 74.0641 54.9045 74.3606C55.0962 74.657 55.2195 74.9923 55.2657 75.3422C55.3118 75.6921 55.2796 76.048 55.1714 76.384L54.5093 78.4452C54.3175 79.0367 53.9521 79.5567 53.4606 79.9377C52.9692 80.3187 52.3744 80.5429 51.7538 80.5812C51.8427 80.5867 51.9319 80.5867 52.0208 80.5812H52.9446C53.6 80.5825 54.239 80.3767 54.7703 79.993C55.3016 79.6094 55.6981 79.0677 55.903 78.4452L56.5651 76.384C56.6773 76.0278 56.7042 75.6503 56.6436 75.2818C56.583 74.9133 56.4366 74.5643 56.2162 74.2628C55.9959 73.9614 55.7077 73.716 55.375 73.5464C55.0423 73.3769 54.6744 73.2879 54.301 73.2867Z" fill="var(--fill-0, #263238)"/>
<path id="Vector_8" d="M12.7665 0.0273322H3.29867C2.83828 0.0184206 2.38129 0.107866 1.95823 0.289696C1.53517 0.471526 1.15579 0.741555 0.845437 1.08173C0.535082 1.42191 0.300897 1.8244 0.158537 2.26232C0.0161766 2.70025 -0.0310818 3.1635 0.0199155 3.62115L5.35991 65.0311C5.46028 66.0051 5.91395 66.9085 6.63517 67.5707C7.35638 68.2329 8.29518 68.6079 9.27413 68.625H18.7366L12.7665 0.0273322Z" fill="var(--fill-0, #0E888D)"/>
<path id="Vector_9" opacity="0.2" d="M12.7665 0.0273322H3.29867C2.83828 0.0184206 2.38129 0.107866 1.95823 0.289696C1.53517 0.471526 1.15579 0.741555 0.845437 1.08173C0.535082 1.42191 0.300897 1.8244 0.158537 2.26232C0.0161766 2.70025 -0.0310818 3.1635 0.0199155 3.62115L5.35991 65.0311C5.46028 66.0051 5.91395 66.9085 6.63517 67.5707C7.35638 68.2329 8.29518 68.6079 9.27413 68.625H18.7366L12.7665 0.0273322Z" fill="var(--fill-0, white)"/>
<path id="Vector_10" d="M96.5297 68.5982H11.7466C10.7678 68.5822 9.82908 68.2074 9.1085 67.5449C8.38792 66.8824 7.93569 65.9783 7.83768 65.0044L2.46564 3.59442C2.41547 3.13649 2.46348 2.67311 2.60648 2.23519C2.74948 1.79728 2.98419 1.39488 3.29495 1.05481C3.60572 0.714737 3.98539 0.444813 4.40868 0.26303C4.83197 0.0812474 5.28916 -0.00821885 5.74974 0.000593122H90.5116C91.4903 0.0166114 92.4291 0.391459 93.1496 1.05396C93.8702 1.71646 94.3224 2.62049 94.4205 3.59442L99.7925 65.0044C99.8424 65.4605 99.7949 65.9221 99.6532 66.3585C99.5114 66.7949 99.2787 67.1962 98.9702 67.5359C98.6618 67.8756 98.2848 68.146 97.8641 68.3291C97.4434 68.5123 96.9886 68.604 96.5297 68.5982Z" fill="var(--fill-0, #0E888D)"/>
<path id="Vector_11" opacity="0.5" d="M96.5297 68.5982H11.7466C10.7678 68.5822 9.82908 68.2074 9.1085 67.5449C8.38792 66.8824 7.93569 65.9783 7.83768 65.0044L2.46564 3.59442C2.41547 3.13649 2.46348 2.67311 2.60648 2.23519C2.74948 1.79728 2.98419 1.39488 3.29495 1.05481C3.60572 0.714737 3.98539 0.444813 4.40868 0.26303C4.83197 0.0812474 5.28916 -0.00821885 5.74974 0.000593122H90.5116C91.4903 0.0166114 92.4291 0.391459 93.1496 1.05396C93.8702 1.71646 94.3224 2.62049 94.4205 3.59442L99.7925 65.0044C99.8424 65.4605 99.7949 65.9221 99.6532 66.3585C99.5114 66.7949 99.2787 67.1962 98.9702 67.5359C98.6618 67.8756 98.2848 68.146 97.8641 68.3291C97.4434 68.5123 96.9886 68.604 96.5297 68.5982Z" fill="var(--fill-0, white)"/>
<path id="Vector_12" d="M7.29297 58.81L7.82697 65.0097C7.92498 65.9837 8.3772 66.8877 9.09778 67.5502C9.81836 68.2127 10.7571 68.5875 11.7358 68.6036H96.5297C96.9903 68.6124 97.4475 68.5229 97.8708 68.3411C98.294 68.1593 98.6737 67.8894 98.9845 67.5494C99.2952 67.2093 99.53 66.8069 99.673 66.369C99.816 65.9311 99.864 65.4677 99.8138 65.0097L99.2798 58.81H7.29297Z" fill="var(--fill-0, #0E888D)"/>
<path id="Vector_13" opacity="0.2" d="M7.29297 58.81L7.82697 65.0097C7.92498 65.9837 8.3772 66.8877 9.09778 67.5502C9.81836 68.2127 10.7571 68.5875 11.7358 68.6036H96.5297C96.9903 68.6124 97.4475 68.5229 97.8708 68.3411C98.294 68.1593 98.6737 67.8894 98.9845 67.5494C99.2952 67.2093 99.53 66.8069 99.673 66.369C99.816 65.9311 99.864 65.4677 99.8138 65.0097L99.2798 58.81H7.29297Z" fill="var(--fill-0, white)"/>
<path id="Vector_14" d="M5.48276 3.08712L10.0912 55.7395H95.9424L91.3339 3.08712H5.48276Z" fill="var(--fill-0, white)"/>
<path id="Vector_15" d="M25.7053 11.316H9.64796L9.146 5.53816H25.198L25.7053 11.316Z" fill="var(--fill-0, #263238)"/>
<path id="Vector_16" d="M52.6883 8.42711H42.9321L42.6812 5.53816H52.4373L52.6883 8.42711Z" fill="var(--fill-0, #263238)"/>
<path id="Vector_17" d="M34.1745 53.3632H18.1866L17.5084 45.6256H33.4964L34.1745 53.3632Z" fill="var(--fill-0, #263238)"/>
<path id="Vector_18" d="M53.4947 53.3632H37.5067L36.8285 45.6256H52.8165L53.4947 53.3632Z" fill="var(--fill-0, #263238)"/>
<path id="Vector_19" d="M72.8148 53.3632H56.8268L56.1486 45.6256H72.1366L72.8148 53.3632Z" fill="var(--fill-0, #263238)"/>
<path id="Vector_20" d="M92.135 53.3632H76.147L75.4688 45.6256H91.4568L92.135 53.3632Z" fill="var(--fill-0, #263238)"/>
<path id="Vector_21" d="M64.5271 8.42711H54.7709L54.5199 5.53816H64.2761L64.5271 8.42711Z" fill="var(--fill-0, #263238)"/>
<path id="Vector_22" d="M76.3659 8.42711H66.6097L66.3534 5.53816H76.1149L76.3659 8.42711Z" fill="var(--fill-0, #263238)"/>
<path id="Vector_23" d="M88.2047 8.42711H78.4485L78.1922 5.53816H87.9483L88.2047 8.42711Z" fill="var(--fill-0, #263238)"/>
<path id="Vector_24" d="M94.8049 43.0196H8.95375L6.52938 15.3477H92.3859L94.8049 43.0196Z" fill="var(--fill-0, #263238)"/>
<g id="Group_2" opacity="0.9">
<path id="Vector_25" d="M25.7053 11.316H9.64792L9.14596 5.53811H25.198L25.7053 11.316Z" fill="var(--fill-0, white)"/>
<path id="Vector_26" d="M52.6883 8.42705H42.9321L42.6811 5.53811H52.4373L52.6883 8.42705Z" fill="var(--fill-0, white)"/>
<path id="Vector_27" d="M34.1746 53.3632H18.1866L17.5084 45.6255H33.4964L34.1746 53.3632Z" fill="var(--fill-0, white)"/>
<path id="Vector_28" d="M53.4946 53.3632H37.5067L36.8285 45.6255H52.8165L53.4946 53.3632Z" fill="var(--fill-0, white)"/>
<path id="Vector_29" d="M72.8147 53.3632H56.8268L56.1486 45.6255H72.1365L72.8147 53.3632Z" fill="var(--fill-0, white)"/>
<path id="Vector_30" d="M92.1349 53.3632H76.147L75.4688 45.6255H91.4568L92.1349 53.3632Z" fill="var(--fill-0, white)"/>
<path id="Vector_31" d="M64.5271 8.42705H54.771L54.52 5.53811H64.2762L64.5271 8.42705Z" fill="var(--fill-0, white)"/>
<path id="Vector_32" d="M76.3659 8.42705H66.6097L66.3534 5.53811H76.1149L76.3659 8.42705Z" fill="var(--fill-0, white)"/>
<path id="Vector_33" d="M88.2046 8.42705H78.4484L78.1921 5.53811H87.9483L88.2046 8.42705Z" fill="var(--fill-0, white)"/>
<path id="Vector_34" d="M94.8049 43.0196H8.95371L6.52935 15.3477H92.3859L94.8049 43.0196Z" fill="var(--fill-0, white)"/>
</g>
<path id="Vector_35" d="M60.6876 35.9388H50.6485C49.9496 35.9255 49.2797 35.657 48.7653 35.1838C48.2508 34.7107 47.9272 34.0656 47.8556 33.3703L46.9745 23.3311C46.9413 22.9898 46.9797 22.6454 47.0873 22.3199C47.1949 21.9944 47.3693 21.6949 47.5993 21.4407C47.8308 21.1894 48.1125 20.9897 48.4263 20.8545C48.74 20.7192 49.0786 20.6515 49.4203 20.6557H59.4595C60.1583 20.669 60.8281 20.9376 61.3426 21.4107C61.8571 21.8839 62.1807 22.529 62.2523 23.2243L63.1334 33.2635C63.1666 33.6047 63.1282 33.9491 63.0206 34.2746C62.913 34.6002 62.7386 34.8996 62.5086 35.1538C62.2771 35.4051 61.9954 35.6048 61.6816 35.7401C61.3679 35.8753 61.0292 35.943 60.6876 35.9388ZM49.4203 21.8572C49.2447 21.852 49.0702 21.8849 48.9086 21.9535C48.7469 22.0221 48.602 22.1249 48.4839 22.2547C48.3657 22.3846 48.277 22.5384 48.2238 22.7058C48.1707 22.8731 48.1544 23.05 48.176 23.2243L49.0518 33.2635C49.0922 33.6626 49.2776 34.033 49.5729 34.3047C49.8681 34.5763 50.2527 34.7302 50.6538 34.7373H60.693C60.8678 34.7408 61.0413 34.7074 61.2024 34.6393C61.3634 34.5712 61.5082 34.47 61.6275 34.3421C61.7449 34.2111 61.8337 34.057 61.8879 33.8896C61.9422 33.7222 61.9608 33.5453 61.9425 33.3703L61.0615 23.3311C61.021 22.9319 60.8356 22.5615 60.5404 22.2899C60.2451 22.0183 59.8606 21.8643 59.4595 21.8572H49.4203Z" fill="var(--fill-0, #263238)"/>
<g id="Group_3" opacity="0.5">
<path id="Vector_36" d="M60.6876 35.9388H50.6485C49.9496 35.9255 49.2797 35.657 48.7653 35.1838C48.2508 34.7107 47.9272 34.0656 47.8556 33.3703L46.9745 23.3311C46.9413 22.9898 46.9797 22.6454 47.0873 22.3199C47.1949 21.9944 47.3693 21.6949 47.5993 21.4407C47.8308 21.1894 48.1125 20.9897 48.4263 20.8545C48.74 20.7192 49.0786 20.6515 49.4203 20.6557H59.4595C60.1583 20.669 60.8281 20.9376 61.3426 21.4107C61.8571 21.8839 62.1807 22.529 62.2523 23.2243L63.1334 33.2635C63.1666 33.6047 63.1282 33.9491 63.0206 34.2746C62.913 34.6002 62.7386 34.8996 62.5086 35.1538C62.2771 35.4051 61.9954 35.6048 61.6816 35.7401C61.3679 35.8753 61.0292 35.943 60.6876 35.9388ZM49.4203 21.8572C49.2447 21.852 49.0702 21.8849 48.9086 21.9535C48.7469 22.0221 48.602 22.1249 48.4839 22.2547C48.3657 22.3846 48.277 22.5384 48.2238 22.7058C48.1707 22.8731 48.1544 23.05 48.176 23.2243L49.0518 33.2635C49.0922 33.6626 49.2776 34.033 49.5729 34.3047C49.8681 34.5763 50.2527 34.7302 50.6538 34.7373H60.693C60.8678 34.7408 61.0413 34.7074 61.2024 34.6393C61.3634 34.5712 61.5082 34.47 61.6275 34.3421C61.7449 34.2111 61.8337 34.057 61.8879 33.8896C61.9422 33.7222 61.9608 33.5453 61.9425 33.3703L61.0615 23.3311C61.021 22.9319 60.8356 22.5615 60.5404 22.2899C60.2451 22.0183 59.8606 21.8643 59.4595 21.8572H49.4203Z" fill="var(--fill-0, white)"/>
</g>
<path id="Vector_37" d="M52.9714 32.4785L45.3085 25.4297C45.0515 25.1924 44.8992 24.8628 44.8852 24.5133C44.8711 24.1638 44.9965 23.8231 45.2337 23.566C45.3508 23.4384 45.4919 23.3351 45.649 23.262C45.806 23.1889 45.9759 23.1474 46.149 23.14C46.322 23.1325 46.4948 23.1593 46.6576 23.2186C46.8203 23.278 46.9697 23.3688 47.0974 23.4859L52.8112 28.7351L63.8757 16.624C64.1124 16.3652 64.4421 16.2108 64.7925 16.1948C65.1429 16.1788 65.4853 16.3024 65.7447 16.5386C66.0035 16.7753 66.1579 17.105 66.1739 17.4554C66.1899 17.8058 66.0663 18.1482 65.8301 18.4076L52.9714 32.4785Z" fill="var(--fill-0, #0E888D)"/>
<g id="Group_4" opacity="0.2">
<path id="Vector_38" d="M52.9714 32.4785L45.3085 25.4297C45.0515 25.1924 44.8992 24.8628 44.8852 24.5133C44.8711 24.1638 44.9965 23.8231 45.2337 23.566C45.3508 23.4384 45.4919 23.3351 45.649 23.262C45.806 23.1889 45.9759 23.1474 46.149 23.14C46.322 23.1325 46.4948 23.1593 46.6576 23.2186C46.8203 23.278 46.9697 23.3688 47.0974 23.4859L52.8112 28.7351L63.8757 16.624C64.1124 16.3652 64.4421 16.2108 64.7925 16.1948C65.1429 16.1788 65.4853 16.3024 65.7447 16.5386C66.0035 16.7753 66.1579 17.105 66.1739 17.4554C66.1899 17.8058 66.0663 18.1482 65.8301 18.4076L52.9714 32.4785Z" fill="var(--fill-0, black)"/>
</g>
</g>
</svg>
