<svg preserveAspectRatio="none" width="100%" height="100%" overflow="visible" style="display: block;" viewBox="0 0 37.3962 62.613" fill="none" xmlns="http://www.w3.org/2000/svg">
<g id="freepik--device-4--inject-32">
<path id="Vector" d="M4.23695 0.000772657H9.67307L15.1466 62.6123H9.71579C8.47495 62.5899 7.28536 62.1134 6.37216 61.273C5.45895 60.4326 4.88548 59.2866 4.76027 58.0519L0.0770893 4.56113C0.0132899 3.98064 0.0738772 3.39321 0.254818 2.83795C0.435758 2.2827 0.732898 1.77236 1.12646 1.34091C1.52003 0.909451 2.00098 0.566779 2.53731 0.335704C3.07365 0.10463 3.65305 -0.00954863 4.23695 0.000772657Z" fill="var(--fill-0, #0E888D)"/>
<path id="Vector_2" d="M0.872743 6.2806C0.860977 6.16204 0.806068 6.05194 0.718449 5.97121C0.630829 5.89049 0.516605 5.84475 0.397483 5.84272C0.341791 5.84239 0.286658 5.85385 0.235701 5.87632C0.184744 5.8988 0.139114 5.93178 0.101801 5.97313C0.0644891 6.01448 0.036339 6.06324 0.0191951 6.11623C0.00205106 6.16922 -0.00370167 6.22524 0.00232014 6.2806L0.370781 10.4778C0.381391 10.5954 0.435389 10.7049 0.522256 10.7848C0.609124 10.8648 0.722643 10.9095 0.840704 10.9104C0.896588 10.9123 0.952217 10.9021 1.00382 10.8806C1.05543 10.859 1.10179 10.8267 1.13978 10.7856C1.17777 10.7446 1.2065 10.6959 1.224 10.6428C1.24149 10.5897 1.24736 10.5334 1.2412 10.4778L0.872743 6.2806Z" fill="var(--fill-0, #0E888D)"/>
<path id="Vector_3" opacity="0.5" d="M0.872743 6.2806C0.860977 6.16204 0.806068 6.05194 0.718449 5.97121C0.630829 5.89049 0.516605 5.84475 0.397483 5.84272C0.341791 5.84239 0.286658 5.85385 0.235701 5.87632C0.184744 5.8988 0.139114 5.93178 0.101801 5.97313C0.0644891 6.01448 0.036339 6.06324 0.0191951 6.11623C0.00205106 6.16922 -0.00370167 6.22524 0.00232014 6.2806L0.370781 10.4778C0.381391 10.5954 0.435389 10.7049 0.522256 10.7848C0.609124 10.8648 0.722643 10.9095 0.840704 10.9104C0.896588 10.9123 0.952217 10.9021 1.00382 10.8806C1.05543 10.859 1.10179 10.8267 1.13978 10.7856C1.17777 10.7446 1.2065 10.6959 1.224 10.6428C1.24149 10.5897 1.24736 10.5334 1.2412 10.4778L0.872743 6.2806Z" fill="var(--fill-0, white)"/>
<path id="Vector_4" d="M10.8265 62.6123H33.2118C33.7957 62.6226 34.3751 62.5084 34.9114 62.2773C35.4477 62.0462 35.9287 61.7036 36.3222 61.2721C36.7158 60.8407 37.0129 60.3303 37.1939 59.7751C37.3748 59.2198 37.4354 58.6324 37.3716 58.0519L32.6884 4.56111C32.5632 3.3264 31.9898 2.18042 31.0765 1.34003C30.1633 0.499645 28.9738 0.023161 27.7329 0.000753254H5.35298C4.76883 -0.0104364 4.18902 0.103154 3.65227 0.333937C3.11553 0.56472 2.6342 0.907382 2.24046 1.33903C1.84672 1.77068 1.54962 2.28139 1.36901 2.83703C1.1884 3.39266 1.12843 3.98045 1.19311 4.56111L5.87096 58.0359C5.99249 59.2735 6.56435 60.4233 7.47792 61.267C8.3915 62.1107 9.58314 62.5894 10.8265 62.6123Z" fill="var(--fill-0, #0E888D)"/>
<path id="Vector_5" opacity="0.5" d="M10.8265 62.6123H33.2118C33.7957 62.6226 34.3751 62.5084 34.9114 62.2773C35.4477 62.0462 35.9287 61.7036 36.3222 61.2721C36.7158 60.8407 37.0129 60.3303 37.1939 59.7751C37.3748 59.2198 37.4354 58.6324 37.3716 58.0519L32.6884 4.56111C32.5632 3.3264 31.9898 2.18042 31.0765 1.34003C30.1633 0.499645 28.9738 0.023161 27.7329 0.000753254H5.35298C4.76883 -0.0104364 4.18902 0.103154 3.65227 0.333937C3.11553 0.56472 2.6342 0.907382 2.24046 1.33903C1.84672 1.77068 1.54962 2.28139 1.36901 2.83703C1.1884 3.39266 1.12843 3.98045 1.19311 4.56111L5.87096 58.0359C5.99249 59.2735 6.56435 60.4233 7.47792 61.267C8.3915 62.1107 9.58314 62.5894 10.8265 62.6123Z" fill="var(--fill-0, white)"/>
<path id="Vector_6" d="M5.44378 1.04741H11.259C11.4489 1.05112 11.632 1.11837 11.7792 1.2384C11.9263 1.35844 12.029 1.52433 12.0707 1.70957L12.1081 1.89113C12.2108 2.34068 12.4612 2.74282 12.8194 3.03324C13.1776 3.32367 13.6228 3.48559 14.0839 3.49313H19.6268C20.0632 3.50321 20.4859 3.34053 20.8029 3.04051C21.1199 2.74048 21.3056 2.32739 21.3196 1.89113V1.70957C21.3217 1.6205 21.3413 1.53272 21.3773 1.45123C21.4133 1.36974 21.465 1.29615 21.5295 1.23466C21.594 1.17317 21.6699 1.12498 21.753 1.09285C21.8361 1.06072 21.9247 1.04528 22.0138 1.04741H27.8291C28.7851 1.06473 29.7016 1.43188 30.4052 2.07938C31.1088 2.72688 31.5506 3.60982 31.6472 4.56113L36.325 58.0359C36.3744 58.4831 36.3279 58.9357 36.1886 59.3636C36.0494 59.7914 35.8206 60.1847 35.5174 60.5171C35.2142 60.8496 34.8437 61.1136 34.4305 61.2917C34.0173 61.4697 33.5709 61.5576 33.121 61.5496H10.7357C9.77969 61.5323 8.86316 61.1651 8.15957 60.5176C7.45598 59.8701 7.01412 58.9872 6.91762 58.0359L2.23443 4.54511C2.1883 4.09886 2.23735 3.6479 2.37835 3.222C2.51935 2.79611 2.74908 2.40496 3.05239 2.0744C3.3557 1.74384 3.72569 1.48138 4.13791 1.30435C4.55013 1.12732 4.99522 1.03974 5.44378 1.04741Z" fill="var(--fill-0, white)"/>
<path id="Vector_7" d="M18.0248 1.6401C18.0366 1.76008 18.0921 1.87153 18.1807 1.95326C18.2693 2.03499 18.3849 2.08128 18.5054 2.08332C18.5622 2.0844 18.6187 2.07338 18.6709 2.05097C18.7231 2.02856 18.77 1.99529 18.8084 1.95336C18.8468 1.91144 18.8758 1.86181 18.8936 1.8078C18.9113 1.75379 18.9173 1.69662 18.9112 1.6401C18.8995 1.52013 18.844 1.40867 18.7554 1.32694C18.6667 1.24521 18.5512 1.19892 18.4306 1.19688C18.3738 1.1958 18.3174 1.20683 18.2651 1.22924C18.2129 1.25164 18.166 1.28492 18.1276 1.32684C18.0892 1.36877 18.0602 1.41839 18.0425 1.4724C18.0247 1.52641 18.0187 1.58358 18.0248 1.6401Z" fill="var(--fill-0, #263238)"/>
<path id="Vector_8" d="M14.8475 1.19688H16.3694C16.4905 1.19878 16.6068 1.24489 16.6963 1.32652C16.7858 1.40815 16.8423 1.51967 16.8554 1.6401C16.8614 1.69662 16.8554 1.75379 16.8377 1.8078C16.8199 1.86181 16.7909 1.91144 16.7525 1.95336C16.7141 1.99529 16.6673 2.02856 16.615 2.05097C16.5628 2.07338 16.5064 2.0844 16.4495 2.08332H14.9276C14.8065 2.08142 14.6903 2.03531 14.6008 1.95368C14.5113 1.87206 14.4547 1.76053 14.4417 1.6401C14.4356 1.58358 14.4416 1.52641 14.4594 1.4724C14.4771 1.41839 14.5061 1.36877 14.5445 1.32684C14.5829 1.28492 14.6298 1.25164 14.682 1.22924C14.7343 1.20683 14.7907 1.1958 14.8475 1.19688Z" fill="var(--fill-0, #263238)"/>
<path id="Vector_9" d="M34.7337 40.0561H5.32628L2.75774 10.6541H32.1598L34.7337 40.0561Z" fill="var(--fill-0, #263238)"/>
<path id="Vector_10" d="M8.86673 7.16172C8.90378 7.46706 8.87444 7.7768 8.78073 8.06976C8.68702 8.36272 8.53114 8.63199 8.32376 8.85914C8.11638 9.0863 7.86238 9.26599 7.57915 9.38592C7.29591 9.50585 6.99011 9.5632 6.68267 9.55404C6.03213 9.54064 5.40888 9.29014 4.93001 8.84962C4.45114 8.4091 4.14962 7.80888 4.08209 7.16172C4.04504 6.85638 4.07438 6.54663 4.16809 6.25368C4.2618 5.96072 4.41768 5.69145 4.62506 5.4643C4.83244 5.23714 5.08643 5.05745 5.36967 4.93752C5.6529 4.81759 5.9587 4.76024 6.26615 4.7694C6.91668 4.7828 7.53993 5.0333 8.0188 5.47382C8.49767 5.91434 8.7992 6.51456 8.86673 7.16172Z" fill="var(--fill-0, #263238)"/>
<path id="Vector_11" d="M28.614 8.26175H24.0216C23.7221 8.25672 23.4348 8.14193 23.2143 7.93917C22.9938 7.7364 22.8555 7.45975 22.8254 7.16171C22.8102 7.02169 22.825 6.88004 22.8688 6.74617C22.9126 6.6123 22.9843 6.48927 23.0792 6.38524C23.1742 6.28121 23.2902 6.19856 23.4195 6.14277C23.5488 6.08699 23.6885 6.05934 23.8293 6.06167H28.4217C28.7212 6.0667 29.0085 6.18149 29.229 6.38426C29.4495 6.58703 29.5879 6.86367 29.6179 7.16171C29.6331 7.30174 29.6183 7.44338 29.5745 7.57726C29.5307 7.71113 29.459 7.83416 29.3641 7.9382C29.2691 8.04223 29.1531 8.12488 29.0238 8.18066C28.8945 8.23645 28.7548 8.26409 28.614 8.26175Z" fill="var(--fill-0, #263238)"/>
<path id="Vector_12" d="M18.5588 44.1518H8.7332C8.44354 44.1476 8.16575 44.0361 7.95364 43.8388C7.74153 43.6415 7.6102 43.3724 7.5851 43.0838C7.56731 42.9485 7.57907 42.8108 7.61956 42.6804C7.66006 42.55 7.72833 42.4299 7.81967 42.3284C7.91102 42.2269 8.02328 42.1464 8.14871 42.0925C8.27415 42.0385 8.40979 42.0124 8.5463 42.0158H18.3772C18.6665 42.0212 18.9437 42.1332 19.1555 42.3303C19.3674 42.5273 19.4991 42.7957 19.5253 43.0838C19.5414 43.2194 19.5282 43.3567 19.4867 43.4867C19.4452 43.6167 19.3764 43.7364 19.2848 43.8375C19.1932 43.9387 19.0811 44.0191 18.9558 44.0733C18.8306 44.1275 18.6952 44.1543 18.5588 44.1518Z" fill="var(--fill-0, #263238)"/>
<path id="Vector_13" d="M31.3748 48.2904H9.10704C8.81809 48.2838 8.54159 48.1715 8.32997 47.9746C8.11835 47.7778 7.98632 47.5101 7.95893 47.2224C7.9429 47.0869 7.95608 46.9495 7.99756 46.8195C8.03905 46.6895 8.10789 46.5699 8.19946 46.4687C8.29103 46.3675 8.40319 46.2871 8.52842 46.2329C8.65365 46.1787 8.78904 46.1519 8.92548 46.1544H31.1933C31.4832 46.1596 31.761 46.2714 31.9737 46.4684C32.1864 46.6654 32.3192 46.9338 32.3467 47.2224C32.3628 47.3584 32.3495 47.4962 32.3077 47.6266C32.2659 47.757 32.1966 47.8769 32.1045 47.9781C32.0123 48.0794 31.8995 48.1597 31.7736 48.2136C31.6477 48.2674 31.5117 48.2936 31.3748 48.2904Z" fill="var(--fill-0, #263238)"/>
<path id="Vector_14" d="M26.0882 51.505H9.39005C9.1011 51.4985 8.8246 51.3861 8.61298 51.1893C8.40136 50.9924 8.26933 50.7248 8.24194 50.437C8.22507 50.3018 8.23748 50.1645 8.27832 50.0345C8.31916 49.9045 8.38748 49.7848 8.47864 49.6835C8.5698 49.5822 8.68168 49.5017 8.80669 49.4475C8.93169 49.3932 9.0669 49.3665 9.20314 49.369H25.9067C26.1956 49.3756 26.4721 49.4879 26.6837 49.6848C26.8954 49.8816 27.0274 50.1493 27.0548 50.437C27.0708 50.5725 27.0576 50.7099 27.0161 50.8399C26.9747 50.9699 26.9058 51.0895 26.8143 51.1907C26.7227 51.2919 26.6105 51.3723 26.4853 51.4265C26.3601 51.4807 26.2247 51.5075 26.0882 51.505Z" fill="var(--fill-0, #263238)"/>
<path id="Vector_15" d="M29.3243 54.7197H9.67308C9.38341 54.7155 9.10562 54.604 8.89351 54.4067C8.6814 54.2093 8.55008 53.9403 8.52498 53.6517C8.50811 53.5165 8.52051 53.3792 8.56135 53.2492C8.60219 53.1192 8.67051 52.9995 8.76167 52.8982C8.85283 52.7969 8.96471 52.7164 9.08971 52.6622C9.21472 52.6079 9.34992 52.5811 9.48617 52.5837H29.1427C29.4317 52.5903 29.7082 52.7026 29.9198 52.8995C30.1314 53.0963 30.2634 53.364 30.2908 53.6517C30.3068 53.7872 30.2937 53.9246 30.2522 54.0546C30.2107 54.1846 30.1419 54.3042 30.0503 54.4054C29.9587 54.5066 29.8466 54.587 29.7213 54.6412C29.5961 54.6954 29.4607 54.7222 29.3243 54.7197Z" fill="var(--fill-0, #263238)"/>
<path id="Vector_16" d="M15.9689 57.9344H9.95073C9.66179 57.9279 9.38528 57.8155 9.17367 57.6186C8.96205 57.4218 8.83002 57.1541 8.80263 56.8664C8.7866 56.7309 8.79977 56.5935 8.84126 56.4635C8.88275 56.3335 8.95159 56.2139 9.04316 56.1127C9.13472 56.0115 9.24689 55.9311 9.37211 55.8769C9.49734 55.8227 9.63273 55.7959 9.76917 55.7984H15.782C16.0717 55.8026 16.3495 55.9142 16.5616 56.1115C16.7737 56.3088 16.905 56.5778 16.9301 56.8664C16.947 57.0016 16.9346 57.1389 16.8937 57.2689C16.8529 57.3989 16.7846 57.5186 16.6934 57.6199C16.6023 57.7212 16.4904 57.8017 16.3654 57.856C16.2404 57.9102 16.1052 57.937 15.9689 57.9344Z" fill="var(--fill-0, #263238)"/>
<path id="Vector_17" opacity="0.9" d="M34.7337 40.0561H5.32628L2.75774 10.6541H32.1598L34.7337 40.0561Z" fill="var(--fill-0, white)"/>
<path id="Vector_18" opacity="0.9" d="M8.86673 7.16172C8.90378 7.46706 8.87444 7.7768 8.78073 8.06976C8.68702 8.36272 8.53114 8.63199 8.32376 8.85914C8.11638 9.0863 7.86238 9.26599 7.57915 9.38592C7.29591 9.50585 6.99011 9.5632 6.68267 9.55404C6.03213 9.54064 5.40888 9.29014 4.93001 8.84962C4.45114 8.4091 4.14962 7.80888 4.08209 7.16172C4.04504 6.85638 4.07438 6.54663 4.16809 6.25368C4.2618 5.96072 4.41768 5.69145 4.62506 5.4643C4.83244 5.23714 5.08643 5.05745 5.36967 4.93752C5.6529 4.81759 5.9587 4.76024 6.26615 4.7694C6.91668 4.7828 7.53993 5.0333 8.0188 5.47382C8.49767 5.91434 8.7992 6.51456 8.86673 7.16172Z" fill="var(--fill-0, white)"/>
<path id="Vector_19" opacity="0.9" d="M28.614 8.26175H24.0216C23.7221 8.25672 23.4348 8.14193 23.2143 7.93917C22.9938 7.7364 22.8555 7.45975 22.8254 7.16171C22.8102 7.02169 22.825 6.88004 22.8688 6.74617C22.9126 6.6123 22.9843 6.48927 23.0792 6.38524C23.1742 6.28121 23.2902 6.19856 23.4195 6.14277C23.5488 6.08699 23.6885 6.05934 23.8293 6.06167H28.4217C28.7212 6.0667 29.0085 6.18149 29.229 6.38426C29.4495 6.58703 29.5879 6.86367 29.6179 7.16171C29.6331 7.30174 29.6183 7.44338 29.5745 7.57726C29.5307 7.71113 29.459 7.83416 29.3641 7.9382C29.2691 8.04223 29.1531 8.12488 29.0238 8.18066C28.8945 8.23645 28.7548 8.26409 28.614 8.26175Z" fill="var(--fill-0, white)"/>
<path id="Vector_20" opacity="0.9" d="M18.5588 44.1518H8.7332C8.44354 44.1476 8.16575 44.0361 7.95364 43.8388C7.74153 43.6415 7.6102 43.3724 7.5851 43.0838C7.56731 42.9485 7.57907 42.8108 7.61956 42.6804C7.66006 42.55 7.72833 42.4299 7.81967 42.3284C7.91102 42.2269 8.02328 42.1464 8.14871 42.0925C8.27415 42.0385 8.40979 42.0124 8.5463 42.0158H18.3772C18.6665 42.0212 18.9437 42.1332 19.1555 42.3303C19.3674 42.5273 19.4991 42.7957 19.5253 43.0838C19.5414 43.2194 19.5282 43.3567 19.4867 43.4867C19.4452 43.6167 19.3764 43.7364 19.2848 43.8375C19.1932 43.9387 19.0811 44.0191 18.9558 44.0733C18.8306 44.1275 18.6952 44.1543 18.5588 44.1518Z" fill="var(--fill-0, white)"/>
<path id="Vector_21" opacity="0.9" d="M31.3748 48.2904H9.10704C8.81809 48.2838 8.54159 48.1715 8.32997 47.9746C8.11835 47.7778 7.98632 47.5101 7.95893 47.2224C7.9429 47.0869 7.95608 46.9495 7.99756 46.8195C8.03905 46.6895 8.10789 46.5699 8.19946 46.4687C8.29103 46.3675 8.40319 46.2871 8.52842 46.2329C8.65365 46.1787 8.78904 46.1519 8.92548 46.1544H31.1933C31.4832 46.1596 31.761 46.2714 31.9737 46.4684C32.1864 46.6654 32.3192 46.9338 32.3467 47.2224C32.3628 47.3584 32.3495 47.4962 32.3077 47.6266C32.2659 47.757 32.1966 47.8769 32.1045 47.9781C32.0123 48.0794 31.8995 48.1597 31.7736 48.2136C31.6477 48.2674 31.5117 48.2936 31.3748 48.2904Z" fill="var(--fill-0, white)"/>
<path id="Vector_22" opacity="0.9" d="M26.0882 51.505H9.39005C9.1011 51.4985 8.8246 51.3861 8.61298 51.1893C8.40136 50.9924 8.26933 50.7248 8.24194 50.437C8.22507 50.3018 8.23748 50.1645 8.27832 50.0345C8.31916 49.9045 8.38748 49.7848 8.47864 49.6835C8.5698 49.5822 8.68168 49.5017 8.80669 49.4475C8.93169 49.3932 9.0669 49.3665 9.20314 49.369H25.9067C26.1956 49.3756 26.4721 49.4879 26.6837 49.6848C26.8954 49.8816 27.0274 50.1493 27.0548 50.437C27.0708 50.5725 27.0576 50.7099 27.0161 50.8399C26.9747 50.9699 26.9058 51.0895 26.8143 51.1907C26.7227 51.2919 26.6105 51.3723 26.4853 51.4265C26.3601 51.4807 26.2247 51.5075 26.0882 51.505Z" fill="var(--fill-0, white)"/>
<path id="Vector_23" opacity="0.9" d="M29.3243 54.7197H9.67308C9.38341 54.7155 9.10562 54.604 8.89351 54.4067C8.6814 54.2093 8.55008 53.9403 8.52498 53.6517C8.50811 53.5165 8.52051 53.3792 8.56135 53.2492C8.60219 53.1192 8.67051 52.9995 8.76167 52.8982C8.85283 52.7969 8.96471 52.7164 9.08971 52.6622C9.21472 52.6079 9.34992 52.5811 9.48617 52.5837H29.1427C29.4317 52.5903 29.7082 52.7026 29.9198 52.8995C30.1314 53.0963 30.2634 53.364 30.2908 53.6517C30.3068 53.7872 30.2937 53.9246 30.2522 54.0546C30.2107 54.1846 30.1419 54.3042 30.0503 54.4054C29.9587 54.5066 29.8466 54.587 29.7213 54.6412C29.5961 54.6954 29.4607 54.7222 29.3243 54.7197Z" fill="var(--fill-0, white)"/>
<path id="Vector_24" opacity="0.9" d="M15.9689 57.9344H9.95073C9.66179 57.9279 9.38528 57.8155 9.17367 57.6186C8.96205 57.4218 8.83002 57.1541 8.80263 56.8664C8.7866 56.7309 8.79977 56.5935 8.84126 56.4635C8.88275 56.3335 8.95159 56.2139 9.04316 56.1127C9.13472 56.0115 9.24689 55.9311 9.37211 55.8769C9.49734 55.8227 9.63273 55.7959 9.76917 55.7984H15.782C16.0717 55.8026 16.3495 55.9142 16.5616 56.1115C16.7737 56.3088 16.905 56.5778 16.9301 56.8664C16.947 57.0016 16.9346 57.1389 16.8937 57.2689C16.8529 57.3989 16.7846 57.5186 16.6934 57.6199C16.6023 57.7212 16.4904 57.8017 16.3654 57.856C16.2404 57.9102 16.1052 57.937 15.9689 57.9344Z" fill="var(--fill-0, white)"/>
<path id="Vector_25" d="M24.7959 34.4864H15.7606C15.1312 34.4753 14.5276 34.2339 14.0641 33.8078C13.6006 33.3817 13.3094 32.8006 13.2455 32.1742L12.4552 23.1389C12.4255 22.8317 12.4599 22.5215 12.5565 22.2283C12.653 21.935 12.8094 21.6651 13.0159 21.4355C13.2245 21.2097 13.4783 21.0303 13.7607 20.9089C14.0431 20.7875 14.3479 20.7267 14.6553 20.7306H23.6905C24.32 20.7417 24.9236 20.9832 25.3871 21.4093C25.8505 21.8353 26.1418 22.4165 26.2057 23.0428L26.996 32.0781C27.0257 32.3854 26.9913 32.6955 26.8947 32.9888C26.7982 33.282 26.6417 33.552 26.4353 33.7816C26.2267 34.0073 25.9729 34.1867 25.6905 34.3082C25.4081 34.4296 25.1033 34.4903 24.7959 34.4864ZM14.6499 21.8146C14.492 21.8096 14.3348 21.8388 14.1892 21.9003C14.0437 21.9617 13.9131 22.054 13.8066 22.1707C13.7 22.2873 13.62 22.4257 13.572 22.5763C13.524 22.7268 13.5092 22.886 13.5285 23.0428L14.3188 32.0781C14.3553 32.4362 14.5215 32.7685 14.7861 33.0125C15.0507 33.2565 15.3955 33.3952 15.7553 33.4024H24.7906C24.9485 33.4075 25.1057 33.3783 25.2513 33.3168C25.3968 33.2554 25.5274 33.1631 25.6339 33.0464C25.7405 32.9297 25.8205 32.7913 25.8685 32.6408C25.9165 32.4902 25.9313 32.3311 25.912 32.1742L25.1217 23.1389C25.0852 22.7809 24.919 22.4485 24.6544 22.2046C24.3898 21.9606 24.0451 21.8219 23.6852 21.8146H14.6499Z" fill="var(--fill-0, #263238)"/>
<g id="Group" opacity="0.5">
<path id="Vector_26" d="M24.7959 34.4864H15.7606C15.1312 34.4753 14.5276 34.2339 14.0641 33.8078C13.6006 33.3817 13.3094 32.8006 13.2455 32.1742L12.4552 23.1389C12.4255 22.8317 12.4599 22.5215 12.5565 22.2283C12.653 21.935 12.8094 21.6651 13.0159 21.4355C13.2245 21.2097 13.4783 21.0303 13.7607 20.9089C14.0431 20.7875 14.3479 20.7267 14.6553 20.7306H23.6905C24.32 20.7417 24.9236 20.9832 25.3871 21.4093C25.8505 21.8353 26.1418 22.4165 26.2057 23.0428L26.996 32.0781C27.0257 32.3854 26.9913 32.6955 26.8947 32.9888C26.7982 33.282 26.6417 33.552 26.4353 33.7816C26.2267 34.0073 25.9729 34.1867 25.6905 34.3082C25.4081 34.4296 25.1033 34.4903 24.7959 34.4864ZM14.6499 21.8146C14.492 21.8096 14.3348 21.8388 14.1892 21.9003C14.0437 21.9617 13.9131 22.054 13.8066 22.1707C13.7 22.2873 13.62 22.4257 13.572 22.5763C13.524 22.7268 13.5092 22.886 13.5285 23.0428L14.3188 32.0781C14.3553 32.4362 14.5215 32.7685 14.7861 33.0125C15.0507 33.2565 15.3955 33.3952 15.7553 33.4024H24.7906C24.9485 33.4075 25.1057 33.3783 25.2513 33.3168C25.3968 33.2554 25.5274 33.1631 25.6339 33.0464C25.7405 32.9297 25.8205 32.7913 25.8685 32.6408C25.9165 32.4902 25.9313 32.3311 25.912 32.1742L25.1217 23.1389C25.0852 22.7809 24.919 22.4485 24.6544 22.2046C24.3898 21.9606 24.0451 21.8219 23.6852 21.8146H14.6499Z" fill="var(--fill-0, white)"/>
</g>
<path id="Vector_27" d="M17.8539 31.3732L10.9547 25.0293C10.7237 24.8147 10.5869 24.5175 10.5739 24.2025C10.5609 23.8875 10.6728 23.5801 10.8852 23.3472C11.0999 23.1163 11.397 22.9795 11.712 22.9665C12.027 22.9535 12.3344 23.0654 12.5673 23.2778L17.7044 28.0037L27.6689 17.0887C27.7736 16.9732 27.9001 16.8795 28.0411 16.8129C28.1821 16.7463 28.3349 16.7082 28.4906 16.7008C28.6464 16.6933 28.8021 16.7167 28.9488 16.7695C29.0955 16.8224 29.2304 16.9036 29.3456 17.0086C29.578 17.2218 29.7168 17.5182 29.7318 17.8332C29.7468 18.1482 29.6368 18.4564 29.4257 18.6907L17.8539 31.3732Z" fill="var(--fill-0, #0E888D)"/>
<g id="Group_2" opacity="0.2">
<path id="Vector_28" d="M17.8539 31.3732L10.9547 25.0293C10.7237 24.8147 10.5869 24.5175 10.5739 24.2025C10.5609 23.8875 10.6728 23.5801 10.8852 23.3472C11.0999 23.1163 11.397 22.9795 11.712 22.9665C12.027 22.9535 12.3344 23.0654 12.5673 23.2778L17.7044 28.0037L27.6689 17.0887C27.7736 16.9732 27.9001 16.8795 28.0411 16.8129C28.1821 16.7463 28.3349 16.7082 28.4906 16.7008C28.6464 16.6933 28.8021 16.7167 28.9488 16.7695C29.0955 16.8224 29.2304 16.9036 29.3456 17.0086C29.578 17.2218 29.7168 17.5182 29.7318 17.8332C29.7468 18.1482 29.6368 18.4564 29.4257 18.6907L17.8539 31.3732Z" fill="var(--fill-0, black)"/>
</g>
</g>
</svg>
