<svg preserveAspectRatio="none" width="100%" height="100%" overflow="visible" style="display: block;" viewBox="0 0 94.4777 48.4395" fill="none" xmlns="http://www.w3.org/2000/svg">
<g id="freepik--device-1--inject-32">
<path id="Vector" d="M5.6147 0.000354705H2.26652C1.9505 -0.00528645 1.63689 0.0564166 1.34656 0.181359C1.05622 0.306301 0.795815 0.491616 0.582646 0.72499C0.369477 0.958364 0.208432 1.23444 0.110222 1.53487C0.0120112 1.8353 -0.021117 2.15321 0.0130423 2.46743L3.75104 45.1554C3.81861 45.8215 4.12732 46.4399 4.61907 46.8943C5.11081 47.3487 5.75168 47.6077 6.42104 47.6225H9.78524L5.6147 0.000354705Z" fill="var(--fill-0, #FEA629)"/>
<path id="Vector_2" opacity="0.2" d="M5.6147 0.000354705H2.26652C1.9505 -0.00528645 1.63689 0.0564166 1.34656 0.181359C1.05622 0.306301 0.795815 0.491616 0.582646 0.72499C0.369477 0.958364 0.208432 1.23444 0.110222 1.53487C0.0120112 1.8353 -0.021117 2.15321 0.0130423 2.46743L3.75104 45.1554C3.81861 45.8215 4.12732 46.4399 4.61907 46.8943C5.11081 47.3487 5.75168 47.6077 6.42104 47.6225H9.78524L5.6147 0.000354705Z" fill="var(--fill-0, white)"/>
<path id="Vector_3" d="M60.1041 47.6386H7.88955C7.22018 47.6237 6.57932 47.3648 6.08757 46.9104C5.59583 46.456 5.28712 45.8376 5.21955 45.1715L1.48155 2.48352C1.44739 2.16929 1.48052 1.85139 1.57873 1.55095C1.67694 1.25052 1.83798 0.974447 2.05115 0.741073C2.26432 0.507699 2.52473 0.322384 2.81506 0.197442C3.10539 0.0724996 3.419 0.0107966 3.73503 0.0164377H55.9495C56.6189 0.0312555 57.2598 0.29022 57.7515 0.744593C58.2433 1.19897 58.552 1.81741 58.6195 2.48352L62.3575 45.1715C62.3926 45.4859 62.3601 45.8041 62.2622 46.1049C62.1643 46.4057 62.0033 46.6822 61.79 46.9158C61.5766 47.1493 61.3159 47.3346 61.0251 47.4593C60.7344 47.5839 60.4203 47.6451 60.1041 47.6386Z" fill="var(--fill-0, #FEA629)"/>
<path id="Vector_4" opacity="0.5" d="M60.1041 47.6386H7.88955C7.22018 47.6237 6.57932 47.3648 6.08757 46.9104C5.59583 46.456 5.28712 45.8376 5.21955 45.1715L1.48155 2.48352C1.44739 2.16929 1.48052 1.85139 1.57873 1.55095C1.67694 1.25052 1.83798 0.974447 2.05115 0.741073C2.26432 0.507699 2.52473 0.322384 2.81506 0.197442C3.10539 0.0724996 3.419 0.0107966 3.73503 0.0164377H55.9495C56.6189 0.0312555 57.2598 0.29022 57.7515 0.744593C58.2433 1.19897 58.552 1.81741 58.6195 2.48352L62.3575 45.1715C62.3926 45.4859 62.3601 45.8041 62.2622 46.1049C62.1643 46.4057 62.0033 46.6822 61.79 46.9158C61.5766 47.1493 61.3159 47.3346 61.0251 47.4593C60.7344 47.5839 60.4203 47.6451 60.1041 47.6386Z" fill="var(--fill-0, white)"/>
<path id="Vector_5" d="M37.3397 44.0821H94.4777V45.2355C94.4777 46.0853 94.1401 46.9002 93.5392 47.5011C92.9384 48.102 92.1234 48.4395 91.2737 48.4395H37.3397V44.0874V44.0821Z" fill="var(--fill-0, #FEA629)"/>
<path id="Vector_6" opacity="0.2" d="M37.3397 44.0821H94.4777V45.2355C94.4777 46.0853 94.1401 46.9002 93.5392 47.5011C92.9384 48.102 92.1234 48.4395 91.2737 48.4395H37.3397V44.0874V44.0821Z" fill="var(--fill-0, white)"/>
<path id="Vector_7" opacity="0.4" d="M70.6292 46.2608H66.0635C65.4866 46.2594 64.9338 46.0292 64.5264 45.6208C64.1189 45.2124 63.8901 44.659 63.8901 44.0821H72.8079C72.8079 44.6599 72.5784 45.2141 72.1698 45.6227C71.7612 46.0313 71.207 46.2608 70.6292 46.2608Z" fill="var(--fill-0, white)"/>
<path id="Vector_8" d="M59.0681 40.4082L55.784 2.85733H4.37584L7.65995 40.4082H59.0681Z" fill="var(--fill-0, white)"/>
<path id="Vector_9" d="M32.3574 1.45285C32.3665 1.53354 32.3584 1.61525 32.3334 1.69252C32.3085 1.7698 32.2673 1.84087 32.2128 1.901C32.1582 1.96113 32.0914 2.00894 32.0169 2.04123C31.9424 2.07353 31.8619 2.08959 31.7807 2.08832C31.6074 2.08537 31.4411 2.01911 31.3132 1.90206C31.1854 1.78501 31.1047 1.62525 31.0865 1.45285C31.0773 1.37171 31.0856 1.28954 31.1109 1.21188C31.1362 1.13422 31.1778 1.06287 31.2329 1.00265C31.2881 0.942431 31.3555 0.894736 31.4307 0.862778C31.5058 0.83082 31.5869 0.815348 31.6686 0.817393C31.8417 0.819309 32.0079 0.88534 32.1351 1.00272C32.2624 1.12009 32.3416 1.28047 32.3574 1.45285Z" fill="var(--fill-0, #263238)"/>
<path id="Vector_10" d="M5.37977 44.0821H41.2005V45.2355C41.2005 46.0853 40.8629 46.9002 40.2621 47.5011C39.6612 48.102 38.8462 48.4395 37.9965 48.4395H8.58377C7.73401 48.4395 6.91906 48.102 6.31819 47.5011C5.71733 46.9002 5.37977 46.0853 5.37977 45.2355V44.0821Z" fill="var(--fill-0, #FEA629)"/>
<path id="Vector_11" opacity="0.4" d="M10.9761 46.6666H8.50365C8.36203 46.6666 8.2262 46.6104 8.12606 46.5102C8.02591 46.4101 7.96965 46.2743 7.96965 46.1326C7.96965 45.991 8.02591 45.8552 8.12606 45.7551C8.2262 45.6549 8.36203 45.5986 8.50365 45.5986H10.9868C11.1284 45.5986 11.2642 45.6549 11.3644 45.7551C11.4645 45.8552 11.5208 45.991 11.5208 46.1326C11.5208 46.2037 11.5066 46.274 11.4791 46.3395C11.4516 46.405 11.4113 46.4643 11.3606 46.5141C11.3099 46.5638 11.2497 46.6029 11.1837 46.6291C11.1177 46.6553 11.0471 46.6681 10.9761 46.6666Z" fill="var(--fill-0, white)"/>
<path id="Vector_12" opacity="0.4" d="M16.3161 46.6666H13.8437C13.702 46.6666 13.5662 46.6104 13.4661 46.5102C13.3659 46.4101 13.3097 46.2743 13.3097 46.1326C13.3097 45.991 13.3659 45.8552 13.4661 45.7551C13.5662 45.6549 13.702 45.5986 13.8437 45.5986H16.3268C16.4684 45.5986 16.6042 45.6549 16.7044 45.7551C16.8045 45.8552 16.8608 45.991 16.8608 46.1326C16.8608 46.2037 16.8466 46.274 16.8191 46.3395C16.7916 46.405 16.7513 46.4643 16.7006 46.5141C16.6499 46.5638 16.5897 46.6029 16.5237 46.6291C16.4577 46.6553 16.3871 46.6681 16.3161 46.6666Z" fill="var(--fill-0, white)"/>
<path id="Vector_13" d="M15.8942 8.80072H7.22208L6.92838 5.43118H15.6005L15.8942 8.80072Z" fill="var(--fill-0, #263238)"/>
<path id="Vector_14" d="M34.5895 6.65404H29.1588L29.052 5.43118H34.4827L34.5895 6.65404Z" fill="var(--fill-0, #263238)"/>
<path id="Vector_15" d="M41.1204 6.65404H35.6896L35.5828 5.43118H41.0136L41.1204 6.65404Z" fill="var(--fill-0, #263238)"/>
<path id="Vector_16" d="M47.6512 6.65404H42.2204L42.1136 5.43118H47.5444L47.6512 6.65404Z" fill="var(--fill-0, #263238)"/>
<path id="Vector_17" d="M54.182 6.65404H48.7512L48.6444 5.43118H54.0752L54.182 6.65404Z" fill="var(--fill-0, #263238)"/>
<path id="Vector_18" d="M55.1699 17.9855H8.02841L7.38227 10.6377H54.5291L55.1699 17.9855Z" fill="var(--fill-0, #263238)"/>
<path id="Vector_19" d="M38.5678 33.4929H9.38473L8.14051 19.3098H37.3289L38.5678 33.4929Z" fill="var(--fill-0, #263238)"/>
<path id="Vector_20" d="M30.5044 36.3498H10.2979C10.1162 36.3493 9.94126 36.2812 9.80702 36.1588C9.67278 36.0364 9.58889 35.8685 9.57165 35.6876C9.56257 35.6034 9.57147 35.5183 9.59777 35.4378C9.62407 35.3573 9.66717 35.2832 9.72422 35.2206C9.78127 35.158 9.85096 35.1083 9.92868 35.0746C10.0064 35.041 10.0904 35.0242 10.1751 35.0255H30.3976C30.5777 35.0296 30.7501 35.0991 30.8827 35.2209C31.0153 35.3427 31.0992 35.5086 31.1186 35.6876C31.1278 35.7728 31.1186 35.8589 31.0917 35.9401C31.0648 36.0214 31.0207 36.096 30.9625 36.1587C30.9042 36.2215 30.8332 36.271 30.7542 36.304C30.6752 36.337 30.59 36.3526 30.5044 36.3498Z" fill="var(--fill-0, #263238)"/>
<path id="Vector_21" d="M28.5447 38.4964H10.4848C10.3044 38.4934 10.1314 38.4244 9.99854 38.3023C9.86567 38.1803 9.78219 38.0138 9.76391 37.8343C9.75489 37.7498 9.7638 37.6644 9.79006 37.5836C9.81632 37.5028 9.85933 37.4285 9.91629 37.3655C9.97325 37.3025 10.0429 37.2522 10.1206 37.218C10.1983 37.1837 10.2824 37.1663 10.3673 37.1668H28.4325C28.6134 37.1711 28.7865 37.2413 28.9192 37.3642C29.052 37.4871 29.1353 37.6543 29.1534 37.8343C29.1626 37.9189 29.1536 38.0046 29.1269 38.0854C29.1003 38.1663 29.0567 38.2406 28.9991 38.3033C28.9415 38.366 28.8711 38.4156 28.7928 38.4489C28.7144 38.4822 28.6298 38.4984 28.5447 38.4964Z" fill="var(--fill-0, #263238)"/>
<path id="Vector_22" d="M54.1073 28.4146H42.2578C42.0768 28.4117 41.9031 28.3428 41.7694 28.2209C41.6357 28.0989 41.5511 27.9323 41.5316 27.7524C41.5225 27.6675 41.5315 27.5816 41.5581 27.5005C41.5847 27.4193 41.6282 27.3447 41.6857 27.2816C41.7433 27.2185 41.8135 27.1684 41.8919 27.1345C41.9703 27.1006 42.0549 27.0837 42.1403 27.0849H53.9898C54.171 27.088 54.3447 27.1578 54.4777 27.281C54.6107 27.4041 54.6936 27.572 54.7107 27.7524C54.7207 27.8368 54.7124 27.9223 54.6864 28.0032C54.6604 28.0841 54.6174 28.1585 54.5602 28.2212C54.5029 28.284 54.4329 28.3338 54.3547 28.3671C54.2766 28.4005 54.1922 28.4167 54.1073 28.4146Z" fill="var(--fill-0, #263238)"/>
<path id="Vector_23" d="M52.1528 30.5506H42.4447C42.2639 30.5487 42.0903 30.4801 41.9572 30.3578C41.824 30.2355 41.7409 30.0683 41.7238 29.8884C41.7138 29.804 41.7221 29.7185 41.748 29.6376C41.774 29.5567 41.8171 29.4823 41.8743 29.4195C41.9315 29.3567 42.0016 29.307 42.0797 29.2736C42.1579 29.2403 42.2422 29.2241 42.3272 29.2262H52.0353C52.216 29.2281 52.3897 29.2967 52.5228 29.419C52.6559 29.5413 52.7391 29.7085 52.7562 29.8884C52.7662 29.9728 52.7579 30.0583 52.7319 30.1392C52.706 30.2201 52.6629 30.2945 52.6057 30.3573C52.5485 30.4201 52.4784 30.4698 52.4003 30.5032C52.3221 30.5365 52.2377 30.5527 52.1528 30.5506Z" fill="var(--fill-0, #263238)"/>
<path id="Vector_24" d="M55.0311 25.7392H41.1577L40.5917 19.3098H54.4704L55.0311 25.7392Z" fill="var(--fill-0, #263238)"/>
<path id="Vector_25" d="M56.1631 38.6513H42.2845L41.7238 32.222H55.6024L56.1631 38.6513Z" fill="var(--fill-0, #263238)"/>
<g id="Group" opacity="0.9">
<path id="Vector_26" d="M15.8942 8.80072H7.22208L6.92838 5.43118H15.6005L15.8942 8.80072Z" fill="var(--fill-0, white)"/>
<path id="Vector_27" d="M34.5896 6.65407H29.1589L29.0521 5.4312H34.4828L34.5896 6.65407Z" fill="var(--fill-0, white)"/>
<path id="Vector_28" d="M41.1205 6.65407H35.6897L35.5829 5.4312H41.0137L41.1205 6.65407Z" fill="var(--fill-0, white)"/>
<path id="Vector_29" d="M47.6513 6.65407H42.2205L42.1137 5.4312H47.5445L47.6513 6.65407Z" fill="var(--fill-0, white)"/>
<path id="Vector_30" d="M54.1821 6.65407H48.7513L48.6445 5.4312H54.0753L54.1821 6.65407Z" fill="var(--fill-0, white)"/>
<path id="Vector_31" d="M55.17 17.9855H8.02844L7.3823 10.6377H54.5292L55.17 17.9855Z" fill="var(--fill-0, white)"/>
<path id="Vector_32" d="M38.5679 33.4929H9.38483L8.14061 19.3099H37.329L38.5679 33.4929Z" fill="var(--fill-0, white)"/>
<path id="Vector_33" d="M30.5045 36.3498H10.2979C10.1163 36.3493 9.9413 36.2812 9.80706 36.1589C9.67282 36.0365 9.58892 35.8685 9.57169 35.6877C9.5626 35.6035 9.57151 35.5183 9.59781 35.4378C9.62411 35.3573 9.66721 35.2833 9.72426 35.2207C9.7813 35.1581 9.85099 35.1083 9.92871 35.0747C10.0064 35.041 10.0904 35.0243 10.1751 35.0255H30.3977C30.5777 35.0296 30.7501 35.0991 30.8828 35.2209C31.0154 35.3427 31.0992 35.5086 31.1186 35.6877C31.1278 35.7728 31.1186 35.8589 31.0917 35.9402C31.0648 36.0214 31.0207 36.096 30.9625 36.1588C30.9043 36.2215 30.8333 36.2711 30.7542 36.304C30.6752 36.337 30.5901 36.3526 30.5045 36.3498Z" fill="var(--fill-0, white)"/>
<path id="Vector_34" d="M28.5447 38.4964H10.4848C10.3045 38.4935 10.1314 38.4244 9.99857 38.3023C9.86571 38.1803 9.78222 38.0138 9.76395 37.8343C9.75492 37.7498 9.76383 37.6644 9.79009 37.5836C9.81635 37.5029 9.85937 37.4285 9.91632 37.3655C9.97328 37.3025 10.0429 37.2523 10.1206 37.218C10.1983 37.1838 10.2824 37.1663 10.3674 37.1668H28.4326C28.6135 37.1711 28.7865 37.2413 28.9193 37.3642C29.052 37.4871 29.1353 37.6543 29.1535 37.8343C29.1626 37.919 29.1536 38.0046 29.127 38.0855C29.1004 38.1664 29.0568 38.2406 28.9992 38.3033C28.9415 38.366 28.8712 38.4157 28.7928 38.449C28.7144 38.4823 28.6299 38.4985 28.5447 38.4964Z" fill="var(--fill-0, white)"/>
<path id="Vector_35" d="M54.1073 28.4146H42.2578C42.0769 28.4117 41.9032 28.3429 41.7694 28.2209C41.6357 28.099 41.5511 27.9324 41.5316 27.7524C41.5225 27.6675 41.5316 27.5817 41.5581 27.5005C41.5847 27.4193 41.6282 27.3447 41.6858 27.2817C41.7433 27.2186 41.8136 27.1684 41.8919 27.1345C41.9703 27.1006 42.055 27.0837 42.1404 27.0849H53.9898C54.171 27.0881 54.3448 27.1579 54.4777 27.281C54.6107 27.4041 54.6937 27.572 54.7107 27.7524C54.7207 27.8368 54.7124 27.9223 54.6864 28.0032C54.6605 28.0841 54.6174 28.1585 54.5602 28.2213C54.503 28.2841 54.4329 28.3338 54.3548 28.3672C54.2766 28.4005 54.1922 28.4167 54.1073 28.4146Z" fill="var(--fill-0, white)"/>
<path id="Vector_36" d="M52.1529 30.5506H42.4448C42.264 30.5488 42.0904 30.4801 41.9573 30.3578C41.8241 30.2356 41.741 30.0684 41.7239 29.8884C41.7139 29.8041 41.7222 29.7185 41.7481 29.6376C41.7741 29.5567 41.8172 29.4824 41.8744 29.4196C41.9316 29.3568 42.0017 29.307 42.0798 29.2737C42.158 29.2403 42.2423 29.2241 42.3273 29.2263H52.0354C52.2161 29.2281 52.3898 29.2967 52.5229 29.419C52.656 29.5413 52.7392 29.7085 52.7563 29.8884C52.7663 29.9728 52.758 30.0583 52.732 30.1392C52.7061 30.2201 52.663 30.2945 52.6058 30.3573C52.5486 30.4201 52.4785 30.4698 52.4004 30.5032C52.3222 30.5365 52.2378 30.5527 52.1529 30.5506Z" fill="var(--fill-0, white)"/>
<path id="Vector_37" d="M55.0312 25.7392H41.1578L40.5918 19.3099H54.4705L55.0312 25.7392Z" fill="var(--fill-0, white)"/>
<path id="Vector_38" d="M56.1632 38.6514H42.2846L41.7239 32.222H55.6025L56.1632 38.6514Z" fill="var(--fill-0, white)"/>
</g>
<path id="Vector_39" d="M39.7427 27.9286H29.7035C29.0046 27.9153 28.3348 27.6467 27.8203 27.1736C27.3058 26.7004 26.9823 26.0553 26.9107 25.36L26.0296 15.3208C25.9949 14.9806 26.0326 14.6369 26.1401 14.3123C26.2477 13.9877 26.4227 13.6896 26.6537 13.4374C26.8847 13.1852 27.1664 12.9848 27.4803 12.8492C27.7943 12.7137 28.1333 12.6461 28.4753 12.6508H38.5145C39.2133 12.6641 39.8832 12.9327 40.3977 13.4058C40.9121 13.879 41.2357 14.5241 41.3073 15.2194L42.1884 25.2586C42.2231 25.5988 42.1854 25.9425 42.0778 26.2671C41.9703 26.5917 41.7952 26.8899 41.5643 27.142C41.3333 27.3942 41.0516 27.5946 40.7376 27.7302C40.4237 27.8657 40.0846 27.9334 39.7427 27.9286ZM28.4753 13.847C28.3007 13.8448 28.1275 13.8788 27.9667 13.9468C27.8059 14.0148 27.6609 14.1154 27.5408 14.2422C27.4231 14.3729 27.3347 14.5272 27.2812 14.6947C27.2278 14.8623 27.2107 15.0393 27.2311 15.214L28.1068 25.2532C28.1473 25.6524 28.3327 26.0228 28.6279 26.2944C28.9231 26.566 29.3077 26.72 29.7088 26.7271H39.748C39.9237 26.7321 40.0984 26.6993 40.2603 26.6307C40.4222 26.5621 40.5673 26.4595 40.6859 26.3298C40.8045 26.2 40.8937 26.0462 40.9475 25.8789C41.0013 25.7116 41.0184 25.5346 40.9976 25.36L40.1165 15.3208C40.076 14.9217 39.8906 14.5513 39.5954 14.2797C39.3002 14.008 38.9156 13.8541 38.5145 13.847H28.4753Z" fill="var(--fill-0, #263238)"/>
<g id="Group_2" opacity="0.5">
<path id="Vector_40" d="M39.7427 27.9286H29.7035C29.0046 27.9153 28.3348 27.6467 27.8203 27.1736C27.3058 26.7004 26.9823 26.0553 26.9107 25.36L26.0296 15.3208C25.9949 14.9806 26.0326 14.6369 26.1401 14.3123C26.2477 13.9877 26.4227 13.6896 26.6537 13.4374C26.8847 13.1852 27.1664 12.9848 27.4803 12.8492C27.7943 12.7137 28.1333 12.6461 28.4753 12.6508H38.5145C39.2133 12.6641 39.8832 12.9327 40.3977 13.4058C40.9121 13.879 41.2357 14.5241 41.3073 15.2194L42.1884 25.2586C42.2231 25.5988 42.1854 25.9425 42.0778 26.2671C41.9703 26.5917 41.7952 26.8899 41.5643 27.142C41.3333 27.3942 41.0516 27.5946 40.7376 27.7302C40.4237 27.8657 40.0846 27.9334 39.7427 27.9286ZM28.4753 13.847C28.3007 13.8448 28.1275 13.8788 27.9667 13.9468C27.8059 14.0148 27.6609 14.1154 27.5408 14.2422C27.4231 14.3729 27.3347 14.5272 27.2812 14.6947C27.2278 14.8623 27.2107 15.0393 27.2311 15.214L28.1068 25.2532C28.1473 25.6524 28.3327 26.0228 28.6279 26.2944C28.9231 26.566 29.3077 26.72 29.7088 26.7271H39.748C39.9237 26.7321 40.0984 26.6993 40.2603 26.6307C40.4222 26.5621 40.5673 26.4595 40.6859 26.3298C40.8045 26.2 40.8937 26.0462 40.9475 25.8789C41.0013 25.7116 41.0184 25.5346 40.9976 25.36L40.1165 15.3208C40.076 14.9217 39.8906 14.5513 39.5954 14.2797C39.3002 14.008 38.9156 13.8541 38.5145 13.847H28.4753Z" fill="var(--fill-0, white)"/>
</g>
<path id="Vector_41" d="M32.0263 24.4682L24.3634 17.4248C24.1066 17.1866 23.9541 16.8567 23.9391 16.5068C23.9241 16.1568 24.0478 15.8151 24.2833 15.5558C24.4004 15.4282 24.5415 15.3248 24.6986 15.2517C24.8556 15.1786 25.0255 15.1372 25.1986 15.1297C25.3716 15.1223 25.5445 15.149 25.7072 15.2084C25.8699 15.2677 26.0194 15.3586 26.147 15.4757L31.8608 20.7302L42.9253 8.59777C43.162 8.33892 43.4917 8.18455 43.8421 8.16853C44.1925 8.15251 44.5349 8.27616 44.7943 8.51233C45.0531 8.74904 45.2075 9.07876 45.2235 9.42915C45.2395 9.77955 45.1159 10.122 44.8797 10.3813L32.0263 24.4682Z" fill="var(--fill-0, #FEA629)"/>
<g id="Group_3" opacity="0.2">
<path id="Vector_42" d="M32.0263 24.4682L24.3634 17.4248C24.1066 17.1866 23.9541 16.8567 23.9391 16.5068C23.9241 16.1568 24.0478 15.8151 24.2833 15.5558C24.4004 15.4282 24.5415 15.3248 24.6986 15.2517C24.8556 15.1786 25.0255 15.1372 25.1986 15.1297C25.3716 15.1223 25.5445 15.149 25.7072 15.2084C25.8699 15.2677 26.0194 15.3586 26.147 15.4757L31.8608 20.7302L42.9253 8.59777C43.162 8.33892 43.4917 8.18455 43.8421 8.16853C44.1925 8.15251 44.5349 8.27616 44.7943 8.51233C45.0531 8.74904 45.2075 9.07876 45.2235 9.42915C45.2395 9.77955 45.1159 10.122 44.8797 10.3813L32.0263 24.4682Z" fill="var(--fill-0, black)"/>
</g>
</g>
</svg>
