<svg preserveAspectRatio="none" width="100%" height="100%" overflow="visible" style="display: block;" viewBox="0 0 56.8844 68.2519" fill="none" xmlns="http://www.w3.org/2000/svg">
<g id="freepik--device-2--inject-32">
<path id="Vector" d="M8.95924 0.000741123H4.35082C3.74401 -0.010456 3.14179 0.107765 2.58426 0.347536C2.02672 0.587307 1.52667 0.943121 1.11742 1.39128C0.708167 1.83944 0.399103 2.36966 0.210808 2.94661C0.0225138 3.52357 -0.0406879 4.13402 0.0254164 4.73732L5.16784 63.5147C5.29946 64.7976 5.8964 65.9878 6.84585 66.8605C7.79531 67.7333 9.03153 68.228 10.3209 68.2513H14.9294L8.95924 0.000741123Z" fill="var(--fill-0, #FEA629)"/>
<path id="Vector_2" opacity="0.2" d="M8.95924 0.000741123H4.35082C3.74401 -0.010456 3.14179 0.107765 2.58426 0.347536C2.02672 0.587307 1.52667 0.943121 1.11742 1.39128C0.708167 1.83944 0.399103 2.36966 0.210808 2.94661C0.0225138 3.52357 -0.0406879 4.13402 0.0254164 4.73732L5.16784 63.5147C5.29946 64.7976 5.8964 65.9878 6.84585 66.8605C7.79531 67.7333 9.03153 68.228 10.3209 68.2513H14.9294L8.95924 0.000741123Z" fill="var(--fill-0, white)"/>
<path id="Vector_3" d="M12.1579 68.2513H52.5389C53.1453 68.2617 53.7469 68.1429 54.3038 67.9028C54.8607 67.6627 55.3601 67.3068 55.7687 66.8587C56.1774 66.4106 56.486 65.8807 56.674 65.3041C56.862 64.7275 56.925 64.1175 56.859 63.5147L51.7219 4.7373C51.5903 3.45443 50.9934 2.26418 50.0439 1.39147C49.0944 0.518754 47.8582 0.024014 46.5688 0.000727207H6.18773C5.58093 -0.0104699 4.97871 0.107751 4.42117 0.347522C3.86364 0.587293 3.36359 0.943107 2.95434 1.39127C2.54509 1.83942 2.23602 2.36964 2.04772 2.9466C1.85943 3.52356 1.79623 4.13401 1.86234 4.7373L7.00475 63.5147C7.13638 64.7976 7.73331 65.9878 8.68277 66.8605C9.63223 67.7332 10.8685 68.228 12.1579 68.2513Z" fill="var(--fill-0, #FEA629)"/>
<path id="Vector_4" opacity="0.5" d="M12.1579 68.2513H52.5389C53.1453 68.2617 53.7469 68.1429 54.3038 67.9028C54.8607 67.6627 55.3601 67.3068 55.7687 66.8587C56.1774 66.4106 56.486 65.8807 56.674 65.3041C56.862 64.7275 56.925 64.1175 56.859 63.5147L51.7219 4.7373C51.5903 3.45443 50.9934 2.26418 50.0439 1.39147C49.0944 0.518754 47.8582 0.024014 46.5688 0.000727207H6.18773C5.58093 -0.0104699 4.97871 0.107751 4.42117 0.347522C3.86364 0.587293 3.36359 0.943107 2.95434 1.39127C2.54509 1.83942 2.23602 2.36964 2.04772 2.9466C1.85943 3.52356 1.79623 4.13401 1.86234 4.7373L7.00475 63.5147C7.13638 64.7976 7.73331 65.9878 8.68277 66.8605C9.63223 67.7332 10.8685 68.228 12.1579 68.2513Z" fill="var(--fill-0, white)"/>
<path id="Vector_5" d="M55.209 63.5147L50.0666 4.73729H3.51779L8.66021 63.5147H55.209Z" fill="var(--fill-0, white)"/>
<path id="Vector_6" d="M32.2576 67.2367C31.8546 67.2244 31.4698 67.0659 31.175 66.7908C30.8802 66.5156 30.6956 66.1427 30.6556 65.7414C30.6343 65.5519 30.6537 65.3601 30.7125 65.1786C30.7712 64.9972 30.8681 64.8304 30.9964 64.6894C31.1248 64.5484 31.2818 64.4364 31.457 64.3609C31.6321 64.2854 31.8213 64.2481 32.012 64.2516C32.4145 64.2626 32.7993 64.4199 33.0942 64.6942C33.3891 64.9684 33.5739 65.3407 33.614 65.7414C33.6343 65.931 33.6143 66.1228 33.5553 66.3041C33.4962 66.4854 33.3994 66.6522 33.2713 66.7934C33.1432 66.9347 32.9866 67.0472 32.8119 67.1236C32.6372 67.1999 32.4483 67.2385 32.2576 67.2367ZM32.0333 64.6201C31.8893 64.617 31.7462 64.6446 31.6137 64.7011C31.4811 64.7577 31.3621 64.8418 31.2646 64.9479C31.1671 65.054 31.0933 65.1796 31.0482 65.3164C31.003 65.4533 30.9875 65.5982 31.0027 65.7414C31.035 66.0457 31.177 66.3278 31.402 66.5351C31.627 66.7424 31.9197 66.8608 32.2256 66.8682C32.3697 66.8706 32.5127 66.8423 32.645 66.7851C32.7773 66.7279 32.8959 66.6432 32.9929 66.5366C33.0899 66.43 33.1631 66.3039 33.2076 66.1668C33.2521 66.0297 33.2668 65.8847 33.2509 65.7414C33.2208 65.4377 33.0801 65.1557 32.8556 64.9489C32.6311 64.7422 32.3385 64.6251 32.0333 64.6201Z" fill="var(--fill-0, #FEA629)"/>
<path id="Vector_7" d="M48.048 10.4511H44.6197L44.3207 7.02283H47.749L48.048 10.4511Z" fill="var(--fill-0, #263238)"/>
<path id="Vector_8" d="M16.4566 10.4511H6.65769L6.35864 7.02283H16.1575L16.4566 10.4511Z" fill="var(--fill-0, #263238)"/>
<path id="Vector_9" d="M50.3015 36.1685H8.91116L7.02614 14.6163H48.4111L50.3015 36.1685Z" fill="var(--fill-0, #263238)"/>
<path id="Vector_10" d="M34.9757 59.7874H10.9777L9.16749 39.1055H33.1708L34.9757 59.7874Z" fill="var(--fill-0, #263238)"/>
<path id="Vector_11" d="M41.5386 43.8207H36.0277L35.6165 39.1055H41.1274L41.5386 43.8207Z" fill="var(--fill-0, #263238)"/>
<path id="Vector_12" d="M49.2281 40.7182H43.1939C42.9774 40.7141 42.7699 40.631 42.6106 40.4844C42.4512 40.3378 42.351 40.1379 42.3289 39.9226C42.3183 39.8213 42.3293 39.7191 42.3611 39.6224C42.3929 39.5257 42.4448 39.4369 42.5134 39.3617C42.582 39.2866 42.6657 39.2268 42.7591 39.1863C42.8525 39.1458 42.9534 39.1256 43.0551 39.1269H49.0893C49.3054 39.1321 49.5123 39.2157 49.6715 39.362C49.8306 39.5084 49.9311 39.7076 49.9544 39.9226C49.9649 40.0238 49.954 40.1261 49.9221 40.2227C49.8903 40.3194 49.8384 40.4082 49.7698 40.4834C49.7012 40.5585 49.6175 40.6183 49.5241 40.6588C49.4308 40.6993 49.3299 40.7195 49.2281 40.7182Z" fill="var(--fill-0, #263238)"/>
<path id="Vector_13" d="M50.1733 43.8208H43.4663C43.2501 43.8156 43.0432 43.732 42.8841 43.5856C42.725 43.4393 42.6244 43.2401 42.6012 43.0251C42.5906 42.9239 42.6016 42.8216 42.6334 42.725C42.6652 42.6283 42.7172 42.5395 42.7858 42.4643C42.8544 42.3892 42.9381 42.3294 43.0315 42.2889C43.1248 42.2484 43.2257 42.2282 43.3274 42.2295H50.0345C50.251 42.2336 50.4585 42.3167 50.6179 42.4633C50.7772 42.6099 50.8774 42.8097 50.8996 43.0251C50.9101 43.1263 50.8991 43.2286 50.8673 43.3253C50.8355 43.422 50.7836 43.5108 50.715 43.5859C50.6464 43.6611 50.5627 43.7209 50.4693 43.7614C50.3759 43.8018 50.2751 43.8221 50.1733 43.8208Z" fill="var(--fill-0, #263238)"/>
<path id="Vector_14" d="M49.7728 46.9447H37.101C36.8839 46.9407 36.6758 46.8577 36.5155 46.7112C36.3553 46.5648 36.254 46.3648 36.2306 46.149C36.2191 46.0476 36.2295 45.945 36.261 45.8479C36.2925 45.7509 36.3444 45.6617 36.4131 45.5863C36.4819 45.511 36.566 45.4512 36.6598 45.411C36.7536 45.3708 36.8548 45.3512 36.9568 45.3533H49.634C49.8508 45.3563 50.059 45.439 50.2186 45.5858C50.3782 45.7327 50.4781 45.9332 50.4991 46.149C50.5096 46.2502 50.4986 46.3525 50.4668 46.4492C50.435 46.5458 50.3831 46.6347 50.3145 46.7098C50.2459 46.785 50.1622 46.8448 50.0688 46.8852C49.9755 46.9257 49.8746 46.946 49.7728 46.9447Z" fill="var(--fill-0, #263238)"/>
<path id="Vector_15" d="M50.718 50.0633H37.368C37.1512 50.0603 36.943 49.9776 36.7834 49.8307C36.6238 49.6839 36.5239 49.4834 36.5029 49.2676C36.4915 49.1662 36.5019 49.0636 36.5333 48.9665C36.5648 48.8695 36.6167 48.7803 36.6855 48.7049C36.7543 48.6296 36.8383 48.5698 36.9321 48.5296C37.0259 48.4894 37.1272 48.4698 37.2292 48.4719H50.5792C50.796 48.4749 51.0042 48.5576 51.1638 48.7044C51.3234 48.8513 51.4232 49.0518 51.4443 49.2676C51.4557 49.369 51.4453 49.4716 51.4138 49.5687C51.3824 49.6657 51.3305 49.7549 51.2617 49.8303C51.1929 49.9056 51.1088 49.9654 51.0151 50.0056C50.9213 50.0458 50.82 50.0654 50.718 50.0633Z" fill="var(--fill-0, #263238)"/>
<path id="Vector_16" d="M49.2762 53.1872H37.6457C37.4292 53.1831 37.2217 53.0999 37.0623 52.9533C36.903 52.8067 36.8028 52.6069 36.7806 52.3915C36.7692 52.2901 36.7795 52.1875 36.811 52.0904C36.8425 51.9934 36.8944 51.9042 36.9632 51.8288C37.0319 51.7535 37.116 51.6937 37.2098 51.6535C37.3036 51.6133 37.4049 51.5937 37.5069 51.5958H49.1587C49.3756 51.5987 49.5837 51.6815 49.7433 51.8283C49.9029 51.9751 50.0028 52.1757 50.0238 52.3915C50.0356 52.4947 50.0247 52.5993 49.992 52.6979C49.9593 52.7965 49.9055 52.8868 49.8344 52.9625C49.7632 53.0382 49.6764 53.0975 49.58 53.1363C49.4837 53.1751 49.38 53.1925 49.2762 53.1872Z" fill="var(--fill-0, #263238)"/>
<path id="Vector_17" d="M51.2947 56.3111H37.9447C37.7282 56.307 37.5207 56.2238 37.3614 56.0772C37.202 55.9306 37.1018 55.7308 37.0797 55.5154C37.0691 55.4142 37.0801 55.3119 37.1119 55.2152C37.1437 55.1186 37.1956 55.0297 37.2642 54.9546C37.3328 54.8794 37.4165 54.8196 37.5099 54.7792C37.6033 54.7387 37.7042 54.7184 37.8059 54.7197H51.1559C51.372 54.725 51.5789 54.8085 51.7381 54.9549C51.8972 55.1013 51.9977 55.3005 52.021 55.5154C52.0315 55.6166 52.0206 55.7189 51.9887 55.8156C51.9569 55.9122 51.905 56.0011 51.8364 56.0762C51.7678 56.1514 51.6841 56.2112 51.5907 56.2516C51.4974 56.2921 51.3965 56.3124 51.2947 56.3111Z" fill="var(--fill-0, #263238)"/>
<path id="Vector_18" d="M47.3912 59.4349H38.1904C37.9739 59.4308 37.7664 59.3477 37.607 59.2011C37.4477 59.0545 37.3475 58.8546 37.3253 58.6393C37.3139 58.5379 37.3242 58.4352 37.3557 58.3382C37.3872 58.2411 37.4391 58.152 37.5079 58.0766C37.5766 58.0012 37.6607 57.9415 37.7545 57.9013C37.8483 57.8611 37.9496 57.8414 38.0516 57.8436H47.2524C47.4692 57.8465 47.6774 57.9293 47.837 58.0761C47.9966 58.2229 48.0965 58.4234 48.1175 58.6393C48.128 58.7405 48.117 58.8428 48.0852 58.9394C48.0534 59.0361 48.0015 59.1249 47.9329 59.2001C47.8643 59.2752 47.7806 59.335 47.6872 59.3755C47.5938 59.416 47.493 59.4362 47.3912 59.4349Z" fill="var(--fill-0, #263238)"/>
<path id="Vector_19" opacity="0.9" d="M48.048 10.4511H44.6197L44.3207 7.02283H47.749L48.048 10.4511Z" fill="var(--fill-0, white)"/>
<path id="Vector_20" opacity="0.9" d="M16.4566 10.4511H6.65769L6.35864 7.02283H16.1575L16.4566 10.4511Z" fill="var(--fill-0, white)"/>
<path id="Vector_21" opacity="0.9" d="M50.3015 36.1685H8.91116L7.02614 14.6163H48.4111L50.3015 36.1685Z" fill="var(--fill-0, white)"/>
<path id="Vector_22" opacity="0.9" d="M34.9757 59.7874H10.9777L9.16749 39.1055H33.1708L34.9757 59.7874Z" fill="var(--fill-0, white)"/>
<path id="Vector_23" opacity="0.9" d="M41.5386 43.8207H36.0277L35.6165 39.1055H41.1274L41.5386 43.8207Z" fill="var(--fill-0, white)"/>
<path id="Vector_24" opacity="0.9" d="M49.2281 40.7182H43.1939C42.9774 40.7141 42.7699 40.631 42.6106 40.4844C42.4512 40.3378 42.351 40.1379 42.3289 39.9226C42.3183 39.8213 42.3293 39.7191 42.3611 39.6224C42.3929 39.5257 42.4448 39.4369 42.5134 39.3617C42.582 39.2866 42.6657 39.2268 42.7591 39.1863C42.8525 39.1458 42.9534 39.1256 43.0551 39.1269H49.0893C49.3054 39.1321 49.5123 39.2157 49.6715 39.362C49.8306 39.5084 49.9311 39.7076 49.9544 39.9226C49.9649 40.0238 49.954 40.1261 49.9221 40.2227C49.8903 40.3194 49.8384 40.4082 49.7698 40.4834C49.7012 40.5585 49.6175 40.6183 49.5241 40.6588C49.4308 40.6993 49.3299 40.7195 49.2281 40.7182Z" fill="var(--fill-0, white)"/>
<path id="Vector_25" opacity="0.9" d="M50.1733 43.8208H43.4663C43.2501 43.8156 43.0432 43.732 42.8841 43.5856C42.725 43.4393 42.6244 43.2401 42.6012 43.0251C42.5906 42.9239 42.6016 42.8216 42.6334 42.725C42.6652 42.6283 42.7172 42.5395 42.7858 42.4643C42.8544 42.3892 42.9381 42.3294 43.0315 42.2889C43.1248 42.2484 43.2257 42.2282 43.3274 42.2295H50.0345C50.251 42.2336 50.4585 42.3167 50.6179 42.4633C50.7772 42.6099 50.8774 42.8097 50.8996 43.0251C50.9101 43.1263 50.8991 43.2286 50.8673 43.3253C50.8355 43.422 50.7836 43.5108 50.715 43.5859C50.6464 43.6611 50.5627 43.7209 50.4693 43.7614C50.3759 43.8018 50.2751 43.8221 50.1733 43.8208Z" fill="var(--fill-0, white)"/>
<path id="Vector_26" opacity="0.9" d="M49.7728 46.9447H37.101C36.8839 46.9407 36.6758 46.8577 36.5155 46.7112C36.3553 46.5648 36.254 46.3648 36.2306 46.149C36.2191 46.0476 36.2295 45.945 36.261 45.8479C36.2925 45.7509 36.3444 45.6617 36.4131 45.5863C36.4819 45.511 36.566 45.4512 36.6598 45.411C36.7536 45.3708 36.8548 45.3512 36.9568 45.3533H49.634C49.8508 45.3563 50.059 45.439 50.2186 45.5858C50.3782 45.7327 50.4781 45.9332 50.4991 46.149C50.5096 46.2502 50.4986 46.3525 50.4668 46.4492C50.435 46.5458 50.3831 46.6347 50.3145 46.7098C50.2459 46.785 50.1622 46.8448 50.0688 46.8852C49.9755 46.9257 49.8746 46.946 49.7728 46.9447Z" fill="var(--fill-0, white)"/>
<path id="Vector_27" opacity="0.9" d="M50.718 50.0633H37.368C37.1512 50.0603 36.943 49.9776 36.7834 49.8307C36.6238 49.6839 36.5239 49.4834 36.5029 49.2676C36.4915 49.1662 36.5019 49.0636 36.5333 48.9665C36.5648 48.8695 36.6167 48.7803 36.6855 48.7049C36.7543 48.6296 36.8383 48.5698 36.9321 48.5296C37.0259 48.4894 37.1272 48.4698 37.2292 48.4719H50.5792C50.796 48.4749 51.0042 48.5576 51.1638 48.7044C51.3234 48.8513 51.4232 49.0518 51.4443 49.2676C51.4557 49.369 51.4453 49.4716 51.4138 49.5687C51.3824 49.6657 51.3305 49.7549 51.2617 49.8303C51.1929 49.9056 51.1088 49.9654 51.0151 50.0056C50.9213 50.0458 50.82 50.0654 50.718 50.0633Z" fill="var(--fill-0, white)"/>
<path id="Vector_28" opacity="0.9" d="M49.2762 53.1872H37.6457C37.4292 53.1831 37.2217 53.0999 37.0623 52.9533C36.903 52.8067 36.8028 52.6069 36.7806 52.3915C36.7692 52.2901 36.7795 52.1875 36.811 52.0904C36.8425 51.9934 36.8944 51.9042 36.9632 51.8288C37.0319 51.7535 37.116 51.6937 37.2098 51.6535C37.3036 51.6133 37.4049 51.5937 37.5069 51.5958H49.1587C49.3756 51.5987 49.5837 51.6815 49.7433 51.8283C49.9029 51.9751 50.0028 52.1757 50.0238 52.3915C50.0356 52.4947 50.0247 52.5993 49.992 52.6979C49.9593 52.7965 49.9055 52.8868 49.8344 52.9625C49.7632 53.0382 49.6764 53.0975 49.58 53.1363C49.4837 53.1751 49.38 53.1925 49.2762 53.1872Z" fill="var(--fill-0, white)"/>
<path id="Vector_29" opacity="0.9" d="M51.2947 56.3111H37.9447C37.7282 56.307 37.5207 56.2238 37.3614 56.0772C37.202 55.9306 37.1018 55.7308 37.0797 55.5154C37.0691 55.4142 37.0801 55.3119 37.1119 55.2152C37.1437 55.1186 37.1956 55.0297 37.2642 54.9546C37.3328 54.8794 37.4165 54.8196 37.5099 54.7792C37.6033 54.7387 37.7042 54.7184 37.8059 54.7197H51.1559C51.372 54.725 51.5789 54.8085 51.7381 54.9549C51.8972 55.1013 51.9977 55.3005 52.021 55.5154C52.0315 55.6166 52.0206 55.7189 51.9887 55.8156C51.9569 55.9122 51.905 56.0011 51.8364 56.0762C51.7678 56.1514 51.6841 56.2112 51.5907 56.2516C51.4974 56.2921 51.3965 56.3124 51.2947 56.3111Z" fill="var(--fill-0, white)"/>
<path id="Vector_30" opacity="0.9" d="M47.3912 59.4349H38.1904C37.9739 59.4308 37.7664 59.3477 37.607 59.2011C37.4477 59.0545 37.3475 58.8546 37.3253 58.6393C37.3139 58.5379 37.3242 58.4352 37.3557 58.3382C37.3872 58.2411 37.4391 58.152 37.5079 58.0766C37.5766 58.0012 37.6607 57.9415 37.7545 57.9013C37.8483 57.8611 37.9496 57.8414 38.0516 57.8436H47.2524C47.4692 57.8465 47.6774 57.9293 47.837 58.0761C47.9966 58.2229 48.0965 58.4234 48.1175 58.6393C48.128 58.7405 48.117 58.8428 48.0852 58.9394C48.0534 59.0361 48.0015 59.1249 47.9329 59.2001C47.8643 59.2752 47.7806 59.335 47.6872 59.3755C47.5938 59.416 47.493 59.4362 47.3912 59.4349Z" fill="var(--fill-0, white)"/>
<path id="Vector_31" d="M37.2292 36.3287H28.1939C27.5644 36.3176 26.9609 36.0762 26.4974 35.6501C26.0339 35.224 25.7427 34.6428 25.6788 34.0165L24.8885 24.9812C24.8559 24.6746 24.8888 24.3646 24.985 24.0717C25.0812 23.7787 25.2385 23.5095 25.4464 23.2819C25.6544 23.0543 25.9083 22.8733 26.1914 22.7511C26.4745 22.6289 26.7802 22.5682 27.0885 22.5729H36.1185C36.7485 22.5839 37.3528 22.8251 37.8171 23.2511C38.2815 23.6771 38.5738 24.2584 38.639 24.8851L39.4293 33.9204C39.4593 34.2281 39.4244 34.5388 39.3269 34.8322C39.2294 35.1256 39.0715 35.3953 38.8632 35.6239C38.6556 35.8495 38.4028 36.0288 38.1213 36.1503C37.8397 36.2717 37.5358 36.3325 37.2292 36.3287ZM27.0832 23.6569C26.924 23.6471 26.7646 23.6731 26.6167 23.7329C26.4688 23.7928 26.3363 23.885 26.2287 24.0028C26.1211 24.1206 26.0413 24.261 25.9951 24.4137C25.949 24.5664 25.9376 24.7275 25.9618 24.8851L26.7521 33.9204C26.7886 34.2785 26.9548 34.6108 27.2194 34.8548C27.484 35.0987 27.8287 35.2374 28.1886 35.2447H37.2239C37.3806 35.2485 37.5363 35.219 37.6808 35.1582C37.8253 35.0975 37.9553 35.0069 38.0622 34.8923C38.1678 34.7741 38.2475 34.6351 38.2963 34.4843C38.345 34.3335 38.3617 34.1742 38.3453 34.0165L37.5549 24.9812C37.5184 24.6223 37.3514 24.2892 37.0857 24.0451C36.8199 23.801 36.4739 23.6629 36.1131 23.6569H27.0832Z" fill="var(--fill-0, #263238)"/>
<g id="Group" opacity="0.5">
<path id="Vector_32" d="M37.2292 36.3287H28.1939C27.5644 36.3176 26.9609 36.0762 26.4974 35.6501C26.0339 35.224 25.7427 34.6428 25.6788 34.0165L24.8885 24.9812C24.8559 24.6746 24.8888 24.3646 24.985 24.0717C25.0812 23.7787 25.2385 23.5095 25.4464 23.2819C25.6544 23.0543 25.9083 22.8733 26.1914 22.7511C26.4745 22.6289 26.7802 22.5682 27.0885 22.5729H36.1185C36.7485 22.5839 37.3528 22.8251 37.8171 23.2511C38.2815 23.6771 38.5738 24.2584 38.639 24.8851L39.4293 33.9204C39.4593 34.2281 39.4244 34.5388 39.3269 34.8322C39.2294 35.1256 39.0715 35.3953 38.8632 35.6239C38.6556 35.8495 38.4028 36.0288 38.1213 36.1503C37.8397 36.2717 37.5358 36.3325 37.2292 36.3287ZM27.0832 23.6569C26.924 23.6471 26.7646 23.6731 26.6167 23.7329C26.4688 23.7928 26.3363 23.885 26.2287 24.0028C26.1211 24.1206 26.0413 24.261 25.9951 24.4137C25.949 24.5664 25.9376 24.7275 25.9618 24.8851L26.7521 33.9204C26.7886 34.2785 26.9548 34.6108 27.2194 34.8548C27.484 35.0987 27.8287 35.2374 28.1886 35.2447H37.2239C37.3806 35.2485 37.5363 35.219 37.6808 35.1582C37.8253 35.0975 37.9553 35.0069 38.0622 34.8923C38.1678 34.7741 38.2475 34.6351 38.2963 34.4843C38.345 34.3335 38.3617 34.1742 38.3453 34.0165L37.5549 24.9812C37.5184 24.6223 37.3514 24.2892 37.0857 24.0451C36.8199 23.801 36.4739 23.6629 36.1131 23.6569H27.0832Z" fill="var(--fill-0, white)"/>
</g>
<path id="Vector_33" d="M30.2819 33.2422L23.3879 26.8983C23.2723 26.7927 23.1788 26.6654 23.1127 26.5235C23.0466 26.3816 23.0092 26.2281 23.0028 26.0717C22.9963 25.9153 23.0209 25.7592 23.0751 25.6124C23.1293 25.4655 23.212 25.3309 23.3185 25.2162C23.5322 24.9856 23.8284 24.8489 24.1426 24.8359C24.4567 24.8229 24.7632 24.9346 24.9953 25.1468L30.1377 29.8727L40.0808 18.931C40.2932 18.6973 40.5898 18.5576 40.9052 18.5426C41.2207 18.5276 41.5292 18.6385 41.7628 18.8509C41.9958 19.0641 42.1345 19.361 42.1485 19.6765C42.1625 19.9919 42.0507 20.3 41.8376 20.533L30.2819 33.2422Z" fill="var(--fill-0, #FEA629)"/>
<g id="Group_2" opacity="0.2">
<path id="Vector_34" d="M30.2819 33.2422L23.3879 26.8983C23.2723 26.7927 23.1788 26.6654 23.1127 26.5235C23.0466 26.3816 23.0092 26.2281 23.0028 26.0717C22.9963 25.9153 23.0209 25.7592 23.0751 25.6124C23.1293 25.4655 23.212 25.3309 23.3185 25.2162C23.5322 24.9856 23.8284 24.8489 24.1426 24.8359C24.4567 24.8229 24.7632 24.9346 24.9953 25.1468L30.1377 29.8727L40.0808 18.931C40.2932 18.6973 40.5898 18.5576 40.9052 18.5426C41.2207 18.5276 41.5292 18.6385 41.7628 18.8509C41.9958 19.0641 42.1345 19.361 42.1485 19.6765C42.1625 19.9919 42.0507 20.3 41.8376 20.533L30.2819 33.2422Z" fill="var(--fill-0, black)"/>
</g>
</g>
</svg>
