<svg preserveAspectRatio="none" width="100%" height="100%" overflow="visible" style="display: block;" viewBox="0 0 792.382 389.395" fill="none" xmlns="http://www.w3.org/2000/svg">
<g id="kyrgyzstan 1" clip-path="url(#clip0_0_4)">
<path id="KG-B" d="M142.466 280.389L143.436 280.899L145.896 280.839L146.976 282.379L146.856 283.269L147.496 283.519L150.976 282.829L151.356 283.419L153.486 283.979L155.546 285.289L155.736 286.259L158.036 287.279L161.286 286.829L162.426 290.709L163.336 291.739L165.396 292.139L168.996 291.799L170.196 290.889L170.256 287.809L171.056 287.239H172.546L173.976 288.039L175.236 290.949L175.866 293.009L174.776 295.569L175.816 296.469L176.666 299.129H177.466L179.126 296.959L181.466 295.359L181.866 295.649L184.606 293.649L185.516 293.249L186.266 293.549L186.806 293.059L186.836 291.479L185.406 290.449L186.506 288.699L189.466 288.399L192.376 290.169L193.596 290.369L196.316 287.769L199.226 287.539L198.956 285.669L202.366 284.039L208.796 282.269H210.196L211.126 283.019L211.496 284.139L210.476 288.329L211.966 290.189V290.939L209.266 292.899L209.916 293.649L214.206 295.329L215.326 296.349L215.796 297.649V298.949L212.816 301.559L215.886 302.579L216.816 303.229L217.186 304.249L216.346 307.039L217.646 308.899L217.736 310.109L216.156 314.109L216.246 315.409L220.156 316.159L222.766 317.839L224.726 322.779L226.306 324.829H227.606L228.726 323.429L229.566 323.149L231.146 323.799L231.426 324.729L232.446 325.569L231.426 326.689L232.916 327.719L235.156 330.419L235.806 332.929L234.876 333.579L234.596 335.539L232.176 337.119L226.776 338.889L226.026 339.819L223.606 340.099L221.276 342.889L217.826 343.729L216.896 344.479L213.726 345.409L211.586 344.199L208.326 343.919L206.646 344.109L203.016 345.789L201.436 344.109L197.616 344.019L194.076 341.229L191.376 340.859L188.206 341.329L185.876 339.369L182.526 338.899L180.846 338.149L179.726 337.309L179.256 335.729L175.246 335.169L173.566 338.429L172.356 339.179L166.676 339.739L165.836 340.299L163.136 345.049L162.766 347.939L161.786 349.279L160.376 348.379L159.576 348.439L159.636 349.699L155.526 350.669L154.836 352.669L154.146 353.069L151.176 352.779L149.096 353.579L148.546 355.859L146.776 357.969L144.946 357.739L144.256 356.429H143.456L139.346 358.719L133.906 358.029L132.306 358.369L131.566 358.879L131.166 360.189L130.656 365.789L129.056 367.789L127.566 368.129L125.336 367.789L121.456 365.679L119.626 369.219L117.966 368.879L117.166 367.849L116.136 367.679L114.026 369.619L112.196 369.729L109.506 368.819L107.336 366.939L107.946 361.879L106.536 359.919L103.106 358.039L100.476 352.269L99.5062 351.579L94.1862 350.559L91.9062 348.099L90.9362 348.269L90.1362 349.409L87.9062 349.699L86.7362 350.929L84.3662 350.609L82.9362 352.379L79.3962 350.729L78.3662 352.829L76.9262 354.049L75.2762 356.719L71.8462 356.659L70.9362 355.859L70.7062 353.859L69.1062 352.489L68.1962 352.429L65.8562 354.139L64.8862 354.029L61.4562 350.889L58.9262 352.349L58.3462 353.529L56.1962 353.069L54.3762 355.749L52.9462 355.859L51.7462 353.179L49.6362 353.119L46.8362 352.149L46.0362 352.659L45.1762 355.399L43.3662 356.209L37.9162 352.029L32.8362 350.319L31.2962 350.379L30.0962 351.519L28.6162 351.689L27.0162 351.229L26.4062 350.499L25.0662 350.829L22.9962 353.579L21.7162 353.689L20.8962 354.439L20.9562 355.239L19.0162 355.179L16.1462 356.099L15.2762 355.449L13.7562 356.149L11.5862 355.409L10.7262 353.699H9.68619L9.06619 356.209L7.74619 357.289L5.80619 355.749L5.86619 353.869L6.72619 352.779L6.95619 351.179L4.84619 344.899L4.78619 340.899L4.15619 338.609L1.35619 335.099V331.369L0.326194 330.479L0.256194 329.399L5.11619 323.889L2.82619 320.659L4.13619 316.829L6.47619 314.919L7.10619 313.429L5.50619 311.029L6.01619 310.339L6.81619 310.679L7.95619 312.619L9.72619 312.449L11.1562 313.479L12.2962 315.249L12.5862 319.479L15.1562 319.879L16.9862 318.309L18.6462 317.999L20.5862 318.629L20.9862 318.169L18.4162 314.229L17.8462 311.829L18.7562 302.229L19.5562 301.599L21.0462 301.709L23.1562 303.079L28.1862 301.079L29.7262 301.139L30.0662 301.999L31.0962 301.889L33.0362 298.749L36.9162 296.469L41.5962 294.929L44.5962 295.039L47.7962 294.239L53.9062 291.779L55.2162 291.839L60.5862 294.979L64.4162 298.749L65.6162 298.859L66.4762 297.949L67.6162 298.409L67.8462 299.839L69.1562 301.269L73.4962 300.929L74.5862 301.329L77.0462 302.819L78.8762 302.989L78.9862 304.189L79.6162 304.759L84.1262 307.219L92.4662 309.449L94.5262 310.759L95.2662 311.449L94.8662 312.879L92.4662 314.189L89.0962 317.049L88.6962 320.479L89.2062 321.679L90.2362 321.849L90.0862 319.129L90.5762 317.339L91.2662 316.829L93.4362 316.939L97.7762 314.479L97.5462 312.589L98.8562 310.709L99.5962 303.879L101.766 302.969L109.876 301.369L110.966 299.479L110.736 297.019L112.676 296.329L113.476 297.019L115.046 296.589L117.526 294.969L123.066 292.739L123.966 290.399L122.136 287.319L122.596 286.229L124.136 285.719L128.996 285.549L132.426 283.439L134.936 280.359L138.246 280.019L142.466 280.389ZM128.716 292.199L129.296 291.079L129.336 289.459L128.606 288.499L127.836 289.459L128.256 291.849L128.716 292.199ZM173.936 294.199L174.186 293.249L172.286 292.699V293.949L172.786 294.099L173.936 294.199ZM126.366 298.329L126.556 301.409L125.976 305.729L126.596 308.039L127.756 309.659L129.216 310.509L132.226 310.969L133.076 311.469L133.226 312.319L132.916 313.589L131.876 314.009L133.226 316.589L130.716 319.019L130.136 320.989L128.906 321.919L129.176 322.609L131.176 322.839L132.526 324.029L133.066 323.369L132.336 322.519L132.526 321.629L133.376 320.589L134.416 320.819L134.226 322.939L134.806 323.249L138.396 322.749L140.786 320.089L140.936 319.399L140.086 318.549L140.236 317.469L139.426 316.969L135.266 317.119L135.186 316.389L136.646 315.729L137.036 314.919L136.806 313.839L135.686 312.609L137.386 312.069L139.586 310.529L139.896 309.869L139.546 308.829L135.496 310.829L134.606 310.749L133.026 304.499L131.556 303.839L130.786 302.839L130.166 299.639L128.586 296.519L126.426 295.479L125.386 296.059L125.576 296.789L126.366 298.329ZM179.036 318.319L181.776 316.399L185.406 316.879L186.366 314.689L181.156 310.369L180.406 311.259L181.226 313.519L179.716 314.749L177.176 315.369L176.906 316.469L179.036 318.319ZM91.4962 323.609L90.8862 324.829L92.5062 327.669L92.8262 330.299L93.8662 330.469L96.2662 329.539L96.8462 329.889L97.3362 330.869L96.4662 333.299L96.7262 334.459L98.9562 332.959L101.386 329.489L104.716 328.069L106.276 325.989L105.846 324.569L104.716 324.339L101.646 325.179L99.1562 325.119L93.7162 323.439L91.4962 323.609Z" fill="var(--fill-0, white)" fill-opacity="0.5"/>
<path id="KG-C" d="M358.576 2.23875H360.576L362.636 4.91875L364.456 4.74875V5.66875L365.036 6.06875L365.886 6.51875L366.856 6.28875L367.316 7.08875L368.226 6.86875L370.576 9.43875L373.316 10.4588L373.826 11.3788L375.826 10.8088L377.026 11.8388L381.946 13.1488L382.396 14.5788L386.686 19.9488L388.736 21.7788L390.626 22.5188L391.826 24.6888L394.506 26.4588L395.936 26.6888L397.596 25.9488L398.566 26.2288L400.256 25.3688L401.226 25.6588L406.256 27.9488L407.336 29.0288L414.426 32.7387L419.626 34.2288L422.996 36.5688L426.246 37.4887L428.586 39.3687L433.046 39.1388L437.216 40.3388H440.346L446.006 41.5987L449.316 41.1388L464.856 45.2488L467.196 41.8787L468.216 41.2687L469.676 35.2288L471.266 33.1987L473.596 31.3688L479.076 29.8288L480.276 30.1688L481.586 32.1688L484.496 32.5087L486.606 34.1687H488.266L494.266 32.5087L498.266 32.6287L499.346 33.4887L504.836 33.5987L506.036 34.2887L506.636 38.1987L507.856 38.8587L509.806 38.9687L519.506 36.1788L520.426 34.3987L521.226 33.8687L526.516 34.7687L527.846 34.0587L530.576 34.7687L536.236 34.7387L537.836 33.7687L538.516 32.5987L538.636 30.8588L539.386 30.1688L543.436 29.8888L544.526 27.9488L545.376 27.8288L550.406 28.6888L552.126 27.5988L555.196 27.1688L556.276 27.6288L557.946 30.1688L559.036 30.0588L561.426 28.0288L565.706 28.3688L566.966 28.7188L567.416 30.8288L569.376 31.0888L572.276 33.3787L571.426 34.6887L568.696 35.3687L565.516 38.2088L564.036 42.9788L562.906 43.5488L560.176 43.0987L549.606 44.4588L548.136 44.9088L547.446 45.7088L544.496 45.3687L539.956 47.4088L538.246 47.6388L533.366 46.9588L530.746 48.0987L528.366 47.7587L526.546 48.5488L523.026 47.9788L520.976 48.4387L519.956 47.5287L518.026 47.4088L517.916 49.6887L515.186 50.0287L513.596 50.8188L511.096 50.4788L509.166 52.5287L502.576 56.7288L500.756 58.7787L498.256 59.9088L497.916 62.5287L496.896 63.2088L495.416 63.6588L493.826 62.9788H490.526L488.596 63.4288L487.466 64.3388L482.916 65.1387L482.126 66.0488L478.256 65.9287L475.646 66.4987L473.146 65.3687L470.876 65.0188L470.306 66.2688L470.876 68.5488L470.756 70.5888L467.236 70.7087L465.876 71.8388H464.396L463.486 72.6387L462.016 76.0488L458.376 78.6588L457.126 80.1387L453.146 81.8388L451.676 80.9287L450.426 80.8187L449.856 79.7887L449.966 78.7688L448.946 78.5387L448.496 79.3388L447.246 79.9088L445.306 80.4788L443.376 80.1387L441.786 80.6988L439.176 78.8887L438.036 80.3587L434.856 80.4788L432.136 81.6087L427.136 79.7887L423.956 80.5888L422.586 80.1387L421.676 79.1087L418.616 81.2688L415.776 81.3887L414.636 79.6787L413.496 79.3388L411.226 80.5888L406.116 79.7887L404.976 80.3587L397.366 81.0387L397.706 82.6387L399.976 85.2487L400.776 87.4088L402.136 89.2187L402.596 91.8388L401.566 92.6288L399.756 92.1787L396.006 92.6288L394.296 93.4287L391.916 96.4987L389.186 98.6487L386.346 98.1988L381.396 99.9587L379.006 99.8487L375.826 100.639L373.436 100.079L370.716 100.979L367.986 101.209L364.916 100.639L362.986 109.619L364.126 110.639L367.416 112.119L367.756 113.139L366.846 113.479L365.936 114.959L364.466 115.299L363.096 116.439L362.536 117.569L363.436 120.979L362.756 122.679L360.036 124.049L359.076 129.559L357.146 129.899L354.756 129.219L353.396 129.789L352.256 130.809L350.446 136.259L349.196 137.169L347.716 135.469L349.416 130.579L348.966 130.009L345.106 130.689L343.626 130.349L342.946 128.759L340.216 126.259L339.086 124.449L337.376 126.149L336.236 125.919L334.426 126.719H329.306L328.516 126.039L325.566 126.719L324.896 126.349L324.826 124.299L324.216 123.619L323.756 121.409L322.696 120.879L319.496 120.419L311.216 122.399L309.996 121.489L309.006 121.409L308.166 122.319L305.966 122.099L304.676 120.729L302.616 120.879L295.776 118.749L294.326 119.129L292.736 117.759L291.896 114.339L290.676 112.669L282.846 110.539L279.596 110.839L277.366 109.959L277.006 108.209L277.496 105.449L274.246 104.269L272.876 102.399L273.166 97.2787L273.956 96.5888L278.286 97.9687L282.716 94.1288L283.796 93.9287L285.276 94.5287L288.816 93.2487L292.956 94.3287L295.606 91.9687L299.746 91.6688L304.176 93.1487L311.556 90.5888L312.736 89.2087L312.936 86.0588L315.696 82.7087L316.386 80.6487V78.7787L314.116 77.1988L312.836 78.2787L311.756 78.0888L311.066 76.2187L309.986 75.1288L308.606 75.4287L308.506 77.5888L307.426 80.9387L306.636 81.2388L305.556 80.6887L305.686 79.1887L303.006 76.6187L300.376 71.4987L299.176 67.1087L299.236 61.7387L300.906 57.3888L301.236 54.3787L303.406 50.1388L305.046 48.0787L305.796 40.4588L305.346 36.9687L304.386 34.7387L304.846 32.5688L307.466 29.9388L307.346 25.3188L308.156 23.3188L311.696 22.4588L314.336 21.0188L316.496 18.9188L320.156 17.0288L324.556 13.7788L325.216 14.6288L326.586 15.0888L327.556 14.0588L333.006 14.5788L334.546 13.0288L334.866 11.9788L335.416 12.1488L337.786 5.31875L341.096 6.51875L342.406 8.68875L344.186 9.59875L345.666 9.08875L347.206 7.65875L354.576 7.26875L355.666 6.74875L356.116 5.66875L354.066 2.00875L354.516 0.408751L356.296 1.66875L358.576 2.23875Z" fill="var(--fill-0, white)" fill-opacity="0.5"/>
<path id="KG-J" d="M216.306 101.419L223.106 102.499L224.576 103.379L226.446 106.239L227.826 106.629L231.276 105.649L234.226 107.909L235.996 107.719L240.226 109.979L244.956 109.589L249.976 112.049L256.236 116.869L261.256 116.279L262.146 113.329L264.896 112.049L267.066 109.089L267.756 108.899L269.326 110.469L271.296 109.189L272.086 110.669L273.466 110.369L275.036 110.959L277.366 109.959L279.596 110.839L282.846 110.539L290.676 112.669L291.896 114.339L292.736 117.759L294.326 119.129L295.776 118.749L302.616 120.879L304.676 120.729L305.966 122.099L308.166 122.319L309.006 121.409L309.996 121.489L311.216 122.399L319.496 120.419L322.696 120.879L323.756 121.409L324.216 123.619L324.826 124.299L324.896 126.349L325.736 126.809L324.516 128.859L320.566 132.969L320.716 133.499L324.516 135.479L325.656 135.549L326.876 134.489L327.486 134.569L329.836 136.769L332.506 136.159L333.416 136.619H336.306L337.516 137.529L337.976 139.049L337.676 142.169L339.496 146.049L341.096 147.109H345.126L346.116 147.799L345.576 151.749L346.186 153.199L346.566 158.209L345.656 160.489L344.516 160.569L342.996 158.519V157.069L343.836 155.319L343.296 154.259L340.946 152.279L337.066 151.449L334.936 149.999L333.036 150.609L332.956 151.449L335.616 157.529L337.716 158.409L338.126 159.759L339.476 161.109L342.726 163.279L345.296 163.679L348.946 163.139L351.116 163.549L353.956 165.309L355.986 163.949L362.876 163.279L366.806 164.359L368.556 165.849H370.046L372.756 162.469L376.406 161.519L382.356 161.249L384.926 160.439L386.816 158.409L389.666 156.919L391.286 156.519L393.446 156.919L392.906 159.489L391.686 161.389L392.096 166.249L389.796 172.069L389.526 176.529L388.716 178.429L385.196 180.589L384.246 181.949L381.006 182.079L378.566 184.239L372.886 185.059L368.826 187.759L362.746 189.109L362.206 191.139L364.366 194.389L365.046 198.039L361.666 197.499L357.606 198.579L353.136 198.849L351.116 198.449L350.026 200.339L348.406 200.749L347.186 201.829L346.916 203.049L342.856 203.719L342.186 205.069L342.316 206.829L343.266 208.459L347.596 211.699V213.189L344.346 215.759L342.316 218.739L341.776 220.489L340.256 218.469L337.536 218.399L335.526 217.369L332.486 216.649L332.096 210.879L331.706 209.979L330.176 209.199L330.106 206.739L328.106 205.829L327.066 206.019L326.996 207.899L325.766 208.999L325.506 210.879L319.996 216.329L318.506 222.679H317.536L313.906 220.989L312.226 218.859L309.826 217.039V215.739L312.416 212.569L316.826 209.979L317.606 208.749L316.826 206.019L315.396 204.399L314.686 204.529L311.256 205.759L311.056 206.479L312.416 208.229V209.329L311.766 209.979L305.876 209.129L302.436 209.199L299.906 208.359L298.286 209.649L298.156 211.659L297.646 212.309L295.636 213.149V213.989L294.206 215.419L291.356 214.969L286.556 215.939L285.586 217.109L284.746 220.219L284.876 223.779L285.846 225.659L285.656 227.349L284.356 229.609L281.306 230.129L278.656 232.939L268.776 232.069L267.486 233.369L267.456 233.999L265.936 235.139L265.746 236.059L264.716 236.739L263.406 236.689L261.636 235.599L258.676 231.069L257.576 230.689L256.836 230.739L256.436 231.539L250.096 233.369L247.696 233.259L239.066 230.569L238.436 230.919L237.696 230.339L239.036 226.969L238.606 224.769L234.726 220.659L232.896 220.599L232.846 218.319L231.836 216.589L228.496 214.689L225.296 215.409L222.966 212.459L222.186 212.119L221.406 212.399L220.566 213.909L218.326 215.349L215.416 217.009L212.446 217.629L211.646 218.659L210.386 218.889L208.216 217.809L208.016 216.699L210.246 216.309L212.846 213.519L212.806 211.539L210.356 209.029L210.016 207.859L210.526 206.009L210.186 203.059L208.736 202.049L206.126 202.279L204.596 203.229L202.546 205.679L200.756 205.339L196.556 202.979L192.616 203.549L189.126 201.779L187.586 198.179L188.756 196.139L190.496 194.529L191.296 191.899L191.216 190.949L189.036 187.819L188.596 186.319L189.646 185.439L189.186 183.839L187.356 184.589L185.756 184.469L185.246 181.539L182.616 178.189L182.386 175.789L181.646 175.449L180.616 176.189L180.906 178.589H180.276L178.906 176.019L177.246 175.729L176.556 176.699L177.306 178.759L176.556 179.789L175.416 179.269L175.086 177.639L175.566 176.329L177.986 173.729L177.826 169.489L178.436 169.099L178.506 166.359L177.136 166.309L175.876 167.679L174.256 168.429L173.696 170.379L172.736 171.219L169.936 172.189L170.106 173.329H172.446L173.536 174.359L173.306 177.859L172.126 180.089L172.746 182.209L172.466 183.109L171.466 183.269L170.736 185.609L169.246 185.209L169.136 187.329L168.046 188.699L165.856 190.209L163.396 189.299L161.346 190.159L158.996 189.469L156.826 190.899L156.886 192.209L157.396 192.369L157.066 193.649L157.396 195.179L158.686 196.609L158.426 198.099L156.776 199.749L159.116 202.719L156.656 207.009L155.626 207.409L153.796 206.549L153.176 203.009L151.286 201.749L148.546 202.949L147.746 205.639L146.546 205.519L145.636 204.609L145.406 200.749L144.036 200.009L143.346 199.949L142.436 200.749L141.826 200.019L138.796 199.719L135.946 201.549L135.596 203.379L133.716 204.069L132.576 203.919L130.576 201.349L128.746 200.319L125.886 200.039L123.836 201.839L121.086 201.519L120.286 199.809L118.006 198.269L115.896 195.129L115.146 194.949L112.746 195.009L112.086 195.499L111.416 197.499L110.236 198.949L109.636 198.119L109.666 194.439L108.346 193.349V191.369L109.376 188.409L109.096 182.039L104.356 174.449L101.836 173.869L99.6662 174.619L98.7162 174.419L98.6962 174.959L95.3862 175.419L91.3862 179.929L89.0962 180.269L86.9862 179.239L86.0162 176.489L81.7862 173.299L80.6262 173.359L78.9662 170.619L77.5962 171.079L74.5062 168.679L72.9162 169.599L71.8262 171.079L70.5662 171.129L67.7662 170.219L66.2162 168.879L66.2762 165.139L68.7362 162.849L69.1962 159.879L73.5362 159.589L75.7062 157.989L78.3962 157.419L80.0462 156.279L82.7362 152.279L85.1362 151.419L87.0162 149.369L89.1862 149.419L90.3762 147.139L90.0462 145.039L90.4962 142.619L91.7062 141.569L94.7362 140.259L96.1262 138.549L96.5062 137.229L99.5862 135.049L100.536 132.629L101.986 131.169L105.076 130.139L107.586 130.539L108.126 128.949L108.846 128.829L112.046 130.259L113.696 129.859L115.156 127.439L115.266 125.489L114.036 121.919L115.526 117.179L121.756 119.519L123.866 119.459L125.866 118.719L126.616 117.179L130.666 114.289L132.666 113.659L133.406 112.059L137.696 109.039L140.546 108.809L143.136 107.179L143.896 106.299L144.406 103.179L146.616 102.109L151.436 102.399L152.916 102.699L155.776 104.469L159.906 104.759L162.266 103.189L166.006 103.089L169.056 101.709L170.536 101.809L175.166 103.679L178.016 106.539L188.946 108.999L195.736 112.539L198.396 113.329L201.936 115.979L205.676 116.079L206.566 117.169L209.816 115.979L210.996 114.209L211.386 112.539L210.996 108.999L211.386 107.129L213.556 103.679L213.456 102.109L214.536 101.219L216.306 101.419Z" fill="var(--fill-0, white)" fill-opacity="0.5"/>
<path id="KG-N" d="M449.936 79.7887L450.506 80.8187L451.756 80.9287L453.226 81.8388L457.206 80.1387L458.406 78.7188L460.146 80.5987L464.566 82.0687L465.966 83.6988L467.746 83.4587L467.906 85.6387L469.606 85.9488L469.836 87.1888L475.886 86.4088L476.736 83.6188L477.516 83.3088L482.636 83.9287L483.326 84.6288L482.396 89.8988L483.096 90.2887L482.786 91.9888L483.176 94.7087L484.886 99.1288L484.646 101.219L488.606 103.779V106.489L492.866 108.119L493.256 108.739V110.059L491.706 113.239L491.396 115.019L490.696 115.949L489.296 116.029L487.286 119.519L487.366 120.369L490.386 121.139L493.646 119.829L496.126 119.899L497.436 118.429H499.296L501.376 118.939L505.956 121.179L507.116 120.719L511.536 121.339L512.076 122.579L513.476 123.429L516.186 123.819L517.506 122.969L518.206 123.119L519.216 124.049L522.236 125.059L523.476 126.529L527.046 127.539L527.666 128.939L528.596 129.249L530.066 128.159L530.526 128.469L530.996 130.329L530.606 131.419L528.666 132.659L528.596 134.829L528.046 135.909L526.966 136.529L522.076 136.689L520.296 136.219L519.526 136.689L518.126 139.639L518.746 142.499L518.276 144.059L518.586 145.609L519.986 145.059L525.726 145.919L530.916 145.369L531.776 144.059L533.326 143.119L535.106 143.739L536.186 144.749L536.886 146.069L537.126 148.399L536.496 149.479L534.716 150.649L534.016 152.269L534.256 153.129L536.656 154.519L536.966 155.369L535.336 160.219L535.256 161.999L536.656 162.239L538.286 160.689L538.986 160.839L541.306 163.939L547.356 164.019L554.406 162.859L555.416 163.169L556.736 164.639L558.596 165.099L562.396 162.549L572.216 163.789L576.936 162.859L579.116 161.229L580.426 158.749H581.046L582.446 163.009L580.506 168.589L579.966 169.679L575.936 169.519L577.176 169.909L578.256 171.619L580.426 179.759L583.066 181.149L584.306 181.459L586.016 180.999L587.256 181.539L588.256 183.319L586.866 186.349L586.786 188.909L586.086 190.299L584.386 192.089L582.286 193.329L582.446 194.879L583.146 195.189L590.586 191.619L600.666 189.599L601.986 190.689L604.306 191.469L603.066 192.939V196.269L605.706 198.679L610.356 198.129L611.206 197.589L616.096 198.289L618.576 197.979L624.006 200.229L626.486 200.689L629.816 198.439L633.386 197.119L634.086 196.269L638.426 195.649L638.886 196.269L640.126 196.349L639.196 198.909L639.666 201.079L640.516 202.399L642.456 203.949L644.306 204.389L643.466 207.809L642.556 208.079L640.196 210.609L635.356 211.239L632.156 214.259H631.186L628.666 212.039L625.526 211.639L622.816 211.979L621.416 211.639L619.756 210.379H618.446L618.096 211.349L615.816 212.089L615.916 212.599L612.446 213.809L611.066 215.689L608.366 215.219L606.676 216.029L605.706 217.179L601.586 216.949L596.906 218.319L595.306 217.629L590.876 218.149L589.506 217.749L589.636 216.429L585.956 216.029L585.156 214.949L582.366 214.489L576.196 217.629L572.596 215.519L570.596 215.579L568.076 216.829L566.876 216.489L565.736 215.689L563.966 215.409L563.226 213.239L560.656 211.979L556.826 212.089L556.256 211.459L554.886 211.519L552.026 214.549L550.186 215.679L548.456 215.389L548.716 216.089L546.376 215.809L545.396 217.289L545.226 220.179L542.826 220.229L542.376 221.599L539.576 222.579L538.256 226.919L538.606 232.169L536.776 233.139L537.076 234.819L536.036 235.999L535.686 237.599L531.116 240.859L531.236 243.539L533.006 246.109L530.836 250.909L531.156 252.799L530.086 254.509L528.376 255.139L527.236 257.539L525.636 258.279L524.146 260.509L522.606 264.219L522.836 267.419L521.926 268.959L520.036 270.389L519.926 271.419L516.206 273.589L515.576 275.419L512.836 276.619H509.806L508.216 279.819L506.896 278.729L506.726 275.129L504.786 273.819L501.756 273.299L500.326 273.469L498.306 275.759L495.216 277.929L488.656 276.669L485.736 278.959L484.996 278.619L483.796 276.729L481.906 276.269L480.996 276.849L479.856 279.589L478.656 281.019L478.766 283.589L477.926 284.359L476.366 283.189L472.596 283.239L471.916 282.159L471.516 282.559L470.716 281.699L467.856 283.699L465.006 283.809L462.826 285.439L462.026 285.239L461.176 280.099L460.026 278.099V277.129L460.996 274.389L460.716 273.299L463.056 270.619L463.796 267.989L460.736 265.189L458.946 264.439L458.066 262.849L457.206 259.479L456.866 252.849L456.126 251.079L453.836 249.939L450.926 251.199L446.756 254.169L442.186 259.479L440.136 260.579L437.896 260.959L436.296 262.109L433.676 264.619L433.276 266.329L431.306 266.759L429.826 268.649L427.426 270.189L423.426 269.159H421.366L417.826 270.479L415.656 270.249L413.766 268.879L411.316 269.389L409.656 268.989L404.656 264.419L401.856 263.159L402.996 263.679L400.536 263.049L399.436 264.009L397.046 262.989H395.946L394.586 263.959L388.556 263.439L387.456 261.889L385.506 261.759L384.736 261.179L383.496 261.499L382.336 260.269L381.486 260.719L380.976 260.459L380.516 258.389L381.876 255.149L381.356 254.109L380.256 253.069L378.966 252.939L377.216 251.649L374.556 250.999L372.616 251.319L370.406 248.669L368.336 248.599L366.776 246.719L364.506 245.949L361.596 240.109L359.976 240.439L359.196 239.979L357.966 236.479L357.516 236.029H356.026L354.596 234.989L354.206 231.879L352.136 229.419L350.316 228.769L348.306 226.439L346.366 226.179L345.196 222.609L342.156 221.119L341.856 220.489L343.206 217.379L345.506 214.679L347.676 213.189V211.699L343.346 208.459L342.396 206.829L342.266 205.069L342.936 203.719L346.996 203.049L347.266 201.829L348.486 200.749L350.106 200.339L351.186 198.449L353.216 198.849L357.686 198.579L361.736 197.499L365.126 198.039L364.446 194.389L362.276 191.139L362.826 189.109L368.906 187.759L372.966 185.059L378.646 184.239L381.086 182.079L384.326 181.949L385.276 180.589L388.796 178.429L389.606 176.529L389.876 172.069L392.176 166.249L391.766 161.389L392.986 159.489L393.526 156.919L391.366 156.519L389.736 156.919L386.896 158.409L385.006 160.439L382.436 161.249L376.486 161.519L372.836 162.469L370.126 165.849H368.636L366.876 164.359L362.956 163.279L356.056 163.949L354.026 165.309L351.186 163.549L349.026 163.139L345.376 163.679L342.806 163.279L339.556 161.109L338.206 159.759L337.796 158.409L335.696 157.529L333.036 151.449L333.116 150.609L335.016 149.999L337.146 151.449L341.016 152.279L343.376 154.259L343.906 155.319L343.076 157.069V158.519L344.596 160.569L345.736 160.489L346.646 158.209L346.266 153.199L345.656 151.749L346.186 147.799L345.206 147.109H341.176L339.576 146.049L337.746 142.169L338.056 139.049L337.596 137.529L336.386 136.619H333.496L332.576 136.159L329.916 136.769L327.556 134.569L326.956 134.489L325.736 135.549L324.596 135.479L321.406 134.029L320.646 132.969L324.596 128.859L325.646 126.719L328.596 126.039L329.386 126.719H334.496L336.316 125.919L337.456 126.149L339.156 124.449L340.296 126.259L343.026 128.759L343.706 130.349L345.176 130.689L349.046 130.009L349.496 130.579L347.796 135.469L349.266 137.169L350.516 136.259L352.336 130.809L353.476 129.789L354.836 129.219L357.226 129.899L359.156 129.559L360.106 124.049L362.836 122.679L363.516 120.979L362.606 117.569L363.176 116.439L364.536 115.299L366.016 114.959L366.926 113.479L367.836 113.139L367.496 112.119L364.196 110.639L363.066 109.619L364.996 100.639L368.066 101.209L370.786 100.979L373.516 100.079L375.906 100.639L379.086 99.8487L381.466 99.9587L386.426 98.1988L389.266 98.6488L391.986 96.4987L394.376 93.4287L396.076 92.6288L399.826 92.1787L401.646 92.6288L402.666 91.8388L402.216 89.2188L400.856 87.4088L400.056 85.2487L397.786 82.6387L397.446 81.0387L405.056 80.3587L406.196 79.7887L411.306 80.5888L413.576 79.3388L414.716 79.6787L415.846 81.3887L418.686 81.2688L421.756 79.1087L422.666 80.1387L424.026 80.5888L427.206 79.7887L432.206 81.6087L434.936 80.4788L438.116 80.3587L439.256 78.8887L441.866 80.6988L443.456 80.1387L445.386 80.4788L447.316 79.9088L448.566 79.3388L449.026 78.5387L450.046 78.7688L449.936 79.7887Z" fill="var(--fill-0, white)" fill-opacity="0.5"/>
<path id="KG-O" d="M399.286 264.009L399.246 264.569L398.726 264.589V268.309L396.896 270.129L397.016 270.819L401.546 274.869L403.006 277.379L405.286 278.959L405.096 280.329L404.126 280.419L402.296 281.619L401.016 281.439L398.846 279.479L398.076 279.329L391.026 279.479L390.406 279.869L390.616 282.549L387.986 286.409L386.846 286.769L386.096 285.829L384.156 285.559L382.276 285.959L378.386 292.009L374.956 293.979L372.676 297.299L368.386 300.549L366.996 302.229L364.856 303.119H363.836L361.836 301.639L360.456 302.279L358.516 299.979L349.946 302.039L348.696 302.669L348.636 303.239L347.266 304.319L345.726 304.779L343.326 303.239L342.696 303.409L339.966 308.119L336.066 309.409L336.016 310.439L338.516 311.519L338.756 313.119L334.926 317.809L334.186 319.659L334.986 323.919L333.266 325.459L332.356 325.349L330.356 326.889L329.046 332.369L329.496 334.999L332.756 336.029L334.056 337.369L336.186 343.229L337.096 347.339L336.866 350.649H334.816L334.356 351.219L333.786 353.879L332.246 355.079L332.756 356.389L332.016 358.049L331.956 361.079L330.416 361.879L321.956 363.139L318.816 362.959L315.106 361.879L313.386 362.849L310.716 362.679L309.286 363.589L307.056 362.279L302.486 362.389L299.976 363.939L297.116 364.329L294.776 365.589L294.206 366.449L294.316 368.679L292.946 370.559L287.866 370.279L286.726 371.759L282.606 373.249L280.496 373.129L277.306 371.699L275.706 371.759L271.766 373.299L268.796 372.619L265.536 373.759L263.596 372.279L262.396 372.329L259.886 373.989L257.196 372.789L253.946 374.049L251.316 371.929L247.376 370.499L241.776 369.699L240.466 371.019L239.836 372.679L238.696 373.419L237.376 373.479L236.236 371.189L233.316 371.019L231.546 371.989L231.666 373.929L231.266 374.279H227.326L224.636 375.529L221.786 375.759L220.806 376.619L219.816 377.869L218.386 381.929L214.636 388.959L213.646 389.129L212.966 388.559L212.106 384.619L211.416 383.869L210.216 383.759L209.416 381.529L205.366 381.239L204.046 380.669L203.136 379.589L201.766 373.249L201.076 372.559L199.366 372.679L196.856 374.159H195.656L191.936 376.959L190.516 378.999L185.026 379.639L184.226 380.329L182.736 379.929L181.106 378.179L179.426 374.669L179.946 373.079L182.286 370.899L183.316 368.729L181.326 363.469L180.116 362.819L172.626 364.539L169.086 363.679L168.286 364.589L165.946 363.959L164.176 359.789L164.056 358.309L165.836 355.279L165.926 352.769L165.306 351.489L161.796 349.269L162.766 347.929L163.146 345.039L165.846 340.289L166.686 339.729L172.366 339.169L173.576 338.429L175.256 335.169L179.256 335.719L179.726 337.309L180.846 338.149L182.516 338.889L185.876 339.359L188.196 341.309L191.366 340.849L194.066 341.219L197.606 344.009L201.426 344.109L203.016 345.789L206.646 344.109L208.326 343.919L211.586 344.199L213.726 345.409L216.896 344.479L217.826 343.739L221.266 342.899L223.596 340.099L226.016 339.819L226.766 338.889L232.166 337.119L234.586 335.539L234.866 333.579L235.796 332.929L235.146 330.409L232.916 327.709L231.426 326.689L232.446 325.569L231.426 324.729L231.146 323.799L229.556 323.149L228.726 323.429L227.606 324.829H226.296L224.716 322.779L222.756 317.839L220.156 316.159L216.236 315.419L216.146 314.109L217.726 310.109L217.636 308.899L216.336 307.029L217.176 304.239L216.796 303.209L215.866 302.559L212.796 301.539L215.776 298.929V297.629L215.306 296.319L214.186 295.299L209.906 293.619L209.256 292.869L211.956 290.919V290.169L210.466 288.309L211.486 284.119L211.116 282.999L210.186 282.259H208.786L202.356 284.029L198.946 285.659L195.506 283.529L194.876 282.839L195.046 282.389L197.926 278.999L199.216 278.729L201.156 276.159L200.756 274.789L202.526 272.849L202.876 270.499L206.126 270.619L206.246 269.699L208.826 268.099L209.296 267.339L208.936 266.449L209.966 266.159L211.336 267.019H214.136L214.366 269.699L216.306 271.589L217.396 272.099L218.076 271.529L219.396 271.589L221.626 273.299L222.646 274.789L223.616 275.069L223.966 275.869L226.076 275.299L225.566 272.849L225.796 271.699L227.506 269.689L227.566 265.879L227.196 264.759L225.046 264.389L225.336 262.849L226.076 262.109L224.366 258.279L222.076 256.969L222.596 255.989L224.646 256.049L225.106 254.449L226.136 254.789L228.676 257.989L229.246 260.279L230.786 261.589L231.756 261.249L231.866 259.589L232.786 259.189L233.816 261.079L238.836 262.909L240.956 264.559L242.666 264.789L244.556 264.159L245.296 261.589L245.356 257.309L246.326 257.249L247.066 258.219L249.806 258.289L251.006 257.309L250.896 255.989L252.326 251.309L250.776 249.709L250.896 248.969L251.926 248.339L253.006 249.599L253.976 249.479L257.406 248.169L258.716 245.139L263.506 243.879L264.036 242.969L266.036 241.769L269.066 240.739L274.726 239.939L276.496 239.369L277.756 238.229L279.356 235.199L278.576 232.939L281.226 230.129L284.276 229.609L285.576 227.349L285.766 225.659L284.796 223.779L284.666 220.219L285.506 217.109L286.476 215.939L291.276 214.969L294.126 215.419L295.556 213.989V213.149L297.566 212.309L298.076 211.659L298.206 209.649L299.826 208.359L302.356 209.199L305.796 209.129L311.686 209.979L312.336 209.329V208.229L310.976 206.479L311.176 205.759L315.316 204.399L317.266 206.799L317.526 208.749L316.746 209.979L312.336 212.569L309.746 215.739V217.039L312.146 218.859L313.826 220.989L317.456 222.679H318.426L318.886 222.099L319.336 217.559L320.566 215.289L325.426 210.879L325.686 208.999L326.916 207.899L326.986 206.019L329.316 206.149L330.036 206.739L330.096 209.199L331.626 209.979L332.016 210.879L332.406 216.649L335.446 217.369L337.456 218.399L340.176 218.469L341.996 221.119L345.036 222.609L346.206 226.179L348.156 226.439L350.156 228.769L351.976 229.419L354.046 231.879L354.436 234.989L355.866 236.029H357.356L357.806 236.479L359.036 239.979L359.816 240.439L361.436 240.109L364.356 245.949L366.626 246.719L368.176 248.599L370.256 248.669L372.456 251.319L374.396 250.999L380.106 253.069L381.726 255.149L380.366 258.389L380.816 260.459L381.336 260.719L382.176 260.269L383.346 261.499L384.576 261.179L385.356 261.759L387.296 261.889L388.396 263.439L394.426 263.959L395.786 262.989H396.886L399.286 264.009Z" fill="var(--fill-0, white)" fill-opacity="0.5"/>
<path id="KG-T" d="M193.286 44.6488L194.736 45.2788L196.396 46.9388L201.476 48.0788L203.246 50.2488L205.016 50.9988L208.736 51.2788L211.186 49.6188L215.986 49.3388L223.876 51.7088L230.446 55.2488L232.496 57.1388L234.256 57.9388L235.116 57.2488L241.286 56.9088L247.626 60.0488L249.506 60.2188L251.736 61.4188L256.366 68.0488L260.136 68.6787L261.336 69.1288L261.846 69.9287L263.616 70.4488L267.446 70.8988L270.036 70.1387L272.016 70.7288L278.306 69.9888L283.446 71.9888L290.246 72.7288L291.096 74.2688L291.586 79.2388L294.336 80.5588L302.646 81.9888L303.566 81.9287L305.476 80.6888L306.556 81.2388L307.346 80.9388L307.936 79.2688L308.526 75.4287L309.906 75.1288L310.986 76.2188L311.676 78.0888L312.756 78.2787L314.036 77.1988L315.116 77.5888L316.296 78.7787V80.6488L315.616 82.7087L312.856 86.0588L312.656 89.2087L311.476 90.5888L304.096 93.1488L299.666 91.6688L295.526 91.9688L292.876 94.3288L288.736 93.2487L285.196 94.5287L283.716 93.9287L282.636 94.1288L278.206 97.9688L273.876 96.5888L273.086 97.2787L272.796 102.399L274.166 104.269L277.416 105.449L276.926 108.209L277.416 109.879L274.956 110.959L273.386 110.369L272.006 110.669L271.216 109.189L269.246 110.469L267.676 108.899L266.986 109.089L264.816 112.049L262.066 113.329L261.176 116.279L257.536 116.869H256.156L249.896 112.049L244.876 109.589L240.146 109.979L235.916 107.719L234.146 107.909L231.196 105.649L227.746 106.629L226.366 106.239L224.496 103.379L221.346 101.909L218.596 102.009L214.456 101.219L213.376 102.109L213.476 103.679L211.306 107.129L210.916 108.999L211.306 112.539L210.916 114.209L209.736 115.979L206.486 117.169L205.596 116.079L201.856 115.979L198.316 113.329L195.656 112.539L188.866 108.999L177.936 106.539L175.086 103.679L170.456 101.809L168.986 101.709L165.926 103.089L162.186 103.189L159.826 104.759H157.566L155.696 104.469L152.836 102.699L151.356 102.399L146.536 102.109L144.336 103.179L142.526 100.809L140.756 100.519L138.756 99.2087L136.986 97.2087L133.556 95.1488L128.646 94.6387L127.616 94.9788L125.726 97.4388L123.956 98.2388L122.586 98.0088L120.756 96.8088L118.926 97.7188L117.846 97.6688L117.276 95.4987L116.016 94.5788L115.506 92.6988L117.386 87.8388L119.326 87.4388L119.396 86.4788L120.706 85.8988L122.216 84.2787L121.846 83.2688L120.416 82.4188L120.376 81.3788L123.046 79.6188L124.076 75.3887L125.676 75.1588L129.446 77.2688L131.046 77.0987L131.216 75.2188L130.756 74.3587L128.696 71.3887L126.126 68.9287L125.676 67.8487L126.076 66.3587L127.216 64.9888L128.586 64.6488L133.956 65.6188L137.956 64.4788L138.066 57.2488L140.696 56.6488L142.756 54.8188L144.406 51.9688L144.696 49.0488L145.896 48.7088L148.806 49.4487L150.926 49.0488L153.896 46.1388L156.806 46.0788L157.896 46.6488L159.666 46.7088L163.946 45.2788L166.496 47.2388L169.206 48.1388L170.266 46.5988L172.436 45.6788L173.176 44.3688L177.236 44.7687L184.436 42.1388L190.206 43.1087L193.286 44.6488Z" fill="var(--fill-0, white)" fill-opacity="0.5"/>
<path id="KG-Y" d="M644.306 204.389L642.456 203.949L640.516 202.399L639.666 201.079L639.196 198.909L640.126 196.349L638.886 196.269L638.426 195.649L634.086 196.269L633.386 197.119L629.816 198.439L626.486 200.689L624.006 200.229L618.576 197.979L616.096 198.289L611.206 197.589L610.356 198.129L605.706 198.679L603.066 196.269V192.939L604.306 191.469L601.986 190.689L600.666 189.599L590.586 191.619L583.146 195.189L582.446 194.879L582.286 193.329L584.386 192.089L586.086 190.299L586.786 188.909L586.866 186.349L588.256 183.319L587.256 181.539L586.016 180.999L584.306 181.459L583.066 181.149L580.426 179.759L578.256 171.619L577.176 169.909L575.936 169.519L579.966 169.679L580.506 168.589L582.446 163.009L581.046 158.749H580.426L579.116 161.229L576.936 162.859L572.216 163.789L562.396 162.549L558.596 165.099L556.736 164.639L555.416 163.169L554.406 162.859L547.356 164.019L541.306 163.939L538.986 160.839L538.286 160.689L536.656 162.239L535.256 161.999L535.336 160.219L536.966 155.369L536.656 154.519L534.256 153.129L534.016 152.269L534.716 150.649L536.496 149.479L537.126 148.399L536.886 146.069L536.186 144.749L535.106 143.739L533.326 143.119L531.776 144.059L530.916 145.369L525.726 145.919L519.986 145.059L518.586 145.609L518.276 144.059L518.746 142.499L518.126 139.639L519.526 136.689L520.296 136.219L522.076 136.689L526.966 136.529L528.046 135.909L528.596 134.829L528.666 132.659L530.606 131.419L530.996 130.329L530.526 128.469L530.066 128.159L528.596 129.249L527.666 128.939L527.046 127.539L523.476 126.529L522.236 125.059L519.216 124.049L518.206 123.119L517.506 122.969L516.186 123.819L513.476 123.429L512.076 122.579L511.536 121.339L507.116 120.719L505.956 121.179L501.376 118.939L499.296 118.429H497.436L496.126 119.899L493.646 119.829L490.386 121.139L487.366 120.369L487.286 119.519L489.296 116.029L490.696 115.949L491.396 115.019L491.706 113.239L493.256 110.059V108.739L492.866 108.119L488.606 106.489V103.779L484.646 101.219L484.886 99.1288L483.176 94.7087L482.786 91.9888L483.096 90.2887L482.396 89.8988L483.326 84.6288L482.636 83.9287L477.516 83.3088L476.736 83.6188L475.886 86.4088L469.836 87.1888L469.606 85.9488L467.906 85.6387L467.746 83.4587L465.966 83.6988L464.566 82.0687L460.146 80.5987L458.406 78.7188L462.086 76.0488L463.566 72.6387L464.476 71.8388H465.956L467.316 70.7087L470.836 70.5888L470.956 68.5488L470.386 66.2688L470.956 65.0188L473.226 65.3688L475.726 66.4987L478.336 65.9287L482.196 66.0488L482.996 65.1387L487.536 64.3388L488.676 63.4288L490.606 62.9788H493.906L495.496 63.6588L496.966 63.2088L497.996 62.5288L498.336 59.9088L500.836 58.7788L502.646 56.7288L509.236 52.5288L511.176 50.4788L513.676 50.8188L515.266 50.0288L517.986 49.6888L518.106 47.4088L520.036 47.5288L521.056 48.4388L523.096 47.9788L526.626 48.5488L528.436 47.7588L530.826 48.0988L533.436 46.9588L538.326 47.6388L540.026 47.4088L544.576 45.3688L547.526 45.7088L548.206 44.9088L549.686 44.4588L560.256 43.0988L562.976 43.5488L564.116 42.9788L565.596 38.2088L568.776 35.3688L571.506 34.6888L572.356 33.3787L573.206 34.0888H578.176L582.126 34.7088L584.346 33.4588L590.066 32.0888L592.116 32.5387L595.086 31.9188L596.976 32.4288L597.946 33.4588L603.606 33.6888L609.656 34.7687L612.566 34.2588L617.086 36.9388L618.946 36.7687L621.686 37.9088L622.826 37.8587L624.506 39.9688L625.516 40.1987L628.826 38.8787L632.446 40.2588L633.766 40.4288L636.336 39.7988L638.336 40.1987L640.716 39.2788L641.106 38.0788L645.176 38.2588L651.966 40.0588L653.626 39.1987L654.876 37.1987L655.616 37.0288L657.516 38.0288L663.746 36.1388L667.056 39.0588L668.816 39.3088L669.906 40.6788L671.676 40.5688L673.626 41.6287L675.286 43.9688L678.186 43.8288L679.046 43.3088L680.886 44.0788L682.826 43.9688L684.306 45.5688L687.216 44.9688L694.176 47.6488L700.616 47.8787L703.016 49.0788L707.016 47.2488L712.496 45.5988L713.586 45.7088L713.616 46.9388L712.136 49.7988L712.896 53.8188L714.416 56.9088L717.886 61.3488L720.526 62.6188L721.726 64.5088L724.546 64.7288L725.176 65.2487L725.296 66.4488L729.946 71.0788L731.086 73.2988L732.966 75.1888L734.966 76.2188L736.156 78.4488L744.396 78.9587L747.136 76.7887L761.006 80.4987L765.866 80.3288L767.746 80.7887L768.516 81.5287L769.316 85.4688L771.546 87.5287L772.486 89.4088L776.546 90.2688L777.716 92.3788L780.286 93.7487L780.476 95.3988L779.826 96.7287L782.626 100.779L783.026 102.319L783.886 102.669L785.116 101.299L785.976 101.179L788.256 101.809L789.996 103.289L790.796 109.289L789.826 113.629L792.106 116.829L791.796 117.809H789.646L787.746 117.059L786.656 117.409L785.836 118.409L782.226 119.429L773.546 118.409L770.456 118.809L765.996 118.579L762.116 119.549L760.056 120.859L759.726 124.519L758.386 125.779L756.606 131.049L755.316 132.289L754.346 134.859L752.686 136.339L751.886 138.739L748.466 142.169L743.546 143.369L736.916 142.839L734.556 143.309L733.266 142.099L734.646 141.659L734.236 141.059L735.156 140.649L734.916 140.009L735.696 139.119L734.456 137.359L730.866 136.969L727.896 138.459L725.616 141.309L724.016 141.539L722.706 140.909L721.666 141.429L717.496 145.649L717.336 146.399L716.296 146.799L715.956 147.649L714.646 148.509L711.716 148.229L708.876 148.849L706.306 151.369L701.736 152.969L700.986 154.679L696.816 155.189L694.646 156.389L692.826 158.449L692.876 158.929L692.026 159.139L690.876 160.559L689.226 161.139L687.856 162.849H686.706L686.766 163.249L685.076 164.109L682.426 164.049L682.196 164.559L679.336 164.849L677.916 165.649L676.996 169.079L675.626 169.699L674.026 172.499L670.426 172.849L667.856 172.099L666.946 172.619L665.746 175.019L663.746 176.389L659.746 178.159L655.806 178.669L655.176 180.219L655.116 183.129L656.486 184.729L656.776 188.669L655.286 189.579L654.886 192.039L651.866 192.379L648.206 196.329L646.716 197.129L644.306 204.389Z" fill="var(--fill-0, white)" fill-opacity="0.5"/>
</g>
<defs>
<clipPath id="clip0_0_4">
<rect width="792.382" height="389.395" fill="white"/>
</clipPath>
</defs>
</svg>
