<svg preserveAspectRatio="none" width="100%" height="100%" overflow="visible" style="display: block;" viewBox="0 0 85.2633 144.985" fill="none" xmlns="http://www.w3.org/2000/svg">
<g id="freepik--Character--inject-56">
<path id="Vector" d="M32.0768 34.9129L27.0946 34.8061C27.0946 34.8061 23.6717 33.626 23.2712 33.8663L21.5784 33.9944C21.2323 34.2046 20.973 34.532 20.8476 34.917C20.7221 35.302 20.7389 35.7193 20.8948 36.093L21.4288 37.2838C21.551 37.584 21.7725 37.8332 22.0563 37.9897C22.3401 38.1462 22.6691 38.2005 22.9881 38.1436L27.3028 37.5669L32.6055 37.5028L32.0768 34.9129Z" fill="var(--fill-0, #EEC1BB)"/>
<path id="Vector_2" d="M56.7477 23.1595C56.7477 23.1595 54.6117 21.2371 50.6227 23.9979C46.9327 26.5664 41.8117 31.7943 39.9427 32.0079L29.2199 34.1439V38.3358C29.2199 38.3358 36.7226 37.8712 39.964 37.6416C43.7447 37.3639 47.6056 34.4696 49.3998 32.387C51.5732 29.8986 56.1069 25.5839 56.7477 23.1595Z" fill="var(--fill-0, #FEA629)"/>
<path id="Vector_3" opacity="0.7" d="M56.7477 23.1595C56.7477 23.1595 54.6117 21.2371 50.6227 23.9979C46.9327 26.5664 41.8117 31.7943 39.9427 32.0079L29.2199 34.1439V38.3358C29.2199 38.3358 36.7226 37.8712 39.964 37.6416C43.7447 37.3639 47.6056 34.4696 49.3998 32.387C51.5732 29.8986 56.1069 25.5839 56.7477 23.1595Z" fill="var(--fill-0, white)"/>
<path id="Vector_4" opacity="0.1" d="M41.6034 37.3746C44.8074 36.5576 47.8885 34.1706 49.4265 32.3924C51.3425 30.1507 52.7409 27.5143 53.5223 24.6708C53.5223 24.6708 44.8928 33.674 41.6034 37.3746Z" fill="var(--fill-0, black)"/>
<path id="Vector_5" d="M79.0741 137.233L82.0592 136.207L81.7548 131.054L81.2422 126.344L76.559 126.862L77.8887 132.352L79.0741 137.233Z" fill="var(--fill-0, #FFC3BD)"/>
<path id="Vector_6" d="M76.2707 144.351C76.6494 143.841 77.1181 143.405 77.6538 143.064C77.6538 143.064 78.9514 140.891 78.4548 135.47L80.5908 134.29C80.9554 134.1 81.3694 134.024 81.7777 134.075C82.1861 134.126 82.5693 134.299 82.8763 134.573C82.9622 134.65 83.0376 134.738 83.1006 134.835C83.353 135.355 83.5741 135.89 83.7628 136.437C84.3777 138.31 84.8788 140.218 85.2633 142.151L84.8521 142.268L83.7841 138.717C83.4317 137.505 82.8389 139.187 82.9083 140.565C82.9778 141.943 82.7642 143.491 80.1048 144.239C77.0023 145.104 75.6727 145.312 76.2707 144.351Z" fill="var(--fill-0, #263238)"/>
<path id="Vector_7" d="M78.38 133.5C78.38 133.5 78.5081 136.004 78.4067 138.84C78.4276 140.281 78.172 141.713 77.6537 143.059C77.6537 143.059 79.747 142.904 80.2703 141.334C80.7936 139.764 80.8043 134.867 82.8869 134.584C82.642 134.288 82.3643 134.021 82.0592 133.788C81.5733 133.415 78.38 133.5 78.38 133.5Z" fill="var(--fill-0, #FFC3BD)"/>
<path id="Vector_8" d="M48.5186 137.921L51.6692 137.788L52.8494 132.763L53.7038 128.107L49.0687 127.263L48.775 132.902L48.5186 137.921Z" fill="var(--fill-0, #FFC3BD)"/>
<path id="Vector_9" d="M43.8248 143.94C44.3342 143.561 44.9076 143.277 45.5176 143.101C45.5176 143.101 47.3866 141.392 48.4546 136.052L50.8363 135.518C51.2396 135.439 51.6576 135.484 52.0346 135.648C52.4115 135.812 52.7293 136.087 52.9456 136.437C53.0063 136.536 53.0513 136.644 53.0791 136.757C53.1768 137.328 53.2374 137.904 53.2606 138.482C53.3149 140.453 53.2489 142.425 53.063 144.388H52.6358V140.677C52.6358 139.417 51.5999 140.858 51.2742 142.193C50.9484 143.528 50.3023 144.96 47.5362 144.917C44.2841 144.874 42.9491 144.693 43.8248 143.94Z" fill="var(--fill-0, #263238)"/>
<path id="Vector_10" d="M48.9192 134.146C48.9192 134.146 48.3265 136.581 47.4133 139.273C47.0245 140.66 46.3718 141.96 45.4909 143.101C45.4909 143.101 47.5415 143.55 48.492 142.194C49.4425 140.837 50.8416 136.149 52.9295 136.474C52.7789 136.121 52.589 135.786 52.3635 135.476C52.0057 134.974 48.9192 134.146 48.9192 134.146Z" fill="var(--fill-0, #FFC3BD)"/>
<path id="Vector_11" d="M48.1288 97.4336L48.8337 131.369L53.0096 131.802C53.0096 131.802 56.2136 119.685 56.9292 107.516C57.0947 104.707 56.4272 101.439 56.7369 99.2225C57.0093 97.2787 57.8049 96.0612 58.8729 91.6664C59.5618 88.8682 60.3201 85.4186 60.9502 82.0864C61.5216 79.0747 61.9755 76.1537 62.1624 73.8842C62.6438 73.2193 63.0724 72.5176 63.444 71.7856C65.4293 68.0568 66.1312 63.778 65.4411 59.6104L51.5571 53.4534L48.1288 97.4336Z" fill="var(--fill-0, #263238)"/>
<path id="Vector_12" d="M52.1018 52.5883C52.1018 52.5883 45.5229 86.6735 45.4909 103.81C45.4909 115.664 45.4375 121.757 45.4268 124.219C45.4243 124.648 45.507 125.074 45.6702 125.47C45.8334 125.867 46.0737 126.228 46.3773 126.531L48.9726 129.121H53.6558L56.8331 127.306C57.3422 127.018 57.7632 126.597 58.0503 126.088C58.3374 125.579 58.4797 125.001 58.4618 124.417C58.3336 119.264 58.0559 105.31 58.7501 101.225C59.6099 96.1894 62.8139 67.9942 62.7818 64.9611C62.7498 61.9279 64.293 49.9129 52.1018 52.5883Z" fill="var(--fill-0, #263238)"/>
<path id="Vector_13" d="M57.6661 54.2811C57.6661 54.2811 64.7576 91.378 66.9684 105.545C68.8 117.256 71.8652 122.809 72.5273 125.18C72.6428 125.593 72.8391 125.979 73.1049 126.316C73.3708 126.652 73.7008 126.932 74.0759 127.14L77.2799 128.913L81.7869 127.626L84.3394 125.009C84.748 124.591 85.0354 124.069 85.1708 123.5C85.3062 122.931 85.2847 122.336 85.1084 121.779C83.5651 116.866 79.4533 103.527 78.9994 99.4094C78.4387 94.3257 74.9036 73.9376 74.7274 67.1131C74.642 64.0906 68.6505 48.3643 57.6661 54.2811Z" fill="var(--fill-0, #263238)"/>
<path id="Vector_14" opacity="0.2" d="M59.6526 66.563C59.7274 66.9262 60.1866 75.3687 60.5604 83.32C60.6832 82.9515 60.8114 82.535 60.9395 82.0757C61.5109 79.064 61.9648 76.143 62.1517 73.8735C62.6332 73.2086 63.0617 72.5069 63.4333 71.7749C63.9299 69.5481 64.3678 67.583 64.6455 66.4349L59.6526 66.563Z" fill="var(--fill-0, black)"/>
<path id="Vector_15" d="M57.5594 57.7948L67.1447 98.5443L77.5096 130.862L81.6267 130.088C81.6267 130.088 81.2369 117.56 78.4548 105.689C77.8086 102.955 76.2387 100.013 75.9023 97.7967C75.6086 95.8583 75.9984 94.4753 75.7848 89.9469C75.5178 84.4788 75.2882 79.1868 74.909 72.4211C74.909 72.4211 75.9129 63.0707 73.0667 57.6079L57.5594 57.7948Z" fill="var(--fill-0, #263238)"/>
<path id="Vector_16" d="M49.8911 28.6758C49.6069 31.3376 49.5943 34.0214 49.8537 36.6858C50.0033 40.2636 50.7776 44.0283 51.7548 49.8222C53.7146 50.9703 63.6256 50.495 69.9695 49.6726C69.585 44.5996 70.2151 38.7951 73.6541 27.3675C74.4551 24.7242 72.6716 22.177 69.836 21.91C69.0724 21.8352 68.2661 21.7711 67.4437 21.7391C64.5474 21.5415 61.6411 21.5415 58.7448 21.7391C57.8157 21.8192 56.8171 21.9313 55.8773 22.0542C52.5024 22.492 50.5105 25.0926 49.8911 28.6758Z" fill="var(--fill-0, #FEA629)"/>
<path id="Vector_17" opacity="0.7" d="M49.8911 28.6758C49.6069 31.3376 49.5943 34.0214 49.8537 36.6858C50.0033 40.2636 50.7776 44.0283 51.7548 49.8222C53.7146 50.9703 63.6256 50.495 69.9695 49.6726C69.585 44.5996 70.2151 38.7951 73.6541 27.3675C74.4551 24.7242 72.6716 22.177 69.836 21.91C69.0724 21.8352 68.2661 21.7711 67.4437 21.7391C64.5474 21.5415 61.6411 21.5415 58.7448 21.7391C57.8157 21.8192 56.8171 21.9313 55.8773 22.0542C52.5024 22.492 50.5105 25.0926 49.8911 28.6758Z" fill="var(--fill-0, white)"/>
<path id="Vector_18" d="M51.7548 49.8221L69.9695 49.678L73.8464 59.605L59.6527 64.961L51.0286 63.5566L51.7548 49.8221Z" fill="var(--fill-0, #263238)"/>
<path id="Vector_19" d="M51.712 51.0771C58.0074 51.7757 64.3619 51.756 70.6529 51.0183C70.7679 50.9903 70.8679 50.9194 70.9324 50.8201C70.9969 50.7209 71.0211 50.6008 71.0001 50.4843C71.0025 50.4648 71.0025 50.4451 71.0001 50.4256C70.8452 50.0571 70.685 49.6887 70.5355 49.3202C70.5051 49.2379 70.4482 49.168 70.3738 49.1216C70.2993 49.0752 70.2116 49.0549 70.1243 49.0639C63.977 49.7418 57.7738 49.7418 51.6265 49.0639C51.3969 49.0318 51.3382 49.1814 51.3115 49.411C51.2996 49.971 51.3552 50.5303 51.477 51.0771H51.712Z" fill="var(--fill-0, #FEA629)"/>
<path id="Vector_20" d="M60.4055 20.2492C59.9676 20.2597 59.5365 20.3599 59.1388 20.5436C58.7411 20.7273 58.3853 20.9906 58.0933 21.3172C57.5143 21.9836 57.0976 22.775 56.8758 23.6295C56.3554 25.26 56.4331 27.0225 57.0948 28.601C57.805 27.9709 58.3657 27.4476 59.0705 26.8174C60.0227 27.4056 60.9057 28.0988 61.7032 28.884C63.5091 27.2237 65.0093 25.2589 66.1354 23.0794C66.3192 22.8008 66.444 22.4873 66.5018 22.1585C66.5597 21.8296 66.5495 21.4924 66.4718 21.1677C66.2048 20.4682 65.4038 20.1531 64.6615 19.9983C63.3265 19.7473 61.7726 20.2546 60.4055 20.2492Z" fill="var(--fill-0, #FEA629)"/>
<path id="Vector_21" opacity="0.5" d="M60.4055 20.2492C59.9676 20.2597 59.5365 20.3599 59.1388 20.5436C58.7411 20.7273 58.3853 20.9906 58.0933 21.3172C57.5143 21.9836 57.0976 22.775 56.8758 23.6295C56.3554 25.26 56.4331 27.0225 57.0948 28.601C57.805 27.9709 58.3657 27.4476 59.0705 26.8174C60.0227 27.4056 60.9057 28.0988 61.7032 28.884C63.5091 27.2237 65.0093 25.2589 66.1354 23.0794C66.3192 22.8008 66.444 22.4873 66.5018 22.1585C66.5597 21.8296 66.5495 21.4924 66.4718 21.1677C66.2048 20.4682 65.4038 20.1531 64.6615 19.9983C63.3265 19.7473 61.7726 20.2546 60.4055 20.2492Z" fill="var(--fill-0, white)"/>
<path id="Vector_22" d="M59.0598 1.06796C57.8628 1.02761 56.679 1.32956 55.6476 1.93837C54.665 2.60587 54.0028 3.87145 54.3499 5.00887C53.8671 5.38089 53.4981 5.88073 53.2848 6.45174C53.0715 7.02275 53.0224 7.64209 53.1431 8.23957C53.4155 9.36631 54.0776 10.3756 54.5902 11.3955C55.1464 12.6861 55.2828 14.1189 54.9801 15.4913C54.7398 16.287 54.131 17.0559 54.3339 17.8623C54.4526 18.1934 54.6696 18.4803 54.956 18.6845C55.2423 18.8888 55.5842 19.0006 55.9359 19.005C56.6418 18.9924 57.337 18.8305 57.9758 18.5298C58.702 18.2467 59.4817 19.1011 60.256 19.1545C60.624 19.1432 60.9793 19.0172 61.2723 18.7941C61.5652 18.571 61.7812 18.2621 61.89 17.9103C62.0914 17.2023 62.1387 16.4594 62.0289 15.7316C61.8046 12.9174 61.7512 9.36632 61.5269 6.55748C61.4813 5.51653 61.3237 4.48352 61.057 3.47629C60.6635 2.48201 59.9641 1.6386 59.0598 1.06796Z" fill="var(--fill-0, #263238)"/>
<path id="Vector_23" d="M65.1848 12.9815C64.811 14.984 64.4532 18.2361 65.078 20.4148C65.2524 21.0645 65.2144 21.7529 64.9694 22.3794C64.7243 23.0059 64.2852 23.5375 63.7163 23.8965C62.5481 24.6411 61.3374 25.3168 60.0904 25.9203C59.8883 26.0129 59.6584 26.0247 59.4479 25.9532C59.2374 25.8817 59.0623 25.7324 58.9583 25.5358C58.6225 24.9526 58.5228 24.2629 58.6797 23.6084C58.8366 22.9539 59.2383 22.3843 59.8021 22.0168C60.4589 21.6003 60.6458 19.3094 60.2239 17.7074L65.1848 12.9815Z" fill="var(--fill-0, #FFC3BD)"/>
<path id="Vector_24" opacity="0.2" d="M63.1557 14.9039L60.2133 17.6914C60.3449 18.1613 60.4342 18.642 60.4803 19.1278C61.5964 18.8715 63.1183 17.5258 63.2304 16.3243C63.2912 15.8502 63.2658 15.369 63.1557 14.9039Z" fill="var(--fill-0, black)"/>
<path id="Vector_25" d="M66.9897 7.52936C66.5465 11.8334 66.4557 13.6597 64.1809 15.8918C60.7953 19.2346 55.6636 18.0278 54.8199 13.7558C54.0616 9.90032 54.9213 3.51368 59.1773 1.75682C60.0778 1.34048 61.0736 1.1737 62.0607 1.27393C63.0477 1.37416 63.9896 1.73771 64.7881 2.32657C65.5865 2.91544 66.2121 3.70799 66.5994 4.62136C66.9867 5.53473 67.1215 6.53537 66.9897 7.51867V7.52936Z" fill="var(--fill-0, #FFC3BD)"/>
<path id="Vector_26" d="M57.2869 9.28089C56.8091 10.0535 56.2329 10.7608 55.5728 11.3849C55.7291 11.5393 55.9185 11.6561 56.1267 11.7264C56.3349 11.7967 56.5563 11.8187 56.7743 11.7907L57.2869 9.28089Z" fill="var(--fill-0, #BA4D3C)"/>
<path id="Vector_27" d="M58.3497 13.3767C58.1496 13.3829 57.9494 13.3704 57.7516 13.3393C57.7256 13.3353 57.7022 13.3214 57.6862 13.3005C57.6703 13.2796 57.6631 13.2533 57.6662 13.2272C57.6736 13.1994 57.6904 13.1752 57.7138 13.1586C57.7373 13.142 57.7657 13.1342 57.7943 13.1364C58.2422 13.1991 58.6985 13.1602 59.1293 13.0224C59.5601 12.8847 59.9544 12.6517 60.2828 12.3407C60.2922 12.3312 60.3034 12.3236 60.3158 12.3185C60.3282 12.3133 60.3414 12.3106 60.3549 12.3106C60.3683 12.3106 60.3815 12.3133 60.3939 12.3185C60.4063 12.3236 60.4175 12.3312 60.4269 12.3407C60.4372 12.3497 60.4454 12.3608 60.451 12.3733C60.4566 12.3857 60.4595 12.3992 60.4595 12.4128C60.4595 12.4264 60.4566 12.4399 60.451 12.4523C60.4454 12.4648 60.4372 12.4759 60.4269 12.4849C59.8698 13.0306 59.129 13.3486 58.3497 13.3767Z" fill="var(--fill-0, #263238)"/>
<path id="Vector_28" d="M66.0338 6.44535C64.843 9.40371 63.6415 12.5276 64.8217 15.4913C66.1374 14.4335 67.212 13.1069 67.9736 11.6003C68.7352 10.0937 69.1662 8.44174 69.2378 6.75507C67.8121 6.87789 67.3582 6.99537 66.0338 6.44535Z" fill="var(--fill-0, #263238)"/>
<path id="Vector_29" d="M66.0338 6.44535C64.843 9.40371 63.6415 12.5276 64.8217 15.4913C66.1374 14.4335 67.212 13.1069 67.9736 11.6003C68.7352 10.0937 69.1662 8.44174 69.2378 6.75507C67.8121 6.87789 67.3582 6.99537 66.0338 6.44535Z" fill="var(--fill-0, #263238)"/>
<path id="Vector_30" d="M59.3109 0.277639C58.9134 0.777458 58.6887 1.39264 58.6704 2.03095C58.6521 2.66926 58.8412 3.2963 59.2094 3.81806C59.5935 4.32792 60.0952 4.73742 60.6716 5.0117C61.2481 5.28598 61.8823 5.41691 62.5202 5.39336C62.0949 6.32083 62.0433 7.37649 62.376 8.34104C62.5529 8.77604 62.8171 9.17013 63.1524 9.49895C63.4876 9.82777 63.8868 10.0843 64.3251 10.2528C64.7407 11.1535 64.9648 12.1307 64.9832 13.1225C65.0016 14.1143 64.8139 15.0991 64.4319 16.0146C64.0848 16.8049 63.5829 17.7448 64.0581 18.4657C64.5334 19.1866 65.6334 19.0905 66.4024 18.706C67.1713 18.3215 67.8709 17.7181 68.7306 17.638C69.2112 17.6006 69.6918 17.7394 70.1724 17.638C70.653 17.5365 72.4686 16.9758 70.621 14.4981C71.5021 12.4048 73.4672 7.84977 71.1817 5.32395C69.7234 3.67766 67.8794 2.41897 65.815 1.66071C64.6797 1.21797 63.4766 0.974101 62.2585 0.939802C61.0463 0.982522 60.1172 -0.630161 59.3109 0.277639Z" fill="var(--fill-0, #263238)"/>
<path id="Vector_31" d="M67.0912 11.8387C66.9036 12.208 66.6401 12.5335 66.318 12.7939C65.996 13.0543 65.6225 13.2438 65.2222 13.35C64.2236 13.5742 63.8338 12.4261 64.2129 11.3047C64.5654 10.2955 65.4785 8.96582 66.4344 9.25418C67.3902 9.54254 67.6092 10.8669 67.0912 11.8387Z" fill="var(--fill-0, #FFC3BD)"/>
<path id="Vector_32" d="M61.5803 25.1247C66.7868 22.5081 65.7188 19.9395 64.8431 19.2507C64.3945 20.1264 61.6765 21.6056 60.6512 21.5949C60.1439 21.3386 60.5925 19.774 60.4536 19.6458C59.8671 19.7556 59.3314 20.0511 58.9256 20.4886C58.5199 20.9261 58.2655 21.4824 58.2001 22.0755C58.2188 23.2368 58.5509 24.3715 59.1613 25.3596C59.3803 25.7815 59.9944 25.8402 60.4696 25.7761L61.5803 25.1247Z" fill="var(--fill-0, #FEA629)"/>
<path id="Vector_33" d="M60.6458 34.7527C59.5781 35.749 58.2727 36.455 56.8544 36.8032C57.3547 33.5057 58.079 30.2461 59.0225 27.0471C59.3219 26.8966 59.6669 26.8642 59.989 26.9563L60.4376 27.1325L60.6458 34.7527Z" fill="var(--fill-0, #FEA629)"/>
<path id="Vector_34" d="M61.842 33.7221C61.145 34.8691 60.1998 35.8453 59.0759 36.579C58.866 33.3457 58.8821 30.1018 59.124 26.8708C59.4214 26.8265 59.7237 26.8265 60.0211 26.8708L60.4964 26.9456L61.842 33.7221Z" fill="var(--fill-0, #FEA629)"/>
<path id="Vector_35" opacity="0.1" d="M61.842 33.7221C61.145 34.8691 60.1998 35.8453 59.0759 36.579C58.866 33.3457 58.8821 30.1018 59.124 26.8708C59.4214 26.8265 59.7237 26.8265 60.0211 26.8708L60.4964 26.9456L61.842 33.7221Z" fill="var(--fill-0, white)"/>
<path id="Vector_36" d="M61.8259 25.0125C61.4038 24.6136 60.8652 24.3601 60.2888 24.289C59.7124 24.2179 59.1283 24.333 58.6219 24.6174C58.5093 25.4913 58.6233 26.3795 58.953 27.1966C59.5244 27.1645 60.021 27.3194 60.6138 27.2927C60.9128 26.4543 61.1317 25.5519 61.8259 25.0125Z" fill="var(--fill-0, #FEA629)"/>
<path id="Vector_37" opacity="0.2" d="M61.8259 25.0125C61.4038 24.6136 60.8652 24.3601 60.2888 24.289C59.7124 24.2179 59.1283 24.333 58.6219 24.6174C58.5093 25.4913 58.6233 26.3795 58.953 27.1966C59.5244 27.1645 60.021 27.3194 60.6138 27.2927C60.9128 26.4543 61.1317 25.5519 61.8259 25.0125Z" fill="var(--fill-0, white)"/>
<path id="Vector_38" d="M26.9291 39.6014C26.9947 39.6497 27.05 39.7108 27.0914 39.781C27.1328 39.8512 27.1595 39.9291 27.17 40.01C27.1805 40.0908 27.1745 40.173 27.1524 40.2514C27.1302 40.3299 27.0924 40.403 27.0412 40.4665C26.941 40.5877 26.7977 40.6655 26.6414 40.6834C26.4851 40.7013 26.3279 40.658 26.2028 40.5626L0.07954 17.0666C0.0379708 17.0348 0.0103217 16.9881 0.0023603 16.9364C-0.0056011 16.8846 0.00674863 16.8318 0.0368272 16.7889C0.0517927 16.7644 0.0717909 16.7434 0.0954942 16.7272C0.119197 16.711 0.146071 16.7 0.174336 16.6949C0.202601 16.6899 0.231606 16.6909 0.259452 16.6979C0.287298 16.7049 0.313345 16.7177 0.335866 16.7355L26.9291 39.6014Z" fill="var(--fill-0, #263238)"/>
<g id="Group" opacity="0.3">
<path id="Vector_39" d="M26.9291 39.6014C26.9947 39.6497 27.05 39.7108 27.0914 39.781C27.1328 39.8512 27.1595 39.9291 27.17 40.01C27.1805 40.0908 27.1745 40.173 27.1524 40.2514C27.1302 40.3299 27.0924 40.403 27.0412 40.4665C26.941 40.5877 26.7977 40.6655 26.6414 40.6834C26.4851 40.7013 26.3279 40.658 26.2028 40.5626L0.07954 17.0666C0.0379708 17.0348 0.0103217 16.9881 0.0023603 16.9364C-0.0056011 16.8846 0.00674863 16.8318 0.0368272 16.7889C0.0517927 16.7644 0.0717909 16.7434 0.0954942 16.7272C0.119197 16.711 0.146071 16.7 0.174336 16.6949C0.202601 16.6899 0.231606 16.6909 0.259452 16.6979C0.287298 16.7049 0.313345 16.7177 0.335866 16.7355L26.9291 39.6014Z" fill="var(--fill-0, white)"/>
</g>
<path id="Vector_40" d="M47.5948 33.6366L48.6628 43.6011C48.6884 43.7889 48.7807 43.9613 48.9229 44.0868C49.065 44.2123 49.2475 44.2825 49.4371 44.2846L64.8911 44.2259C64.9791 44.2282 65.0666 44.2114 65.1475 44.1766C65.2284 44.1418 65.3008 44.0898 65.3597 44.0244C65.4186 43.9589 65.4626 43.8814 65.4886 43.7972C65.5147 43.7131 65.5221 43.6243 65.5105 43.537L64.4425 33.5726C64.4169 33.3847 64.3246 33.2123 64.1825 33.0868C64.0403 32.9613 63.8578 32.8911 63.6682 32.889L48.2143 32.9478C48.1262 32.9455 48.0387 32.9623 47.9578 32.9971C47.8769 33.0319 47.8045 33.0838 47.7456 33.1493C47.6867 33.2148 47.6427 33.2923 47.6167 33.3764C47.5907 33.4606 47.5832 33.5493 47.5948 33.6366Z" fill="var(--fill-0, #263238)"/>
<path id="Vector_41" d="M64.3998 33.0813L64.4479 33.5458C64.4235 33.3584 64.3323 33.1861 64.191 33.0605C64.0497 32.935 63.8679 32.8646 63.6789 32.8623L48.2249 32.9211C48.1367 32.9195 48.0491 32.9371 47.9682 32.9725C47.8873 33.0079 47.8149 33.0603 47.7561 33.1262C47.6974 33.1921 47.6535 33.2699 47.6275 33.3543C47.6015 33.4387 47.594 33.5277 47.6055 33.6153L47.5521 33.1453C47.5406 33.0578 47.5481 32.9688 47.5741 32.8844C47.6001 32.8 47.644 32.7222 47.7027 32.6563C47.7615 32.5904 47.8339 32.538 47.9148 32.5026C47.9957 32.4672 48.0833 32.4496 48.1716 32.4511L63.6255 32.3924C63.8159 32.3947 63.9991 32.4656 64.1413 32.5922C64.2836 32.7188 64.3754 32.8924 64.3998 33.0813Z" fill="var(--fill-0, #263238)"/>
<path id="Vector_42" opacity="0.7" d="M64.3998 33.0813L64.4479 33.5458C64.4235 33.3584 64.3323 33.1861 64.191 33.0605C64.0497 32.935 63.8679 32.8646 63.6789 32.8623L48.2249 32.9211C48.1367 32.9195 48.0491 32.9371 47.9682 32.9725C47.8873 33.0079 47.8149 33.0603 47.7561 33.1262C47.6974 33.1921 47.6535 33.2699 47.6275 33.3543C47.6015 33.4387 47.594 33.5277 47.6055 33.6153L47.5521 33.1453C47.5406 33.0578 47.5481 32.9688 47.5741 32.8844C47.6001 32.8 47.644 32.7222 47.7027 32.6563C47.7615 32.5904 47.8339 32.538 47.9148 32.5026C47.9957 32.4672 48.0833 32.4496 48.1716 32.4511L63.6255 32.3924C63.8159 32.3947 63.9991 32.4656 64.1413 32.5922C64.2836 32.7188 64.3754 32.8924 64.3998 33.0813Z" fill="var(--fill-0, white)"/>
<path id="Vector_43" d="M56.1068 39.8257C56.6731 39.8257 57.1321 39.3666 57.1321 38.8004C57.1321 38.2342 56.6731 37.7751 56.1068 37.7751C55.5406 37.7751 55.0815 38.2342 55.0815 38.8004C55.0815 39.3666 55.5406 39.8257 56.1068 39.8257Z" fill="var(--fill-0, white)"/>
<path id="Vector_44" d="M74.6312 27.0898C74.7405 27.5773 74.7995 28.0748 74.8074 28.5743L75.1332 42.9015C75.1652 44.2793 74.3749 45.7157 71.8598 45.689L60.9128 43.4729L56.6408 43.3875C56.4575 43.3808 56.2778 43.3345 56.1141 43.2518C55.9503 43.1691 55.8064 43.0519 55.6923 42.9083C55.5781 42.7648 55.4964 42.5982 55.4527 42.42C55.4091 42.2419 55.4045 42.0564 55.4393 41.8763L55.8611 39.6762C55.9162 39.3942 56.0648 39.1391 56.2828 38.9521C56.5008 38.7651 56.7756 38.6571 57.0626 38.6456L58.1947 38.5975C58.3875 38.5907 58.5794 38.6275 58.756 38.7051C58.9326 38.7828 59.0894 38.8993 59.2147 39.0461L61.607 40.9311L70.8452 40.7068C71.3258 40.8136 67.3368 22.6523 69.7451 22.1129C70.5942 21.9367 73.622 22.5722 74.6312 27.0898Z" fill="var(--fill-0, #EEC1BB)"/>
<path id="Vector_45" d="M59.8876 8.89106C59.8609 9.24884 59.6473 9.54254 59.4177 9.54254C59.188 9.54254 59.0225 9.2435 59.0492 8.88038C59.0759 8.51726 59.2895 8.22356 59.5191 8.2289C59.7487 8.23424 59.9143 8.53862 59.8876 8.89106Z" fill="var(--fill-0, #263238)"/>
<path id="Vector_46" d="M56.171 8.78959C56.1443 9.15271 55.936 9.44642 55.7064 9.44108C55.4768 9.43574 55.3112 9.14204 55.3379 8.78426C55.3646 8.42648 55.5729 8.13278 55.8078 8.13278C56.0428 8.13278 56.203 8.42647 56.171 8.78959Z" fill="var(--fill-0, #263238)"/>
<path id="Vector_47" d="M55.9039 8.15413L55.0762 7.89247C55.0762 7.89247 55.4607 8.58133 55.9039 8.15413Z" fill="var(--fill-0, #263238)"/>
<path id="Vector_48" d="M61.1904 7.20898C61.1633 7.20539 61.1373 7.19588 61.1142 7.18112C61.0911 7.16635 61.0716 7.1467 61.0569 7.12354C60.9218 6.90468 60.7345 6.72278 60.5117 6.59416C60.289 6.46554 60.0378 6.39423 59.7807 6.38662C59.7305 6.38958 59.6812 6.3728 59.6433 6.33986C59.6054 6.30693 59.5819 6.26046 59.5778 6.2104C59.5804 6.15317 59.6043 6.09898 59.6448 6.05847C59.6853 6.01797 59.7395 5.99407 59.7967 5.99146C60.1194 5.99779 60.4352 6.08524 60.7152 6.24575C60.9952 6.40627 61.2302 6.63468 61.3987 6.90994C61.4263 6.95827 61.4339 7.01545 61.4199 7.06931C61.4059 7.12316 61.3715 7.16944 61.3239 7.1983C61.2819 7.21687 61.2349 7.22063 61.1904 7.20898Z" fill="var(--fill-0, #263238)"/>
<path id="Vector_49" d="M54.964 6.94195C54.9387 6.94653 54.9128 6.94598 54.8877 6.94036C54.8626 6.93474 54.839 6.92415 54.8181 6.90921C54.7971 6.89428 54.7794 6.87531 54.766 6.85341C54.7525 6.83152 54.7436 6.80715 54.7398 6.78175C54.735 6.75108 54.7373 6.71972 54.7466 6.6901C54.7558 6.66047 54.7718 6.63337 54.7932 6.61087C54.993 6.33362 55.2539 6.10608 55.5558 5.94588C55.8577 5.78568 56.1924 5.69712 56.534 5.68705C56.5859 5.69114 56.6343 5.71504 56.6691 5.75381C56.7039 5.79257 56.7224 5.84324 56.7209 5.89531C56.7155 5.95195 56.6888 6.00442 56.6461 6.0421C56.6035 6.07977 56.5481 6.09984 56.4913 6.09823C56.2215 6.10847 55.9577 6.18018 55.7198 6.30789C55.482 6.4356 55.2764 6.61593 55.1189 6.83514C55.1016 6.86245 55.079 6.88598 55.0523 6.90433C55.0257 6.92268 54.9957 6.93548 54.964 6.94195Z" fill="var(--fill-0, #263238)"/>
<path id="Vector_50" d="M59.6205 8.26094L58.7928 7.99928C58.7928 7.99928 59.1773 8.6828 59.6205 8.26094Z" fill="var(--fill-0, #263238)"/>
<path id="Vector_51" d="M66.9418 44.2739L62.2532 42.9336V42.9282L66.9418 44.2739Z" fill="var(--fill-0, #EEC1BB)"/>
<path id="Vector_52" opacity="0.1" d="M69.0404 26.8388L69.9909 44.2739C69.9909 44.2739 70.5996 37.7484 71.8706 30.422C71.8599 30.422 72.3779 24.3771 69.0404 26.8388Z" fill="var(--fill-0, black)"/>
<path id="Vector_53" d="M61.607 40.9311L70.8452 40.7068C71.3258 40.8136 67.3368 22.6523 69.7451 22.1129C70.5942 21.926 73.622 22.5615 74.6312 27.0791C74.7405 27.5667 74.7995 28.0641 74.8074 28.5636L75.1332 42.8909C75.1652 44.2686 74.3749 45.705 71.8598 45.6783L60.9128 43.4729L61.607 40.9311Z" fill="var(--fill-0, #FEA629)"/>
<g id="Group_2" opacity="0.8">
<path id="Vector_54" d="M61.607 40.9311L70.8452 40.7068C71.3258 40.8136 67.3368 22.6523 69.7451 22.1129C70.5942 21.926 73.622 22.5615 74.6312 27.0791C74.7405 27.5667 74.7995 28.0641 74.8074 28.5636L75.1332 42.8909C75.1652 44.2686 74.3749 45.705 71.8598 45.6783L60.9128 43.4729L61.607 40.9311Z" fill="var(--fill-0, white)"/>
</g>
</g>
</svg>
