<svg preserveAspectRatio="none" width="100%" height="100%" overflow="visible" style="display: block;" viewBox="0 0 52.583 46.1536" fill="none" xmlns="http://www.w3.org/2000/svg">
<g id="freepik--Plant--inject-56">
<path id="Vector" d="M19.2934 17.387C19.2934 17.387 13.7932 13.0563 9.2489 17.1895L11.0805 17.4297L8.34643 18.1453C7.96781 18.608 7.62505 19.0989 7.32116 19.6138C6.92066 20.2813 6.55753 20.9007 6.21043 21.4881L8.03672 21.8673L5.22788 23.1809C2.3603 28.2379 1.8797 29.7758 1.8797 29.7758C3.70863 29.7732 5.53231 29.58 7.32116 29.1991L8.92316 24.9965L9.25424 28.7078C11.2119 28.1473 13.0544 27.2432 14.6957 26.0378L13.9801 22.2998L16.1642 24.7562C17.4044 23.4586 18.3066 21.876 18.7915 20.1478L17.5526 18.957L19.0104 19.256C19.1485 18.6404 19.2431 18.0159 19.2934 17.387Z" fill="var(--fill-0, #0E888D)"/>
<path id="Vector_2" opacity="0.2" d="M19.2934 17.387C19.2934 17.387 13.7932 13.0563 9.2489 17.1895L11.0805 17.4297L8.34643 18.1453C7.96781 18.608 7.62505 19.0989 7.32116 19.6138C6.92066 20.2813 6.55753 20.9007 6.21043 21.4881L8.03672 21.8673L5.22788 23.1809C2.3603 28.2379 1.8797 29.7758 1.8797 29.7758C3.70863 29.7732 5.53231 29.58 7.32116 29.1991L8.92316 24.9965L9.25424 28.7078C11.2119 28.1473 13.0544 27.2432 14.6957 26.0378L13.9801 22.2998L16.1642 24.7562C17.4044 23.4586 18.3066 21.876 18.7915 20.1478L17.5526 18.957L19.0104 19.256C19.1485 18.6404 19.2431 18.0159 19.2934 17.387Z" fill="var(--fill-0, white)"/>
<path id="Vector_3" d="M30.1016 14.1403C30.1016 14.1403 37.1985 8.54397 43.0725 13.8893L40.7122 14.199L44.2366 15.1229C44.7301 15.718 45.1748 16.3519 45.5663 17.0186C46.1003 17.8783 46.5542 18.6846 46.9974 19.4429L44.6371 19.9342L48.2576 21.6323C51.9636 28.1631 52.583 30.1496 52.583 30.1496C50.2209 30.1454 47.8657 29.8949 45.5556 29.402L43.4677 23.9926L43.0458 28.7986C40.5164 28.0855 38.1347 26.9263 36.013 25.3757L36.9368 20.5269L34.112 23.6989C32.5099 22.0227 31.3453 19.9778 30.7211 17.7448L32.3231 16.2122L30.4434 16.5967C30.2698 15.7873 30.1556 14.9663 30.1016 14.1403Z" fill="var(--fill-0, #0E888D)"/>
<path id="Vector_4" opacity="0.3" d="M30.1016 14.1403C30.1016 14.1403 37.1985 8.54397 43.0725 13.8893L40.7122 14.199L44.2366 15.1229C44.7301 15.718 45.1748 16.3519 45.5663 17.0186C46.1003 17.8783 46.5542 18.6846 46.9974 19.4429L44.6371 19.9342L48.2576 21.6323C51.9636 28.1631 52.583 30.1496 52.583 30.1496C50.2209 30.1454 47.8657 29.8949 45.5556 29.402L43.4677 23.9926L43.0458 28.7986C40.5164 28.0855 38.1347 26.9263 36.013 25.3757L36.9368 20.5269L34.112 23.6989C32.5099 22.0227 31.3453 19.9778 30.7211 17.7448L32.3231 16.2122L30.4434 16.5967C30.2698 15.7873 30.1556 14.9663 30.1016 14.1403Z" fill="var(--fill-0, white)"/>
<path id="Vector_5" d="M27.1913 3.89819C27.1913 3.89819 26.1233 12.8747 18.1987 13.2485L19.6459 11.3582L16.5006 13.2005C15.7313 13.1264 14.9689 12.9925 14.2204 12.8C13.2485 12.5543 12.3461 12.3194 11.497 12.0951L12.816 10.1086L9.078 11.465C1.8423 9.46782 0 8.50127 0 8.50127C1.67535 6.83468 3.51855 5.34581 5.5002 4.0584L10.8402 6.42402L7.74834 2.73408C10.0416 1.45307 12.5439 0.588856 15.1389 0.181558L17.8676 4.23462L17.6167 0C19.9355 0.0512424 22.2061 0.672974 24.2276 1.81025L24.1849 4.02635L25.2529 2.42435C25.9321 2.87055 26.5797 3.363 27.1913 3.89819Z" fill="var(--fill-0, #0E888D)"/>
<path id="Vector_6" opacity="0.5" d="M27.1913 3.89819C27.1913 3.89819 26.1233 12.8747 18.1987 13.2485L19.6459 11.3582L16.5006 13.2005C15.7313 13.1264 14.9689 12.9925 14.2204 12.8C13.2485 12.5543 12.3461 12.3194 11.497 12.0951L12.816 10.1086L9.078 11.465C1.8423 9.46782 0 8.50127 0 8.50127C1.67535 6.83468 3.51855 5.34581 5.5002 4.0584L10.8402 6.42402L7.74834 2.73408C10.0416 1.45307 12.5439 0.588856 15.1389 0.181558L17.8676 4.23462L17.6167 0C19.9355 0.0512424 22.2061 0.672974 24.2276 1.81025L24.1849 4.02635L25.2529 2.42435C25.9321 2.87055 26.5797 3.363 27.1913 3.89819Z" fill="var(--fill-0, white)"/>
<path id="Vector_7" d="M9.89504 21.3707C9.89504 21.3707 22.0435 4.28268 25.9417 29.4661H24.548C24.548 29.4661 23.2237 17.9371 18.5779 17.0773C13.9321 16.2176 9.89504 21.3707 9.89504 21.3707Z" fill="var(--fill-0, #0E888D)"/>
<path id="Vector_8" d="M40.0233 18.2361C40.0233 18.2361 28.3073 -5.43616 24.5373 29.4501H25.8776C25.8776 29.4501 27.1539 13.4621 31.6181 12.2713C36.0824 11.0805 40.0233 18.2361 40.0233 18.2361Z" fill="var(--fill-0, #0E888D)"/>
<path id="Vector_9" d="M12.2073 7.72698C12.2073 7.72698 29.9788 4.98755 27.1913 29.8132H28.5851C28.5851 29.8132 32.024 5.07834 12.2073 7.72698Z" fill="var(--fill-0, #0E888D)"/>
<path id="Vector_10" d="M21.9795 44.4715L18.7007 28.2646H34.8756L31.6021 44.4715C31.4046 45.4327 30.1497 46.1536 28.7506 46.1536H24.8257C23.4266 46.1536 22.1717 45.4327 21.9795 44.4715Z" fill="var(--fill-0, #263238)"/>
</g>
</svg>
