<svg preserveAspectRatio="none" width="100%" height="100%" overflow="visible" style="display: block;" viewBox="0 0 151.645 104.301" fill="none" xmlns="http://www.w3.org/2000/svg">
<g id="freepik--Screen--inject-56">
<path id="Vector" d="M151.645 0H0V104.301H151.645V0Z" fill="var(--fill-0, #0E888D)"/>
<g id="Group" opacity="0.3">
<path id="Vector_2" d="M151.645 0H0V104.301H151.645V0Z" fill="var(--fill-0, white)"/>
</g>
<path id="Vector_3" d="M151.603 0H0V8.24496H151.603V0Z" fill="var(--fill-0, #263238)"/>
<path id="Vector_4" d="M77.8946 17.0293L84.8366 15.8011L106.015 94.3364L99.0731 95.57C97.4868 95.8236 95.8625 95.4872 94.5075 94.6242C93.1525 93.7612 92.1608 92.4316 91.7199 90.8868L73.628 23.7843C73.418 23.0591 73.3642 22.2976 73.4701 21.55C73.576 20.8024 73.8393 20.0858 74.2425 19.4475C74.6457 18.8091 75.1797 18.2635 75.8092 17.8467C76.4387 17.4298 77.1495 17.1512 77.8946 17.0293Z" fill="var(--fill-0, #0E888D)"/>
<g id="Group_2" opacity="0.5">
<path id="Vector_5" d="M77.8946 17.0293L84.8366 15.8011L106.015 94.3364L99.0731 95.57C97.4868 95.8236 95.8625 95.4872 94.5075 94.6242C93.1525 93.7612 92.1608 92.4316 91.7199 90.8868L73.628 23.7843C73.418 23.0591 73.3642 22.2976 73.4701 21.55C73.576 20.8024 73.8393 20.0858 74.2425 19.4475C74.6457 18.8091 75.1797 18.2635 75.8092 17.8467C76.4387 17.4298 77.1495 17.1512 77.8946 17.0293Z" fill="var(--fill-0, black)"/>
</g>
<path id="Vector_6" d="M100.493 95.319L129.009 90.2406C129.754 90.1192 130.465 89.8412 131.095 89.425C131.724 89.0088 132.259 88.4638 132.662 87.826C133.066 87.1882 133.33 86.472 133.436 85.7248C133.543 84.9775 133.49 84.2162 133.281 83.4909L115.184 16.3884C114.743 14.8436 113.751 13.514 112.396 12.651C111.041 11.788 109.417 11.4516 107.831 11.7052L79.3151 16.7782C78.5695 16.8996 77.8581 17.1777 77.2279 17.5942C76.5978 18.0108 76.0631 18.5563 75.6594 19.1947C75.2556 19.8332 74.9919 20.55 74.8857 21.2979C74.7794 22.0458 74.8331 22.8077 75.0431 23.5333L93.135 90.6305C93.5759 92.1766 94.5682 93.5076 95.9242 94.3716C97.2802 95.2356 98.9058 95.5726 100.493 95.319Z" fill="var(--fill-0, #0E888D)"/>
<path id="Vector_7" d="M79.6676 18.0919L87.0742 16.7729C87.3165 16.7297 87.5662 16.7714 87.7813 16.8911C87.9963 17.0108 88.1634 17.201 88.2543 17.4297L88.3451 17.654C88.5768 18.2054 88.987 18.6631 89.5099 18.9536C90.0328 19.2441 90.6381 19.3506 91.2287 19.256L98.2882 18.0118C98.5666 17.9695 98.8339 17.8725 99.0747 17.7265C99.3156 17.5805 99.5251 17.3884 99.6914 17.161C99.8576 16.9337 99.9773 16.6758 100.044 16.4021C100.11 16.1283 100.121 15.8442 100.077 15.5661L100.045 15.3364C100.013 15.1068 100.071 14.8736 100.207 14.6862C100.344 14.4987 100.548 14.3719 100.777 14.3325L108.189 12.9975C109.41 12.8039 110.66 13.0641 111.703 13.7292C112.746 14.3942 113.509 15.4181 113.849 16.6074L131.93 83.7258C132.095 84.2846 132.138 84.8719 132.057 85.4487C131.976 86.0256 131.774 86.5785 131.462 87.0708C131.151 87.563 130.738 87.9832 130.252 88.3033C129.765 88.6234 129.216 88.836 128.641 88.927L100.125 94.0053C98.9027 94.2004 97.6512 93.9408 96.6072 93.2757C95.5632 92.6105 94.7991 91.5858 94.4594 90.3955L76.3942 23.293C76.2298 22.7354 76.186 22.1492 76.2657 21.5734C76.3454 20.9976 76.5468 20.4453 76.8564 19.9533C77.1661 19.4613 77.5769 19.0409 78.0616 18.7199C78.5463 18.399 79.0938 18.1849 79.6676 18.0919Z" fill="var(--fill-0, #0E888D)"/>
<path id="Vector_8" opacity="0.7" d="M79.6676 18.0919L87.0742 16.7729C87.3165 16.7297 87.5662 16.7714 87.7813 16.8911C87.9963 17.0108 88.1634 17.201 88.2543 17.4297L88.3451 17.654C88.5768 18.2054 88.987 18.6631 89.5099 18.9536C90.0328 19.2441 90.6381 19.3506 91.2287 19.256L98.2882 18.0118C98.5666 17.9695 98.8339 17.8725 99.0747 17.7265C99.3156 17.5805 99.5251 17.3884 99.6914 17.161C99.8576 16.9337 99.9773 16.6758 100.044 16.4021C100.11 16.1283 100.121 15.8442 100.077 15.5661L100.045 15.3364C100.013 15.1068 100.071 14.8736 100.207 14.6862C100.344 14.4987 100.548 14.3719 100.777 14.3325L108.189 12.9975C109.41 12.8039 110.66 13.0641 111.703 13.7292C112.746 14.3942 113.509 15.4181 113.849 16.6074L131.93 83.7258C132.095 84.2846 132.138 84.8719 132.057 85.4487C131.976 86.0256 131.774 86.5785 131.462 87.0708C131.151 87.563 130.738 87.9832 130.252 88.3033C129.765 88.6234 129.216 88.836 128.641 88.927L100.125 94.0053C98.9027 94.2004 97.6512 93.9408 96.6072 93.2757C95.5632 92.6105 94.7991 91.5858 94.4594 90.3955L76.3942 23.293C76.2298 22.7354 76.186 22.1492 76.2657 21.5734C76.3454 20.9976 76.5468 20.4453 76.8564 19.9533C77.1661 19.4613 77.5769 19.0409 78.0616 18.7199C78.5463 18.399 79.0938 18.1849 79.6676 18.0919Z" fill="var(--fill-0, white)"/>
<path id="Vector_9" d="M95.8531 15.9879C95.8956 16.1387 95.9919 16.2687 96.1237 16.3533C96.2556 16.4379 96.4139 16.4713 96.5687 16.4472C96.6402 16.4334 96.7082 16.4052 96.7684 16.3642C96.8286 16.3232 96.8798 16.2703 96.9188 16.2087C96.9578 16.1472 96.9839 16.0784 96.9953 16.0064C97.0067 15.9344 97.0032 15.8609 96.9852 15.7903C96.9416 15.6402 96.8452 15.5109 96.7136 15.4264C96.582 15.342 96.4243 15.3081 96.2696 15.3311C96.1981 15.3449 96.1301 15.3731 96.0699 15.4141C96.0097 15.4551 95.9585 15.508 95.9194 15.5695C95.8804 15.6311 95.8544 15.6999 95.843 15.7719C95.8316 15.8438 95.835 15.9173 95.8531 15.9879Z" fill="var(--fill-0, #263238)"/>
<path id="Vector_10" d="M91.6879 16.1481L93.6263 15.801C93.7818 15.7767 93.9408 15.8099 94.0735 15.8944C94.2063 15.979 94.3036 16.1091 94.3472 16.2603C94.3653 16.3308 94.3687 16.4044 94.3573 16.4763C94.3459 16.5483 94.3199 16.6171 94.2808 16.6787C94.2418 16.7402 94.1906 16.7931 94.1304 16.8341C94.0702 16.8751 94.0022 16.9033 93.9307 16.9171L91.9869 17.2695C91.8321 17.2937 91.6738 17.2603 91.542 17.1757C91.4102 17.0911 91.3139 16.9611 91.2714 16.8103C91.2525 16.7394 91.2484 16.6653 91.2594 16.5927C91.2704 16.5201 91.2962 16.4506 91.3353 16.3885C91.3744 16.3263 91.4259 16.2729 91.4866 16.2315C91.5472 16.1902 91.6158 16.1618 91.6879 16.1481Z" fill="var(--fill-0, #263238)"/>
<path id="Vector_11" d="M110.389 15.8438L109.785 15.9506L109.63 15.3578L110.228 15.251L110.389 15.8438Z" fill="var(--fill-0, #0E888D)"/>
<path id="Vector_12" d="M109.027 15.4646L109.187 16.0574L108.589 16.1642L108.429 15.5714L108.269 14.984L108.867 14.8772L109.027 15.4646Z" fill="var(--fill-0, #0E888D)"/>
<path id="Vector_13" d="M107.51 14.4981L107.671 15.0908L107.831 15.6782L107.986 16.271L107.387 16.3778L107.227 15.785L107.067 15.1976L106.912 14.6049L107.51 14.4981Z" fill="var(--fill-0, #0E888D)"/>
<path id="Vector_14" d="M79.0909 19.5978L79.5608 21.3279L82.1988 20.858L82.0813 20.4255L82.375 20.3774L82.14 19.507L81.8463 19.5604L81.7289 19.1279L79.0909 19.5978ZM80.6929 19.7687L81.5687 19.6138L81.8036 20.4789L80.9225 20.6337L80.6929 19.7687Z" fill="var(--fill-0, #0E888D)"/>
<path id="Vector_15" d="M83.8702 35.1799L89.7442 34.1119C89.996 34.0714 90.2364 33.9778 90.4493 33.8373C90.6623 33.6967 90.8429 33.5126 90.9793 33.297C91.1156 33.0813 91.2045 32.8392 91.2402 32.5866C91.2758 32.334 91.2573 32.0767 91.186 31.8317L89.6267 26.0592C89.4823 25.5335 89.1492 25.0795 88.6911 24.7839C88.233 24.4884 87.6821 24.372 87.1436 24.4572L81.2696 25.4985C81.0177 25.539 80.7773 25.6326 80.5644 25.7731C80.3515 25.9137 80.1708 26.0978 80.0345 26.3134C79.8981 26.5291 79.8092 26.7712 79.7736 27.0238C79.7379 27.2764 79.7564 27.5337 79.8278 27.7787L81.3871 33.5512C81.526 34.0819 81.8568 34.5421 82.3155 34.843C82.7741 35.1438 83.3281 35.2639 83.8702 35.1799Z" fill="var(--fill-0, #0E888D)"/>
<path id="Vector_16" d="M95.7303 33.0652L101.604 31.9972C101.857 31.9575 102.097 31.8644 102.311 31.7241C102.524 31.5838 102.705 31.3996 102.842 31.1838C102.978 30.9679 103.067 30.7254 103.102 30.4725C103.138 30.2195 103.118 29.962 103.046 29.7171L101.492 23.9659C101.348 23.4402 101.015 22.9862 100.557 22.6906C100.098 22.3951 99.5475 22.2787 99.009 22.3639L93.135 23.4319C92.8832 23.4724 92.6428 23.566 92.4299 23.7065C92.2169 23.847 92.0363 24.0312 91.8999 24.2468C91.7636 24.4625 91.6747 24.7046 91.639 24.9572C91.6034 25.2098 91.6219 25.4671 91.6932 25.7121L93.2472 31.4899C93.3979 32.0101 93.7335 32.4572 94.1908 32.7473C94.648 33.0374 95.1955 33.1504 95.7303 33.0652Z" fill="var(--fill-0, #0E888D)"/>
<path id="Vector_17" d="M107.612 30.9506L113.486 29.8826C113.738 29.8429 113.979 29.7498 114.192 29.6095C114.406 29.4692 114.587 29.285 114.723 29.0691C114.86 28.8533 114.948 28.6108 114.984 28.3579C115.019 28.1049 115 27.8474 114.928 27.6024L113.368 21.8299C113.223 21.3048 112.89 20.8515 112.432 20.5561C111.974 20.2608 111.423 20.144 110.885 20.2279L105.011 21.2692C104.76 21.3105 104.52 21.4047 104.307 21.5454C104.095 21.6861 103.915 21.8702 103.778 22.0856C103.642 22.301 103.553 22.5428 103.517 22.7951C103.481 23.0474 103.499 23.3045 103.569 23.5494L105.129 29.3273C105.27 29.8563 105.601 30.3146 106.059 30.6142C106.518 30.9138 107.071 31.0336 107.612 30.9506Z" fill="var(--fill-0, #0E888D)"/>
<path id="Vector_18" d="M88.1422 51.0771L94.0162 50.0091C94.2684 49.9693 94.5093 49.8762 94.7227 49.7359C94.9361 49.5957 95.1171 49.4114 95.2536 49.1956C95.3901 48.9797 95.4789 48.7372 95.5141 48.4843C95.5494 48.2314 95.5302 47.9738 95.458 47.7289L93.904 41.9563C93.7596 41.4307 93.4265 40.9766 92.9685 40.6811C92.5104 40.3855 91.9594 40.2692 91.4209 40.3543L85.5469 41.3956C85.2955 41.4368 85.0557 41.531 84.8434 41.6717C84.6311 41.8125 84.4511 41.9968 84.3153 42.2123C84.1795 42.4279 84.091 42.6698 84.0557 42.9221C84.0204 43.1744 84.0391 43.4313 84.1105 43.6758L85.6644 49.4537C85.8054 49.9817 86.1361 50.4392 86.5932 50.7387C87.0503 51.0381 87.6018 51.1586 88.1422 51.0771Z" fill="var(--fill-0, #0E888D)"/>
<path id="Vector_19" d="M100.018 48.9624L105.892 47.8944C106.145 47.8547 106.385 47.7616 106.599 47.6213C106.812 47.481 106.993 47.2968 107.13 47.081C107.266 46.8651 107.355 46.6226 107.39 46.3697C107.426 46.1167 107.406 45.8592 107.334 45.6143L105.764 39.8631C105.62 39.3374 105.287 38.8834 104.829 38.5878C104.37 38.2923 103.82 38.1759 103.281 38.2611L97.407 39.3291C97.1552 39.3696 96.9148 39.4632 96.7019 39.6037C96.4889 39.7442 96.3083 39.9284 96.1719 40.144C96.0356 40.3597 95.9467 40.6018 95.911 40.8544C95.8754 41.107 95.8939 41.3643 95.9652 41.6093L97.5245 47.3871C97.6755 47.9094 98.0126 48.3581 98.4722 48.6484C98.9318 48.9387 99.4819 49.0505 100.018 48.9624Z" fill="var(--fill-0, #0E888D)"/>
<path id="Vector_20" d="M111.894 46.8478L117.768 45.7798C118.02 45.7394 118.261 45.6458 118.473 45.5052C118.686 45.3646 118.866 45.1803 119.002 44.9646C119.138 44.7488 119.227 44.5065 119.262 44.2539C119.297 44.0013 119.277 43.7441 119.205 43.4996L117.651 37.7271C117.506 37.202 117.172 36.7487 116.714 36.4533C116.257 36.1579 115.706 36.0411 115.168 36.1251L109.294 37.1931C109.042 37.2329 108.802 37.3259 108.589 37.4658C108.376 37.6058 108.195 37.7895 108.059 38.0047C107.923 38.2199 107.834 38.4617 107.798 38.714C107.762 38.9663 107.781 39.2233 107.852 39.4679L109.411 45.2458C109.555 45.7721 109.888 46.2269 110.346 46.5226C110.804 46.8183 111.356 46.9341 111.894 46.8478Z" fill="var(--fill-0, #0E888D)"/>
<path id="Vector_21" d="M92.4142 66.9743L98.2882 65.9063C98.5404 65.8665 98.7813 65.7734 98.9947 65.6331C99.2081 65.4928 99.3891 65.3086 99.5256 65.0928C99.6621 64.8769 99.7509 64.6344 99.7861 64.3815C99.8214 64.1286 99.8022 63.871 99.73 63.6261L98.1707 57.8535C98.0263 57.3278 97.6932 56.8738 97.2351 56.5783C96.777 56.2827 96.2261 56.1664 95.6876 56.2515L89.8136 57.2928C89.5617 57.3334 89.3213 57.427 89.1084 57.5675C88.8955 57.708 88.7148 57.8922 88.5785 58.1078C88.4421 58.3234 88.3532 58.5656 88.3176 58.8182C88.2819 59.0708 88.3004 59.3281 88.3718 59.573L89.9311 65.3509C90.0721 65.8799 90.4036 66.3382 90.8619 66.6378C91.3202 66.9374 91.873 67.0572 92.4142 66.9743Z" fill="var(--fill-0, #0E888D)"/>
<path id="Vector_22" d="M104.301 64.8596L110.175 63.7916C110.427 63.7512 110.667 63.6576 110.88 63.517C111.093 63.3765 111.273 63.1922 111.409 62.9764C111.545 62.7606 111.633 62.5184 111.668 62.2657C111.703 62.0131 111.684 61.756 111.611 61.5114L110.036 55.7602C109.891 55.2352 109.557 54.7819 109.1 54.4865C108.642 54.1911 108.091 54.0743 107.553 54.1582L101.679 55.1995C101.427 55.2401 101.187 55.3337 100.974 55.4742C100.761 55.6147 100.58 55.7989 100.444 56.0145C100.308 56.2301 100.219 56.4723 100.183 56.7249C100.147 56.9775 100.166 57.2348 100.237 57.4797L101.791 63.2576C101.937 63.788 102.274 64.2454 102.738 64.5413C103.202 64.8373 103.759 64.9507 104.301 64.8596Z" fill="var(--fill-0, #0E888D)"/>
<path id="Vector_23" d="M116.182 62.745L122.056 61.677C122.309 61.6372 122.55 61.5441 122.763 61.4038C122.976 61.2636 123.157 61.0793 123.294 60.8635C123.43 60.6476 123.519 60.4051 123.554 60.1522C123.59 59.8993 123.57 59.6417 123.498 59.3968L121.939 53.6242C121.795 53.0996 121.462 52.6464 121.005 52.351C120.548 52.0555 119.999 51.9385 119.461 52.0222L113.587 53.0902C113.335 53.1306 113.095 53.2242 112.882 53.3648C112.67 53.5054 112.489 53.6897 112.353 53.9055C112.217 54.1212 112.129 54.3635 112.094 54.6161C112.059 54.8687 112.078 55.1259 112.151 55.3704L113.705 61.143C113.85 61.667 114.183 62.1195 114.639 62.4147C115.096 62.71 115.645 62.8275 116.182 62.745Z" fill="var(--fill-0, #0E888D)"/>
<path id="Vector_24" d="M96.6862 82.8714L102.56 81.8034C102.812 81.7637 103.053 81.6706 103.267 81.5303C103.48 81.39 103.661 81.2058 103.798 80.9899C103.934 80.7741 104.023 80.5316 104.058 80.2787C104.093 80.0257 104.074 79.7682 104.002 79.5232L102.448 73.7507C102.303 73.2256 101.969 72.7723 101.511 72.477C101.054 72.1816 100.503 72.0648 99.9649 72.1487L94.0909 73.2167C93.8393 73.2566 93.599 73.3495 93.386 73.4895C93.1731 73.6294 92.9924 73.8131 92.856 74.0283C92.7196 74.2436 92.6306 74.4854 92.5949 74.7377C92.5593 74.9899 92.5777 75.2469 92.6491 75.4915L94.2031 81.2694C94.3485 81.7945 94.6818 82.2478 95.1396 82.5432C95.5974 82.8385 96.1478 82.9554 96.6862 82.8714Z" fill="var(--fill-0, #0E888D)"/>
<path id="Vector_25" d="M108.589 80.7568L114.463 79.6888C114.715 79.649 114.956 79.5559 115.17 79.4156C115.383 79.2754 115.564 79.0911 115.7 78.8753C115.837 78.6594 115.926 78.4169 115.961 78.164C115.996 77.9111 115.977 77.6535 115.905 77.4086L114.346 71.6361C114.2 71.111 113.867 70.6577 113.409 70.3623C112.951 70.0669 112.401 69.9501 111.862 70.0341L105.988 71.1021C105.737 71.1426 105.496 71.2362 105.283 71.3767C105.07 71.5172 104.89 71.7014 104.753 71.917C104.617 72.1326 104.528 72.3748 104.492 72.6274C104.457 72.88 104.475 73.1373 104.547 73.3822L106.106 79.1548C106.251 79.6798 106.585 80.1332 107.042 80.4285C107.5 80.7239 108.051 80.8407 108.589 80.7568Z" fill="var(--fill-0, #0E888D)"/>
<path id="Vector_26" d="M120.465 78.6422L126.339 77.5742C126.591 77.5328 126.83 77.4387 127.043 77.298C127.255 77.1573 127.436 76.9732 127.572 76.7578C127.708 76.5423 127.797 76.3005 127.833 76.0482C127.869 75.796 127.851 75.5389 127.781 75.294L126.222 69.5161C126.076 68.991 125.743 68.5377 125.285 68.2423C124.827 67.947 124.277 67.8302 123.739 67.9141L117.865 68.9821C117.612 69.0218 117.371 69.1149 117.158 69.2552C116.945 69.3955 116.764 69.5797 116.627 69.7956C116.491 70.0114 116.402 70.2539 116.367 70.5069C116.331 70.7598 116.35 71.0173 116.423 71.2623L117.987 77.0775C118.139 77.5952 118.475 78.0398 118.931 78.3278C119.387 78.6159 119.932 78.7276 120.465 78.6422Z" fill="var(--fill-0, #0E888D)"/>
<g id="Group_3" opacity="0.4">
<path id="Vector_27" d="M98.2881 18.0118L131.001 87.7095C130.379 88.3532 129.566 88.78 128.683 88.927L127.145 89.2047L94.0535 18.7594L98.2881 18.0118Z" fill="var(--fill-0, white)"/>
<path id="Vector_28" d="M79.6676 18.0919L87.0742 16.7729C87.3165 16.7297 87.5662 16.7714 87.7813 16.8911C87.9963 17.0108 88.1634 17.201 88.2544 17.4297L88.3451 17.654C88.5729 18.1886 88.9689 18.6342 89.4729 18.9233C89.9769 19.2124 90.5615 19.3292 91.1379 19.256L124.203 89.7013L109.027 92.4033L76.2554 22.6095C76.1277 21.5611 76.4121 20.504 77.0487 19.6612C77.6853 18.8184 78.6242 18.2558 79.6676 18.0919Z" fill="var(--fill-0, white)"/>
</g>
<path id="Vector_29" d="M8.15962 49.8862L7.85524 51.4455H10.5252L10.301 52.5135H7.63096L7.2091 54.6495H5.8741L7.03288 48.8503H11.417L11.1927 49.9183L8.15962 49.8862Z" fill="var(--fill-0, white)"/>
<path id="Vector_30" d="M11.5665 52.6791C11.5693 52.469 11.5926 52.2598 11.6359 52.0543L12.2821 48.8076H13.6331L12.9869 52.0116C12.9524 52.1713 12.9345 52.3341 12.9335 52.4975C12.9335 53.2024 13.334 53.5655 14.0549 53.5655C14.8666 53.5655 15.3365 53.1169 15.5608 52.0329L16.207 48.8289H17.5259L16.8691 52.1344C16.522 53.8485 15.5395 54.7296 13.9054 54.7296C12.4476 54.7083 11.5665 53.9286 11.5665 52.6791Z" fill="var(--fill-0, white)"/>
<path id="Vector_31" d="M24.1796 48.8076L23.0208 54.6068H21.9261L19.7901 50.9756L19.0585 54.6068H17.7022L18.8609 48.8076H19.9717L22.1077 52.4441L22.8286 48.8076H24.1796Z" fill="var(--fill-0, white)"/>
<path id="Vector_32" d="M24.5961 52.1878C24.5858 51.7172 24.6729 51.2496 24.852 50.8144C25.0311 50.3791 25.2983 49.9856 25.6369 49.6586C25.9754 49.3316 26.3779 49.0782 26.8191 48.9143C27.2603 48.7504 27.7307 48.6795 28.2006 48.7061C28.6351 48.6726 29.071 48.7496 29.4678 48.9298C29.8646 49.1099 30.2094 49.3875 30.4701 49.7367L29.4982 50.5324C29.345 50.3062 29.1352 50.1241 28.8897 50.0042C28.6443 49.8843 28.3717 49.8307 28.0991 49.8489C27.808 49.8484 27.5198 49.9074 27.2523 50.0224C26.9848 50.1373 26.7436 50.3057 26.5436 50.5173C26.3436 50.7288 26.1889 50.979 26.0891 51.2525C25.9892 51.526 25.9464 51.817 25.9631 52.1077C25.9631 52.9834 26.5398 53.5655 27.5651 53.5655C27.8548 53.571 28.1423 53.5137 28.4078 53.3975C28.6732 53.2814 28.9104 53.1092 29.103 52.8927L29.8987 53.7043C29.5915 54.0446 29.2117 54.3115 28.7874 54.4853C28.3632 54.659 27.9053 54.7352 27.4476 54.7083C25.6641 54.7083 24.5961 53.6776 24.5961 52.1878Z" fill="var(--fill-0, white)"/>
<path id="Vector_33" d="M32.5527 49.9023H30.6998L30.924 48.8076H35.9757L35.7514 49.9023H33.9038L32.9586 54.6068H31.6182L32.5527 49.9023Z" fill="var(--fill-0, white)"/>
<path id="Vector_34" d="M36.6966 48.8076H38.0476L36.8782 54.6068H35.5271L36.6966 48.8076Z" fill="var(--fill-0, white)"/>
<path id="Vector_35" d="M38.4374 52.1878C38.4265 51.7185 38.5126 51.2519 38.6905 50.8174C38.8683 50.3829 39.1341 49.9899 39.471 49.663C39.808 49.3361 40.2089 49.0823 40.6485 48.9177C41.0882 48.753 41.5571 48.681 42.0259 48.7061C43.7935 48.7061 44.8508 49.7368 44.8508 51.2266C44.8617 51.6955 44.7757 52.1616 44.5982 52.5957C44.4206 53.0298 44.1554 53.4225 43.819 53.7494C43.4826 54.0762 43.0824 54.3301 42.6434 54.4951C42.2044 54.6601 41.736 54.7327 41.2676 54.7083C39.5001 54.7083 38.4374 53.6777 38.4374 52.1878ZM43.4944 51.3014C43.5026 51.0953 43.4655 50.89 43.3857 50.6999C43.306 50.5098 43.1854 50.3394 43.0327 50.2009C42.8799 50.0624 42.6987 49.9591 42.5016 49.8983C42.3046 49.8375 42.0967 49.8206 41.8924 49.8489C41.6008 49.8484 41.3121 49.9076 41.0443 50.0228C40.7764 50.1381 40.535 50.307 40.3349 50.5191C40.1347 50.7312 39.9802 50.9821 39.8807 51.2562C39.7812 51.5304 39.7389 51.822 39.7564 52.1131C39.7473 52.3193 39.7837 52.5251 39.8632 52.7157C39.9426 52.9063 40.0631 53.077 40.2161 53.2157C40.3691 53.3544 40.5508 53.4577 40.7482 53.5181C40.9457 53.5786 41.154 53.5948 41.3584 53.5655C41.65 53.5661 41.9387 53.5069 42.2066 53.3916C42.4744 53.2763 42.7159 53.1074 42.916 52.8953C43.1161 52.6832 43.2707 52.4323 43.3701 52.1582C43.4696 51.8841 43.5119 51.5925 43.4944 51.3014Z" fill="var(--fill-0, white)"/>
<path id="Vector_36" d="M51.734 48.8076L50.5699 54.6068H49.4699L47.3072 50.9756L46.5809 54.6068H45.2513L46.41 48.8076H47.5208L49.6568 52.4441L50.3777 48.8076H51.734Z" fill="var(--fill-0, white)"/>
<path id="Vector_37" d="M51.6432 54.0621L52.1772 53.0262C52.7378 53.4221 53.408 53.633 54.0943 53.6296C54.8312 53.6296 55.2958 53.3733 55.2958 52.9514C55.2958 52.0223 52.4175 52.5189 52.4175 50.6712C52.4175 49.4804 53.4855 48.7061 55.0875 48.7061C55.7896 48.6849 56.4841 48.8567 57.0954 49.2027L56.5881 50.2334C56.1113 49.9261 55.553 49.7698 54.9861 49.7848C54.2064 49.7848 53.7525 50.0838 53.7525 50.495C53.7525 51.4509 56.6254 50.9543 56.6254 52.7325C56.6254 53.934 55.5574 54.7083 53.9554 54.7083C53.1381 54.7239 52.3341 54.4992 51.6432 54.0621Z" fill="var(--fill-0, white)"/>
<path id="Vector_38" d="M18.8129 31.3618V45.5288H16.1429L9.05669 36.9261V45.5288H5.82065V31.3618H8.53337L15.5768 39.9592V31.3618H18.8129Z" fill="var(--fill-0, white)"/>
<path id="Vector_39" d="M33.1402 42.9015V45.5341H22.1718V31.3618H32.8785V33.9891H25.4025V37.0649H31.9814V39.6174H25.4292V42.9015H33.1402Z" fill="var(--fill-0, white)"/>
<path id="Vector_40" d="M56.9619 31.3618L52.3268 45.5288H48.8077L45.6892 35.9168L42.4852 45.5288H38.9875L34.331 31.3618H37.7326L40.9366 41.3155L44.2741 31.3618H47.3072L50.5486 41.3956L53.8487 31.3618H56.9619Z" fill="var(--fill-0, white)"/>
<path id="Vector_41" d="M8.77367 65.1053C8.77051 65.3741 8.68783 65.636 8.53605 65.8579C8.38428 66.0798 8.17021 66.2519 7.92082 66.3523C7.67143 66.4528 7.39789 66.4771 7.13467 66.4224C6.87144 66.3676 6.63032 66.2361 6.4417 66.0445C6.25308 65.8529 6.1254 65.6098 6.07475 65.3458C6.0241 65.0817 6.05274 64.8086 6.15708 64.5608C6.26141 64.313 6.43677 64.1016 6.66104 63.9534C6.88531 63.8051 7.14845 63.7265 7.41731 63.7275C7.59724 63.7275 7.77538 63.7633 7.94135 63.8328C8.10732 63.9023 8.2578 64.0041 8.38403 64.1323C8.51027 64.2605 8.60972 64.4126 8.67662 64.5796C8.74351 64.7467 8.7765 64.9253 8.77367 65.1053Z" fill="var(--fill-0, white)"/>
<path id="Vector_42" d="M44.4076 65.3776H11.2194V66.4563H44.4076V65.3776Z" fill="var(--fill-0, white)"/>
<path id="Vector_43" d="M7.41742 72.0419C8.16651 72.0419 8.77378 71.4347 8.77378 70.6856C8.77378 69.9365 8.16651 69.3292 7.41742 69.3292C6.66832 69.3292 6.06105 69.9365 6.06105 70.6856C6.06105 71.4347 6.66832 72.0419 7.41742 72.0419Z" fill="var(--fill-0, white)"/>
<path id="Vector_44" d="M44.4076 70.9632H11.2194V72.0419H44.4076V70.9632Z" fill="var(--fill-0, white)"/>
<path id="Vector_45" d="M8.77375 76.3566C8.77481 76.6264 8.69571 76.8904 8.54649 77.1152C8.39728 77.3399 8.18466 77.5153 7.93562 77.619C7.68659 77.7227 7.41236 77.7501 7.14772 77.6978C6.88308 77.6454 6.63996 77.5156 6.4492 77.3249C6.25844 77.1341 6.12864 76.891 6.07627 76.6263C6.0239 76.3617 6.05131 76.0875 6.15504 75.8384C6.25876 75.5894 6.43412 75.3768 6.65887 75.2276C6.88362 75.0783 7.14762 74.9992 7.41739 75.0003C7.77712 75.0003 8.12212 75.1432 8.37649 75.3976C8.63085 75.6519 8.77375 75.9969 8.77375 76.3566Z" fill="var(--fill-0, white)"/>
<path id="Vector_46" d="M44.1085 76.6343H11.2194V77.713H44.1085V76.6343Z" fill="var(--fill-0, white)"/>
<path id="Vector_47" d="M115.028 87.9018L114.94 88.2927L131.521 92.008L131.608 91.6172L115.028 87.9018Z" fill="var(--fill-0, #263238)"/>
<path id="Vector_48" d="M144.452 95.2976H134.066C133.692 95.314 133.319 95.2546 132.969 95.1229C132.619 94.9911 132.299 94.7898 132.028 94.5311C131.758 94.2724 131.543 93.9616 131.396 93.6175C131.249 93.2734 131.173 92.903 131.173 92.5288C131.173 92.1546 131.249 91.7843 131.396 91.4402C131.543 91.0961 131.758 90.7853 132.028 90.5266C132.299 90.2679 132.619 90.0666 132.969 89.9348C133.319 89.8031 133.692 89.7436 134.066 89.76H144.474C145.187 89.7914 145.861 90.0968 146.354 90.6126C146.848 91.1284 147.124 91.8149 147.124 92.5288C147.124 93.2428 146.848 93.9293 146.354 94.4451C145.861 94.9609 145.187 95.2663 144.474 95.2976H144.452ZM134.066 90.1605C133.746 90.1453 133.426 90.1953 133.125 90.3075C132.824 90.4196 132.55 90.5916 132.317 90.813C132.085 91.0344 131.9 91.3007 131.774 91.5956C131.648 91.8905 131.583 92.208 131.583 92.5288C131.583 92.8497 131.648 93.1672 131.774 93.4621C131.9 93.757 132.085 94.0233 132.317 94.2447C132.55 94.4661 132.824 94.6381 133.125 94.7502C133.426 94.8624 133.746 94.9123 134.066 94.8971H144.474C145.083 94.8682 145.657 94.6061 146.077 94.1651C146.498 93.7241 146.732 93.1382 146.732 92.5288C146.732 91.9195 146.498 91.3335 146.077 90.8926C145.657 90.4516 145.083 90.1895 144.474 90.1605H134.066Z" fill="var(--fill-0, #263238)"/>
<path id="Vector_49" d="M116.471 88.11C116.471 88.4015 116.384 88.6864 116.223 88.9288C116.061 89.1712 115.83 89.3601 115.561 89.4716C115.292 89.5832 114.995 89.6124 114.71 89.5555C114.424 89.4986 114.161 89.3583 113.955 89.1521C113.749 88.946 113.608 88.6834 113.552 88.3975C113.495 88.1116 113.524 87.8153 113.635 87.546C113.747 87.2766 113.936 87.0465 114.178 86.8845C114.421 86.7226 114.706 86.6361 114.997 86.6361C115.388 86.6361 115.763 86.7914 116.039 87.0678C116.316 87.3442 116.471 87.7191 116.471 88.11Z" fill="var(--fill-0, #263238)"/>
<path id="Vector_50" d="M85.8388 68.1844L85.5428 68.4542L95.6765 79.5714L95.9725 79.3016L85.8388 68.1844Z" fill="var(--fill-0, #263238)"/>
<path id="Vector_51" d="M83.1225 71.7375H72.7149C71.9798 71.7375 71.2749 71.4456 70.7552 70.9258C70.2354 70.4061 69.9434 69.7011 69.9434 68.9661C69.9434 68.2311 70.2354 67.5261 70.7552 67.0064C71.2749 66.4866 71.9798 66.1946 72.7149 66.1946H83.1225C83.8576 66.1946 84.5625 66.4866 85.0823 67.0064C85.602 67.5261 85.894 68.2311 85.894 68.9661C85.894 69.7011 85.602 70.4061 85.0823 70.9258C84.5625 71.4456 83.8576 71.7375 83.1225 71.7375ZM72.7149 66.5951C72.0861 66.5951 71.483 66.8449 71.0384 67.2896C70.5937 67.7342 70.3439 68.3373 70.3439 68.9661C70.3439 69.5949 70.5937 70.198 71.0384 70.6426C71.483 71.0873 72.0861 71.337 72.7149 71.337H83.1225C83.7514 71.337 84.3544 71.0873 84.7991 70.6426C85.2437 70.198 85.4935 69.5949 85.4935 68.9661C85.4935 68.3373 85.2437 67.7342 84.7991 67.2896C84.3544 66.8449 83.7514 66.5951 83.1225 66.5951H72.7149Z" fill="var(--fill-0, #263238)"/>
<path id="Vector_52" d="M94.3525 79.4271C94.3525 79.7186 94.439 80.0036 94.6009 80.246C94.7629 80.4883 94.993 80.6772 95.2624 80.7888C95.5317 80.9003 95.828 80.9295 96.1139 80.8726C96.3998 80.8158 96.6624 80.6754 96.8685 80.4693C97.0747 80.2632 97.215 80.0006 97.2719 79.7147C97.3288 79.4288 97.2996 79.1324 97.188 78.8631C97.0765 78.5938 96.8876 78.3636 96.6452 78.2017C96.4028 78.0397 96.1179 77.9533 95.8264 77.9533C95.4355 77.9533 95.0606 78.1086 94.7842 78.385C94.5078 78.6614 94.3525 79.0362 94.3525 79.4271Z" fill="var(--fill-0, #263238)"/>
<path id="Vector_53" d="M126.537 30.0702L116.411 41.1945L116.707 41.4641L126.833 30.3397L126.537 30.0702Z" fill="var(--fill-0, #263238)"/>
<path id="Vector_54" d="M139.668 33.6206H129.26C128.547 33.5893 127.873 33.2839 127.379 32.7681C126.886 32.2523 126.61 31.5658 126.61 30.8518C126.61 30.1379 126.886 29.4514 127.379 28.9356C127.873 28.4198 128.547 28.1144 129.26 28.083H139.668C140.042 28.0666 140.415 28.1261 140.765 28.2578C141.115 28.3896 141.435 28.5909 141.706 28.8496C141.976 29.1083 142.191 29.4191 142.338 29.7632C142.485 30.1073 142.561 30.4776 142.561 30.8518C142.561 31.226 142.485 31.5964 142.338 31.9405C142.191 32.2846 141.976 32.5954 141.706 32.8541C141.435 33.1128 141.115 33.3141 140.765 33.4459C140.415 33.5776 140.042 33.6371 139.668 33.6206ZM129.26 28.4835C128.651 28.5125 128.077 28.7746 127.657 29.2156C127.236 29.6565 127.002 30.2425 127.002 30.8518C127.002 31.4612 127.236 32.0471 127.657 32.4881C128.077 32.9291 128.651 33.1912 129.26 33.2201H139.668C139.988 33.2354 140.308 33.1854 140.609 33.0732C140.91 32.9611 141.184 32.7891 141.417 32.5677C141.649 32.3463 141.834 32.08 141.96 31.7851C142.086 31.4902 142.151 31.1727 142.151 30.8518C142.151 30.531 142.086 30.2135 141.96 29.9186C141.834 29.6237 141.649 29.3574 141.417 29.136C141.184 28.9146 140.91 28.7426 140.609 28.6305C140.308 28.5183 139.988 28.4683 139.668 28.4835H129.26Z" fill="var(--fill-0, #263238)"/>
<path id="Vector_55" d="M118.046 41.2995C118.046 41.591 117.96 41.876 117.798 42.1184C117.636 42.3607 117.406 42.5496 117.136 42.6612C116.867 42.7727 116.571 42.8019 116.285 42.7451C115.999 42.6882 115.736 42.5478 115.53 42.3417C115.324 42.1356 115.184 41.873 115.127 41.5871C115.07 41.3012 115.099 41.0048 115.211 40.7355C115.322 40.4662 115.511 40.236 115.754 40.0741C115.996 39.9121 116.281 39.8257 116.572 39.8257C116.963 39.8257 117.338 39.981 117.614 40.2574C117.891 40.5338 118.046 40.9087 118.046 41.2995Z" fill="var(--fill-0, #263238)"/>
<path id="Vector_56" d="M70.2688 21.4944L69.9554 21.7438L89.4354 46.2334L89.7488 45.9841L70.2688 21.4944Z" fill="var(--fill-0, #263238)"/>
<path id="Vector_57" d="M67.5405 24.3984H57.1328C56.4195 24.3671 55.7458 24.0617 55.2522 23.5459C54.7585 23.0301 54.483 22.3436 54.483 21.6296C54.483 20.9157 54.7585 20.2292 55.2522 19.7134C55.7458 19.1976 56.4195 18.8922 57.1328 18.8609H67.5405C67.9143 18.8444 68.2876 18.9039 68.6378 19.0356C68.9881 19.1674 69.308 19.3687 69.5783 19.6274C69.8487 19.8861 70.0638 20.1969 70.2108 20.541C70.3578 20.8851 70.4335 21.2555 70.4335 21.6296C70.4335 22.0038 70.3578 22.3742 70.2108 22.7183C70.0638 23.0624 69.8487 23.3732 69.5783 23.6319C69.308 23.8906 68.9881 24.0919 68.6378 24.2237C68.2876 24.3554 67.9143 24.4149 67.5405 24.3984ZM57.1328 19.2614C56.5241 19.2903 55.95 19.5524 55.5295 19.9934C55.1089 20.4344 54.8743 21.0203 54.8743 21.6296C54.8743 22.239 55.1089 22.8249 55.5295 23.2659C55.95 23.7069 56.5241 23.969 57.1328 23.9979H67.5405C67.8609 24.0132 68.1812 23.9632 68.4817 23.851C68.7823 23.7389 69.057 23.5669 69.2892 23.3455C69.5214 23.1241 69.7062 22.8578 69.8325 22.5629C69.9588 22.268 70.0239 21.9505 70.0239 21.6296C70.0239 21.3088 69.9588 20.9913 69.8325 20.6964C69.7062 20.4015 69.5214 20.1352 69.2892 19.9138C69.057 19.6924 68.7823 19.5204 68.4817 19.4083C68.1812 19.2961 67.8609 19.2461 67.5405 19.2614H57.1328Z" fill="var(--fill-0, #263238)"/>
<path id="Vector_58" d="M88.1422 46.1056C88.1422 46.3971 88.2286 46.682 88.3906 46.9244C88.5525 47.1667 88.7827 47.3557 89.052 47.4672C89.3213 47.5788 89.6177 47.6079 89.9036 47.5511C90.1895 47.4942 90.4521 47.3538 90.6582 47.1477C90.8643 46.9416 91.0047 46.679 91.0615 46.3931C91.1184 46.1072 91.0892 45.8108 90.9777 45.5415C90.8661 45.2722 90.6772 45.042 90.4348 44.8801C90.1925 44.7181 89.9075 44.6317 89.616 44.6317C89.4223 44.631 89.2303 44.6686 89.0512 44.7425C88.872 44.8163 88.7093 44.9248 88.5723 45.0618C88.4353 45.1988 88.3268 45.3616 88.2529 45.5407C88.1791 45.7198 88.1415 45.9118 88.1422 46.1056Z" fill="var(--fill-0, #263238)"/>
</g>
</svg>
