<svg preserveAspectRatio="none" width="100%" height="100%" overflow="visible" style="display: block;" viewBox="0 0 106.821 56.8176" fill="none" xmlns="http://www.w3.org/2000/svg">
<g id="freepik--Group--inject-56">
<path id="Vector" d="M95.8744 1.66074V56.8176H94.4433L92.6384 1.66074H95.8744Z" fill="var(--fill-0, #263238)"/>
<path id="Vector_2" d="M78.952 3.46567V56.8069H77.5208L75.7159 3.46567H78.952Z" fill="var(--fill-0, #263238)"/>
<path id="Vector_3" opacity="0.5" d="M78.952 3.46567V56.8069H77.5208L75.7159 3.46567H78.952Z" fill="var(--fill-0, black)"/>
<path id="Vector_4" d="M9.90577 1.66074V56.0593H11.3369L13.1418 1.66074H9.90577Z" fill="var(--fill-0, #263238)"/>
<path id="Vector_5" opacity="0.5" d="M9.90577 1.66074V56.0593H11.3369L13.1418 1.66074H9.90577Z" fill="var(--fill-0, black)"/>
<path id="Vector_6" d="M26.8282 3.46567V56.4812H28.2593L30.0642 3.46567H26.8282Z" fill="var(--fill-0, #263238)"/>
<path id="Vector_7" d="M106.821 0H0V2.31223H106.821V0Z" fill="var(--fill-0, #263238)"/>
<path id="Vector_8" d="M7.02743 4.78999H99.2599L102.998 2.31224H3.28409L7.02743 4.78999Z" fill="var(--fill-0, #263238)"/>
<path id="Vector_9" opacity="0.5" d="M7.02743 4.78999H99.2599L102.998 2.31224H3.28409L7.02743 4.78999Z" fill="var(--fill-0, black)"/>
</g>
</svg>
