<svg preserveAspectRatio="none" width="100%" height="100%" overflow="visible" style="display: block;" viewBox="0 0 39.7642 39.201" fill="none" xmlns="http://www.w3.org/2000/svg">
<g id="freepik--Target--inject-32">
<path id="Vector" d="M20.2625 39.2009C10.0257 39.2009 0.969109 30.8705 0.0719892 20.6391C-0.825131 10.4077 6.77903 2.07192 17.0105 2.07192C27.2419 2.07192 36.3039 10.4023 37.201 20.6391C38.0981 30.8759 30.494 39.2009 20.2625 39.2009Z" fill="var(--fill-0, #263238)"/>
<path id="Vector_2" d="M21.1543 38.7524C10.9175 38.7524 1.86085 30.4274 0.963727 20.1906C0.0666067 9.95379 7.67077 1.62873 17.9076 1.62873C28.1443 1.62873 37.1956 9.95379 38.0927 20.1906C38.9899 30.4274 31.391 38.7524 21.1543 38.7524Z" fill="var(--fill-0, #FEA629)"/>
<g id="Group" opacity="0.7">
<path id="Vector_3" d="M21.1543 38.7524C10.9175 38.7524 1.86085 30.4274 0.963727 20.1906C0.0666067 9.95379 7.67077 1.62873 17.9076 1.62873C28.1443 1.62873 37.1956 9.95379 38.0927 20.1906C38.9899 30.4274 31.391 38.7524 21.1543 38.7524Z" fill="var(--fill-0, white)"/>
</g>
<path id="Vector_4" d="M21.1543 38.7524C10.9175 38.7524 1.86085 30.4274 0.963727 20.1906C0.0666067 9.95379 7.67077 1.62873 17.9076 1.62873C28.1443 1.62873 37.1956 9.95379 38.0927 20.1906C38.9899 30.4274 31.391 38.7524 21.1543 38.7524ZM18.2173 5.19585C9.95095 5.19585 3.79927 11.9243 4.53619 20.1906C5.27311 28.4569 12.5729 35.1799 20.8392 35.1799C29.1055 35.1799 35.2572 28.4569 34.5203 20.1906C33.7834 11.9243 26.4943 5.19585 18.2173 5.19585Z" fill="var(--fill-0, #FEA629)"/>
<path id="Vector_5" d="M20.5562 31.9492C17.3586 31.8871 14.2939 30.6588 11.9386 28.4952C9.58324 26.3317 8.09966 23.382 7.7669 20.2012C7.60622 18.7051 7.76545 17.1918 8.23402 15.7619C8.70258 14.332 9.46978 13.018 10.4847 11.9071C11.4997 10.7962 12.7392 9.91375 14.1212 9.31829C15.5031 8.72282 16.9958 8.42794 18.5003 8.45319C21.7029 8.50767 24.7747 9.73275 27.1359 11.8971C29.497 14.0615 30.9841 17.0154 31.3163 20.2012C31.4773 21.6996 31.3174 23.2151 30.8473 24.647C30.3771 26.0788 29.6075 27.3941 28.5897 28.5055C27.5718 29.6168 26.3289 30.4987 24.9438 31.0925C23.5586 31.6862 22.063 31.9783 20.5562 31.9492ZM18.81 11.999C17.7611 11.9806 16.7203 12.1858 15.7568 12.6009C14.7933 13.016 13.9292 13.6315 13.222 14.4063C12.5148 15.1812 11.9807 16.0978 11.6552 17.0951C11.3296 18.0924 11.2202 19.1476 11.334 20.1905C11.5584 22.412 12.5893 24.4742 14.2317 25.9867C15.8741 27.4992 18.0141 28.3571 20.2465 28.3981C21.2949 28.4163 22.3352 28.2113 23.2983 27.7965C24.2614 27.3817 25.1252 26.7668 25.8323 25.9925C26.5394 25.2182 27.0736 24.3023 27.3995 23.3056C27.7254 22.309 27.8355 21.2544 27.7225 20.2119C27.4994 17.9894 26.469 15.926 24.8264 14.4124C23.1839 12.8988 21.0432 12.0401 18.81 11.999Z" fill="var(--fill-0, #FEA629)"/>
<path id="Vector_6" d="M24.1714 20.1905C24.2367 20.7817 24.1754 21.38 23.9914 21.9456C23.8074 22.5112 23.505 23.0311 23.1043 23.4707C22.7036 23.9102 22.2139 24.2594 21.6677 24.4949C21.1216 24.7303 20.5315 24.8467 19.9368 24.8363C18.6722 24.814 17.4597 24.3289 16.5287 23.4728C15.5978 22.6166 15.013 21.4488 14.8852 20.1905C14.8207 19.5991 14.8828 19.0006 15.0674 18.435C15.2521 17.8695 15.555 17.3496 15.9561 16.9102C16.3571 16.4707 16.8472 16.1217 17.3936 15.8862C17.94 15.6508 18.5302 15.5344 19.1251 15.5447C20.3888 15.5683 21.6 16.054 22.5299 16.91C23.4597 17.7661 24.0437 18.9331 24.1714 20.1905Z" fill="var(--fill-0, #FEA629)"/>
<path id="Vector_7" d="M32.5552 7.209L31.6474 3.67926L35.332 0L36.2345 3.52973L32.5552 7.209Z" fill="var(--fill-0, #263238)"/>
<path id="Vector_8" d="M32.5552 7.209L36.0849 8.1168L39.7642 4.43754L36.2344 3.52973L32.5552 7.209Z" fill="var(--fill-0, #263238)"/>
<path id="Vector_9" d="M34.4852 5.98991L33.7753 5.28003L18.664 20.3914L19.3739 21.1013L34.4852 5.98991Z" fill="var(--fill-0, #263238)"/>
</g>
</svg>
