<svg preserveAspectRatio="none" width="100%" height="100%" overflow="visible" style="display: block;" viewBox="0 0 197.58 173.678" fill="none" xmlns="http://www.w3.org/2000/svg">
<g id="freepik--background-complete--inject-32">
<path id="Vector" d="M140.106 173.545H135.465V173.678H140.106V173.545Z" fill="var(--fill-0, #EBEBEB)"/>
<path id="Vector_2" d="M22.4494 168.034H19.0692V168.167H22.4494V168.034Z" fill="var(--fill-0, #EBEBEB)"/>
<path id="Vector_3" d="M83.4642 170.287H33.4391V170.421H83.4642V170.287Z" fill="var(--fill-0, #EBEBEB)"/>
<path id="Vector_4" d="M35.4843 55.1943C31.0915 55.1943 26.7974 53.8917 23.1451 51.4511C19.4927 49.0105 16.6461 45.5416 14.9653 41.4831C13.2845 37.4246 12.845 32.9588 13.7024 28.6505C14.5597 24.3422 16.6755 20.385 19.782 17.2792C22.8885 14.1734 26.8463 12.0586 31.1548 11.2023C35.4633 10.346 39.929 10.7865 43.987 12.4683C48.0451 14.1501 51.5133 16.9975 53.9531 20.6505C56.3928 24.3034 57.6944 28.5978 57.6934 32.9906C57.6849 38.8777 55.3421 44.5212 51.1788 48.6835C47.0155 52.8459 41.3714 55.1873 35.4843 55.1943ZM35.4843 15.0535C31.9367 15.0535 28.4687 16.1055 25.519 18.0765C22.5693 20.0474 20.2702 22.8488 18.9126 26.1264C17.555 29.404 17.1998 33.0105 17.8919 36.49C18.584 39.9694 20.2923 43.1655 22.8009 45.674C25.3094 48.1826 28.5055 49.8909 31.985 50.583C35.4644 51.2751 39.071 50.9199 42.3485 49.5623C45.6261 48.2047 48.4275 45.9056 50.3984 42.9559C52.3694 40.0062 53.4214 36.5382 53.4214 32.9906C53.4157 28.2351 51.5241 23.6761 48.1615 20.3134C44.7988 16.9508 40.2398 15.0592 35.4843 15.0535Z" fill="var(--fill-0, #EBEBEB)"/>
<path id="Vector_5" d="M35.4843 47.0562C32.7011 47.0562 29.9804 46.2308 27.6664 44.6844C25.3523 43.138 23.5488 40.9402 22.484 38.3687C21.4191 35.7973 21.1408 32.9678 21.6842 30.2382C22.2275 27.5086 23.5682 25.0014 25.5366 23.0337C27.5049 21.0661 30.0126 19.7264 32.7425 19.1841C35.4723 18.6418 38.3017 18.9212 40.8727 19.987C43.4437 21.0528 45.6409 22.8571 47.1864 25.1718C48.7319 27.4864 49.5562 30.2074 49.5552 32.9906C49.5495 36.7202 48.0651 40.2954 45.4274 42.9321C42.7896 45.5688 39.2139 47.0519 35.4843 47.0562ZM35.4843 23.1917C33.5463 23.1917 31.6517 23.7664 30.0403 24.8431C28.4289 25.9198 27.1729 27.4502 26.4313 29.2407C25.6896 31.0312 25.4956 33.0015 25.8737 34.9023C26.2518 36.8031 27.185 38.5491 28.5554 39.9195C29.9258 41.2899 31.6718 42.2231 33.5726 42.6012C35.4734 42.9793 37.4437 42.7853 39.2342 42.0436C41.0247 41.3019 42.5551 40.046 43.6318 38.4346C44.7085 36.8232 45.2832 34.9286 45.2832 32.9906C45.2818 30.3922 44.2489 27.9006 42.4116 26.0633C40.5743 24.226 38.0827 23.1931 35.4843 23.1917Z" fill="var(--fill-0, #EBEBEB)"/>
<path id="Vector_6" d="M35.4843 38.5388C38.5515 38.5388 41.0379 36.0524 41.0379 32.9852C41.0379 29.9181 38.5515 27.4316 35.4843 27.4316C32.4172 27.4316 29.9307 29.9181 29.9307 32.9852C29.9307 36.0524 32.4172 38.5388 35.4843 38.5388Z" fill="var(--fill-0, #EBEBEB)"/>
<path id="Vector_7" d="M175.371 149.269C170.98 149.268 166.687 147.965 163.037 145.524C159.386 143.084 156.541 139.616 154.861 135.559C153.181 131.501 152.743 127.037 153.6 122.73C154.457 118.424 156.572 114.468 159.678 111.363C162.783 108.258 166.74 106.144 171.047 105.288C175.353 104.432 179.818 104.872 183.875 106.552C187.931 108.233 191.399 111.079 193.838 114.73C196.278 118.381 197.58 122.674 197.58 127.065C197.573 132.953 195.231 138.597 191.067 142.76C186.903 146.922 181.258 149.263 175.371 149.269ZM175.371 109.134C171.825 109.135 168.358 110.187 165.41 112.158C162.462 114.129 160.164 116.93 158.808 120.207C157.452 123.484 157.097 127.089 157.79 130.567C158.482 134.045 160.191 137.24 162.699 139.747C165.207 142.254 168.402 143.961 171.88 144.653C175.358 145.344 178.963 144.989 182.24 143.632C185.516 142.274 188.316 139.976 190.286 137.027C192.256 134.078 193.308 130.612 193.308 127.065C193.302 122.31 191.411 117.752 188.048 114.39C184.685 111.028 180.126 109.138 175.371 109.134Z" fill="var(--fill-0, #F0F0F0)"/>
<path id="Vector_8" d="M175.371 141.131C172.589 141.13 169.87 140.304 167.558 138.758C165.246 137.212 163.444 135.015 162.38 132.444C161.316 129.874 161.038 127.046 161.582 124.318C162.125 121.59 163.465 119.084 165.432 117.118C167.4 115.151 169.906 113.812 172.634 113.27C175.362 112.727 178.19 113.006 180.76 114.071C183.33 115.136 185.526 116.939 187.072 119.251C188.617 121.564 189.442 124.284 189.442 127.065C189.438 130.795 187.954 134.371 185.316 137.008C182.677 139.645 179.101 141.128 175.371 141.131ZM175.371 117.272C173.434 117.273 171.541 117.848 169.931 118.925C168.322 120.002 167.067 121.532 166.327 123.321C165.586 125.111 165.393 127.08 165.772 128.979C166.15 130.879 167.083 132.623 168.453 133.992C169.823 135.361 171.568 136.294 173.468 136.671C175.367 137.049 177.336 136.854 179.125 136.113C180.915 135.372 182.444 134.116 183.52 132.506C184.596 130.895 185.17 129.002 185.17 127.065C185.167 124.468 184.134 121.978 182.296 120.141C180.459 118.305 177.968 117.273 175.371 117.272Z" fill="var(--fill-0, #F0F0F0)"/>
<path id="Vector_9" d="M175.376 132.619C178.444 132.619 180.93 130.133 180.93 127.065C180.93 123.998 178.444 121.512 175.376 121.512C172.309 121.512 169.823 123.998 169.823 127.065C169.823 130.133 172.309 132.619 175.376 132.619Z" fill="var(--fill-0, #F0F0F0)"/>
<path id="Vector_10" d="M32.4992 133.655C32.4995 132.691 32.4066 131.728 32.2216 130.782L35.1959 128.609C34.8089 127.277 34.2714 125.995 33.5939 124.785L29.9841 125.373C28.9038 123.769 27.5239 122.389 25.9204 121.309L26.4864 117.667C25.2769 116.989 23.9942 116.452 22.663 116.065L20.4896 119.039C18.5922 118.669 16.6411 118.669 14.7437 119.039L12.5704 116.065C11.2412 116.453 9.96032 116.99 8.75226 117.667L9.3183 121.309C7.71088 122.388 6.32734 123.768 5.24388 125.373L1.602 124.807C0.922241 126.015 0.384662 127.298 0 128.63L2.97438 130.803C2.59701 132.7 2.59701 134.653 2.97438 136.549L0.0213605 138.723C0.407011 140.054 0.944543 141.337 1.62336 142.546L5.26524 141.98C6.34555 143.584 7.7254 144.963 9.32898 146.044L8.76294 149.68C9.96997 150.359 11.2511 150.897 12.581 151.282L14.7544 148.308C16.6518 148.678 18.6029 148.678 20.5003 148.308L22.6736 151.282C24.0056 150.897 25.2886 150.36 26.4971 149.68L25.931 146.044C27.5346 144.963 28.9145 143.584 29.9948 141.98L33.6367 142.546C34.3133 141.336 34.8507 140.053 35.2387 138.723L32.2643 136.549C32.4363 135.594 32.515 134.625 32.4992 133.655ZM17.606 140.997C16.1538 140.997 14.7342 140.567 13.5267 139.76C12.3192 138.953 11.3781 137.806 10.8224 136.465C10.2667 135.123 10.1213 133.647 10.4046 132.223C10.6879 130.798 11.3872 129.49 12.414 128.463C13.4409 127.436 14.7492 126.737 16.1735 126.454C17.5978 126.17 19.0742 126.316 20.4158 126.871C21.7575 127.427 22.9042 128.368 23.711 129.576C24.5179 130.783 24.9485 132.203 24.9485 133.655C24.9471 135.602 24.173 137.469 22.7964 138.845C21.4197 140.222 19.5529 140.996 17.606 140.997Z" fill="var(--fill-0, #EBEBEB)"/>
<path id="Vector_11" d="M191.428 17.606C191.427 16.6415 191.332 15.6794 191.145 14.7331L194.12 12.5597C193.733 11.2284 193.196 9.94557 192.518 8.73629L188.876 9.30767C187.808 7.69839 186.439 6.31113 184.844 5.22257L185.378 1.60205C184.17 0.925614 182.889 0.388189 181.56 4.83398e-05L179.387 2.97977C177.49 2.60239 175.537 2.60239 173.641 2.97977L171.494 0.0160677C170.163 0.403177 168.88 0.94064 167.671 1.61807L168.231 5.22257C166.627 6.30163 165.247 7.6817 164.168 9.28631L160.526 8.71493C159.85 9.9253 159.313 11.2078 158.924 12.5384L161.898 14.7117C161.528 16.6091 161.528 18.5602 161.898 20.4576L158.924 22.631C159.311 23.9622 159.848 25.2449 160.526 26.4544L164.168 25.8884C165.248 27.4919 166.628 28.8718 168.231 29.9521L167.665 33.594C168.875 34.2715 170.158 34.809 171.489 35.196L173.662 32.2216C175.56 32.5919 177.511 32.5919 179.408 32.2216L181.581 35.196C182.911 34.808 184.191 34.2706 185.399 33.594L184.844 29.9735C186.448 28.8932 187.828 27.5133 188.908 25.9097L192.55 26.4758C193.229 25.2674 193.767 23.9844 194.152 22.6523L191.177 20.4789C191.353 19.5316 191.437 18.5695 191.428 17.606ZM176.535 24.9485C175.083 24.9485 173.663 24.5179 172.456 23.7111C171.248 22.9043 170.307 21.7575 169.751 20.4159C169.196 19.0742 169.05 17.5979 169.334 16.1736C169.617 14.7493 170.316 13.441 171.343 12.4141C172.37 11.3872 173.678 10.6879 175.103 10.4046C176.527 10.1213 178.003 10.2667 179.345 10.8224C180.687 11.3782 181.833 12.3193 182.64 13.5268C183.447 14.7342 183.878 16.1538 183.878 17.606C183.878 18.5705 183.689 19.5256 183.32 20.4167C182.951 21.3079 182.411 22.1176 181.729 22.7995C181.047 23.4815 180.237 24.0223 179.346 24.391C178.455 24.7598 177.499 24.9492 176.535 24.9485Z" fill="var(--fill-0, #F0F0F0)"/>
<path id="Vector_12" d="M165.535 41.5346C165.535 41.0524 165.488 40.5714 165.396 40.0982L166.886 39.0302C166.696 38.364 166.429 37.7224 166.09 37.1184L164.274 37.4015C163.733 36.6004 163.042 35.9114 162.24 35.3723L162.523 33.5513C161.918 33.2162 161.276 32.9511 160.611 32.761L159.543 34.2455C158.595 34.0598 157.619 34.0598 156.67 34.2455L155.602 32.761C154.937 32.9511 154.296 33.2162 153.691 33.5513L153.974 35.3723C153.172 35.9113 152.483 36.6004 151.944 37.4015L150.123 37.1184C149.788 37.7236 149.523 38.365 149.333 39.0302L150.818 40.0982C150.632 41.0468 150.632 42.0224 150.818 42.9711L149.333 44.0391C149.523 44.7042 149.788 45.3456 150.123 45.9508L151.944 45.6678C152.483 46.4689 153.172 47.158 153.974 47.697L153.691 49.5179C154.296 49.8547 154.937 50.1217 155.602 50.3136L156.67 48.8237C157.619 49.0094 158.595 49.0094 159.543 48.8237L160.611 50.3136C161.275 50.1302 161.917 49.8722 162.523 49.5446L162.24 47.7237C163.042 47.1846 163.733 46.4956 164.274 45.6945L166.09 45.9775C166.429 45.3736 166.696 44.7319 166.886 44.0658L165.396 42.9978C165.49 42.5158 165.537 42.0257 165.535 41.5346ZM158.091 45.2032C157.364 45.2043 156.653 44.9895 156.048 44.5863C155.443 44.183 154.971 43.6092 154.692 42.9377C154.413 42.2662 154.34 41.527 154.482 40.8138C154.623 40.1007 154.973 39.4456 155.488 38.9314C156.002 38.4173 156.657 38.0673 157.37 37.9257C158.083 37.7841 158.822 37.8573 159.494 38.136C160.165 38.4148 160.739 38.8865 161.142 39.4915C161.546 40.0965 161.76 40.8075 161.759 41.5346C161.756 42.5062 161.369 43.4372 160.681 44.1237C159.994 44.8102 159.062 45.1965 158.091 45.1979V45.2032Z" fill="var(--fill-0, #F0F0F0)"/>
</g>
</svg>
