<svg preserveAspectRatio="none" width="100%" height="100%" overflow="visible" style="display: block;" viewBox="0 0 34 34" fill="none" xmlns="http://www.w3.org/2000/svg">
<g id="lets-icons:done-ring-round-fill">
<path id="Vector" fill-rule="evenodd" clip-rule="evenodd" d="M17 29.75C19.3033 29.7502 21.5637 29.1264 23.5409 27.945C25.5182 26.7636 27.1384 25.0686 28.2296 23.0401C29.3208 21.0117 29.8421 18.7255 29.7381 16.4245C29.6341 14.1235 28.9088 11.8937 27.6392 9.97192L17.5029 21.2344C17.0295 21.7606 16.3762 22.0905 15.6717 22.1592C14.9672 22.2279 14.2625 22.0304 13.6963 21.6056L9.06667 18.1333C8.76609 17.9079 8.56737 17.5723 8.51424 17.2003C8.4611 16.8284 8.5579 16.4506 8.78333 16.15C9.00877 15.8494 9.34437 15.6507 9.71632 15.5976C10.0883 15.5444 10.4661 15.6412 10.7667 15.8667L15.3963 19.3389L25.8032 7.7775C24.2956 6.33832 22.4581 5.29068 20.4517 4.72631C18.4453 4.16194 16.3312 4.09805 14.2943 4.54024C12.2575 4.98242 10.3602 5.91719 8.76842 7.2627C7.17665 8.60821 5.93901 10.3234 5.16386 12.2582C4.38871 14.1929 4.09969 16.2882 4.32211 18.3606C4.54452 20.4329 5.27159 22.4192 6.43966 24.1454C7.60772 25.8716 9.18115 27.2851 11.0222 28.2622C12.8632 29.2393 14.9157 29.7501 17 29.75Z" fill="var(--fill-0, #0E888D)"/>
</g>
</svg>
