<svg preserveAspectRatio="none" width="100%" height="100%" overflow="visible" style="display: block;" viewBox="0 0 82.6502 123.832" fill="none" xmlns="http://www.w3.org/2000/svg">
<g id="freepik--Character--inject-32">
<g id="freepik--Chair--inject-32">
<path id="Vector" d="M49.3316 82.8779H55.6648C57.2702 82.8754 58.8162 82.2705 59.9969 81.1827C61.1776 80.095 61.907 78.6037 62.0408 77.0039L63.1942 62.3936L60.7912 62.2014L59.6378 76.8116C59.5549 77.8094 59.1008 78.7399 58.3652 79.4191C57.6296 80.0983 56.666 80.477 55.6648 80.4802H49.3316V82.8779Z" fill="var(--fill-0, #263238)"/>
<path id="Vector_2" opacity="0.3" d="M49.3316 82.8779H55.6648C57.2702 82.8754 58.8162 82.2705 59.9969 81.1827C61.1776 80.095 61.907 78.6037 62.0408 77.0039L63.1942 62.3936L60.7912 62.2014L59.6378 76.8116C59.5549 77.8094 59.1008 78.7399 58.3652 79.4191C57.6296 80.0983 56.666 80.477 55.6648 80.4802H49.3316V82.8779Z" fill="var(--fill-0, white)"/>
<path id="Vector_3" opacity="0.2" d="M58.1319 79.6205L57.7581 81.3346C57.6412 81.8418 57.4153 82.3174 57.0959 82.7284C56.627 82.8397 56.1468 82.897 55.6648 82.8993H49.3316V80.4856H55.6648C56.5614 80.485 57.4313 80.18 58.1319 79.6205Z" fill="var(--fill-0, black)"/>
<path id="Vector_4" d="M52.5303 63.9369C51.8053 63.8626 51.1388 63.5051 50.6758 62.9422C50.2129 62.3792 49.9908 61.6562 50.0579 60.9305L51.975 42.2405C52.0117 41.8789 52.1193 41.5282 52.2916 41.2082C52.4639 40.8883 52.6976 40.6054 52.9793 40.3758C53.2609 40.1462 53.5851 39.9743 53.9332 39.87C54.2813 39.7658 54.6466 39.7311 55.0081 39.768H73.3243C73.5655 39.792 73.7996 39.8635 74.0131 39.9784C74.2266 40.0933 74.4152 40.2493 74.5681 40.4375C74.721 40.6256 74.8352 40.8422 74.904 41.0746C74.9728 41.3071 74.9949 41.5509 74.969 41.7919L72.8704 62.3242C72.8205 62.8113 72.5794 63.2586 72.1999 63.568C71.8204 63.8774 71.3337 64.0235 70.8465 63.9743L52.5303 63.9369Z" fill="var(--fill-0, #0E888D)"/>
<path id="Vector_5" opacity="0.3" d="M52.5303 63.9369C51.8053 63.8626 51.1388 63.5051 50.6758 62.9422C50.2129 62.3792 49.9908 61.6562 50.0579 60.9305L51.975 42.2405C52.0117 41.8789 52.1193 41.5282 52.2916 41.2082C52.4639 40.8883 52.6976 40.6054 52.9793 40.3758C53.2609 40.1462 53.5851 39.9743 53.9332 39.87C54.2813 39.7658 54.6466 39.7311 55.0081 39.768H73.3243C73.5655 39.792 73.7996 39.8635 74.0131 39.9784C74.2266 40.0933 74.4152 40.2493 74.5681 40.4375C74.721 40.6256 74.8352 40.8422 74.904 41.0746C74.9728 41.3071 74.9949 41.5509 74.969 41.7919L72.8704 62.3242C72.8205 62.8113 72.5794 63.2586 72.1999 63.568C71.8204 63.8774 71.3337 64.0235 70.8465 63.9743L52.5303 63.9369Z" fill="var(--fill-0, black)"/>
<path id="Vector_6" d="M72.8704 62.2868L74.9743 41.7545C75.0236 41.2674 74.8775 40.7807 74.5681 40.4012C74.2587 40.0217 73.8113 39.7806 73.3243 39.7307C72.9628 39.6938 72.5975 39.7284 72.2494 39.8327C71.9013 39.937 71.5771 40.1088 71.2954 40.3384C71.0138 40.568 70.7801 40.8509 70.6078 41.1708C70.4354 41.4908 70.3279 41.8416 70.2912 42.2031L68.3741 60.8931C68.3372 61.2546 68.3718 61.6199 68.4761 61.968C68.5804 62.3161 68.7522 62.6403 68.9819 62.922C69.2115 63.2036 69.4943 63.4373 69.8143 63.6096C70.1342 63.7819 70.485 63.8895 70.8465 63.9262C71.332 63.9756 71.8173 63.8309 72.1964 63.5238C72.5756 63.2166 72.8179 62.772 72.8704 62.2868Z" fill="var(--fill-0, #0E888D)"/>
<path id="Vector_7" d="M52.1565 118.282L51.991 117.785C51.8895 117.475 51.6923 117.204 51.4275 117.012C51.1628 116.82 50.8441 116.717 50.5171 116.717H33.3917C33.0377 116.719 32.6946 116.841 32.419 117.063C32.1434 117.285 31.9516 117.595 31.8752 117.94L31.8325 118.133C31.7603 118.468 31.5752 118.769 31.3079 118.985C31.0406 119.201 30.7074 119.318 30.364 119.318C30.1382 119.319 29.9153 119.268 29.7116 119.171C29.5079 119.074 29.3286 118.932 29.1871 118.756C29.0456 118.58 28.9455 118.375 28.894 118.155C28.8426 117.935 28.8413 117.707 28.8901 117.486L28.9328 117.289C29.1576 116.273 29.7219 115.365 30.5325 114.714C31.3432 114.062 32.3518 113.707 33.3917 113.706H50.5171C51.4794 113.704 52.4176 114.006 53.1981 114.569C53.9785 115.132 54.5615 115.927 54.8639 116.84L55.0294 117.337C55.1035 117.563 55.123 117.804 55.0863 118.04C55.0496 118.275 54.9577 118.499 54.8182 118.692C54.6786 118.885 54.4954 119.042 54.2834 119.151C54.0714 119.26 53.8366 119.317 53.5983 119.318C53.2792 119.32 52.9676 119.221 52.7085 119.035C52.4494 118.849 52.2561 118.585 52.1565 118.282Z" fill="var(--fill-0, #263238)"/>
<path id="Vector_8" opacity="0.3" d="M52.1565 118.282L51.991 117.785C51.8895 117.475 51.6923 117.204 51.4275 117.012C51.1628 116.82 50.8441 116.717 50.5171 116.717H33.3917C33.0377 116.719 32.6946 116.841 32.419 117.063C32.1434 117.285 31.9516 117.595 31.8752 117.94L31.8325 118.133C31.7603 118.468 31.5752 118.769 31.3079 118.985C31.0406 119.201 30.7074 119.318 30.364 119.318C30.1382 119.319 29.9153 119.268 29.7116 119.171C29.5079 119.074 29.3286 118.932 29.1871 118.756C29.0456 118.58 28.9455 118.375 28.894 118.155C28.8426 117.935 28.8413 117.707 28.8901 117.486L28.9328 117.289C29.1576 116.273 29.7219 115.365 30.5325 114.714C31.3432 114.062 32.3518 113.707 33.3917 113.706H50.5171C51.4794 113.704 52.4176 114.006 53.1981 114.569C53.9785 115.132 54.5615 115.927 54.8639 116.84L55.0294 117.337C55.1035 117.563 55.123 117.804 55.0863 118.04C55.0496 118.275 54.9577 118.499 54.8182 118.692C54.6786 118.885 54.4954 119.042 54.2834 119.151C54.0714 119.26 53.8366 119.317 53.5983 119.318C53.2792 119.32 52.9676 119.221 52.7085 119.035C52.4494 118.849 52.2561 118.585 52.1565 118.282Z" fill="var(--fill-0, white)"/>
<path id="Vector_9" opacity="0.2" d="M44.7392 113.706H39.4419V116.717H44.7392V113.706Z" fill="var(--fill-0, black)"/>
<path id="Vector_10" d="M42.0906 118.976C42.49 118.976 42.873 118.818 43.1554 118.535C43.4378 118.253 43.5965 117.87 43.5965 117.47V77.4204H40.5847V117.47C40.5847 117.87 40.7434 118.253 41.0258 118.535C41.3082 118.818 41.6912 118.976 42.0906 118.976Z" fill="var(--fill-0, #263238)"/>
<path id="Vector_11" opacity="0.3" d="M42.0906 118.976C42.49 118.976 42.873 118.818 43.1554 118.535C43.4378 118.253 43.5965 117.87 43.5965 117.47V77.4204H40.5847V117.47C40.5847 117.87 40.7434 118.253 41.0258 118.535C41.3082 118.818 41.6912 118.976 42.0906 118.976Z" fill="var(--fill-0, white)"/>
<path id="Vector_12" d="M39.9812 121.71C39.9812 122.128 40.1049 122.535 40.3367 122.882C40.5685 123.229 40.8979 123.499 41.2833 123.659C41.6688 123.819 42.0929 123.861 42.5021 123.779C42.9112 123.698 43.2871 123.497 43.582 123.202C43.877 122.907 44.0779 122.531 44.1593 122.122C44.2407 121.713 44.1989 121.289 44.0393 120.903C43.8796 120.518 43.6093 120.188 43.2624 119.957C42.9155 119.725 42.5077 119.601 42.0905 119.601C41.5333 119.608 41.0008 119.832 40.6067 120.227C40.2126 120.621 39.9882 121.153 39.9812 121.71Z" fill="var(--fill-0, #263238)"/>
<path id="Vector_13" d="M52.9842 121.71C52.9842 122.128 53.1079 122.535 53.3397 122.882C53.5714 123.229 53.9009 123.499 54.2863 123.659C54.6717 123.819 55.0958 123.861 55.505 123.779C55.9142 123.698 56.29 123.497 56.585 123.202C56.88 122.907 57.0809 122.531 57.1623 122.122C57.2437 121.713 57.2019 121.289 57.0422 120.903C56.8826 120.518 56.6122 120.188 56.2654 119.957C55.9185 119.725 55.5107 119.601 55.0935 119.601C54.5362 119.608 54.0037 119.832 53.6097 120.227C53.2156 120.621 52.9911 121.153 52.9842 121.71Z" fill="var(--fill-0, #263238)"/>
<path id="Vector_14" d="M26.7487 121.71C26.7487 122.128 26.8726 122.536 27.1046 122.883C27.3366 123.23 27.6663 123.5 28.0521 123.66C28.4378 123.819 28.8622 123.861 29.2715 123.779C29.6808 123.697 30.0566 123.496 30.3514 123.2C30.6462 122.904 30.8467 122.528 30.9274 122.119C31.0082 121.709 30.9657 121.285 30.8052 120.899C30.6447 120.514 30.3736 120.185 30.026 119.954C29.6784 119.723 29.2701 119.6 28.8527 119.601C28.5759 119.601 28.3019 119.656 28.0463 119.762C27.7907 119.868 27.5585 120.023 27.3631 120.219C27.1676 120.415 27.0128 120.648 26.9073 120.904C26.8019 121.159 26.748 121.434 26.7487 121.71Z" fill="var(--fill-0, #263238)"/>
<path id="Vector_15" opacity="0.2" d="M43.5965 79.77H40.5847V86.8936H43.5965V79.77Z" fill="var(--fill-0, black)"/>
<path id="Vector_16" d="M32.3183 83.1983H52.1938C53.0028 83.1987 53.7876 82.9225 54.418 82.4155C55.0484 81.9084 55.4865 81.2011 55.6595 80.4108L56.2522 77.7408H27.9502L28.9488 80.7792C29.1868 81.4843 29.6399 82.0969 30.2444 82.5309C30.8488 82.9648 31.5742 83.1982 32.3183 83.1983Z" fill="var(--fill-0, #263238)"/>
<path id="Vector_17" opacity="0.3" d="M32.3183 83.1983H52.1938C53.0028 83.1987 53.7876 82.9225 54.418 82.4155C55.0484 81.9084 55.4865 81.2011 55.6595 80.4108L56.2522 77.7408H27.9502L28.9488 80.7792C29.1868 81.4843 29.6399 82.0969 30.2444 82.5309C30.8488 82.9648 31.5742 83.1982 32.3183 83.1983Z" fill="var(--fill-0, white)"/>
<path id="Vector_18" d="M55.745 79.8341H24.8264C24.3576 79.8341 23.908 79.6479 23.5765 79.3164C23.2451 78.9849 23.0588 78.5353 23.0588 78.0665V77.6607C23.0588 76.9526 23.3401 76.2734 23.8409 75.7727C24.3416 75.272 25.0207 74.9907 25.7288 74.9907H54.8585C55.5667 74.9907 56.2458 75.272 56.7465 75.7727C57.2472 76.2734 57.5285 76.9526 57.5285 77.6607V78.0665C57.5286 78.3 57.4823 78.5312 57.3925 78.7467C57.3027 78.9622 57.171 79.1577 57.0052 79.3221C56.8394 79.4864 56.6426 79.6163 56.4263 79.7042C56.21 79.792 55.9784 79.8362 55.745 79.8341Z" fill="var(--fill-0, #0E888D)"/>
<path id="Vector_19" opacity="0.3" d="M55.745 79.8341H24.8264C24.3576 79.8341 23.908 79.6479 23.5765 79.3164C23.2451 78.9849 23.0588 78.5353 23.0588 78.0665V77.6607C23.0588 76.9526 23.3401 76.2734 23.8409 75.7727C24.3416 75.272 25.0207 74.9907 25.7288 74.9907H54.8585C55.5667 74.9907 56.2458 75.272 56.7465 75.7727C57.2472 76.2734 57.5285 76.9526 57.5285 77.6607V78.0665C57.5286 78.3 57.4823 78.5312 57.3925 78.7467C57.3027 78.9622 57.171 79.1577 57.0052 79.3221C56.8394 79.4864 56.6426 79.6163 56.4263 79.7042C56.21 79.792 55.9784 79.8362 55.745 79.8341Z" fill="var(--fill-0, black)"/>
<path id="Vector_20" d="M61.7685 79.8341H42.897C42.4282 79.8341 41.9786 79.6479 41.6471 79.3164C41.3156 78.9849 41.1294 78.5353 41.1294 78.0666V77.6607C41.1294 76.9526 41.4107 76.2735 41.9114 75.7727C42.4122 75.272 43.0913 74.9907 43.7994 74.9907H60.8874C61.5956 74.9907 62.2747 75.272 62.7754 75.7727C63.2761 76.2735 63.5574 76.9526 63.5574 77.6607V78.0666C63.5574 78.3005 63.511 78.5321 63.4209 78.7479C63.3307 78.9638 63.1986 79.1596 63.0322 79.324C62.8658 79.4884 62.6684 79.6182 62.4515 79.7057C62.2346 79.7933 62.0024 79.8369 61.7685 79.8341Z" fill="var(--fill-0, #0E888D)"/>
</g>
<path id="Vector_21" d="M12.6673 109.754L10.8891 118.325L7.10301 117.812L7.88264 108.926L12.6673 109.754Z" fill="var(--fill-0, #FF8B7B)"/>
<path id="Vector_22" d="M6.84129 117.38L11.439 117.7C11.5165 117.704 11.5893 117.738 11.6421 117.795C11.6949 117.852 11.7235 117.927 11.722 118.004L11.69 121.705C11.679 121.897 11.5924 122.076 11.4493 122.204C11.3062 122.333 11.1182 122.399 10.9264 122.389C9.32439 122.25 8.56612 122.1 6.54226 121.945C4.73974 121.887 2.94409 121.694 1.17022 121.369C-0.533243 120.973 -0.0793446 119.307 0.668255 119.323C2.60776 119.215 4.48534 118.602 6.11505 117.545C6.332 117.411 6.58754 117.353 6.84129 117.38Z" fill="var(--fill-0, #263238)"/>
<path id="Vector_23" d="M4.58781 117.721C4.52821 117.648 4.48937 117.559 4.47529 117.465C4.46121 117.371 4.47241 117.276 4.50772 117.187C4.52151 117.128 4.5503 117.072 4.5914 117.026C4.6325 116.981 4.68456 116.946 4.74268 116.926C5.27668 116.766 6.34468 117.647 6.4942 117.748C6.51588 117.779 6.52537 117.817 6.52089 117.855C6.51582 117.873 6.50552 117.889 6.49128 117.902C6.47704 117.914 6.45948 117.922 6.44079 117.924C6.07773 117.988 5.70887 118.011 5.34076 117.994C5.06506 117.997 4.79749 117.901 4.58781 117.721ZM4.80141 117.118C4.77291 117.128 4.74732 117.145 4.72686 117.168C4.70639 117.19 4.69166 117.217 4.68393 117.246C4.66029 117.304 4.65181 117.366 4.65929 117.428C4.66677 117.49 4.68995 117.548 4.72664 117.599C4.9082 117.802 5.44221 117.86 6.18447 117.77C5.73057 117.428 5.07375 117.033 4.80141 117.118Z" fill="var(--fill-0, #263238)"/>
<path id="Vector_24" d="M6.36597 117.903C5.98149 117.631 5.43147 116.723 5.54895 116.274C5.57242 116.195 5.62126 116.127 5.68787 116.078C5.75449 116.03 5.83517 116.005 5.91741 116.007C5.99163 116.005 6.0656 116.018 6.13456 116.045C6.20352 116.073 6.26596 116.114 6.31791 116.167C6.69705 116.605 6.52083 117.802 6.52083 117.844C6.51085 117.874 6.48982 117.899 6.46208 117.914C6.45617 117.916 6.44983 117.917 6.44341 117.917C6.43699 117.917 6.43063 117.916 6.42471 117.914C6.41471 117.916 6.40433 117.916 6.39422 117.914C6.38412 117.913 6.3745 117.909 6.36597 117.903ZM5.92808 116.221C5.78924 116.221 5.73585 116.29 5.73585 116.349C5.7729 116.843 5.98943 117.307 6.34462 117.652C6.43017 117.201 6.36837 116.735 6.16839 116.322C6.14421 116.293 6.11419 116.268 6.08019 116.251C6.04619 116.234 6.00895 116.223 5.97081 116.221H5.92808Z" fill="var(--fill-0, #263238)"/>
<path id="Vector_25" opacity="0.2" d="M7.88261 108.926L12.6673 109.754L11.7701 114.085L7.47144 113.636L7.88261 108.926Z" fill="var(--fill-0, black)"/>
<path id="Vector_26" d="M44.5471 53.588C44.5471 53.588 44.0558 61.598 41.9198 61.9665C39.7838 62.3349 12.5978 67.8725 10.6381 74.2805C8.67827 80.6885 7.06559 112.643 7.06559 112.643L12.5071 113.134C12.5071 113.134 19.9831 86.0285 19.6253 78.8195C19.6253 78.8195 43.3883 78.8195 51.3128 74.4567C59.2374 70.0939 55.4246 54.5279 55.4246 54.5279L44.5471 53.588Z" fill="var(--fill-0, #FEA629)"/>
<path id="Vector_27" d="M44.5471 53.588C44.5471 53.588 44.0558 61.598 41.9198 61.9665C39.7838 62.3349 12.5978 67.8725 10.6381 74.2805C8.67827 80.6885 7.06559 112.643 7.06559 112.643L12.5071 113.134C12.5071 113.134 19.9831 86.0285 19.6253 78.8195C19.6253 78.8195 43.3883 78.8195 51.3128 74.4567C59.2374 70.0939 55.4246 54.5279 55.4246 54.5279L44.5471 53.588Z" fill="var(--fill-0, #FEA629)"/>
<path id="Vector_28" opacity="0.2" d="M20.2981 78.8249C21.2967 78.8249 23.3313 78.7822 25.9318 78.6754L29.3494 76.0054L49.3744 71.9683L50.1327 65.523C50.1327 65.523 30.4174 66.8953 25.1308 69.8323C21.1686 72.0591 20.4209 76.6569 20.2981 78.8249Z" fill="var(--fill-0, black)"/>
<path id="Vector_29" d="M25.4138 111.436L23.6463 120.14L19.8442 119.761L20.6024 110.774L25.4138 111.436Z" fill="var(--fill-0, #FF8B7B)"/>
<path id="Vector_30" d="M19.5131 118.64L24.0894 119.142C24.1276 119.143 24.165 119.152 24.1996 119.168C24.2341 119.185 24.2651 119.208 24.2905 119.236C24.3159 119.264 24.3354 119.298 24.3476 119.334C24.3599 119.37 24.3647 119.408 24.3618 119.446L24.1962 123.152C24.1839 123.344 24.096 123.523 23.9519 123.65C23.8077 123.777 23.6191 123.842 23.4273 123.83C21.8253 123.633 21.0937 123.451 19.0592 123.216C17.2637 123.097 15.4791 122.849 13.7192 122.474C12.0584 122.015 12.5497 120.365 13.292 120.407C15.0542 120.509 17.564 119.617 18.8189 118.805C19.0265 118.677 19.2699 118.619 19.5131 118.64Z" fill="var(--fill-0, #263238)"/>
<path id="Vector_31" d="M17.2756 118.918C17.2107 118.839 17.1696 118.743 17.1573 118.642C17.145 118.541 17.162 118.438 17.2062 118.346C17.2243 118.288 17.256 118.235 17.2987 118.191C17.3414 118.147 17.3939 118.115 17.4519 118.095C17.9859 117.978 19.0538 118.88 19.166 118.987C19.1754 119.003 19.1803 119.022 19.1803 119.04C19.1803 119.059 19.1754 119.078 19.166 119.094C19.1621 119.112 19.1519 119.128 19.1371 119.138C19.1223 119.149 19.1041 119.154 19.0859 119.153C18.7199 119.205 18.3492 119.217 17.9805 119.19C17.7215 119.181 17.4731 119.085 17.2756 118.918ZM17.4732 118.309C17.4445 118.315 17.4182 118.33 17.3974 118.35C17.3766 118.371 17.3621 118.398 17.3557 118.426C17.3293 118.483 17.3193 118.546 17.3268 118.609C17.3344 118.671 17.3592 118.73 17.3984 118.779C17.564 118.992 18.1033 119.072 18.8509 119.008C18.4024 118.651 17.7829 118.223 17.4839 118.309H17.4732Z" fill="var(--fill-0, #263238)"/>
<path id="Vector_32" d="M19.0325 119.137C18.6427 118.87 18.1247 117.935 18.2635 117.497C18.2877 117.417 18.3386 117.348 18.4076 117.302C18.4767 117.255 18.5597 117.234 18.6427 117.241C18.7168 117.238 18.7906 117.253 18.8583 117.283C18.9259 117.314 18.9855 117.36 19.0325 117.417C19.4009 117.866 19.166 119.062 19.1713 119.099C19.1672 119.114 19.1599 119.128 19.1497 119.14C19.1396 119.152 19.1269 119.162 19.1126 119.169C19.1076 119.171 19.1021 119.172 19.0966 119.172C19.091 119.172 19.0855 119.171 19.0805 119.169C19.0707 119.167 19.0613 119.163 19.053 119.158C19.0447 119.152 19.0377 119.145 19.0325 119.137ZM18.6427 117.481C18.5092 117.481 18.4397 117.545 18.4451 117.604C18.4714 118.101 18.674 118.572 19.0165 118.934C19.1138 118.484 19.069 118.016 18.8883 117.593C18.8387 117.533 18.7682 117.493 18.6907 117.481H18.6427Z" fill="var(--fill-0, #263238)"/>
<path id="Vector_33" opacity="0.2" d="M25.3391 111.778L24.6449 115.206L20.2981 114.405L20.6025 110.785L25.3391 111.778Z" fill="var(--fill-0, black)"/>
<path id="Vector_34" d="M52.7973 28.2177C48.4559 27.6463 51.8308 26.1992 51.8308 26.1992C54.7784 25.6652 54.9547 23.5292 54.693 21.516L60.0917 17.5697C59.2801 20.1062 58.2174 24.7681 59.8087 26.557C59.8087 26.557 60.9034 28.8638 54.1377 28.3512L52.7973 28.2177Z" fill="var(--fill-0, #FF8B7B)"/>
<path id="Vector_35" opacity="0.2" d="M57.8917 19.1771L54.6877 21.5107C54.7547 21.9828 54.7797 22.4599 54.7624 22.9364C55.8785 22.8243 57.5232 21.6976 57.7742 20.5601C57.8971 20.1101 57.9369 19.6414 57.8917 19.1771Z" fill="var(--fill-0, black)"/>
<path id="Vector_36" d="M62.5161 12.5181C61.5496 16.6245 61.2292 18.3921 58.7781 20.2611C55.0882 23.0913 50.2715 21.2917 49.9939 17.0571C49.7482 13.239 51.3662 7.16205 55.697 5.98191C56.6174 5.69992 57.5964 5.66866 58.533 5.89137C59.4695 6.11408 60.3297 6.58269 61.0247 7.24882C61.7196 7.91496 62.2243 8.75449 62.4864 9.68076C62.7486 10.607 62.7589 11.5865 62.5161 12.5181Z" fill="var(--fill-0, #FF8B7B)"/>
<path id="Vector_37" d="M55.9319 12.9133C55.8625 13.2604 55.6276 13.522 55.3979 13.4953C55.1683 13.4686 55.0508 13.1642 55.1149 12.8171C55.179 12.4701 55.414 12.2031 55.6489 12.2298C55.8839 12.2565 55.9853 12.5608 55.9319 12.9133Z" fill="var(--fill-0, #263238)"/>
<path id="Vector_38" d="M51.6973 12.4701C51.6333 12.8172 51.3983 13.0788 51.1633 13.0521C50.9284 13.0254 50.8109 12.721 50.875 12.3739C50.939 12.0268 51.1793 11.7652 51.409 11.7919C51.6386 11.8186 51.7614 12.123 51.6973 12.4701Z" fill="var(--fill-0, #263238)"/>
<path id="Vector_39" d="M51.5051 11.8025L50.7308 11.4607C50.7308 11.4607 51.0298 12.187 51.5051 11.8025Z" fill="var(--fill-0, #263238)"/>
<path id="Vector_40" d="M52.7653 13.1803C52.3058 13.9402 51.7533 14.6397 51.1206 15.2629C51.2751 15.4104 51.4612 15.5208 51.6648 15.5856C51.8684 15.6503 52.084 15.6678 52.2954 15.6367L52.7653 13.1803Z" fill="var(--fill-0, #FF5652)"/>
<path id="Vector_41" d="M54.0202 17.1425C53.8266 17.1609 53.6317 17.1609 53.4381 17.1425C53.4254 17.1406 53.4132 17.1361 53.4023 17.1294C53.3913 17.1227 53.3818 17.1138 53.3744 17.1034C53.3669 17.0929 53.3616 17.0811 53.3588 17.0685C53.356 17.056 53.3557 17.043 53.358 17.0304C53.3593 17.0165 53.3634 17.0031 53.3701 16.9909C53.3768 16.9787 53.386 16.968 53.397 16.9594C53.408 16.9509 53.4207 16.9448 53.4342 16.9414C53.4477 16.9379 53.4617 16.9374 53.4755 16.9396C53.9141 16.9923 54.3589 16.9463 54.7775 16.805C55.196 16.6636 55.5777 16.4305 55.8945 16.1226C55.9018 16.109 55.9122 16.0972 55.9248 16.0882C55.9374 16.0792 55.9519 16.0732 55.9672 16.0707C55.9824 16.0681 55.9981 16.0691 56.0129 16.0736C56.0277 16.078 56.0414 16.0858 56.0527 16.0963C56.0641 16.1068 56.0729 16.1198 56.0785 16.1342C56.084 16.1487 56.0862 16.1642 56.0849 16.1796C56.0835 16.1951 56.0786 16.21 56.0706 16.2232C56.0626 16.2365 56.0517 16.2477 56.0387 16.2561C55.4971 16.7887 54.7788 17.1041 54.0202 17.1425Z" fill="var(--fill-0, #263238)"/>
<path id="Vector_42" d="M57.1868 11.0816C57.1317 11.0775 57.0802 11.0527 57.0426 11.0122C56.8883 10.8151 56.6876 10.6593 56.4583 10.5587C56.2291 10.458 55.9786 10.4157 55.729 10.4355C55.7029 10.44 55.6762 10.4391 55.6505 10.4328C55.6248 10.4266 55.6006 10.415 55.5796 10.399C55.5585 10.3829 55.541 10.3627 55.5281 10.3396C55.5153 10.3165 55.5073 10.2909 55.5047 10.2646C55.5013 10.2093 55.5186 10.1546 55.5531 10.1112C55.5876 10.0678 55.6369 10.0388 55.6916 10.0296C56.0078 9.99664 56.3273 10.0439 56.6204 10.1671C56.9134 10.2904 57.1707 10.4855 57.3684 10.7345C57.4013 10.7788 57.4158 10.8341 57.4088 10.8889C57.4019 10.9436 57.374 10.9936 57.331 11.0282C57.291 11.0629 57.2398 11.0818 57.1868 11.0816Z" fill="var(--fill-0, #263238)"/>
<path id="Vector_43" d="M50.8376 10.4141C50.812 10.4152 50.7865 10.411 50.7626 10.4018C50.7387 10.3926 50.717 10.3786 50.6988 10.3607C50.679 10.3422 50.6633 10.3199 50.6526 10.2951C50.6418 10.2703 50.6363 10.2436 50.6363 10.2165C50.6363 10.1895 50.6418 10.1628 50.6526 10.138C50.6633 10.1132 50.679 10.0908 50.6988 10.0723C50.9229 9.82551 51.2008 9.63355 51.511 9.51132C51.8212 9.38909 52.1554 9.33987 52.4876 9.36747C52.5137 9.37185 52.5385 9.38156 52.5607 9.39597C52.5828 9.41038 52.6017 9.42919 52.6162 9.45124C52.6308 9.47328 52.6406 9.49809 52.6451 9.5241C52.6496 9.55011 52.6487 9.57677 52.6425 9.60243C52.6297 9.65719 52.5968 9.70514 52.5503 9.73679C52.5039 9.76844 52.4472 9.78147 52.3915 9.7733C52.1287 9.75604 51.8653 9.79847 51.6212 9.89742C51.377 9.99637 51.1584 10.1493 50.9818 10.3447C50.9442 10.3852 50.8927 10.41 50.8376 10.4141Z" fill="var(--fill-0, #263238)"/>
<path id="Vector_44" d="M55.729 12.2617L54.9547 11.9253C54.9547 11.9253 55.2484 12.6302 55.729 12.2617Z" fill="var(--fill-0, #263238)"/>
<path id="Vector_45" d="M26.9891 46.9504H27.2241C27.678 46.9184 28.2921 46.9024 28.7834 46.8436C29.2746 46.7849 29.8514 46.7155 30.3373 46.6193C31.2616 46.4637 32.16 46.1816 33.0073 45.781C33.3596 45.6127 33.6926 45.4068 34.0005 45.1669C34.1364 45.058 34.2666 44.9422 34.3904 44.8198C34.4545 44.7628 34.5135 44.7002 34.5666 44.6329L34.7802 44.4086L35.8482 43.2391L36.9162 42.059C38.2993 40.457 39.5862 38.8176 40.8518 37.1462C41.4766 36.3078 42.08 35.4587 42.6727 34.6097C42.9664 34.1825 43.2548 33.7553 43.5324 33.3281C43.8101 32.9009 44.1038 32.4523 44.3228 32.0892L44.3601 32.0251C44.7982 31.3895 45.4449 30.9272 46.1882 30.7184C46.9314 30.5097 47.7243 30.5677 48.4292 30.8824C49.9511 31.5392 50.5652 33.1412 49.8176 34.4602C49.4972 34.9942 49.2302 35.4801 48.9152 35.966C48.6001 36.452 48.2957 36.9112 47.97 37.3758C47.3399 38.3103 46.6617 39.2181 45.9621 40.1045C44.5492 41.8995 43.0356 43.6128 41.4285 45.2363C40.6221 46.0586 39.7731 46.8383 38.9187 47.6339C38.8279 47.7194 38.6731 47.8475 38.5182 47.9757C38.3685 48.1038 38.2116 48.2232 38.0483 48.3335C37.7292 48.5642 37.3937 48.7713 37.0443 48.9529C36.3644 49.3149 35.6485 49.6048 34.9083 49.818C33.507 50.1974 32.0538 50.3488 30.6043 50.2666C29.2424 50.19 27.8952 49.9442 26.594 49.535C26.3372 49.4599 26.1078 49.312 25.9334 49.1092C25.759 48.9064 25.6471 48.6573 25.6114 48.3922C25.6057 48.2067 25.637 48.0219 25.7034 47.8486C25.7698 47.6753 25.8701 47.517 25.9983 47.3828C26.1265 47.2486 26.2802 47.1413 26.4503 47.067C26.6204 46.9928 26.8035 46.9532 26.9891 46.9504Z" fill="var(--fill-0, #FF8B7B)"/>
<path id="Vector_46" d="M46.3199 28.5381C46.3199 28.5381 45.0864 28.5381 40.4459 36.4947C40.4459 36.4947 42.3523 41.1512 47.3132 41.3915C47.2918 41.3915 56.9999 28.0041 46.3199 28.5381Z" fill="var(--fill-0, #263238)"/>
<path id="Vector_47" opacity="0.5" d="M44.9528 31.0266L47.5267 30.4125L50.5491 32.0145L51.1526 33.5203C50.3729 37.1355 47.2917 41.3862 47.2917 41.3862C45.3711 41.2985 43.5581 40.4742 42.2294 39.0846C43.357 36.4779 44.2678 33.7828 44.9528 31.0266Z" fill="var(--fill-0, black)"/>
<path id="Vector_48" d="M22.3272 46.1387L23.737 45.4499C24.0049 45.3215 24.2968 45.2504 24.5937 45.2412C24.8907 45.2321 25.1864 45.2849 25.4618 45.3965L28.0303 46.4645C28.5147 46.6462 28.9469 46.9444 29.2887 47.3328C29.6305 47.7212 29.8714 48.1877 29.9901 48.6913L30.1129 49.2947C27.8648 50.5763 24.3457 50.5175 24.3457 50.5175L23.3418 50.5976C22.9513 50.6608 22.5514 50.5704 22.226 50.3455C21.9005 50.1205 21.6747 49.7785 21.5956 49.3908L21.3874 47.6606C21.3666 47.3408 21.4459 47.0224 21.6143 46.7496C21.7827 46.4769 22.0319 46.2634 22.3272 46.1387Z" fill="var(--fill-0, #FF8B7B)"/>
<path id="Vector_49" d="M49.3957 53.588C49.3957 53.588 49.9724 65.87 47.8311 66.2385C45.6897 66.6069 25.9851 68.4065 24.0307 74.8145C22.0762 81.2225 19.9242 113.177 19.9242 113.177L25.3657 114.202C25.3657 114.202 33.9097 86.0285 33.5519 78.8195C33.5519 78.8195 55.2376 79.4603 59.8941 74.9907C64.5506 70.5211 63.4773 54.5225 63.4773 54.5225L49.3957 53.588Z" fill="var(--fill-0, #FEA629)"/>
<path id="Vector_50" d="M49.3957 53.588C49.3957 53.588 49.9724 65.87 47.8311 66.2385C45.6897 66.6069 25.9851 68.4065 24.0307 74.8145C22.0762 81.2225 19.9242 113.177 19.9242 113.177L25.3657 114.202C25.3657 114.202 33.9097 86.0285 33.5519 78.8195C33.5519 78.8195 55.2376 79.4603 59.8941 74.9907C64.5506 70.5211 63.4773 54.5225 63.4773 54.5225L49.3957 53.588Z" fill="var(--fill-0, #FEA629)"/>
<path id="Vector_51" d="M52.8453 26.1244C52.7011 26.2205 49.2622 28.4527 53.7478 28.4527C58.2334 28.4527 59.6698 26.5089 59.6698 26.4608C61.2718 26.6958 63.0768 27.0429 65.0686 27.5288L63.6054 57.6091C63.6054 57.6091 50.9977 58.7518 43.9542 55.5692C43.9542 55.5692 43.0518 33.4349 45.145 29.9372C45.1664 29.9585 46.2077 26.6424 52.8453 26.1244Z" fill="var(--fill-0, #263238)"/>
<path id="Vector_52" opacity="0.5" d="M64.8016 33.0824L64.1875 44.7824C61.6777 36.4573 61.7579 32.1586 61.7579 32.1586L62.4254 30.5887L64.8016 33.0824Z" fill="var(--fill-0, black)"/>
<path id="Vector_53" d="M79.4279 35.0315C79.1747 34.9861 78.9137 35.016 78.6773 35.1176C78.4409 35.2191 78.2396 35.3879 78.0983 35.6029V35.6296C77.4681 36.5481 76.838 37.5039 76.1812 38.4064C75.5244 39.3088 74.8836 40.222 74.2054 41.0764C73.7675 41.6104 73.3136 42.1444 72.865 42.6303C72.7938 42.702 72.7066 42.7556 72.6105 42.7868C72.5144 42.818 72.4123 42.8258 72.3126 42.8096C72.2128 42.7934 72.1184 42.7537 72.0371 42.6937C71.9558 42.6337 71.89 42.5553 71.8451 42.4648C71.1509 41.0123 70.5048 39.5224 69.8907 38.0059C69.4528 36.8952 69.0149 35.7791 68.6037 34.647C68.1926 33.5149 67.7867 32.3615 67.4183 31.2882V31.2294C67.3 30.8852 67.1127 30.5688 66.8677 30.2997C66.6228 30.0306 66.3254 29.8143 65.9938 29.6643C65.6622 29.5143 65.3035 29.4336 64.9396 29.4273C64.5758 29.4209 64.2144 29.489 63.8778 29.6274C63.2633 29.8946 62.7689 30.3789 62.4891 30.9878C62.2093 31.5966 62.1638 32.2872 62.3613 32.9275C62.7297 34.1878 63.1463 35.3305 63.5788 36.5107C64.0113 37.6908 64.4759 38.903 65.0099 40.1045C65.5439 41.306 66.1046 42.4327 66.7134 43.5808C67.3221 44.7289 67.9896 45.8503 68.6999 46.9611L68.7906 47.0999C68.8531 47.1971 68.9265 47.2867 69.0096 47.3669C69.2854 47.6494 69.6023 47.8889 69.9494 48.0771C70.3485 48.2914 70.7857 48.4257 71.2364 48.4723C71.9545 48.5396 72.677 48.4007 73.319 48.0718C74.0695 47.6735 74.7409 47.1414 75.3001 46.5018C76.1472 45.5272 76.8916 44.4678 77.5215 43.3405C78.1249 42.2725 78.659 41.2045 79.1502 40.1365C79.6415 39.0685 80.0741 37.9632 80.4639 36.8151C80.5307 36.6302 80.5563 36.4328 80.5387 36.237C80.5211 36.0412 80.4608 35.8516 80.362 35.6816C80.2633 35.5116 80.1284 35.3652 79.9671 35.2529C79.8057 35.1406 79.6217 35.065 79.4279 35.0315Z" fill="var(--fill-0, #FF8B7B)"/>
<path id="Vector_54" d="M72.4378 38.1448C70.2379 40.3099 67.2742 41.5222 64.1875 41.5196C64.1875 41.5196 58.7941 28.7677 63.4933 27.4434C67.9416 26.1832 72.4378 38.1448 72.4378 38.1448Z" fill="var(--fill-0, #263238)"/>
<path id="Vector_55" d="M78.5789 31.128L77.5429 32.0945C77.3451 32.2677 77.1929 32.4868 77.0997 32.7327C77.0066 32.9785 76.9754 33.2435 77.0089 33.5043L77.3186 35.9607C77.3804 36.4464 77.5582 36.9101 77.8371 37.3126C78.1159 37.7151 78.4876 38.0445 78.9206 38.2729L79.4546 38.5613C81.2809 37.0981 82.1727 34.1665 82.1727 34.1665L82.5251 33.3601C82.6004 33.1961 82.6425 33.0188 82.6492 32.8384C82.6558 32.658 82.6268 32.4781 82.5638 32.309C82.5008 32.1398 82.4051 31.9848 82.2821 31.8527C82.1591 31.7206 82.0112 31.6141 81.847 31.5392L80.245 30.8343C79.9675 30.7229 79.6644 30.6914 79.37 30.7433C79.0756 30.7952 78.8015 30.9285 78.5789 31.128Z" fill="var(--fill-0, #FF8B7B)"/>
<path id="Vector_56" d="M53.4862 62.5325L23.2779 65.3627C23.0701 65.3958 22.8828 65.5068 22.754 65.673C22.6251 65.8392 22.5643 66.0483 22.584 66.2577C22.6038 66.4671 22.7025 66.6611 22.8601 66.8004C23.0177 66.9397 23.2225 67.0137 23.4327 67.0074L53.6411 64.1719C53.7487 64.1617 53.8533 64.1305 53.9489 64.0799C54.0444 64.0293 54.1291 63.9604 54.198 63.8771C54.2669 63.7938 54.3188 63.6977 54.3506 63.5943C54.3824 63.491 54.3935 63.3824 54.3834 63.2748C54.3732 63.1671 54.3419 63.0625 54.2913 62.967C54.2407 62.8714 54.1718 62.7868 54.0885 62.7178C54.0052 62.6489 53.9091 62.5971 53.8058 62.5653C53.7025 62.5335 53.5939 62.5223 53.4862 62.5325Z" fill="var(--fill-0, #0E888D)"/>
<path id="Vector_57" d="M23.8332 66.4788L37.7759 65.1652C37.836 65.1591 37.8938 65.1391 37.9447 65.1065C37.9956 65.074 38.0381 65.03 38.0687 64.978C38.0994 64.926 38.1174 64.8675 38.1213 64.8072C38.1252 64.747 38.1148 64.6867 38.091 64.6312L30.9568 49.0811C30.8619 48.8716 30.7037 48.6971 30.5044 48.5821C30.3052 48.4672 30.0749 48.4176 29.846 48.4403L15.8819 49.7165C15.8224 49.7236 15.7652 49.7444 15.715 49.7772C15.6647 49.8099 15.6227 49.8539 15.5922 49.9056C15.5617 49.9572 15.5436 50.0152 15.5392 50.0751C15.5348 50.1349 15.5443 50.195 15.5669 50.2505L22.7011 65.806C22.7941 66.0237 22.9538 66.2062 23.1573 66.3272C23.3609 66.4481 23.5975 66.5012 23.8332 66.4788Z" fill="var(--fill-0, #0E888D)"/>
<path id="Vector_58" d="M23.3579 66.5269L37.3006 65.2025C37.3606 65.1962 37.4184 65.176 37.4693 65.1435C37.5202 65.1111 37.5629 65.0672 37.594 65.0154C37.625 64.9637 37.6436 64.9054 37.6483 64.8452C37.653 64.785 37.6437 64.7245 37.621 64.6685L30.4814 49.1131C30.3852 48.9046 30.2268 48.731 30.0279 48.6162C29.829 48.5015 29.5994 48.4512 29.3707 48.4723L15.4013 49.786C15.3412 49.792 15.2834 49.8121 15.2325 49.8446C15.1816 49.8771 15.1391 49.9211 15.1085 49.9731C15.0778 50.0251 15.0598 50.0836 15.0559 50.1439C15.052 50.2042 15.0624 50.2645 15.0862 50.32L22.2258 65.87C22.3199 66.0858 22.4805 66.2659 22.6842 66.384C22.8878 66.5022 23.1238 66.5522 23.3579 66.5269Z" fill="var(--fill-0, #0E888D)"/>
<path id="Vector_59" opacity="0.7" d="M23.3579 66.5269L37.3006 65.2025C37.3606 65.1962 37.4184 65.176 37.4693 65.1435C37.5202 65.1111 37.5629 65.0672 37.594 65.0154C37.625 64.9637 37.6436 64.9054 37.6483 64.8452C37.653 64.785 37.6437 64.7245 37.621 64.6685L30.4814 49.1131C30.3852 48.9046 30.2268 48.731 30.0279 48.6162C29.829 48.5015 29.5994 48.4512 29.3707 48.4723L15.4013 49.786C15.3412 49.792 15.2834 49.8121 15.2325 49.8446C15.1816 49.8771 15.1391 49.9211 15.1085 49.9731C15.0778 50.0251 15.0598 50.0836 15.0559 50.1439C15.052 50.2042 15.0624 50.2645 15.0862 50.32L22.2258 65.87C22.3199 66.0858 22.4805 66.2659 22.6842 66.384C22.8878 66.5022 23.1238 66.5522 23.3579 66.5269Z" fill="var(--fill-0, white)"/>
<path id="Vector_60" opacity="0.7" d="M39.1643 65.5443C39.0567 65.5544 38.9481 65.5433 38.8447 65.5115C38.7414 65.4797 38.6453 65.4279 38.562 65.3589C38.3938 65.2197 38.2877 65.0194 38.2672 64.802C38.2466 64.5846 38.3133 64.368 38.4525 64.1997C38.5917 64.0315 38.792 63.9254 39.0094 63.9049L53.4862 62.5325C53.5938 62.5223 53.7024 62.5335 53.8057 62.5653C53.9091 62.5971 54.0052 62.6489 54.0885 62.7178C54.1718 62.7868 54.2407 62.8714 54.2913 62.967C54.3419 63.0625 54.3731 63.1671 54.3833 63.2748C54.3935 63.3824 54.3823 63.491 54.3505 63.5943C54.3187 63.6977 54.2669 63.7938 54.198 63.8771C54.129 63.9604 54.0444 64.0293 53.9488 64.0799C53.8533 64.1305 53.7487 64.1617 53.641 64.1719L39.1643 65.5443Z" fill="var(--fill-0, white)"/>
<path id="Vector_61" opacity="0.5" d="M41.5634 64.6854L42.733 64.5757L42.6971 64.1929L41.5275 64.3026L41.5634 64.6854Z" fill="var(--fill-0, black)"/>
<path id="Vector_62" opacity="0.5" d="M39.7559 64.855L40.9256 64.7452L40.8897 64.3624L39.72 64.4722L39.7559 64.855Z" fill="var(--fill-0, black)"/>
<path id="Vector_63" d="M61.2345 15.6473C60.3552 14.8893 59.741 13.8702 59.4817 12.7386C59.2223 11.607 59.3313 10.4221 59.7927 9.35681C58.6968 8.86216 57.513 8.59164 56.311 8.56115C53.641 8.56115 50.5865 9.13253 51.4036 7.08731C51.4036 7.08731 48.568 3.48281 53.3954 2.97017C53.3954 2.97017 53.1497 -1.57417 57.0479 1.36817C57.0479 1.36817 60.2893 -2.48197 61.902 2.73521C61.902 2.73521 66.7774 0.188032 65.5065 6.47321C65.5065 6.47321 68.9561 6.53195 66.7774 10.553C66.7774 10.553 68.5824 13.004 64.9992 15.156C64.9992 15.156 65.2876 18.6537 62.6763 18.0236C62.6763 18.0236 59.6806 22.2262 59.2694 20.2664C58.8956 18.4455 61.2345 15.6473 61.2345 15.6473Z" fill="var(--fill-0, #263238)"/>
<path id="Vector_64" d="M62.7404 16.5284C62.5533 16.8866 62.2939 17.202 61.9786 17.4548C61.6633 17.7075 61.2991 17.8921 60.9088 17.9969C59.9316 18.2052 59.5631 17.0838 59.9316 15.9944C60.268 15.0118 61.1758 13.7196 62.1103 14.0026C63.0448 14.2856 63.2691 15.5779 62.7404 16.5284Z" fill="var(--fill-0, #FF8B7B)"/>
<path id="Vector_65" d="M60.6525 17.5697L59.6379 19.4227H61.9501L60.9301 17.5697H60.6525Z" fill="var(--fill-0, #0E888D)"/>
<path id="Vector_66" opacity="0.2" d="M60.6525 17.5697L59.6379 19.4227H61.9501L60.9301 17.5697H60.6525Z" fill="var(--fill-0, black)"/>
<path id="Vector_67" d="M59.6379 19.4227L60.6525 17.5697L61.6724 19.4227H59.6379Z" fill="var(--fill-0, #0E888D)"/>
<path id="Vector_68" d="M6.70772 112.889L12.6565 113.513L13.1264 111.821L6.70772 111.11V112.889Z" fill="var(--fill-0, #263238)"/>
<path id="Vector_69" d="M19.6253 113.514L25.526 114.517L26.0974 112.862L19.7374 111.741L19.6253 113.514Z" fill="var(--fill-0, #263238)"/>
</g>
</svg>
