<svg preserveAspectRatio="none" width="100%" height="100%" overflow="visible" style="display: block;" viewBox="0 0 267 185.01" fill="none" xmlns="http://www.w3.org/2000/svg">
<g id="freepik--background-complete--inject-56">
<path id="Vector" d="M240.247 183.424H222.561V183.557H240.247V183.424Z" fill="var(--fill-0, #EBEBEB)"/>
<path id="Vector_2" d="M176.871 184.876H172.231V185.01H176.871V184.876Z" fill="var(--fill-0, #EBEBEB)"/>
<path id="Vector_3" d="M222.027 178.468H211.779V178.602H222.027V178.468Z" fill="var(--fill-0, #EBEBEB)"/>
<path id="Vector_4" d="M51.0771 179.365H28.0136V179.499H51.0771V179.365Z" fill="var(--fill-0, #EBEBEB)"/>
<path id="Vector_5" d="M59.2153 179.365H55.8351V179.499H59.2153V179.365Z" fill="var(--fill-0, #EBEBEB)"/>
<path id="Vector_6" d="M70.2028 181.503L70.2022 181.636L120.227 181.863L120.227 181.73L70.2028 181.503Z" fill="var(--fill-0, #EBEBEB)"/>
<path id="Vector_7" d="M127.306 151.015H24.1902C23.3816 151.015 22.606 150.694 22.0342 150.122C21.4624 149.55 21.1411 148.775 21.1411 147.966V3.02245C21.1481 2.2184 21.4725 1.44968 22.0436 0.883617C22.6146 0.317555 23.3862 -2.59428e-05 24.1902 4.88506e-06H127.306C127.706 4.88506e-06 128.103 0.0788725 128.473 0.232106C128.842 0.38534 129.179 0.609939 129.462 0.893077C129.745 1.17622 129.969 1.51235 130.123 1.88229C130.276 2.25223 130.355 2.64873 130.355 3.04914V147.966C130.355 148.366 130.276 148.763 130.123 149.133C129.969 149.503 129.745 149.839 129.462 150.122C129.179 150.405 128.842 150.63 128.473 150.783C128.103 150.936 127.706 151.015 127.306 151.015ZM24.1902 0.106805C23.4174 0.108217 22.6766 0.415852 22.1301 0.962335C21.5837 1.50882 21.276 2.2496 21.2746 3.02245V147.966C21.276 148.739 21.5837 149.48 22.1301 150.026C22.6766 150.573 23.4174 150.88 24.1902 150.882H127.306C128.078 150.88 128.819 150.573 129.366 150.026C129.912 149.48 130.22 148.739 130.221 147.966V3.02245C130.22 2.2496 129.912 1.50882 129.366 0.962335C128.819 0.415852 128.078 0.108217 127.306 0.106805H24.1902Z" fill="var(--fill-0, #EBEBEB)"/>
<path id="Vector_8" d="M242.81 151.015H139.694C138.886 151.015 138.11 150.694 137.538 150.122C136.966 149.55 136.645 148.775 136.645 147.966V3.02245C136.652 2.2184 136.977 1.44968 137.548 0.883617C138.119 0.317555 138.89 -2.59428e-05 139.694 4.88506e-06H242.81C243.618 4.88506e-06 244.394 0.321253 244.966 0.893077C245.538 1.4649 245.859 2.24046 245.859 3.04914V147.966C245.859 148.775 245.538 149.55 244.966 150.122C244.394 150.694 243.618 151.015 242.81 151.015ZM139.694 0.106805C138.922 0.108217 138.181 0.415852 137.634 0.962335C137.088 1.50882 136.78 2.2496 136.779 3.02245V147.966C136.78 148.739 137.088 149.48 137.634 150.026C138.181 150.573 138.922 150.88 139.694 150.882H242.81C243.583 150.88 244.323 150.573 244.87 150.026C245.416 149.48 245.724 148.739 245.725 147.966V3.02245C245.724 2.2496 245.416 1.50882 244.87 0.962335C244.323 0.415852 243.583 0.108217 242.81 0.106805H139.694Z" fill="var(--fill-0, #EBEBEB)"/>
<path id="Vector_9" d="M267 174.832H0V174.965H267V174.832Z" fill="var(--fill-0, #EBEBEB)"/>
<path id="Vector_10" d="M223.714 130.851H147.16C141.359 130.851 136.656 135.554 136.656 141.355V164.141C136.656 169.942 141.359 174.645 147.16 174.645H223.714C229.515 174.645 234.218 169.942 234.218 164.141V141.355C234.218 135.554 229.515 130.851 223.714 130.851Z" fill="var(--fill-0, #E0E0E0)"/>
<path id="Vector_11" d="M218.572 131.172H142.017C136.216 131.172 131.514 135.874 131.514 141.676V164.461C131.514 170.262 136.216 174.965 142.017 174.965H218.572C224.373 174.965 229.075 170.262 229.075 164.461V141.676C229.075 135.874 224.373 131.172 218.572 131.172Z" fill="var(--fill-0, #F5F5F5)"/>
<path id="Vector_12" d="M143.897 135.3H217.269C219.215 135.3 221.081 136.073 222.457 137.449C223.833 138.825 224.606 140.691 224.606 142.637V151.656H136.56V142.637C136.56 141.673 136.75 140.719 137.118 139.829C137.487 138.939 138.028 138.13 138.709 137.449C139.39 136.767 140.199 136.227 141.089 135.858C141.979 135.489 142.933 135.3 143.897 135.3Z" fill="var(--fill-0, #E0E0E0)"/>
<path id="Vector_13" d="M136.56 153.851H224.606V162.87C224.606 164.816 223.833 166.682 222.457 168.058C221.081 169.434 219.215 170.207 217.269 170.207H143.897C142.933 170.207 141.979 170.017 141.089 169.649C140.199 169.28 139.39 168.739 138.709 168.058C138.028 167.377 137.487 166.568 137.118 165.678C136.75 164.788 136.56 163.834 136.56 162.87V153.851Z" fill="var(--fill-0, #E0E0E0)"/>
<path id="Vector_14" d="M201.222 138.466H188.742V151.747H201.222V138.466Z" fill="var(--fill-0, #E6E6E6)"/>
<path id="Vector_15" d="M188.742 138.466H185.544V151.747H188.742V138.466Z" fill="var(--fill-0, #F5F5F5)"/>
<path id="Vector_16" d="M204.49 136.416H195.118V151.747H204.49V136.416Z" fill="var(--fill-0, #E6E6E6)"/>
<path id="Vector_17" d="M195.124 136.416H192.411V151.747H195.124V136.416Z" fill="var(--fill-0, #F5F5F5)"/>
<path id="Vector_18" d="M205.782 138.466H197.879V151.747H205.782V138.466Z" fill="var(--fill-0, #EBEBEB)"/>
<path id="Vector_19" d="M197.879 138.466H196.074V151.747H197.879V138.466Z" fill="var(--fill-0, #F5F5F5)"/>
<path id="Vector_20" d="M214.716 140.714H204.351V151.752H214.716V140.714Z" fill="var(--fill-0, #E6E6E6)"/>
<path id="Vector_21" d="M204.346 140.714H201.692V151.752H204.346V140.714Z" fill="var(--fill-0, #F5F5F5)"/>
<path id="Vector_22" d="M217.429 139.011H209.643V151.747H217.429V139.011Z" fill="var(--fill-0, #E6E6E6)"/>
<path id="Vector_23" d="M209.648 139.011H207.395V151.747H209.648V139.011Z" fill="var(--fill-0, #F5F5F5)"/>
<path id="Vector_24" d="M219.506 140.714H211.939V151.752H219.506V140.714Z" fill="var(--fill-0, #E6E6E6)"/>
<path id="Vector_25" d="M211.939 140.714H210.439V151.752H211.939V140.714Z" fill="var(--fill-0, #F0F0F0)"/>
<path id="Vector_26" d="M162.389 156.403H149.91V169.684H162.389V156.403Z" fill="var(--fill-0, #E6E6E6)"/>
<path id="Vector_27" d="M149.915 156.403H146.717V169.684H149.915V156.403Z" fill="var(--fill-0, #F5F5F5)"/>
<path id="Vector_28" d="M165.657 154.353H156.286V169.684H165.657V154.353Z" fill="var(--fill-0, #E6E6E6)"/>
<path id="Vector_29" d="M156.291 154.353H153.584V169.684H156.291V154.353Z" fill="var(--fill-0, #F5F5F5)"/>
<path id="Vector_30" d="M204.96 156.403H192.48V169.684H204.96V156.403Z" fill="var(--fill-0, #E6E6E6)"/>
<path id="Vector_31" d="M192.486 156.403H189.287V169.684H192.486V156.403Z" fill="var(--fill-0, #F5F5F5)"/>
<path id="Vector_32" d="M208.228 154.353H198.856V169.684H208.228V154.353Z" fill="var(--fill-0, #E6E6E6)"/>
<path id="Vector_33" d="M198.862 154.353H196.149V169.684H198.862V154.353Z" fill="var(--fill-0, #F5F5F5)"/>
<path id="Vector_34" d="M166.955 156.403H159.052V169.684H166.955V156.403Z" fill="var(--fill-0, #EBEBEB)"/>
<path id="Vector_35" d="M159.047 156.403H157.242V169.684H159.047V156.403Z" fill="var(--fill-0, #F5F5F5)"/>
<path id="Vector_36" d="M175.884 158.651H165.519V169.689H175.884V158.651Z" fill="var(--fill-0, #E6E6E6)"/>
<path id="Vector_37" d="M165.519 158.651H162.865V169.689H165.519V158.651Z" fill="var(--fill-0, #F5F5F5)"/>
<path id="Vector_38" d="M178.602 156.948H170.816V169.684H178.602V156.948Z" fill="var(--fill-0, #E6E6E6)"/>
<path id="Vector_39" d="M170.821 156.948H168.568V169.684H170.821V156.948Z" fill="var(--fill-0, #F5F5F5)"/>
<path id="Vector_40" d="M180.679 158.651H173.112V169.689H180.679V158.651Z" fill="var(--fill-0, #E6E6E6)"/>
<path id="Vector_41" d="M173.107 158.651H171.606V169.689H173.107V158.651Z" fill="var(--fill-0, #F0F0F0)"/>
<path id="Vector_42" d="M162.288 138.872C162.158 138.616 161.949 138.409 161.693 138.28C161.436 138.151 161.145 138.108 160.862 138.157C160.578 138.226 160.323 138.382 160.132 138.603C159.94 138.824 159.822 139.099 159.794 139.39C159.6 139.246 159.366 139.165 159.125 139.159C158.883 139.152 158.645 139.22 158.443 139.353C158.241 139.499 158.084 139.7 157.99 139.931C157.895 140.162 157.868 140.415 157.909 140.661C157.796 140.58 157.666 140.523 157.53 140.495C157.393 140.467 157.252 140.468 157.116 140.497C156.979 140.527 156.851 140.585 156.738 140.667C156.626 140.75 156.532 140.855 156.462 140.976C156.329 141.233 156.301 141.531 156.384 141.808C156.467 142.085 156.654 142.319 156.905 142.461C156.727 142.48 156.562 142.566 156.444 142.701C156.326 142.836 156.263 143.011 156.268 143.191C156.272 143.37 156.344 143.541 156.469 143.67C156.594 143.799 156.763 143.876 156.943 143.886C156.763 143.898 156.594 143.972 156.464 144.096C156.334 144.22 156.252 144.386 156.232 144.565C156.213 144.744 156.255 144.925 156.352 145.077C156.449 145.23 156.595 145.345 156.766 145.403C156.682 145.452 156.61 145.519 156.555 145.599C156.5 145.68 156.463 145.771 156.448 145.868C156.434 145.964 156.44 146.063 156.469 146.156C156.497 146.249 156.546 146.335 156.612 146.407C156.687 146.466 156.775 146.505 156.869 146.522C156.963 146.539 157.06 146.532 157.151 146.504C157.242 146.475 157.324 146.424 157.391 146.356C157.458 146.288 157.508 146.205 157.535 146.113C157.549 146.14 157.568 146.162 157.592 146.18C157.616 146.197 157.643 146.209 157.673 146.214C157.702 146.218 157.732 146.216 157.76 146.207C157.788 146.198 157.814 146.182 157.834 146.161C157.854 146.138 157.869 146.111 157.877 146.081C157.885 146.052 157.886 146.021 157.881 145.991C157.876 145.961 157.865 145.933 157.847 145.907C157.83 145.882 157.807 145.861 157.781 145.846C157.824 145.895 157.88 145.931 157.943 145.95C158.005 145.969 158.072 145.97 158.135 145.953C158.198 145.937 158.255 145.903 158.3 145.856C158.345 145.809 158.376 145.75 158.39 145.686C158.369 145.838 158.389 145.992 158.446 146.134C158.503 146.276 158.597 146.401 158.717 146.496C158.837 146.59 158.98 146.652 159.132 146.675C159.283 146.698 159.438 146.681 159.581 146.626C159.55 146.696 159.536 146.772 159.538 146.849C159.539 146.925 159.558 147 159.591 147.069C159.624 147.138 159.672 147.199 159.731 147.248C159.79 147.297 159.859 147.332 159.933 147.352C160.231 147.401 160.536 147.34 160.793 147.181C161.048 147.021 161.337 146.924 161.637 146.898C161.896 146.931 162.15 147.001 162.389 147.106C162.791 147.229 163.219 147.238 163.626 147.131C164.032 147.025 164.401 146.807 164.691 146.503C164.8 146.627 164.938 146.723 165.094 146.779C165.249 146.836 165.416 146.853 165.58 146.828C165.743 146.803 165.898 146.737 166.029 146.636C166.16 146.535 166.264 146.403 166.33 146.252C166.362 146.405 166.441 146.545 166.558 146.649C166.674 146.754 166.821 146.819 166.977 146.834C167.134 146.836 167.287 146.786 167.413 146.693C167.54 146.599 167.632 146.467 167.676 146.316V146.733C167.822 146.745 167.968 146.72 168.102 146.661C168.235 146.602 168.352 146.511 168.441 146.395C168.529 146.279 168.588 146.142 168.61 145.998C168.632 145.853 168.618 145.706 168.568 145.568C168.778 145.56 168.978 145.478 169.134 145.336C169.289 145.195 169.389 145.003 169.417 144.794C169.441 144.584 169.391 144.371 169.276 144.193C169.161 144.015 168.988 143.882 168.787 143.817C169.129 143.703 169.427 143.486 169.64 143.194C169.853 142.903 169.969 142.552 169.972 142.192C169.976 141.831 169.866 141.478 169.66 141.183C169.453 140.887 169.159 140.664 168.819 140.543C168.69 140.493 168.55 140.477 168.413 140.495C168.275 140.514 168.145 140.567 168.034 140.65C167.981 140.696 167.938 140.753 167.909 140.817C167.88 140.881 167.864 140.951 167.864 141.021C167.864 141.092 167.88 141.161 167.909 141.225C167.938 141.289 167.981 141.346 168.034 141.393C168.126 141.063 168.111 140.713 167.99 140.393C167.869 140.073 167.648 139.8 167.361 139.614C167.067 139.457 166.726 139.409 166.4 139.478C166.074 139.548 165.782 139.73 165.577 139.993C165.675 139.848 165.727 139.677 165.727 139.502C165.727 139.327 165.675 139.156 165.577 139.011C165.483 138.871 165.345 138.766 165.185 138.712C165.024 138.658 164.851 138.658 164.691 138.712C164.651 138.492 164.53 138.295 164.352 138.16C164.174 138.025 163.952 137.961 163.73 137.98C163.509 138.03 163.314 138.158 163.18 138.341C163.047 138.523 162.984 138.748 163.004 138.974C162.986 138.886 162.943 138.806 162.879 138.743C162.816 138.68 162.735 138.637 162.647 138.621C162.559 138.604 162.469 138.614 162.387 138.649C162.305 138.685 162.235 138.744 162.187 138.819C161.973 138.744 162.288 138.872 162.288 138.872Z" fill="var(--fill-0, #EBEBEB)"/>
<path id="Vector_43" d="M162.448 143.112C162.361 143.048 162.262 143.001 162.156 142.975C162.051 142.95 161.941 142.945 161.834 142.962C161.728 142.983 161.631 143.033 161.552 143.107C161.474 143.181 161.418 143.275 161.391 143.379C161.369 143.485 161.387 143.595 161.443 143.688C161.498 143.781 161.586 143.85 161.69 143.881C161.941 143.945 162.197 143.737 162.453 143.769C162.546 143.792 162.637 143.82 162.726 143.854C162.92 143.875 163.117 143.852 163.302 143.788C163.487 143.723 163.655 143.618 163.794 143.48C163.908 143.405 164.007 143.309 164.088 143.197C164.127 143.142 164.151 143.077 164.157 143.01C164.163 142.942 164.15 142.874 164.12 142.813C164.057 142.743 163.977 142.691 163.888 142.662C163.799 142.633 163.704 142.628 163.612 142.647C163.233 142.692 162.874 142.841 162.576 143.08C162.576 143.021 162.576 142.962 162.576 142.904L162.448 143.112Z" fill="var(--fill-0, #FAFAFA)"/>
<path id="Vector_44" d="M167.858 142.813C167.761 142.735 167.65 142.677 167.532 142.642C167.462 142.617 167.386 142.619 167.318 142.648C167.25 142.677 167.195 142.731 167.165 142.798C167.135 142.865 167.131 142.942 167.154 143.012C167.178 143.082 167.227 143.141 167.291 143.176C167.43 143.272 167.593 143.328 167.761 143.336C167.938 143.363 168.151 143.374 168.237 143.219C168.261 143.161 168.266 143.096 168.252 143.035C168.238 142.974 168.204 142.918 168.157 142.877C168.058 142.798 167.943 142.741 167.82 142.712L167.858 142.813Z" fill="var(--fill-0, #FAFAFA)"/>
<path id="Vector_45" d="M159.308 139.999C159.137 140.073 158.985 140.187 158.865 140.331C158.746 140.474 158.662 140.644 158.619 140.826C158.599 140.879 158.595 140.936 158.609 140.991C158.622 141.045 158.652 141.094 158.694 141.131C158.731 141.147 158.771 141.155 158.812 141.155C158.852 141.155 158.892 141.147 158.929 141.131L159.917 140.896C159.757 140.95 159.607 141.031 159.474 141.136C159.407 141.189 159.355 141.259 159.325 141.339C159.295 141.419 159.287 141.506 159.303 141.59C159.335 141.684 159.398 141.765 159.481 141.82C159.564 141.875 159.663 141.901 159.762 141.894C159.957 141.878 160.143 141.803 160.296 141.681C160.388 141.627 160.466 141.553 160.526 141.466C160.586 141.378 160.626 141.278 160.643 141.174C160.643 140.96 160.376 140.762 160.216 140.896C160.596 140.795 160.957 140.633 161.284 140.415C161.404 140.34 161.507 140.242 161.588 140.127C161.629 140.068 161.653 139.999 161.658 139.928C161.664 139.857 161.651 139.786 161.62 139.721C161.284 139.107 160.857 140.009 160.649 140.09C160.259 140.25 159.81 139.791 159.308 139.999Z" fill="var(--fill-0, #FAFAFA)"/>
<path id="Vector_46" d="M157.77 142.626C157.75 142.685 157.748 142.749 157.763 142.81C157.778 142.87 157.81 142.925 157.856 142.968C157.88 142.987 157.908 143.001 157.937 143.008C157.967 143.016 157.998 143.016 158.028 143.01C158.059 143.004 158.087 142.991 158.112 142.973C158.136 142.955 158.156 142.931 158.171 142.904C157.944 142.952 157.738 143.067 157.578 143.235C157.542 143.279 157.517 143.331 157.503 143.387C157.489 143.442 157.488 143.5 157.499 143.556C157.51 143.612 157.534 143.665 157.568 143.711C157.602 143.757 157.645 143.795 157.696 143.822C157.767 143.836 157.84 143.835 157.91 143.819C157.981 143.803 158.048 143.774 158.107 143.731C158.464 143.533 158.805 143.306 159.127 143.053C159.031 143.283 159.266 143.539 159.511 143.561C159.761 143.556 160.002 143.472 160.2 143.32C160.462 143.16 160.734 142.92 160.691 142.626C160.638 142.508 160.544 142.413 160.426 142.358C160.308 142.304 160.175 142.295 160.051 142.332C159.803 142.431 159.587 142.595 159.426 142.808C159.565 142.605 159.367 142.3 159.127 142.274C159.008 142.268 158.889 142.291 158.781 142.341C158.673 142.391 158.579 142.467 158.507 142.562C158.78 142.412 158.844 142.028 158.475 141.969C158.235 141.937 157.829 142.423 157.77 142.626Z" fill="var(--fill-0, #FAFAFA)"/>
<path id="Vector_47" d="M165.332 141.74C165.279 141.719 165.223 141.709 165.166 141.712C165.109 141.714 165.054 141.729 165.004 141.754C164.953 141.78 164.908 141.816 164.873 141.86C164.837 141.904 164.811 141.955 164.797 142.01C164.782 142.064 164.78 142.122 164.789 142.178C164.798 142.233 164.819 142.287 164.851 142.334C164.882 142.381 164.923 142.421 164.971 142.451C165.019 142.481 165.073 142.501 165.129 142.509C165.048 142.514 164.969 142.537 164.898 142.575C164.826 142.612 164.763 142.664 164.712 142.728C164.681 142.76 164.656 142.798 164.641 142.841C164.625 142.883 164.618 142.928 164.621 142.973C164.638 143.038 164.676 143.095 164.73 143.136C164.783 143.177 164.848 143.198 164.915 143.197C165.051 143.192 165.185 143.155 165.305 143.091C165.171 143.089 165.039 143.126 164.926 143.197C164.898 143.216 164.874 143.24 164.856 143.268C164.838 143.296 164.826 143.328 164.82 143.361C164.815 143.394 164.816 143.428 164.824 143.46C164.832 143.493 164.847 143.523 164.867 143.55C164.912 143.583 164.965 143.603 165.02 143.608C165.076 143.614 165.132 143.605 165.182 143.582C165.426 143.517 165.65 143.392 165.834 143.219C165.898 143.297 165.98 143.359 166.073 143.399C166.166 143.439 166.267 143.456 166.368 143.448C166.418 143.441 166.465 143.423 166.508 143.396C166.551 143.37 166.588 143.335 166.617 143.293C166.646 143.252 166.667 143.205 166.677 143.155C166.687 143.106 166.687 143.055 166.677 143.005C166.649 142.937 166.603 142.879 166.544 142.835C166.484 142.792 166.414 142.766 166.341 142.76C166.193 142.751 166.046 142.775 165.908 142.829C166.063 142.742 166.185 142.607 166.256 142.445C166.309 142.279 166.197 142.055 166.021 142.071C165.844 142.087 165.727 142.354 165.572 142.45C165.39 142.268 165.748 141.894 165.332 141.74Z" fill="var(--fill-0, #FAFAFA)"/>
<path id="Vector_48" d="M161.802 140.923C161.697 141.008 161.615 141.12 161.565 141.246C161.514 141.372 161.497 141.509 161.514 141.644C161.513 141.792 161.553 141.939 161.628 142.067C161.703 142.196 161.811 142.302 161.941 142.375C162.033 142.404 162.131 142.413 162.227 142.401C162.323 142.389 162.415 142.356 162.497 142.306C162.58 142.255 162.65 142.187 162.705 142.107C162.759 142.027 162.795 141.936 162.811 141.841C162.831 141.646 162.79 141.45 162.695 141.279C162.599 141.108 162.453 140.971 162.277 140.885C162.201 140.854 162.118 140.841 162.035 140.848C161.953 140.854 161.873 140.88 161.802 140.923Z" fill="var(--fill-0, #FAFAFA)"/>
<path id="Vector_49" d="M164.301 140.608L164.392 140.682C164.355 140.632 164.307 140.589 164.252 140.558C164.197 140.527 164.137 140.508 164.074 140.502C164.011 140.496 163.948 140.503 163.888 140.523C163.829 140.543 163.774 140.576 163.727 140.618C163.681 140.661 163.644 140.713 163.619 140.77C163.594 140.828 163.582 140.891 163.582 140.954C163.583 141.017 163.597 141.079 163.623 141.136C163.65 141.193 163.688 141.244 163.735 141.286C163.828 141.366 163.949 141.407 164.072 141.399C164.195 141.391 164.31 141.335 164.392 141.243C164.521 141.304 164.666 141.322 164.806 141.295C164.946 141.269 165.074 141.198 165.172 141.093C165.255 140.981 165.29 140.839 165.27 140.7C165.25 140.562 165.177 140.436 165.065 140.351C165.003 140.321 164.935 140.307 164.866 140.31C164.797 140.312 164.73 140.332 164.671 140.367C164.612 140.402 164.562 140.451 164.527 140.51C164.491 140.568 164.47 140.635 164.467 140.704L164.36 140.586L164.301 140.608Z" fill="var(--fill-0, #FAFAFA)"/>
<path id="Vector_50" d="M167.062 141.051C166.868 141.208 166.72 141.415 166.635 141.649C166.597 141.767 166.605 141.896 166.658 142.008C166.71 142.121 166.803 142.21 166.918 142.258C167.158 142.316 167.382 142.119 167.521 141.916C167.59 141.828 167.639 141.726 167.664 141.617C167.689 141.508 167.689 141.395 167.665 141.286C167.596 141.077 167.292 140.949 167.131 141.115L167.062 141.051Z" fill="var(--fill-0, #FAFAFA)"/>
<path id="Vector_51" d="M163.084 139.604C163.057 139.555 163.022 139.513 162.979 139.479C162.936 139.445 162.887 139.42 162.834 139.405C162.781 139.391 162.725 139.387 162.671 139.395C162.617 139.402 162.565 139.421 162.518 139.449C162.428 139.513 162.362 139.605 162.332 139.71C162.301 139.816 162.306 139.929 162.347 140.031C162.393 140.135 162.468 140.225 162.562 140.29C162.656 140.355 162.766 140.393 162.881 140.399C163.148 140.426 163.468 140.207 163.415 139.94C163.479 140.017 163.562 140.075 163.655 140.11C163.749 140.145 163.85 140.154 163.949 140.138C164.139 140.109 164.321 140.04 164.483 139.935C164.712 139.807 164.953 139.604 164.931 139.342C164.913 139.238 164.86 139.144 164.782 139.073C164.703 139.002 164.604 138.96 164.499 138.952C164.394 138.948 164.29 138.965 164.192 139.002C164.094 139.039 164.004 139.094 163.927 139.166C163.813 139.283 163.691 139.394 163.564 139.497C163.5 139.549 163.423 139.582 163.341 139.595C163.26 139.607 163.176 139.597 163.1 139.566L163.084 139.604Z" fill="var(--fill-0, #FAFAFA)"/>
<path id="Vector_52" d="M166.48 151.747H159.639L158.972 144.853H167.147L166.48 151.747Z" fill="var(--fill-0, #F0F0F0)"/>
<path id="Vector_53" d="M167.676 145.211H158.374L158.208 144.292H167.847L167.676 145.211Z" fill="var(--fill-0, #FAFAFA)"/>
<path id="Vector_54" d="M221.407 130.686H213.557L216.019 122.761L216.377 121.602H218.155L221.407 130.686Z" fill="var(--fill-0, #E0E0E0)"/>
<path id="Vector_55" d="M216.377 121.602L216.019 122.761L213.557 130.686L206.3 130.574L203.967 122.761L203.609 121.602H216.377Z" fill="var(--fill-0, #E0E0E0)"/>
<path id="Vector_56" d="M216.377 121.602L216.019 122.761L213.557 130.686L198.653 130.462L201.831 121.602H216.377Z" fill="var(--fill-0, #FAFAFA)"/>
<path id="Vector_57" d="M216.377 121.602L216.019 122.761H201.419L201.831 121.602H216.377Z" fill="var(--fill-0, #EBEBEB)"/>
<path id="Vector_58" d="M203.662 126.526H200.389L201.532 123.322L204.661 123.354L203.662 126.526ZM200.768 126.259H203.438L204.271 123.589L201.692 123.557L200.768 126.259Z" fill="var(--fill-0, #EBEBEB)"/>
<path id="Vector_59" d="M207.326 126.526H204.052L205.195 123.322L208.324 123.354L207.326 126.526ZM204.431 126.259H207.128L207.961 123.589L205.382 123.557L204.431 126.259Z" fill="var(--fill-0, #EBEBEB)"/>
<path id="Vector_60" d="M210.983 126.526H207.726L208.869 123.322L211.998 123.354L210.983 126.526ZM208.089 126.259H210.791L211.624 123.589L209.04 123.557L208.089 126.259Z" fill="var(--fill-0, #EBEBEB)"/>
<path id="Vector_61" d="M214.668 126.526H211.395L212.537 123.322L215.667 123.354L214.668 126.526ZM211.774 126.259H214.444L215.277 123.589L212.698 123.557L211.774 126.259Z" fill="var(--fill-0, #EBEBEB)"/>
<path id="Vector_62" d="M202.52 129.944H199.246L200.389 126.74L203.518 126.777L202.52 129.944ZM199.625 129.677H202.322L203.155 127.007L200.576 126.98L199.625 129.677Z" fill="var(--fill-0, #EBEBEB)"/>
<path id="Vector_63" d="M206.183 129.944H202.92L204.063 126.74L207.192 126.777L206.183 129.944ZM203.288 129.677H205.985L206.818 127.007L204.239 126.98L203.288 129.677Z" fill="var(--fill-0, #EBEBEB)"/>
<path id="Vector_64" d="M209.862 129.944H206.594L207.731 126.74L210.866 126.777L209.862 129.944ZM206.968 129.677H209.67L210.503 127.007L207.924 126.98L206.968 129.677Z" fill="var(--fill-0, #EBEBEB)"/>
<path id="Vector_65" d="M213.504 129.944H210.23L211.373 126.74L214.502 126.777L213.504 129.944ZM210.61 129.677H213.306L214.139 127.007L211.56 126.98L210.61 129.677Z" fill="var(--fill-0, #EBEBEB)"/>
<path id="Vector_66" d="M184.23 130.83H175.088V125.597C175.088 124.995 175.206 124.4 175.437 123.844C175.667 123.289 176.005 122.784 176.43 122.359C176.856 121.934 177.361 121.597 177.917 121.367C178.472 121.138 179.068 121.02 179.67 121.02C180.881 121.025 182.04 121.509 182.895 122.366C183.75 123.224 184.23 124.386 184.23 125.597V130.83Z" fill="var(--fill-0, #F0F0F0)"/>
<path id="Vector_67" d="M179.611 129.698C181.743 129.698 183.472 127.969 183.472 125.837C183.472 123.705 181.743 121.976 179.611 121.976C177.479 121.976 175.75 123.705 175.75 125.837C175.75 127.969 177.479 129.698 179.611 129.698Z" fill="var(--fill-0, white)"/>
<path id="Vector_68" d="M182.66 125.837C182.661 126.451 182.48 127.051 182.14 127.562C181.799 128.073 181.315 128.472 180.748 128.707C180.182 128.943 179.558 129.005 178.955 128.886C178.353 128.767 177.8 128.472 177.366 128.038C176.931 127.604 176.635 127.052 176.515 126.45C176.395 125.848 176.456 125.224 176.691 124.656C176.925 124.089 177.323 123.604 177.833 123.263C178.344 122.922 178.944 122.74 179.557 122.74C180.379 122.74 181.168 123.066 181.749 123.647C182.331 124.227 182.659 125.015 182.66 125.837Z" fill="var(--fill-0, #EBEBEB)"/>
<path id="Vector_69" d="M179.921 125.907C179.922 125.974 179.903 126.039 179.866 126.095C179.83 126.152 179.777 126.195 179.715 126.222C179.654 126.248 179.586 126.255 179.52 126.242C179.454 126.229 179.394 126.197 179.346 126.15C179.299 126.102 179.267 126.042 179.254 125.976C179.241 125.91 179.248 125.842 179.274 125.781C179.301 125.719 179.345 125.666 179.401 125.63C179.457 125.593 179.523 125.574 179.59 125.575C179.677 125.577 179.76 125.612 179.822 125.674C179.884 125.736 179.919 125.819 179.921 125.907Z" fill="var(--fill-0, #FAFAFA)"/>
<path id="Vector_70" d="M179.552 126.029L178.132 124.7L178.271 124.55L179.552 125.762L181.859 123.728L181.987 123.877L179.552 126.029Z" fill="var(--fill-0, #FAFAFA)"/>
<path id="Vector_71" d="M48.359 123.156H40.1407C37.7873 123.156 35.8794 125.064 35.8794 127.418V135.636C35.8794 137.989 37.7873 139.897 40.1407 139.897H48.359C50.7125 139.897 52.6203 137.989 52.6203 135.636V127.418C52.6203 125.064 50.7125 123.156 48.359 123.156Z" fill="var(--fill-0, #E0E0E0)"/>
<path id="Vector_72" d="M48.7115 127.354H39.9593V129.052H48.7115V127.354Z" fill="var(--fill-0, #FAFAFA)"/>
<path id="Vector_73" d="M48.7115 130.616H39.9593V132.315H48.7115V130.616Z" fill="var(--fill-0, #FAFAFA)"/>
<path id="Vector_74" d="M48.7115 133.874H39.9593V135.572H48.7115V133.874Z" fill="var(--fill-0, #FAFAFA)"/>
<path id="Vector_75" d="M216.056 46.96L214.043 48.7328L215.309 50.9276L217.851 50.0678C218.921 51.2099 220.305 52.0105 221.829 52.3694L222.363 54.9967H224.899L225.433 52.3694C226.957 52.0105 228.341 51.2099 229.412 50.0678L231.954 50.9276L233.219 48.7328L231.206 46.96C231.662 45.463 231.662 43.8645 231.206 42.3676L233.219 40.6L231.954 38.3999L229.412 39.2597C228.341 38.1191 226.957 37.3202 225.433 36.9635L224.899 34.3362H222.358L221.824 36.9635C220.3 37.3202 218.916 38.1191 217.845 39.2597L215.304 38.3999L214.043 40.584L216.056 42.3515C215.608 43.8495 215.608 45.4459 216.056 46.9439V46.96ZM219.517 44.824C219.518 44.012 219.76 43.2186 220.211 42.544C220.663 41.8694 221.305 41.3439 222.055 41.0339C222.806 40.7239 223.631 40.6433 224.428 40.8024C225.224 40.9614 225.955 41.353 226.529 41.9275C227.103 42.502 227.493 43.2337 227.651 44.0301C227.809 44.8266 227.728 45.652 227.417 46.402C227.106 47.152 226.579 47.7931 225.904 48.2441C225.229 48.6951 224.435 48.9358 223.623 48.9358C223.084 48.9358 222.549 48.8294 222.051 48.6227C221.552 48.416 221.099 48.113 220.718 47.7311C220.336 47.3492 220.034 46.8959 219.828 46.3971C219.622 45.8982 219.516 45.3637 219.517 44.824Z" fill="var(--fill-0, #FEA629)"/>
<path id="Vector_76" d="M195.903 26.0752L193.842 27.234C193.997 28.2234 194.257 29.1936 194.616 30.1283L197.003 30.0909C197.301 30.7368 197.659 31.3535 198.071 31.9332L196.843 33.9784C197.479 34.763 198.194 35.4789 198.979 36.1144L201.024 34.8916C201.606 35.3009 202.222 35.6583 202.867 35.9596L202.829 38.3466C203.764 38.7061 204.734 38.9657 205.723 39.1209L206.882 37.0329C207.235 37.065 207.587 37.0863 207.95 37.0863C208.313 37.0863 208.661 37.0863 209.018 37.0329L210.177 39.1209C211.166 38.9657 212.137 38.7061 213.071 38.3466L213.029 35.9596C213.676 35.6607 214.294 35.3032 214.876 34.8916L216.921 36.1144C217.707 35.4804 218.423 34.7643 219.057 33.9784L217.829 31.9332C218.238 31.351 218.595 30.7346 218.897 30.0909L221.284 30.1283C221.644 29.1936 221.903 28.2234 222.059 27.234L219.971 26.0752C220.003 25.7281 220.019 25.3704 220.019 25.0072C220.019 24.6441 220.019 24.2917 219.971 23.9392L222.059 22.7751C221.904 21.7873 221.644 20.8188 221.284 19.8862L218.897 19.9236C218.595 19.2782 218.238 18.66 217.829 18.0759L219.057 16.036C218.425 15.2489 217.709 14.5327 216.921 13.9L214.876 15.1229C214.293 14.7134 213.675 14.356 213.029 14.0549L213.071 11.6733C212.137 11.3112 211.167 11.0516 210.177 10.899L209.018 12.9816C208.666 12.9816 208.313 12.9335 207.95 12.9335C207.587 12.9335 207.235 12.9335 206.882 12.9816L205.723 10.899C204.734 11.0516 203.763 11.3112 202.829 11.6733L202.867 14.0549C202.224 14.3584 201.607 14.7157 201.024 15.1229L198.979 13.9C198.193 14.5341 197.477 15.2502 196.843 16.036L198.071 18.0759C197.659 18.6575 197.301 19.276 197.003 19.9236L194.616 19.8862C194.255 20.8223 193.996 21.7944 193.842 22.7858L195.93 23.9499C195.898 24.297 195.877 24.6495 195.877 25.0179C195.877 25.3864 195.871 25.7281 195.903 26.0752ZM201.35 25.2262C201.35 23.9292 201.735 22.6614 202.455 21.583C203.176 20.5046 204.2 19.6641 205.398 19.1678C206.596 18.6715 207.915 18.5416 209.187 18.7947C210.459 19.0477 211.627 19.6722 212.544 20.5893C213.462 21.5064 214.086 22.6748 214.339 23.9469C214.592 25.2189 214.462 26.5374 213.966 27.7356C213.47 28.9339 212.629 29.958 211.551 30.6786C210.472 31.3991 209.205 31.7837 207.908 31.7837C207.046 31.7844 206.193 31.6153 205.397 31.286C204.601 30.9567 203.878 30.4737 203.269 29.8646C202.66 29.2555 202.177 28.5324 201.848 27.7365C201.518 26.9406 201.349 26.0875 201.35 25.2262Z" fill="var(--fill-0, #FEA629)"/>
</g>
</svg>
