<svg preserveAspectRatio="none" width="100%" height="100%" overflow="visible" style="display: block;" viewBox="0 0 24.5284 15.8706" fill="none" xmlns="http://www.w3.org/2000/svg">
<g id="freepik--PC--inject-56">
<path id="Vector" d="M2.01702 14.7064L23.5479 14.7972L22.4158 1.14277L0.884942 1.04665L2.01702 14.7064Z" fill="var(--fill-0, #FEA629)"/>
<path id="Vector_2" d="M2.30539 15.7744L23.5266 15.8705C23.6642 15.8724 23.8007 15.8456 23.9274 15.7917C24.0541 15.7377 24.1681 15.658 24.2621 15.5574C24.3561 15.4568 24.4281 15.3377 24.4734 15.2077C24.5187 15.0777 24.5363 14.9397 24.5251 14.8025L23.3984 1.23354C23.3709 0.937835 23.2352 0.662674 23.0175 0.460702C22.7998 0.25873 22.5152 0.144138 22.2182 0.138848L1.00243 0.0427323C0.864543 0.0399588 0.72762 0.0662447 0.600561 0.119879C0.473503 0.173514 0.359162 0.253286 0.26497 0.354026C0.170778 0.454766 0.0988455 0.574206 0.0538584 0.704577C0.00887122 0.834949 -0.00816761 0.973342 0.00385291 1.11073L1.12526 14.6797C1.15615 14.9741 1.29278 15.2473 1.5098 15.4486C1.72682 15.6499 2.0095 15.7656 2.30539 15.7744Z" fill="var(--fill-0, #FEA629)"/>
<g id="Group" opacity="0.7">
<path id="Vector_3" d="M2.01702 14.7064L23.5479 14.7972L22.4158 1.14277L0.884942 1.04665L2.01702 14.7064Z" fill="var(--fill-0, #FEA629)"/>
<path id="Vector_4" opacity="0.9" d="M2.98346 14.7063L22.389 14.7918C22.5358 14.7922 22.6811 14.7623 22.8158 14.704C22.9505 14.6457 23.0717 14.5603 23.1719 14.453C23.2721 14.3458 23.3492 14.2191 23.3982 14.0807C23.4473 13.9424 23.4673 13.7954 23.457 13.649L22.4958 2.12531C22.4718 1.85903 22.3487 1.61147 22.151 1.43152C21.9532 1.25158 21.6952 1.15234 21.4278 1.15343L2.03828 1.05731C1.89102 1.0569 1.74528 1.08693 1.61019 1.14554C1.4751 1.20415 1.35359 1.29007 1.2533 1.39789C1.153 1.50571 1.07608 1.6331 1.02738 1.77207C0.978676 1.91104 0.959233 2.05857 0.970278 2.20541L1.92614 13.7398C1.95128 14.0033 2.07336 14.2481 2.26872 14.4266C2.46407 14.6052 2.71878 14.7049 2.98346 14.7063Z" fill="var(--fill-0, white)"/>
</g>
<path id="Vector_5" opacity="0.1" d="M5.60017 0.0213809L9.73867 15.769L8.32357 15.7637L4.23313 0.0160356L5.60017 0.0213809Z" fill="var(--fill-0, white)"/>
<path id="Vector_6" opacity="0.1" d="M3.41615 0.0106904L7.55465 15.7583L4.7458 15.7477L0.660704 0L3.41615 0.0106904Z" fill="var(--fill-0, white)"/>
</g>
</svg>
