<svg preserveAspectRatio="none" width="100%" height="100%" overflow="visible" style="display: block;" viewBox="0 0 21 22" fill="none" xmlns="http://www.w3.org/2000/svg">
<path id="Vector" fill-rule="evenodd" clip-rule="evenodd" d="M10 2C6.66999 2 3.76108 3.80801 2.20343 6.50073C1.92688 6.97879 1.31516 7.14215 0.837096 6.86561C0.359035 6.58906 0.195673 5.97733 0.472216 5.49927C2.37266 2.21398 5.92719 0 10 0C16.0751 0 21 4.92487 21 11C21 17.0751 16.0751 22 10 22C5.92719 22 2.37266 19.786 0.472216 16.5007C0.195673 16.0227 0.359035 15.4109 0.837096 15.1344C1.31516 14.8579 1.92688 15.0212 2.20343 15.4993C3.76108 18.192 6.66999 20 10 20C14.9706 20 19 15.9706 19 11C19 6.02944 14.9706 2 10 2ZM9.29289 7.70711C8.90237 7.31658 8.90237 6.68342 9.29289 6.29289C9.68342 5.90237 10.3166 5.90237 10.7071 6.29289L14.7071 10.2929C15.0976 10.6834 15.0976 11.3166 14.7071 11.7071L10.7071 15.7071C10.3166 16.0976 9.68342 16.0976 9.29289 15.7071C8.90237 15.3166 8.90237 14.6834 9.29289 14.2929L11.5858 12H1C0.447715 12 0 11.5523 0 11C0 10.4477 0.447715 10 1 10H11.5858L9.29289 7.70711Z" fill="var(--fill-0, #415861)"/>
</svg>
