<svg width="227" height="85" viewBox="0 0 227 85" fill="none" xmlns="http://www.w3.org/2000/svg">
<path d="M11.2978 55.4488L19.5732 48.2624C20.6526 52.2783 22.8114 55.9421 25.9057 58.9716C30.5112 63.4808 36.5558 65.9468 43.0323 65.9468V62.2831L53.1067 73.2742L43.0323 84.2654V80.3198C32.598 80.3198 22.8114 76.3038 15.4715 69.1173C9.93052 63.6922 6.3325 56.9989 4.82133 49.7419L11.2978 55.4488Z" fill="#FEA629"/>
<path d="M4.10174 41.9917C4.10174 31.7757 8.20348 22.1936 15.5434 15.0072C21.0844 9.65247 27.9206 6.05921 35.3325 4.57964L29.4318 10.9911L36.7717 19.0935C32.67 20.1505 28.928 22.2641 25.8338 25.2937C21.2283 29.8029 18.7097 35.7212 18.7097 42.0623H22.4516L11.2258 51.926L0 42.0623H4.10174V41.9917Z" fill="#0E888D"/>
<path d="M81.459 34.5234C79.9479 27.196 76.2779 20.5027 70.8089 15.148C63.469 7.96152 53.6824 3.94553 43.2481 3.94553V0L33.1737 10.9911L43.2481 21.9822V18.3186C49.7246 18.3186 55.8412 20.855 60.3747 25.2937C63.469 28.3233 65.6278 31.987 66.7072 36.003H75.1985H81.7469L81.459 34.5234Z" fill="#FEA629"/>
<path d="M58.8109 76.9693C59.1245 76.9693 59.4185 76.9928 59.6928 77.0398L61.6684 74.7115H62.5621L60.4219 77.2045C61.0726 77.4083 61.5782 77.7572 61.9388 78.251C62.2995 78.7371 62.5856 79.3917 62.7973 80.2148H61.9036C61.7938 79.7288 61.6527 79.325 61.4802 79.0036C61.3156 78.6744 61.1039 78.4117 60.8452 78.2158C60.5944 78.0119 60.3004 77.8708 59.9633 77.7924C59.6262 77.7062 59.2421 77.6592 58.8109 77.6513V80.2148H58.0113V74.7115H58.8109V76.9693ZM65.1958 74.7115V76.6165H66.3246C66.7323 76.6165 67.0772 76.6636 67.3594 76.7576C67.6417 76.8439 67.869 76.9693 68.0415 77.1339C68.2139 77.2907 68.3394 77.4789 68.4178 77.6984C68.4962 77.9179 68.5354 78.153 68.5354 78.4039C68.5354 78.6548 68.4883 78.89 68.3942 79.1095C68.308 79.329 68.1747 79.521 67.9944 79.6857C67.8141 79.8503 67.5868 79.9796 67.3124 80.0737C67.0459 80.1678 66.7323 80.2148 66.3717 80.2148H64.3961V74.7115H65.1958ZM65.1958 79.5681H66.1835C66.403 79.5681 66.6069 79.5524 66.795 79.521C66.9832 79.4818 67.1399 79.4191 67.2654 79.3329C67.3986 79.2388 67.5006 79.1173 67.5711 78.9683C67.6495 78.8194 67.6887 78.6313 67.6887 78.4039C67.6887 78.1766 67.6495 77.9884 67.5711 77.8395C67.4927 77.6905 67.383 77.5729 67.2419 77.4867C67.1086 77.4005 66.9479 77.3417 66.7597 77.3103C66.5716 77.2711 66.3678 77.2515 66.1483 77.2515H65.1958V79.5681ZM70.0523 74.7115V80.2148H69.2527V74.7115H70.0523ZM72.9253 83.037H72.1257V74.7115H72.9253V75.664H72.9606C73.1879 75.3034 73.4897 75.033 73.866 74.8526C74.2502 74.6645 74.6382 74.5704 75.0302 74.5704C75.4613 74.5704 75.8494 74.6449 76.1943 74.7939C76.5471 74.9428 76.845 75.1466 77.088 75.4053C77.3389 75.664 77.531 75.9698 77.6642 76.3225C77.8053 76.6753 77.8759 77.0555 77.8759 77.4632C77.8759 77.8708 77.8053 78.251 77.6642 78.6038C77.531 78.9566 77.3389 79.2623 77.088 79.521C76.845 79.7797 76.5471 79.9836 76.1943 80.1325C75.8494 80.2815 75.4613 80.3559 75.0302 80.3559C74.6382 80.3559 74.2502 80.2658 73.866 80.0855C73.4897 79.8973 73.1879 79.6308 72.9606 79.2858H72.9253V83.037ZM77.0292 77.4632C77.0292 77.1574 76.9822 76.8713 76.8881 76.6048C76.794 76.3304 76.6569 76.0952 76.4766 75.8992C76.3041 75.6954 76.0885 75.5347 75.8298 75.4171C75.5711 75.2995 75.2771 75.2407 74.9479 75.2407C74.6421 75.2407 74.3599 75.2995 74.1012 75.4171C73.8425 75.5268 73.6191 75.6836 73.4309 75.8875C73.2428 76.0834 73.0938 76.3186 72.9841 76.593C72.8822 76.8595 72.8312 77.1496 72.8312 77.4632C72.8312 77.7768 72.8822 78.0707 72.9841 78.3451C73.0938 78.6117 73.2428 78.8429 73.4309 79.0389C73.6191 79.2349 73.8425 79.3917 74.1012 79.5093C74.3599 79.619 74.6421 79.6739 74.9479 79.6739C75.2771 79.6739 75.5711 79.619 75.8298 79.5093C76.0885 79.3917 76.3041 79.2349 76.4766 79.0389C76.6569 78.8351 76.794 78.5999 76.8881 78.3334C76.9822 78.059 77.0292 77.7689 77.0292 77.4632ZM80.3426 80.2148H79.5429V74.7115H82.9531V75.3818H80.3426V80.2148ZM84.9015 74.7115V76.6165H86.0304C86.4381 76.6165 86.783 76.6636 87.0652 76.7576C87.3474 76.8439 87.5748 76.9693 87.7472 77.1339C87.9197 77.2907 88.0451 77.4789 88.1235 77.6984C88.2019 77.9179 88.2411 78.153 88.2411 78.4039C88.2411 78.6548 88.1941 78.89 88.1 79.1095C88.0138 79.329 87.8805 79.521 87.7002 79.6857C87.5199 79.8503 87.2925 79.9796 87.0182 80.0737C86.7516 80.1678 86.4381 80.2148 86.0774 80.2148H84.1019V74.7115H84.9015ZM84.9015 79.5681H85.8893C86.1088 79.5681 86.3126 79.5524 86.5008 79.521C86.6889 79.4818 86.8457 79.4191 86.9711 79.3329C87.1044 79.2388 87.2063 79.1173 87.2769 78.9683C87.3553 78.8194 87.3945 78.6313 87.3945 78.4039C87.3945 78.1766 87.3553 77.9884 87.2769 77.8395C87.1985 77.6905 87.0887 77.5729 86.9476 77.4867C86.8143 77.4005 86.6536 77.3417 86.4655 77.3103C86.2773 77.2711 86.0735 77.2515 85.854 77.2515H84.9015V79.5681ZM89.7581 74.7115V80.2148H88.9584V74.7115H89.7581ZM91.9961 75.9815L91.3728 75.6052C91.4669 75.4014 91.6041 75.2211 91.7844 75.0643C91.9412 74.931 92.1489 74.8095 92.4076 74.6998C92.6663 74.5822 92.9956 74.5234 93.3954 74.5234C93.7482 74.5234 94.05 74.5704 94.3009 74.6645C94.5517 74.7586 94.7555 74.884 94.9123 75.0408C95.0691 75.1897 95.1828 75.3583 95.2533 75.5464C95.3317 75.7267 95.3709 75.9031 95.3709 76.0756C95.3709 76.2559 95.3357 76.4245 95.2651 76.5812C95.1945 76.738 95.0966 76.8752 94.9711 76.9928C94.8457 77.1104 94.6967 77.2045 94.5243 77.275C94.3518 77.3456 94.1676 77.3848 93.9716 77.3926V77.4279C94.1833 77.4279 94.3871 77.4514 94.5831 77.4985C94.7791 77.5455 94.9476 77.62 95.0887 77.7219C95.2377 77.8238 95.3553 77.9531 95.4415 78.1099C95.5277 78.2667 95.5708 78.4549 95.5708 78.6744C95.5708 79.1683 95.3709 79.572 94.9711 79.8856C94.5713 80.1991 94.0265 80.3559 93.3366 80.3559C92.9133 80.3559 92.5644 80.3011 92.29 80.1913C92.0235 80.0737 91.8118 79.9483 91.655 79.815C91.4669 79.6582 91.3297 79.474 91.2435 79.2623L91.8902 78.8625C91.9529 79.0271 92.0549 79.1722 92.196 79.2976C92.3057 79.4074 92.4586 79.5054 92.6546 79.5916C92.8584 79.6778 93.1132 79.7209 93.4189 79.7209C93.8422 79.7209 94.1754 79.6269 94.4184 79.4387C94.6615 79.2506 94.783 78.9997 94.783 78.6861C94.783 78.4274 94.6811 78.2079 94.4772 78.0276C94.2813 77.8395 93.9442 77.7454 93.466 77.7454H92.7604V77.1339H93.3484C93.7011 77.1339 93.999 77.0555 94.2421 76.8987C94.4851 76.7341 94.6066 76.4872 94.6066 76.1579C94.6066 76.0246 94.5831 75.8953 94.536 75.7699C94.489 75.6444 94.4145 75.5347 94.3126 75.4406C94.2185 75.3465 94.0931 75.2721 93.9363 75.2172C93.7795 75.1545 93.5953 75.1231 93.3836 75.1231C93.1014 75.1231 92.8702 75.1701 92.6898 75.2642C92.5095 75.3505 92.3684 75.4484 92.2665 75.5582C92.1411 75.6836 92.0509 75.8247 91.9961 75.9815ZM101.237 75.9698C101.104 75.7581 100.908 75.5856 100.65 75.4524C100.399 75.3113 100.124 75.2407 99.8264 75.2407C99.5049 75.2407 99.2149 75.2995 98.9562 75.4171C98.6975 75.5268 98.4741 75.6836 98.2859 75.8875C98.1056 76.0834 97.9645 76.3186 97.8626 76.593C97.7685 76.8595 97.7215 77.1496 97.7215 77.4632C97.7215 77.7768 97.7685 78.0668 97.8626 78.3334C97.9645 78.5999 98.1056 78.8351 98.2859 79.0389C98.4662 79.2349 98.6857 79.3917 98.9444 79.5093C99.2031 79.619 99.4932 79.6739 99.8146 79.6739C100.167 79.6739 100.465 79.6073 100.708 79.474C100.951 79.3407 101.151 79.1683 101.308 78.9566L101.908 79.4034C101.673 79.6935 101.382 79.9248 101.038 80.0972C100.7 80.2697 100.293 80.3559 99.8146 80.3559C99.3678 80.3559 98.964 80.2854 98.6034 80.1443C98.2428 79.9953 97.9331 79.7915 97.6744 79.5328C97.4236 79.2741 97.2276 78.9683 97.0865 78.6156C96.9454 78.2628 96.8748 77.8787 96.8748 77.4632C96.8748 77.0477 96.9454 76.6636 97.0865 76.3108C97.2276 75.958 97.4236 75.6523 97.6744 75.3936C97.9331 75.1349 98.2428 74.935 98.6034 74.7939C98.964 74.6449 99.3678 74.5704 99.8146 74.5704C100.183 74.5704 100.555 74.6527 100.932 74.8174C101.316 74.9742 101.626 75.2093 101.861 75.5229L101.237 75.9698ZM103.907 76.9693C104.22 76.9693 104.514 76.9928 104.789 77.0398L106.764 74.7115H107.658L105.518 77.2045C106.168 77.4083 106.674 77.7572 107.035 78.251C107.395 78.7371 107.681 79.3917 107.893 80.2148H106.999C106.89 79.7288 106.749 79.325 106.576 79.0036C106.411 78.6744 106.2 78.4117 105.941 78.2158C105.69 78.0119 105.396 77.8708 105.059 77.7924C104.722 77.7062 104.338 77.6592 103.907 77.6513V80.2148H103.107V74.7115H103.907V76.9693ZM115.007 77.4632C115.007 77.8787 114.933 78.2628 114.784 78.6156C114.643 78.9683 114.443 79.2741 114.184 79.5328C113.925 79.7915 113.616 79.9953 113.255 80.1443C112.894 80.2854 112.498 80.3559 112.067 80.3559C111.644 80.3559 111.252 80.2854 110.891 80.1443C110.531 79.9953 110.221 79.7915 109.962 79.5328C109.704 79.2741 109.5 78.9683 109.351 78.6156C109.21 78.2628 109.139 77.8787 109.139 77.4632C109.139 77.0477 109.21 76.6636 109.351 76.3108C109.5 75.958 109.704 75.6523 109.962 75.3936C110.221 75.1349 110.531 74.935 110.891 74.7939C111.252 74.6449 111.644 74.5704 112.067 74.5704C112.498 74.5704 112.894 74.6449 113.255 74.7939C113.616 74.935 113.925 75.1349 114.184 75.3936C114.443 75.6523 114.643 75.958 114.784 76.3108C114.933 76.6636 115.007 77.0477 115.007 77.4632ZM114.16 77.4632C114.16 77.1574 114.109 76.8713 114.008 76.6048C113.913 76.3304 113.776 76.0952 113.596 75.8992C113.416 75.6954 113.196 75.5347 112.937 75.4171C112.679 75.2995 112.389 75.2407 112.067 75.2407C111.746 75.2407 111.456 75.2995 111.197 75.4171C110.946 75.5347 110.731 75.6954 110.55 75.8992C110.37 76.0952 110.229 76.3304 110.127 76.6048C110.033 76.8713 109.986 77.1574 109.986 77.4632C109.986 77.7689 110.033 78.059 110.127 78.3334C110.229 78.5999 110.37 78.8351 110.55 79.0389C110.731 79.2349 110.946 79.3917 111.197 79.5093C111.456 79.619 111.746 79.6739 112.067 79.6739C112.389 79.6739 112.679 79.619 112.937 79.5093C113.196 79.3917 113.416 79.2349 113.596 79.0389C113.776 78.8351 113.913 78.5999 114.008 78.3334C114.109 78.059 114.16 77.7689 114.16 77.4632ZM120.879 80.2148V75.7346L117.504 80.2148H116.681V74.7115H117.504V79.0271L120.879 74.7115H121.702V80.2148H120.879ZM118.021 71.9481L117.445 72.2068C117.508 72.3871 117.586 72.5635 117.68 72.736C117.782 72.9085 117.904 73.0613 118.045 73.1946C118.194 73.32 118.366 73.4219 118.562 73.5003C118.758 73.5787 118.986 73.6179 119.244 73.6179C119.511 73.6179 119.746 73.5748 119.95 73.4886C120.154 73.3945 120.326 73.2808 120.467 73.1476C120.616 73.0065 120.734 72.8536 120.82 72.689C120.914 72.5243 120.988 72.3636 121.043 72.2068L120.467 71.9481C120.357 72.246 120.212 72.493 120.032 72.689C119.852 72.8849 119.589 72.9829 119.244 72.9829C118.915 72.9829 118.656 72.8928 118.468 72.7125C118.28 72.5243 118.131 72.2696 118.021 71.9481ZM127.507 83.037H126.707V74.7115H127.507V75.664H127.542C127.769 75.3034 128.071 75.033 128.447 74.8526C128.831 74.6645 129.219 74.5704 129.611 74.5704C130.043 74.5704 130.431 74.6449 130.776 74.7939C131.128 74.9428 131.426 75.1466 131.669 75.4053C131.92 75.664 132.112 75.9698 132.246 76.3225C132.387 76.6753 132.457 77.0555 132.457 77.4632C132.457 77.8708 132.387 78.251 132.246 78.6038C132.112 78.9566 131.92 79.2623 131.669 79.521C131.426 79.7797 131.128 79.9836 130.776 80.1325C130.431 80.2815 130.043 80.3559 129.611 80.3559C129.219 80.3559 128.831 80.2658 128.447 80.0855C128.071 79.8973 127.769 79.6308 127.542 79.2858H127.507V83.037ZM131.611 77.4632C131.611 77.1574 131.563 76.8713 131.469 76.6048C131.375 76.3304 131.238 76.0952 131.058 75.8992C130.885 75.6954 130.67 75.5347 130.411 75.4171C130.152 75.2995 129.858 75.2407 129.529 75.2407C129.223 75.2407 128.941 75.2995 128.682 75.4171C128.424 75.5268 128.2 75.6836 128.012 75.8875C127.824 76.0834 127.675 76.3186 127.565 76.593C127.463 76.8595 127.413 77.1496 127.413 77.4632C127.413 77.7768 127.463 78.0707 127.565 78.3451C127.675 78.6117 127.824 78.8429 128.012 79.0389C128.2 79.2349 128.424 79.3917 128.682 79.5093C128.941 79.619 129.223 79.6739 129.529 79.6739C129.858 79.6739 130.152 79.619 130.411 79.5093C130.67 79.3917 130.885 79.2349 131.058 79.0389C131.238 78.8351 131.375 78.5999 131.469 78.3334C131.563 78.059 131.611 77.7689 131.611 77.4632ZM138.369 77.0398C138.346 76.5224 138.177 76.0952 137.864 75.7581C137.558 75.4132 137.119 75.2407 136.547 75.2407C136.28 75.2407 136.033 75.2917 135.806 75.3936C135.578 75.4876 135.379 75.6209 135.206 75.7934C135.034 75.958 134.896 76.1501 134.794 76.3696C134.693 76.5812 134.634 76.8047 134.618 77.0398H138.369ZM139.181 77.2985C139.181 77.3534 139.181 77.4122 139.181 77.4749C139.181 77.5377 139.177 77.6043 139.169 77.6748H134.606C134.614 77.9492 134.669 78.2079 134.771 78.4509C134.873 78.694 135.014 78.9056 135.194 79.0859C135.375 79.2662 135.586 79.4113 135.829 79.521C136.072 79.6229 136.335 79.6739 136.617 79.6739C137.033 79.6739 137.389 79.5798 137.687 79.3917C137.993 79.1957 138.224 78.9723 138.381 78.7214L138.981 79.1918C138.651 79.6073 138.287 79.9052 137.887 80.0855C137.495 80.2658 137.072 80.3559 136.617 80.3559C136.21 80.3559 135.829 80.2854 135.477 80.1443C135.132 79.9953 134.834 79.7915 134.583 79.5328C134.332 79.2741 134.132 78.9683 133.983 78.6156C133.842 78.2628 133.771 77.8787 133.771 77.4632C133.771 77.0477 133.842 76.6636 133.983 76.3108C134.124 75.958 134.32 75.6523 134.571 75.3936C134.822 75.1349 135.116 74.935 135.453 74.7939C135.79 74.6449 136.155 74.5704 136.547 74.5704C136.978 74.5704 137.358 74.6449 137.687 74.7939C138.016 74.935 138.291 75.1309 138.51 75.3818C138.73 75.6248 138.895 75.911 139.004 76.2402C139.122 76.5695 139.181 76.9223 139.181 77.2985ZM144.863 75.9698C144.73 75.7581 144.534 75.5856 144.275 75.4524C144.025 75.3113 143.75 75.2407 143.452 75.2407C143.131 75.2407 142.841 75.2995 142.582 75.4171C142.323 75.5268 142.1 75.6836 141.912 75.8875C141.732 76.0834 141.59 76.3186 141.489 76.593C141.395 76.8595 141.347 77.1496 141.347 77.4632C141.347 77.7768 141.395 78.0668 141.489 78.3334C141.59 78.5999 141.732 78.8351 141.912 79.0389C142.092 79.2349 142.312 79.3917 142.57 79.5093C142.829 79.619 143.119 79.6739 143.441 79.6739C143.793 79.6739 144.091 79.6073 144.334 79.474C144.577 79.3407 144.777 79.1683 144.934 78.9566L145.534 79.4034C145.299 79.6935 145.008 79.9248 144.664 80.0972C144.326 80.2697 143.919 80.3559 143.441 80.3559C142.994 80.3559 142.59 80.2854 142.229 80.1443C141.869 79.9953 141.559 79.7915 141.3 79.5328C141.05 79.2741 140.854 78.9683 140.712 78.6156C140.571 78.2628 140.501 77.8787 140.501 77.4632C140.501 77.0477 140.571 76.6636 140.712 76.3108C140.854 75.958 141.05 75.6523 141.3 75.3936C141.559 75.1349 141.869 74.935 142.229 74.7939C142.59 74.6449 142.994 74.5704 143.441 74.5704C143.809 74.5704 144.181 74.6527 144.558 74.8174C144.942 74.9742 145.252 75.2093 145.487 75.5229L144.863 75.9698ZM147.533 80.2148H146.733V74.7115H151.378V80.2148H150.578V75.3818H147.533V80.2148ZM155.345 79.3564H155.369L157.074 74.7115H157.944L155.204 81.6377C155.04 82.061 154.828 82.3981 154.569 82.649C154.318 82.9077 153.954 83.037 153.476 83.037C153.233 83.037 152.994 83.0135 152.758 82.9665L152.841 82.2374C153.029 82.3001 153.225 82.3315 153.429 82.3315C153.703 82.3315 153.919 82.2452 154.075 82.0728C154.232 81.9081 154.369 81.669 154.487 81.3555L154.934 80.2031L152.582 74.7115H153.476L155.345 79.3564ZM163.674 77.5808C163.674 77.275 163.627 76.9967 163.533 76.7459C163.439 76.4872 163.306 76.2637 163.133 76.0756C162.969 75.8875 162.769 75.7424 162.533 75.6405C162.298 75.5386 162.036 75.4876 161.746 75.4876C161.479 75.4876 161.224 75.5308 160.981 75.617C160.738 75.6954 160.523 75.8169 160.335 75.9815C160.146 76.1462 159.997 76.3539 159.888 76.6048C159.778 76.8478 159.723 77.1339 159.723 77.4632C159.723 77.7924 159.77 78.0943 159.864 78.3686C159.966 78.6352 160.103 78.8664 160.276 79.0624C160.456 79.2506 160.672 79.3995 160.922 79.5093C161.173 79.619 161.452 79.6739 161.757 79.6739C162.063 79.6739 162.334 79.619 162.569 79.5093C162.812 79.3995 163.016 79.2506 163.18 79.0624C163.345 78.8664 163.466 78.643 163.545 78.3922C163.631 78.1334 163.674 77.863 163.674 77.5808ZM161.793 74.8056C162.192 74.8056 162.561 74.8722 162.898 75.0055C163.235 75.1388 163.521 75.3269 163.756 75.57C163.999 75.813 164.188 76.107 164.321 76.4519C164.454 76.789 164.521 77.1653 164.521 77.5808C164.521 78.0041 164.446 78.3882 164.297 78.7332C164.148 79.0781 163.949 79.3721 163.698 79.6151C163.447 79.8503 163.153 80.0345 162.816 80.1678C162.479 80.2932 162.122 80.3559 161.746 80.3559C161.307 80.3559 160.911 80.2854 160.558 80.1443C160.213 80.0032 159.919 79.8032 159.676 79.5445C159.433 79.278 159.245 78.9605 159.112 78.5921C158.978 78.2158 158.912 77.7964 158.912 77.3338C158.912 77.1065 158.916 76.887 158.923 76.6753C158.939 76.4637 158.955 76.2559 158.97 76.0521C159.096 74.6645 159.46 73.6258 160.064 72.9359C160.676 72.246 161.597 71.9011 162.827 71.9011H164.415V72.5831H162.804C162.232 72.5831 161.757 72.6615 161.381 72.8183C161.013 72.9751 160.711 73.1985 160.476 73.4886C160.24 73.7786 160.06 74.1275 159.935 74.5351C159.817 74.9428 159.727 75.3936 159.664 75.8875C159.868 75.5582 160.158 75.2956 160.534 75.0996C160.911 74.9036 161.33 74.8056 161.793 74.8056ZM169.973 80.2148L168.15 75.6758L166.245 80.2148H165.41L167.821 74.7115H168.526L170.784 80.2148H169.973ZM176.229 75.7346L172.855 80.2148H172.031V74.7115H172.855V79.0271L176.229 74.7115H177.053V80.2148H176.229V75.7346ZM179.87 76.9693C180.184 76.9693 180.478 76.9928 180.752 77.0398L182.728 74.7115H183.622L181.481 77.2045C182.132 77.4083 182.638 77.7572 182.998 78.251C183.359 78.7371 183.645 79.3917 183.857 80.2148H182.963C182.853 79.7288 182.712 79.325 182.54 79.0036C182.375 78.6744 182.163 78.4117 181.905 78.2158C181.654 78.0119 181.36 77.8708 181.023 77.7924C180.686 77.7062 180.302 77.6592 179.87 77.6513V80.2148H179.071V74.7115H179.87V76.9693ZM189.654 75.7346L186.279 80.2148H185.456V74.7115H186.279V79.0271L189.654 74.7115H190.477V80.2148H189.654V75.7346Z" fill="#0E888D"/>
<path d="M58.168 52.1232V40.7952H60.888V49.8192H65.208V40.7952H67.928V49.8192H69.144V54.3472H66.904V52.1232H58.168ZM73.4829 48.3472L78.1869 40.7952H81.2749V52.1232H78.5549V44.6672H78.5069L73.7869 52.1232H70.7149V40.7952H73.4349V48.3472H73.4829ZM91.3335 40.7632C92.1548 40.8805 92.9122 41.0992 93.6055 41.4192C94.2988 41.7285 94.8962 42.1339 95.3975 42.6352C95.8988 43.1259 96.2882 43.6965 96.5655 44.3472C96.8535 44.9872 96.9975 45.6912 96.9975 46.4592C96.9975 47.2272 96.8535 47.9365 96.5655 48.5872C96.2882 49.2379 95.8988 49.8139 95.3975 50.3152C94.8962 50.8059 94.2988 51.2165 93.6055 51.5472C92.9122 51.8672 92.1548 52.0805 91.3335 52.1872V53.2592H88.7735V52.1872C87.9415 52.0805 87.1788 51.8672 86.4855 51.5472C85.7922 51.2272 85.1895 50.8219 84.6775 50.3312C84.1762 49.8299 83.7815 49.2539 83.4935 48.6032C83.2162 47.9419 83.0775 47.2272 83.0775 46.4592C83.0775 45.6912 83.2162 44.9819 83.4935 44.3312C83.7815 43.6805 84.1762 43.1099 84.6775 42.6192C85.1895 42.1285 85.7922 41.7232 86.4855 41.4032C87.1788 41.0832 87.9415 40.8699 88.7735 40.7632V39.7712H91.3335V40.7632ZM86.0055 46.4592C86.0055 47.2485 86.2348 47.9365 86.6935 48.5232C87.1522 49.0992 87.8455 49.4832 88.7735 49.6752V43.2592C88.3042 43.3552 87.8988 43.5045 87.5575 43.7072C87.2162 43.8992 86.9282 44.1339 86.6935 44.4112C86.4588 44.6885 86.2828 45.0032 86.1655 45.3552C86.0588 45.6965 86.0055 46.0645 86.0055 46.4592ZM94.0695 46.4592C94.0695 45.6805 93.8402 45.0032 93.3815 44.4272C92.9335 43.8512 92.2508 43.4619 91.3335 43.2592V49.6592C92.2508 49.4672 92.9335 49.0832 93.3815 48.5072C93.8402 47.9205 94.0695 47.2379 94.0695 46.4592ZM107.401 44.2832C107.401 44.9445 107.278 45.5045 107.033 45.9632C106.787 46.4112 106.457 46.7739 106.041 47.0512C105.625 47.3285 105.145 47.5312 104.601 47.6592C104.057 47.7872 103.491 47.8512 102.905 47.8512H101.545V52.1232H98.8086V40.7952H102.969C103.587 40.7952 104.163 40.8592 104.697 40.9872C105.241 41.1045 105.71 41.3019 106.105 41.5792C106.51 41.8459 106.825 42.2032 107.049 42.6512C107.283 43.0885 107.401 43.6325 107.401 44.2832ZM104.665 44.2992C104.665 44.0325 104.611 43.8139 104.505 43.6432C104.398 43.4725 104.254 43.3392 104.073 43.2432C103.891 43.1472 103.683 43.0832 103.449 43.0512C103.225 43.0192 102.99 43.0032 102.745 43.0032H101.545V45.6752H102.697C102.953 45.6752 103.198 45.6539 103.433 45.6112C103.667 45.5685 103.875 45.4939 104.057 45.3872C104.249 45.2805 104.398 45.1419 104.505 44.9712C104.611 44.7899 104.665 44.5659 104.665 44.2992ZM120.851 46.4112C120.851 47.3072 120.696 48.1285 120.387 48.8752C120.078 49.6112 119.646 50.2459 119.091 50.7792C118.547 51.3019 117.896 51.7072 117.139 51.9952C116.382 52.2832 115.56 52.4272 114.675 52.4272C113.79 52.4272 112.968 52.2832 112.211 51.9952C111.464 51.7072 110.814 51.3019 110.259 50.7792C109.715 50.2459 109.288 49.6112 108.979 48.8752C108.67 48.1285 108.515 47.3072 108.515 46.4112C108.515 45.5045 108.67 44.6885 108.979 43.9632C109.288 43.2272 109.715 42.6032 110.259 42.0912C110.814 41.5792 111.464 41.1845 112.211 40.9072C112.968 40.6299 113.79 40.4912 114.675 40.4912C115.56 40.4912 116.382 40.6299 117.139 40.9072C117.896 41.1845 118.547 41.5792 119.091 42.0912C119.646 42.6032 120.078 43.2272 120.387 43.9632C120.696 44.6885 120.851 45.5045 120.851 46.4112ZM117.923 46.4112C117.923 45.9205 117.843 45.4619 117.683 45.0352C117.523 44.6085 117.299 44.2459 117.011 43.9472C116.734 43.6379 116.392 43.3979 115.987 43.2272C115.592 43.0459 115.155 42.9552 114.675 42.9552C114.195 42.9552 113.758 43.0459 113.363 43.2272C112.968 43.3979 112.627 43.6379 112.339 43.9472C112.051 44.2459 111.827 44.6085 111.667 45.0352C111.518 45.4619 111.443 45.9205 111.443 46.4112C111.443 46.9232 111.523 47.3979 111.683 47.8352C111.843 48.2619 112.062 48.6299 112.339 48.9392C112.627 49.2485 112.968 49.4939 113.363 49.6752C113.758 49.8459 114.195 49.9312 114.675 49.9312C115.155 49.9312 115.592 49.8459 115.987 49.6752C116.382 49.4939 116.723 49.2485 117.011 48.9392C117.299 48.6299 117.523 48.2619 117.683 47.8352C117.843 47.3979 117.923 46.9232 117.923 46.4112ZM131.484 48.8272C131.484 49.4459 131.362 49.9685 131.116 50.3952C130.871 50.8112 130.546 51.1472 130.14 51.4032C129.735 51.6592 129.271 51.8459 128.748 51.9632C128.236 52.0699 127.708 52.1232 127.164 52.1232H122.652V40.7952H127.164C127.602 40.7952 128.05 40.8432 128.508 40.9392C128.967 41.0245 129.383 41.1792 129.756 41.4032C130.13 41.6165 130.434 41.9099 130.668 42.2832C130.903 42.6565 131.02 43.1312 131.02 43.7072C131.02 44.3365 130.85 44.8592 130.508 45.2752C130.167 45.6805 129.719 45.9739 129.164 46.1552V46.1872C129.484 46.2405 129.783 46.3419 130.06 46.4912C130.348 46.6299 130.594 46.8112 130.796 47.0352C131.01 47.2592 131.175 47.5205 131.292 47.8192C131.42 48.1179 131.484 48.4539 131.484 48.8272ZM128.38 44.0752C128.38 43.6912 128.231 43.4139 127.932 43.2432C127.644 43.0619 127.212 42.9712 126.636 42.9712H125.292V45.3072H126.764C127.276 45.3072 127.671 45.2059 127.948 45.0032C128.236 44.7899 128.38 44.4805 128.38 44.0752ZM128.748 48.5712C128.748 48.1019 128.572 47.7765 128.22 47.5952C127.868 47.4139 127.399 47.3232 126.812 47.3232H125.292V49.9152H126.828C127.042 49.9152 127.26 49.8992 127.484 49.8672C127.719 49.8245 127.927 49.7552 128.108 49.6592C128.3 49.5632 128.455 49.4299 128.572 49.2592C128.69 49.0779 128.748 48.8485 128.748 48.5712ZM145.101 46.4112C145.101 47.3072 144.946 48.1285 144.637 48.8752C144.328 49.6112 143.896 50.2459 143.341 50.7792C142.797 51.3019 142.146 51.7072 141.389 51.9952C140.632 52.2832 139.81 52.4272 138.925 52.4272C138.04 52.4272 137.218 52.2832 136.461 51.9952C135.714 51.7072 135.064 51.3019 134.509 50.7792C133.965 50.2459 133.538 49.6112 133.229 48.8752C132.92 48.1285 132.765 47.3072 132.765 46.4112C132.765 45.5045 132.92 44.6885 133.229 43.9632C133.538 43.2272 133.965 42.6032 134.509 42.0912C135.064 41.5792 135.714 41.1845 136.461 40.9072C137.218 40.6299 138.04 40.4912 138.925 40.4912C139.81 40.4912 140.632 40.6299 141.389 40.9072C142.146 41.1845 142.797 41.5792 143.341 42.0912C143.896 42.6032 144.328 43.2272 144.637 43.9632C144.946 44.6885 145.101 45.5045 145.101 46.4112ZM142.173 46.4112C142.173 45.9205 142.093 45.4619 141.933 45.0352C141.773 44.6085 141.549 44.2459 141.261 43.9472C140.984 43.6379 140.642 43.3979 140.237 43.2272C139.842 43.0459 139.405 42.9552 138.925 42.9552C138.445 42.9552 138.008 43.0459 137.613 43.2272C137.218 43.3979 136.877 43.6379 136.589 43.9472C136.301 44.2459 136.077 44.6085 135.917 45.0352C135.768 45.4619 135.693 45.9205 135.693 46.4112C135.693 46.9232 135.773 47.3979 135.933 47.8352C136.093 48.2619 136.312 48.6299 136.589 48.9392C136.877 49.2485 137.218 49.4939 137.613 49.6752C138.008 49.8459 138.445 49.9312 138.925 49.9312C139.405 49.9312 139.842 49.8459 140.237 49.6752C140.632 49.4939 140.973 49.2485 141.261 48.9392C141.549 48.6299 141.773 48.2619 141.933 47.8352C142.093 47.3979 142.173 46.9232 142.173 46.4112ZM154.198 40.7952H157.43V52.1232H154.71L154.726 44.7152H154.678L150.118 52.1232H146.902V40.7952H149.622L149.606 48.1872H149.654L154.198 40.7952ZM150.406 37.3552C150.566 37.6859 150.812 37.9579 151.142 38.1712C151.473 38.3739 151.814 38.4752 152.166 38.4752C152.518 38.4752 152.86 38.3739 153.19 38.1712C153.521 37.9579 153.766 37.6859 153.926 37.3552L155.334 38.1232C155.238 38.3685 155.084 38.6032 154.87 38.8272C154.668 39.0405 154.428 39.2325 154.15 39.4032C153.873 39.5632 153.564 39.6912 153.222 39.7872C152.881 39.8832 152.529 39.9312 152.166 39.9312C151.793 39.9312 151.436 39.8832 151.094 39.7872C150.764 39.6912 150.46 39.5632 150.182 39.4032C149.905 39.2325 149.66 39.0405 149.446 38.8272C149.244 38.6032 149.094 38.3685 148.998 38.1232L150.406 37.3552ZM172.354 44.2832C172.354 44.9445 172.231 45.5045 171.986 45.9632C171.74 46.4112 171.41 46.7739 170.994 47.0512C170.578 47.3285 170.098 47.5312 169.554 47.6592C169.01 47.7872 168.444 47.8512 167.858 47.8512H166.498V52.1232H163.762V40.7952H167.922C168.54 40.7952 169.116 40.8592 169.65 40.9872C170.194 41.1045 170.663 41.3019 171.058 41.5792C171.463 41.8459 171.778 42.2032 172.002 42.6512C172.236 43.0885 172.354 43.6325 172.354 44.2832ZM169.618 44.2992C169.618 44.0325 169.564 43.8139 169.458 43.6432C169.351 43.4725 169.207 43.3392 169.026 43.2432C168.844 43.1472 168.636 43.0832 168.402 43.0512C168.178 43.0192 167.943 43.0032 167.698 43.0032H166.498V45.6752H167.65C167.906 45.6752 168.151 45.6539 168.386 45.6112C168.62 45.5685 168.828 45.4939 169.01 45.3872C169.202 45.2805 169.351 45.1419 169.458 44.9712C169.564 44.7899 169.618 44.5659 169.618 44.2992ZM173.996 52.1232V40.7952H181.612V43.1152H176.636V45.2432H181.34V47.4352H176.636V49.7872H181.9V52.1232H173.996ZM183.715 52.1232V40.7952H191.331V43.1152H186.355V45.2432H191.059V47.4352H186.355V49.7872H191.619V52.1232H183.715ZM203.402 50.5552C202.9 51.1312 202.282 51.5899 201.546 51.9312C200.81 52.2619 199.962 52.4272 199.002 52.4272C198.127 52.4272 197.316 52.2832 196.57 51.9952C195.834 51.7072 195.194 51.3019 194.65 50.7792C194.106 50.2459 193.679 49.6112 193.37 48.8752C193.06 48.1392 192.906 47.3285 192.906 46.4432C192.906 45.5365 193.06 44.7152 193.37 43.9792C193.69 43.2432 194.127 42.6192 194.682 42.1072C195.236 41.5845 195.887 41.1845 196.634 40.9072C197.38 40.6299 198.186 40.4912 199.05 40.4912C199.85 40.4912 200.634 40.6352 201.402 40.9232C202.18 41.2005 202.81 41.6112 203.29 42.1552L201.434 44.0112C201.178 43.6592 200.842 43.3979 200.426 43.2272C200.01 43.0565 199.583 42.9712 199.146 42.9712C198.666 42.9712 198.223 43.0619 197.818 43.2432C197.423 43.4139 197.082 43.6539 196.794 43.9632C196.506 44.2725 196.282 44.6405 196.122 45.0672C195.962 45.4832 195.882 45.9419 195.882 46.4432C195.882 46.9552 195.962 47.4245 196.122 47.8512C196.282 48.2779 196.5 48.6459 196.778 48.9552C197.066 49.2539 197.407 49.4885 197.802 49.6592C198.196 49.8299 198.628 49.9152 199.098 49.9152C199.642 49.9152 200.116 49.8085 200.522 49.5952C200.927 49.3819 201.252 49.1045 201.498 48.7632L203.402 50.5552ZM209.422 43.1312V52.1232H206.686V43.1312H203.486V40.7952H212.622V43.1312H209.422ZM222.463 44.2832C222.463 44.9445 222.34 45.5045 222.095 45.9632C221.85 46.4112 221.519 46.7739 221.103 47.0512C220.687 47.3285 220.207 47.5312 219.663 47.6592C219.119 47.7872 218.554 47.8512 217.967 47.8512H216.607V52.1232H213.871V40.7952H218.031C218.65 40.7952 219.226 40.8592 219.759 40.9872C220.303 41.1045 220.772 41.3019 221.167 41.5792C221.572 41.8459 221.887 42.2032 222.111 42.6512C222.346 43.0885 222.463 43.6325 222.463 44.2832ZM219.727 44.2992C219.727 44.0325 219.674 43.8139 219.567 43.6432C219.46 43.4725 219.316 43.3392 219.135 43.2432C218.954 43.1472 218.746 43.0832 218.511 43.0512C218.287 43.0192 218.052 43.0032 217.807 43.0032H216.607V45.6752H217.759C218.015 45.6752 218.26 45.6539 218.495 45.6112C218.73 45.5685 218.938 45.4939 219.119 45.3872C219.311 45.2805 219.46 45.1419 219.567 44.9712C219.674 44.7899 219.727 44.5659 219.727 44.2992ZM69.976 62.4112C69.976 63.3072 69.8213 64.1285 69.512 64.8752C69.2027 65.6112 68.7707 66.2459 68.216 66.7792C67.672 67.3019 67.0213 67.7072 66.264 67.9952C65.5067 68.2832 64.6853 68.4272 63.8 68.4272C62.9147 68.4272 62.0933 68.2832 61.336 67.9952C60.5893 67.7072 59.9387 67.3019 59.384 66.7792C58.84 66.2459 58.4133 65.6112 58.104 64.8752C57.7947 64.1285 57.64 63.3072 57.64 62.4112C57.64 61.5045 57.7947 60.6885 58.104 59.9632C58.4133 59.2272 58.84 58.6032 59.384 58.0912C59.9387 57.5792 60.5893 57.1845 61.336 56.9072C62.0933 56.6299 62.9147 56.4912 63.8 56.4912C64.6853 56.4912 65.5067 56.6299 66.264 56.9072C67.0213 57.1845 67.672 57.5792 68.216 58.0912C68.7707 58.6032 69.2027 59.2272 69.512 59.9632C69.8213 60.6885 69.976 61.5045 69.976 62.4112ZM67.048 62.4112C67.048 61.9205 66.968 61.4619 66.808 61.0352C66.648 60.6085 66.424 60.2459 66.136 59.9472C65.8587 59.6379 65.5173 59.3979 65.112 59.2272C64.7173 59.0459 64.28 58.9552 63.8 58.9552C63.32 58.9552 62.8827 59.0459 62.488 59.2272C62.0933 59.3979 61.752 59.6379 61.464 59.9472C61.176 60.2459 60.952 60.6085 60.792 61.0352C60.6427 61.4619 60.568 61.9205 60.568 62.4112C60.568 62.9232 60.648 63.3979 60.808 63.8352C60.968 64.2619 61.1867 64.6299 61.464 64.9392C61.752 65.2485 62.0933 65.4939 62.488 65.6752C62.8827 65.8459 63.32 65.9312 63.8 65.9312C64.28 65.9312 64.7173 65.8459 65.112 65.6752C65.5067 65.4939 65.848 65.2485 66.136 64.9392C66.424 64.6299 66.648 64.2619 66.808 63.8352C66.968 63.3979 67.048 62.9232 67.048 62.4112ZM76.6254 59.1312V68.1232H73.8894V59.1312H70.6894V56.7952H79.8254V59.1312H76.6254ZM87.9062 68.1232L85.4263 64.1232L83.0423 68.1232H79.7782L83.7463 62.1392L80.0983 56.7952H83.3943L85.5063 60.3152L87.5863 56.7952H90.7703L87.1863 62.1392L91.2823 68.1232H87.9062ZM104.132 62.4112C104.132 63.3072 103.978 64.1285 103.668 64.8752C103.359 65.6112 102.927 66.2459 102.372 66.7792C101.828 67.3019 101.178 67.7072 100.42 67.9952C99.6629 68.2832 98.8416 68.4272 97.9563 68.4272C97.0709 68.4272 96.2496 68.2832 95.4923 67.9952C94.7456 67.7072 94.0949 67.3019 93.5403 66.7792C92.9963 66.2459 92.5696 65.6112 92.2603 64.8752C91.9509 64.1285 91.7963 63.3072 91.7963 62.4112C91.7963 61.5045 91.9509 60.6885 92.2603 59.9632C92.5696 59.2272 92.9963 58.6032 93.5403 58.0912C94.0949 57.5792 94.7456 57.1845 95.4923 56.9072C96.2496 56.6299 97.0709 56.4912 97.9563 56.4912C98.8416 56.4912 99.6629 56.6299 100.42 56.9072C101.178 57.1845 101.828 57.5792 102.372 58.0912C102.927 58.6032 103.359 59.2272 103.668 59.9632C103.978 60.6885 104.132 61.5045 104.132 62.4112ZM101.204 62.4112C101.204 61.9205 101.124 61.4619 100.964 61.0352C100.804 60.6085 100.58 60.2459 100.292 59.9472C100.015 59.6379 99.6736 59.3979 99.2683 59.2272C98.8736 59.0459 98.4363 58.9552 97.9563 58.9552C97.4763 58.9552 97.0389 59.0459 96.6443 59.2272C96.2496 59.3979 95.9083 59.6379 95.6203 59.9472C95.3323 60.2459 95.1083 60.6085 94.9483 61.0352C94.7989 61.4619 94.7243 61.9205 94.7243 62.4112C94.7243 62.9232 94.8043 63.3979 94.9643 63.8352C95.1243 64.2619 95.3429 64.6299 95.6203 64.9392C95.9083 65.2485 96.2496 65.4939 96.6443 65.6752C97.0389 65.8459 97.4763 65.9312 97.9563 65.9312C98.4363 65.9312 98.8736 65.8459 99.2683 65.6752C99.6629 65.4939 100.004 65.2485 100.292 64.9392C100.58 64.6299 100.804 64.2619 100.964 63.8352C101.124 63.3979 101.204 62.9232 101.204 62.4112ZM106.926 68.1232V70.3472H104.686V65.8192H106.638L110.062 56.7952H112.718L116.11 65.8192H118.126V70.3472H115.886V68.1232H106.926ZM109.454 65.8192H113.198L111.326 59.8672L109.454 65.8192ZM131.023 62.4112C131.023 63.3072 130.868 64.1285 130.559 64.8752C130.25 65.6112 129.818 66.2459 129.263 66.7792C128.719 67.3019 128.068 67.7072 127.311 67.9952C126.554 68.2832 125.732 68.4272 124.847 68.4272C123.962 68.4272 123.14 68.2832 122.383 67.9952C121.636 67.7072 120.986 67.3019 120.431 66.7792C119.887 66.2459 119.46 65.6112 119.151 64.8752C118.842 64.1285 118.687 63.3072 118.687 62.4112C118.687 61.5045 118.842 60.6885 119.151 59.9632C119.46 59.2272 119.887 58.6032 120.431 58.0912C120.986 57.5792 121.636 57.1845 122.383 56.9072C123.14 56.6299 123.962 56.4912 124.847 56.4912C125.732 56.4912 126.554 56.6299 127.311 56.9072C128.068 57.1845 128.719 57.5792 129.263 58.0912C129.818 58.6032 130.25 59.2272 130.559 59.9632C130.868 60.6885 131.023 61.5045 131.023 62.4112ZM128.095 62.4112C128.095 61.9205 128.015 61.4619 127.855 61.0352C127.695 60.6085 127.471 60.2459 127.183 59.9472C126.906 59.6379 126.564 59.3979 126.159 59.2272C125.764 59.0459 125.327 58.9552 124.847 58.9552C124.367 58.9552 123.93 59.0459 123.535 59.2272C123.14 59.3979 122.799 59.6379 122.511 59.9472C122.223 60.2459 121.999 60.6085 121.839 61.0352C121.69 61.4619 121.615 61.9205 121.615 62.4112C121.615 62.9232 121.695 63.3979 121.855 63.8352C122.015 64.2619 122.234 64.6299 122.511 64.9392C122.799 65.2485 123.14 65.4939 123.535 65.6752C123.93 65.8459 124.367 65.9312 124.847 65.9312C125.327 65.9312 125.764 65.8459 126.159 65.6752C126.554 65.4939 126.895 65.2485 127.183 64.9392C127.471 64.6299 127.695 64.2619 127.855 63.8352C128.015 63.3979 128.095 62.9232 128.095 62.4112ZM141.656 64.8272C141.656 65.4459 141.534 65.9685 141.288 66.3952C141.043 66.8112 140.718 67.1472 140.312 67.4032C139.907 67.6592 139.443 67.8459 138.92 67.9632C138.408 68.0699 137.88 68.1232 137.336 68.1232H132.824V56.7952H137.336C137.774 56.7952 138.222 56.8432 138.68 56.9392C139.139 57.0245 139.555 57.1792 139.928 57.4032C140.302 57.6165 140.606 57.9099 140.84 58.2832C141.075 58.6565 141.192 59.1312 141.192 59.7072C141.192 60.3365 141.022 60.8592 140.68 61.2752C140.339 61.6805 139.891 61.9739 139.336 62.1552V62.1872C139.656 62.2405 139.955 62.3419 140.232 62.4912C140.52 62.6299 140.766 62.8112 140.968 63.0352C141.182 63.2592 141.347 63.5205 141.464 63.8192C141.592 64.1179 141.656 64.4539 141.656 64.8272ZM138.552 60.0752C138.552 59.6912 138.403 59.4139 138.104 59.2432C137.816 59.0619 137.384 58.9712 136.808 58.9712H135.464V61.3072H136.936C137.448 61.3072 137.843 61.2059 138.12 61.0032C138.408 60.7899 138.552 60.4805 138.552 60.0752ZM138.92 64.5712C138.92 64.1019 138.744 63.7765 138.392 63.5952C138.04 63.4139 137.571 63.3232 136.984 63.3232H135.464V65.9152H137C137.214 65.9152 137.432 65.8992 137.656 65.8672C137.891 65.8245 138.099 65.7552 138.28 65.6592C138.472 65.5632 138.627 65.4299 138.744 65.2592C138.862 65.0779 138.92 64.8485 138.92 64.5712ZM157.737 68.1232L157.801 60.1072H157.753L154.809 68.1232H152.889L150.025 60.1072H149.977L150.041 68.1232H147.465V56.7952H151.353L153.929 64.0592H153.993L156.457 56.7952H160.409V68.1232H157.737ZM172.346 56.7952V68.1232H169.626V59.0992H165.466V68.1232H162.746V56.7952H172.346ZM183.276 60.2832C183.276 60.9445 183.153 61.5045 182.908 61.9632C182.662 62.4112 182.332 62.7739 181.916 63.0512C181.5 63.3285 181.02 63.5312 180.476 63.6592C179.932 63.7872 179.366 63.8512 178.78 63.8512H177.42V68.1232H174.684V56.7952H178.844C179.462 56.7952 180.038 56.8592 180.572 56.9872C181.116 57.1045 181.585 57.3019 181.98 57.5792C182.385 57.8459 182.7 58.2032 182.924 58.6512C183.158 59.0885 183.276 59.6325 183.276 60.2832ZM180.54 60.2992C180.54 60.0325 180.486 59.8139 180.38 59.6432C180.273 59.4725 180.129 59.3392 179.948 59.2432C179.766 59.1472 179.558 59.0832 179.324 59.0512C179.1 59.0192 178.865 59.0032 178.62 59.0032H177.42V61.6752H178.572C178.828 61.6752 179.073 61.6539 179.308 61.6112C179.542 61.5685 179.75 61.4939 179.932 61.3872C180.124 61.2805 180.273 61.1419 180.38 60.9712C180.486 60.7899 180.54 60.5659 180.54 60.2992ZM183.75 66.5872L185.462 64.8752C185.835 65.2699 186.251 65.5419 186.71 65.6912C187.179 65.8405 187.686 65.9152 188.23 65.9152C188.539 65.9152 188.859 65.8725 189.19 65.7872C189.521 65.6912 189.83 65.5472 190.118 65.3552C190.406 65.1632 190.662 64.9125 190.886 64.6032C191.11 64.2832 191.27 63.8992 191.366 63.4512H185.99V61.3232H191.334C191.227 60.9179 191.067 60.5712 190.854 60.2832C190.641 59.9845 190.395 59.7392 190.118 59.5472C189.841 59.3552 189.537 59.2112 189.206 59.1152C188.886 59.0192 188.561 58.9712 188.23 58.9712C187.622 58.9712 187.099 59.0779 186.662 59.2912C186.235 59.4939 185.899 59.7819 185.654 60.1552L184.038 58.3152C184.475 57.7499 185.073 57.3072 185.83 56.9872C186.587 56.6672 187.462 56.5072 188.454 56.5072C189.361 56.5072 190.171 56.6565 190.886 56.9552C191.611 57.2539 192.225 57.6699 192.726 58.2032C193.238 58.7259 193.627 59.3499 193.894 60.0752C194.161 60.8005 194.294 61.5952 194.294 62.4592C194.294 63.3232 194.145 64.1179 193.846 64.8432C193.547 65.5685 193.126 66.1979 192.582 66.7312C192.049 67.2539 191.403 67.6645 190.646 67.9632C189.889 68.2619 189.051 68.4112 188.134 68.4112C187.11 68.4112 186.23 68.2512 185.494 67.9312C184.758 67.6112 184.177 67.1632 183.75 66.5872ZM200.954 59.1312V68.1232H198.218V59.1312H195.018V56.7952H204.154V59.1312H200.954ZM212.554 68.1232V63.3872H208.138V68.1232H205.402V56.7952H208.138V61.0832H212.554V56.7952H215.29V68.1232H212.554Z" fill="#0E888D"/>
</svg>
