<svg preserveAspectRatio="none" width="100%" height="100%" overflow="visible" style="display: block;" viewBox="0 0 52 52" fill="none" xmlns="http://www.w3.org/2000/svg">
<g id="SVG">
<path id="Vector" d="M26 52C40.3594 52 52 40.3594 52 26C52 11.6406 40.3594 0 26 0C11.6406 0 0 11.6406 0 26C0 40.3594 11.6406 52 26 52Z" fill="var(--fill-0, #0E888D)"/>
<path id="Vector_2" fill-rule="evenodd" clip-rule="evenodd" d="M24.8 16.4C20.1608 16.4 16.4 20.1608 16.4 24.8C16.4 29.4392 20.1608 33.2 24.8 33.2C27.0631 33.2 29.1172 32.305 30.6277 30.8497C30.6593 30.8086 30.6939 30.7691 30.7315 30.7315C30.7691 30.6939 30.8086 30.6593 30.8497 30.6277C32.305 29.1172 33.2 27.0631 33.2 24.8C33.2 20.1608 29.4392 16.4 24.8 16.4ZM33.2383 31.5412C34.7162 29.6936 35.6 27.35 35.6 24.8C35.6 18.8353 30.7647 14 24.8 14C18.8353 14 14 18.8353 14 24.8C14 30.7647 18.8353 35.6 24.8 35.6C27.35 35.6 29.6936 34.7162 31.5412 33.2383L35.9515 37.6485C36.4201 38.1172 37.1799 38.1172 37.6485 37.6485C38.1172 37.1799 38.1172 36.4201 37.6485 35.9515L33.2383 31.5412Z" fill="var(--fill-0, white)"/>
</g>
</svg>
