<svg preserveAspectRatio="none" width="100%" height="100%" overflow="visible" style="display: block;" viewBox="0 0 58.3336 58.3342" fill="none" xmlns="http://www.w3.org/2000/svg">
<g id="Activity">
<path id="Vector" d="M39.2292 5.19254C39.1125 5.92171 39.0542 6.65087 39.0542 7.38004C39.0542 13.9425 44.3625 19.248 50.8958 19.248C51.625 19.248 52.325 19.1634 53.0542 19.0467V42.5813C53.0542 52.4717 47.2208 58.3342 37.3042 58.3342H15.7529C5.83333 58.3342 0 52.4717 0 42.5813V21.0009C0 11.0842 5.83333 5.19254 15.7529 5.19254H39.2292ZM39.8154 22.9259C39.025 22.8384 38.2404 23.1884 37.7708 23.83L30.7154 32.9592L22.6333 26.6009C22.1375 26.2217 21.5542 26.073 20.9708 26.1342C20.3904 26.2217 19.8654 26.5396 19.5125 27.0063L10.8821 38.2384L10.7042 38.5009C10.2083 39.4313 10.4417 40.6271 11.3167 41.2717C11.725 41.5342 12.1625 41.7092 12.6583 41.7092C13.3321 41.7384 13.9708 41.3855 14.3792 40.8342L21.7 31.4105L30.0125 37.655L30.275 37.8271C31.2083 38.323 32.375 38.0925 33.0458 37.2146L41.475 26.3384L41.3583 26.3967C41.825 25.755 41.9125 24.9384 41.5917 24.2092C41.2738 23.48 40.5708 22.9842 39.8154 22.9259ZM51.3045 0C55.1836 0 58.3336 3.15 58.3336 7.02917C58.3336 10.9083 55.1836 14.0583 51.3045 14.0583C47.4253 14.0583 44.2753 10.9083 44.2753 7.02917C44.2753 3.15 47.4253 0 51.3045 0Z" fill="var(--fill-0, #0E888D)"/>
</g>
</svg>
