<svg preserveAspectRatio="none" width="100%" height="100%" overflow="visible" style="display: block;" viewBox="0 0 70 70" fill="none" xmlns="http://www.w3.org/2000/svg">
<g id="Category - Iconly Pro">
<path id="Vector" fill-rule="evenodd" clip-rule="evenodd" d="M6.70991 26.9392C6.70991 29.7007 8.94848 31.9392 11.7099 31.9392H25.0431C27.8045 31.9392 30.0431 29.7007 30.0431 26.9392V13.6059C30.0431 10.8444 27.8045 8.60586 25.0431 8.60586H11.7099C8.94849 8.60586 6.70991 10.8444 6.70991 13.6059V26.9392Z" fill="var(--fill-0, #0E888D)"/>
<path id="Vector_2" fill-rule="evenodd" clip-rule="evenodd" d="M63.4538 16.8507C64.1687 14.1833 62.5859 11.4415 59.9185 10.7267L47.0384 7.27499C44.3709 6.56012 41.629 8.14327 40.9144 10.8109L37.4644 23.691C36.7499 26.3583 38.333 29.0998 41.0003 29.8144L53.8787 33.2644C56.5459 33.9789 59.2873 32.3962 60.0021 29.7291L63.4538 16.8507Z" fill="var(--fill-0, #0E888D)"/>
<path id="Vector_3" fill-rule="evenodd" clip-rule="evenodd" d="M6.70991 59.0197C6.70991 61.7811 8.94848 64.0197 11.7099 64.0197H25.0431C27.8045 64.0197 30.0431 61.7811 30.0431 59.0197V45.6863C30.0431 42.9249 27.8045 40.6863 25.0431 40.6863H11.7099C8.94849 40.6863 6.70991 42.9249 6.70991 45.6863V59.0197Z" fill="var(--fill-0, #0E888D)"/>
<path id="Vector_4" fill-rule="evenodd" clip-rule="evenodd" d="M38.7931 59.0197C38.7931 61.7811 41.0317 64.0197 43.7931 64.0197H57.1265C59.8879 64.0197 62.1265 61.7811 62.1265 59.0197V45.6863C62.1265 42.9249 59.8879 40.6863 57.1265 40.6863H43.7931C41.0317 40.6863 38.7931 42.9249 38.7931 45.6863V59.0197Z" fill="var(--fill-0, #0E888D)"/>
</g>
</svg>
