<svg preserveAspectRatio="none" width="100%" height="100%" overflow="visible" style="display: block;" viewBox="0 0 70 70" fill="none" xmlns="http://www.w3.org/2000/svg">
<g id="3 user - Iconly Pro" clip-path="url(#clip0_0_4)">
<path id="Vector" fill-rule="evenodd" clip-rule="evenodd" d="M54.6143 35.8995C51.2893 35.8995 48.1685 36.5703 45.5435 37.7078C54.731 40.362 61.2351 46.7203 61.4101 54.1578C66.1935 53.5453 71.356 51.737 71.356 46.8078C71.356 40.887 63.6851 35.8995 54.6143 35.8995Z" fill="var(--fill-0, #0E888D)"/>
<path id="Vector_2" fill-rule="evenodd" clip-rule="evenodd" d="M54.5268 31.6998H54.5851C60.7976 31.6998 65.8726 26.6247 65.8726 20.4413C65.8726 14.2288 60.7976 9.15384 54.5851 9.15384C53.3601 9.15384 52.1935 9.35801 51.0851 9.70801C53.0976 12.683 54.2643 16.2705 54.2643 20.1497C54.2935 24.0872 53.0685 27.8788 50.7643 31.029C51.9601 31.4665 53.2143 31.6998 54.5268 31.6998Z" fill="var(--fill-0, #0E888D)"/>
<path id="Vector_3" fill-rule="evenodd" clip-rule="evenodd" d="M25.8852 37.6787C23.2602 36.5703 20.1393 35.8995 16.8435 35.8995C7.77265 35.8995 0.101827 40.887 0.101827 46.8078C0.101827 51.737 5.23515 53.5162 10.0185 54.1578C10.1643 46.7203 16.6685 40.362 25.8852 37.6787Z" fill="var(--fill-0, #0E888D)"/>
<path id="Vector_4" fill-rule="evenodd" clip-rule="evenodd" d="M16.8435 31.6998H16.931C18.2435 31.6998 19.4977 31.4665 20.6935 31.029C18.4769 27.9955 17.1644 24.233 17.1644 20.1497C17.1644 16.2705 18.331 12.683 20.3435 9.70801C19.2352 9.35801 18.0685 9.15384 16.8435 9.15384C10.631 9.15384 5.58518 14.2288 5.58518 20.4413C5.58518 26.6247 10.631 31.6998 16.8435 31.6998Z" fill="var(--fill-0, #0E888D)"/>
<path id="Vector_5" fill-rule="evenodd" clip-rule="evenodd" d="M35.7131 40.6744C24.1603 40.6744 14.3982 46.9627 14.3982 54.406C14.3982 64.031 30.4398 64.031 35.7131 64.031C44.8656 64.031 57.034 63.0394 57.034 54.4673C57.034 46.989 47.269 40.6744 35.7131 40.6744Z" fill="var(--fill-0, #0E888D)"/>
<path id="Vector_6" fill-rule="evenodd" clip-rule="evenodd" d="M35.716 34.3423H35.8123C39.5894 34.3306 43.136 32.846 45.796 30.1656C48.459 27.4853 49.9173 23.9299 49.9027 20.1587C49.9027 12.3332 43.5415 5.96908 35.716 5.96908C27.8936 5.96908 21.5323 12.3332 21.5323 20.1587C21.5323 27.9782 27.8936 34.3423 35.716 34.3423Z" fill="var(--fill-0, #0E888D)"/>
</g>
<defs>
<clipPath id="clip0_0_4">
<rect width="70" height="70" fill="white"/>
</clipPath>
</defs>
</svg>
