<svg preserveAspectRatio="none" width="100%" height="100%" overflow="visible" style="display: block;" viewBox="0 0 70 70" fill="none" xmlns="http://www.w3.org/2000/svg">
<g id="mage:dashboard-chart-fill">
<path id="Vector" d="M44.3622 5.83354H25.5205C20.3014 5.84125 15.2983 7.91794 11.6078 11.6084C7.9174 15.2988 5.84071 20.302 5.83299 25.521V44.4794C5.84071 49.6985 7.9174 54.7016 11.6078 58.392C15.2983 62.0825 20.3014 64.1592 25.5205 64.1669H44.4788C49.6979 64.1592 54.701 62.0825 58.3915 58.392C62.0819 54.7016 64.1586 49.6985 64.1663 44.4794V25.521C64.1625 22.9269 63.6468 20.359 62.6488 17.9645C61.6507 15.57 60.19 13.396 58.3502 11.5671C56.5105 9.73818 54.3279 8.29029 51.9275 7.30642C49.5272 6.32254 46.9563 5.82202 44.3622 5.83354ZM51.2747 27.4752L44.1288 38.296C43.3803 39.4004 42.2334 40.1722 40.9284 40.4495C39.6234 40.7268 38.2617 40.4881 37.1288 39.7835L30.158 35.3794C30.0804 35.3429 29.9958 35.3241 29.9101 35.3241C29.8244 35.3241 29.7397 35.3429 29.6622 35.3794C29.478 35.4016 29.3101 35.496 29.1955 35.6419L22.0497 45.0919C21.7057 45.5154 21.2158 45.7951 20.6761 45.8761C20.1365 45.957 19.5861 45.8334 19.133 45.5294C18.7094 45.1854 18.4297 44.6955 18.3488 44.1559C18.2679 43.6162 18.3915 43.0658 18.6955 42.6127L25.8413 33.1044C26.6105 32.0813 27.736 31.3846 28.9947 31.1523C30.2534 30.92 31.5535 31.1691 32.6372 31.8502L39.608 36.2544C39.6939 36.2979 39.7888 36.3206 39.8851 36.3206C39.9814 36.3206 40.0763 36.2979 40.1622 36.2544C40.251 36.2377 40.3355 36.2033 40.4107 36.1532C40.4859 36.1031 40.5501 36.0383 40.5997 35.9627L47.7747 25.1419C48.0957 24.6584 48.5956 24.3223 49.1645 24.2074C49.7333 24.0925 50.3245 24.2083 50.808 24.5294C51.2915 24.8504 51.6276 25.3503 51.7425 25.9192C51.8573 26.488 51.7415 27.0792 51.4205 27.5627L51.2747 27.4752Z" fill="var(--fill-0, #0E888D)"/>
</g>
</svg>
