<svg preserveAspectRatio="none" width="100%" height="100%" overflow="visible" style="display: block;" viewBox="0 0 70 70" fill="none" xmlns="http://www.w3.org/2000/svg">
<g id="mage:dashboard-chart-fill">
<path id="Vector" d="M44.3625 5.83333H25.5208C20.3018 5.84105 15.2986 7.91774 11.6082 11.6082C7.91774 15.2986 5.84105 20.3018 5.83333 25.5208V44.4792C5.84105 49.6982 7.91774 54.7014 11.6082 58.3918C15.2986 62.0823 20.3018 64.159 25.5208 64.1667H44.4792C49.6983 64.159 54.7014 62.0823 58.3918 58.3918C62.0823 54.7014 64.159 49.6982 64.1667 44.4792V25.5208C64.1629 22.9267 63.6472 20.3588 62.6491 17.9643C61.6511 15.5698 60.1903 13.3958 58.3506 11.5669C56.5108 9.73797 54.3282 8.29009 51.9279 7.30621C49.5275 6.32234 46.9566 5.82182 44.3625 5.83333ZM51.275 27.475L44.1292 38.2958C43.3807 39.4002 42.2337 40.172 40.9287 40.4493C39.6237 40.7266 38.2621 40.4879 37.1292 39.7833L30.1583 35.3792C30.0808 35.3427 29.9961 35.3239 29.9104 35.3239C29.8247 35.3239 29.7401 35.3427 29.6625 35.3792C29.4783 35.4014 29.3105 35.4958 29.1958 35.6417L22.05 45.0917C21.706 45.5152 21.2161 45.7949 20.6765 45.8759C20.1369 45.9568 19.5865 45.8332 19.1333 45.5292C18.7098 45.1852 18.4301 44.6953 18.3491 44.1556C18.2682 43.616 18.3918 43.0656 18.6958 42.6125L25.8417 33.1042C26.6109 32.0811 27.7363 31.3844 28.9951 31.1521C30.2538 30.9198 31.5538 31.1689 32.6375 31.85L39.6083 36.2542C39.6942 36.2977 39.7891 36.3204 39.8854 36.3204C39.9817 36.3204 40.0766 36.2977 40.1625 36.2542C40.2513 36.2375 40.3358 36.2031 40.411 36.153C40.4862 36.1029 40.5505 36.0381 40.6 35.9625L47.775 25.1417C48.096 24.6582 48.596 24.3221 49.1648 24.2072C49.7337 24.0923 50.3249 24.2081 50.8083 24.5292C51.2918 24.8502 51.6279 25.3501 51.7428 25.919C51.8577 26.4878 51.7419 27.079 51.4208 27.5625L51.275 27.475Z" fill="var(--fill-0, #0E888D)"/>
</g>
</svg>
