<svg preserveAspectRatio="none" width="100%" height="100%" overflow="visible" style="display: block;" viewBox="0 0 70 70" fill="none" xmlns="http://www.w3.org/2000/svg">
<g id="game-icons:ecology">
<path id="Vector" d="M35 3.14453C25.1987 3.14453 17.2266 11.1166 17.2266 20.918C17.2266 30.7193 25.1987 38.6914 35 38.6914C44.8014 38.6914 52.7735 30.7193 52.7735 20.918C52.7735 11.1166 44.8014 3.14453 35 3.14453ZM33.8612 7.40018L32.2514 12.219L39.3806 11.4721L38.6716 9.08537L40.671 9.63895V12.2868L43.794 12.4905L43.1832 10.1143L44.8248 9.16357C48.1811 11.9701 50.3125 16.1898 50.3125 20.918C50.3125 23.1968 49.8169 25.3574 48.9282 27.2989L45.3558 27.9035V32.2071C44.6744 32.8325 43.9377 33.3949 43.1547 33.8874L41.6213 31.5019L38.6337 32.3168L39.4732 35.5688C38.0229 36.0087 36.5155 36.2317 35 36.2305C30.76 36.2305 26.9286 34.5167 24.1586 31.7425L26.8875 31.3663L28.7209 27.7676L22.8814 24.8481L27.0233 21.3172L23.4249 18.3299L19.7481 19.5553C20.1736 14.7089 22.8452 10.5178 26.7199 8.02744L27.4987 14.2558L33.8612 7.40018ZM39.1768 16.1798L34.2317 19.3484L38.5528 23.1893L41.6737 22.2771L41.3855 26.022L47.0989 24.5816L44.9382 19.6846L41.4816 19.7326L44.5543 17.092L39.1769 16.1798H39.1768ZM34.0398 21.701L31.3991 22.8531L33.2715 24.2454L34.0398 21.701ZM27.838 22.1322L26.0049 24.3046L31.0836 27.8741L27.838 22.1322ZM36.0083 23.3332L34.136 26.8383L38.649 29.9109L37.0645 27.6542L39.033 25.3017L36.0083 23.3332ZM8.22639 27.0787C7.0208 27.0599 5.78692 28.5953 5.77981 32.5313C5.76914 38.5678 5.18426 40.2717 7.97784 47.0988C10.0263 52.1052 10.9449 55.9531 17.5 59.0625C18.2766 61.7999 17.9666 62.4436 17.4399 64.7828C16.9482 66.9668 22.0094 67.3682 25.716 65.5283C29.6933 63.3589 29.3596 57.3858 28.649 53.3352C27.8227 48.6247 25.2229 47.6457 22.9693 45.6336C20.6294 42.2874 20.0848 36.2255 16.2898 33.7802C15.4972 33.2696 11.454 32.7511 17.0092 46.6238C9.68504 44.8098 11.0191 36.401 10.4895 30.1752C10.3317 28.3212 9.29006 27.0949 8.22639 27.0785V27.0787ZM61.7737 27.0787C60.71 27.0951 59.6683 28.3212 59.5105 30.1753C58.9809 36.401 60.315 44.8098 52.9908 46.6238C58.5461 32.751 54.5028 33.2696 53.7103 33.7802C49.9152 36.2255 49.3708 42.2874 47.0307 45.6337C44.7773 47.6457 42.1772 48.6247 41.351 53.3352C40.6405 57.3858 40.3068 63.3589 44.284 65.5283C47.9906 67.368 53.0518 66.9668 52.56 64.7828C52.0334 62.4436 51.7235 61.7999 52.5 59.0625C59.0551 55.9531 59.9738 52.1052 62.0222 47.0988C64.8158 40.2717 64.2309 38.5678 64.2202 32.5314C64.2131 28.5953 62.9792 27.0599 61.7737 27.0787Z" fill="var(--fill-0, #0E888D)"/>
</g>
</svg>
