<svg preserveAspectRatio="none" width="100%" height="100%" overflow="visible" style="display: block;" viewBox="0 0 70 70" fill="none" xmlns="http://www.w3.org/2000/svg">
<g id="Star - Iconly Pro">
<path id="Vector" fill-rule="evenodd" clip-rule="evenodd" d="M63.0729 33.5869C50.3563 30.3085 40.4192 20.3715 37.1408 7.65479L35.7292 2.1802L34.3175 7.65479C31.0392 20.3715 21.1022 30.3085 8.38556 33.5869L2.91097 34.9985L8.38556 36.4131C21.1022 39.6915 31.0392 49.6285 34.3175 62.3423L35.7292 67.8198L37.1408 62.3423C40.4192 49.6285 50.3563 39.6915 63.0729 36.4131L68.5475 34.9985L63.0729 33.5869Z" fill="var(--fill-0, #0E888D)"/>
<path id="Vector_2" fill-rule="evenodd" clip-rule="evenodd" d="M55.4199 22.5952C55.4199 19.206 59.1357 15.3064 62.7086 15.3064C59.2699 15.3064 55.4199 11.366 55.4199 8.02057C55.4199 11.366 51.6049 15.3064 48.134 15.3064C51.4736 15.3064 55.4199 19.1856 55.4199 22.5952Z" fill="var(--fill-0, #0E888D)"/>
</g>
</svg>
