<svg viewBox="0 0 267 267" fill="none" xmlns="http://www.w3.org/2000/svg">
  <!-- Whiteboard -->
  <rect x="70" y="25" width="130" height="95" rx="5" fill="white" stroke="#e0e0e0" stroke-width="2"/>
  <!-- Board stand -->
  <rect x="70" y="120" width="130" height="8" fill="#8B4513"/>
  <rect x="90" y="128" width="8" height="30" fill="#8B4513"/>
  <rect x="172" y="128" width="8" height="30" fill="#8B4513"/>

  <!-- Recycling symbol on board -->
  <g transform="translate(135, 70)">
    <path d="M0 -25 L-22 15 L22 15 Z" fill="none" stroke="#0e888d" stroke-width="5"/>
    <path d="M-14 -12 L0 -32 L14 -12" fill="none" stroke="#fea629" stroke-width="5"/>
    <path d="M-25 8 L-14 25 L5 12" fill="none" stroke="#0e888d" stroke-width="5"/>
    <path d="M25 8 L14 25 L-5 12" fill="none" stroke="#fea629" stroke-width="5"/>
  </g>

  <!-- "a" letter card -->
  <rect x="205" y="35" width="40" height="50" rx="5" fill="white" stroke="#e0e0e0" stroke-width="2"/>
  <text x="215" y="72" font-family="Georgia" font-size="32" fill="#415861">a</text>

  <!-- Shadow -->
  <ellipse cx="133" cy="235" rx="100" ry="12" fill="#e0e0e0" opacity="0.5"/>

  <!-- Teacher -->
  <!-- Head -->
  <circle cx="55" cy="95" r="22" fill="#ffcba4"/>
  <!-- Hair -->
  <path d="M33 90 Q38 65 55 62 Q72 65 77 90 L77 100 Q70 92 55 92 Q40 92 33 100 Z" fill="#2d2d2d"/>
  <ellipse cx="45" cy="105" rx="5" ry="8" fill="#2d2d2d"/>
  <!-- Face -->
  <circle cx="48" cy="93" r="2.5" fill="#2d2d2d"/>
  <circle cx="62" cy="93" r="2.5" fill="#2d2d2d"/>
  <path d="M50 103 Q55 107 60 103" stroke="#2d2d2d" stroke-width="1.5" fill="none"/>
  <!-- Glasses -->
  <circle cx="48" cy="93" r="6" stroke="#333" stroke-width="1.5" fill="none"/>
  <circle cx="62" cy="93" r="6" stroke="#333" stroke-width="1.5" fill="none"/>
  <line x1="54" y1="93" x2="56" y2="93" stroke="#333" stroke-width="1.5"/>

  <!-- Body -->
  <path d="M35 120 L40 118 L45 180 L65 180 L70 118 L75 120 L78 160 L72 165 L70 185 L40 185 L38 165 L32 160 Z" fill="#0e888d"/>
  <!-- Legs -->
  <rect x="42" y="185" width="10" height="40" rx="3" fill="#2d2d2d"/>
  <rect x="58" y="185" width="10" height="40" rx="3" fill="#2d2d2d"/>
  <!-- Shoes -->
  <ellipse cx="47" cy="228" rx="12" ry="5" fill="#1a1a1a"/>
  <ellipse cx="63" cy="228" rx="12" ry="5" fill="#1a1a1a"/>

  <!-- Arm with pointer -->
  <path d="M75 125 L105 95 L130 60" stroke="#ffcba4" stroke-width="10" stroke-linecap="round"/>
  <circle cx="75" cy="125" r="6" fill="#ffcba4"/>
  <!-- Pointer stick -->
  <line x1="100" y1="90" x2="140" y2="55" stroke="#8B4513" stroke-width="3"/>

  <!-- Student -->
  <!-- Head -->
  <circle cx="195" cy="135" r="18" fill="#ffcba4"/>
  <!-- Hair -->
  <path d="M177 130 Q182 112 195 110 Q208 112 213 130 Q210 120 195 118 Q180 120 177 130" fill="#fea629"/>
  <!-- Face -->
  <circle cx="190" cy="133" r="2" fill="#2d2d2d"/>
  <circle cx="200" cy="133" r="2" fill="#2d2d2d"/>
  <path d="M191 142 Q195 145 199 142" stroke="#2d2d2d" stroke-width="1.5" fill="none"/>

  <!-- Body -->
  <rect x="180" y="155" width="30" height="45" rx="5" fill="#415861"/>
  <!-- Arms -->
  <path d="M175 160 L165 180 L170 185 L182 165" fill="#ffcba4"/>
  <path d="M215 160 L225 175 L220 180 L210 165" fill="#ffcba4"/>
  <!-- Legs -->
  <rect x="183" y="200" width="8" height="28" rx="2" fill="#2d2d2d"/>
  <rect x="199" y="200" width="8" height="28" rx="2" fill="#2d2d2d"/>
  <!-- Shoes -->
  <ellipse cx="187" cy="230" rx="8" ry="4" fill="#0e888d"/>
  <ellipse cx="203" cy="230" rx="8" ry="4" fill="#0e888d"/>

  <!-- Book in student's hands -->
  <rect x="172" y="175" width="20" height="15" rx="2" fill="#fea629"/>
  <line x1="182" y1="175" x2="182" y2="190" stroke="#d4a017"/>

  <!-- Desk -->
  <rect x="160" y="195" width="70" height="6" fill="#8B4513"/>
  <rect x="165" y="201" width="6" height="28" fill="#6B4513"/>
  <rect x="219" y="201" width="6" height="28" fill="#6B4513"/>

  <!-- Globe on desk -->
  <circle cx="240" cy="115" r="18" fill="#4fc3f7"/>
  <ellipse cx="240" cy="115" rx="18" ry="7" fill="none" stroke="#0e888d" stroke-width="2"/>
  <ellipse cx="240" cy="115" rx="7" ry="18" fill="none" stroke="#0e888d" stroke-width="2"/>
  <line x1="240" y1="97" x2="240" y2="133" stroke="#0e888d" stroke-width="2"/>
  <!-- Globe stand -->
  <rect x="235" y="133" width="10" height="5" fill="#8B4513"/>
  <rect x="237" y="138" width="6" height="10" fill="#8B4513"/>

  <!-- Books stack -->
  <rect x="210" y="140" width="25" height="6" rx="1" fill="#c41e3a"/>
  <rect x="212" y="134" width="22" height="6" rx="1" fill="#0e888d"/>
  <rect x="214" y="128" width="18" height="6" rx="1" fill="#fea629"/>
</svg>
