<svg viewBox="0 0 267 267" fill="none" xmlns="http://www.w3.org/2000/svg">
  <!-- Sky/background elements -->
  <ellipse cx="60" cy="50" rx="8" ry="5" fill="#b0bec5" opacity="0.5"/>
  <ellipse cx="75" cy="45" rx="10" ry="6" fill="#b0bec5" opacity="0.5"/>
  <ellipse cx="200" cy="40" rx="12" ry="7" fill="#b0bec5" opacity="0.5"/>
  <ellipse cx="220" cy="45" rx="8" ry="5" fill="#b0bec5" opacity="0.5"/>

  <!-- Trees in background -->
  <ellipse cx="40" cy="90" rx="25" ry="35" fill="#0e888d" opacity="0.15"/>
  <rect x="35" y="120" width="10" height="40" fill="#8B4513" opacity="0.2"/>
  <ellipse cx="230" cy="85" rx="22" ry="30" fill="#0e888d" opacity="0.15"/>
  <rect x="225" y="110" width="10" height="35" fill="#8B4513" opacity="0.2"/>

  <!-- Fence -->
  <rect x="10" y="140" width="5" height="70" fill="#e0e0e0" opacity="0.3"/>
  <rect x="25" y="140" width="5" height="70" fill="#e0e0e0" opacity="0.3"/>
  <rect x="40" y="140" width="5" height="70" fill="#e0e0e0" opacity="0.3"/>
  <rect x="8" y="155" width="40" height="5" fill="#e0e0e0" opacity="0.3"/>
  <rect x="8" y="180" width="40" height="5" fill="#e0e0e0" opacity="0.3"/>

  <!-- Shadow -->
  <ellipse cx="150" cy="230" rx="90" ry="12" fill="#e0e0e0" opacity="0.5"/>

  <!-- Trash bag -->
  <path d="M55 160 Q45 165 48 200 Q50 225 70 228 Q90 230 95 200 Q98 165 88 160 Q75 150 55 160" fill="#78909c"/>
  <path d="M55 160 Q70 155 88 160" stroke="#546e7a" stroke-width="3" fill="none"/>
  <path d="M62 175 Q70 172 78 175" stroke="#546e7a" stroke-width="2" fill="none" opacity="0.5"/>
  <!-- Trash pieces sticking out -->
  <rect x="58" y="152" width="8" height="12" rx="1" fill="#4fc3f7" transform="rotate(-15 62 158)"/>
  <rect x="72" y="150" width="6" height="10" rx="1" fill="#ffc107" transform="rotate(10 75 155)"/>

  <!-- Recycling bin 1 (teal) -->
  <rect x="100" y="115" width="55" height="90" rx="8" fill="#0e888d"/>
  <rect x="95" y="105" width="65" height="15" rx="4" fill="#0b6d71"/>
  <!-- Lid handle -->
  <rect x="120" y="98" width="15" height="10" rx="3" fill="#085255"/>
  <!-- Recycling symbol -->
  <g transform="translate(127, 160)">
    <path d="M0 -15 L-13 10 L13 10 Z" fill="none" stroke="white" stroke-width="4"/>
    <path d="M-8 -8 L0 -20 L8 -8" fill="none" stroke="white" stroke-width="4"/>
    <path d="M-15 5 L-8 15 L2 8" fill="none" stroke="white" stroke-width="4"/>
    <path d="M15 5 L8 15 L-2 8" fill="none" stroke="white" stroke-width="4"/>
  </g>

  <!-- Recycling bin 2 (dark) -->
  <rect x="165" y="135" width="50" height="75" rx="6" fill="#37474f"/>
  <rect x="160" y="125" width="60" height="14" rx="4" fill="#263238"/>
  <!-- Lid handle -->
  <rect x="182" y="118" width="12" height="10" rx="2" fill="#1a1a1a"/>
  <!-- Recycling symbol -->
  <g transform="translate(190, 175)">
    <path d="M0 -12 L-10 8 L10 8 Z" fill="none" stroke="#0e888d" stroke-width="3"/>
    <path d="M-6 -6 L0 -15 L6 -6" fill="none" stroke="#0e888d" stroke-width="3"/>
    <path d="M-12 4 L-6 12 L2 6" fill="none" stroke="#0e888d" stroke-width="3"/>
    <path d="M12 4 L6 12 L-2 6" fill="none" stroke="#0e888d" stroke-width="3"/>
  </g>

  <!-- Ground line -->
  <rect x="0" y="225" width="267" height="42" fill="#eceff1"/>

  <!-- Small items on ground -->
  <ellipse cx="230" cy="220" rx="8" ry="4" fill="#ffc107" opacity="0.5"/>
  <rect x="200" y="215" width="10" height="12" rx="2" fill="#4fc3f7" opacity="0.4"/>
</svg>
